%TF.GenerationSoftware,KiCad,Pcbnew,9.0.4*%
%TF.CreationDate,2025-09-14T19:43:05+01:00*%
%TF.ProjectId,keyboard,6b657962-6f61-4726-942e-6b696361645f,rev?*%
%TF.SameCoordinates,Original*%
%TF.FileFunction,Copper,L2,Bot*%
%TF.FilePolarity,Positive*%
%FSLAX46Y46*%
G04 Gerber Fmt 4.6, Leading zero omitted, Abs format (unit mm)*
G04 Created by KiCad (PCBNEW 9.0.4) date 2025-09-14 19:43:05*
%MOMM*%
%LPD*%
G01*
G04 APERTURE LIST*
G04 Aperture macros list*
%AMRoundRect*
0 Rectangle with rounded corners*
0 $1 Rounding radius*
0 $2 $3 $4 $5 $6 $7 $8 $9 X,Y pos of 4 corners*
0 Add a 4 corners polygon primitive as box body*
4,1,4,$2,$3,$4,$5,$6,$7,$8,$9,$2,$3,0*
0 Add four circle primitives for the rounded corners*
1,1,$1+$1,$2,$3*
1,1,$1+$1,$4,$5*
1,1,$1+$1,$6,$7*
1,1,$1+$1,$8,$9*
0 Add four rect primitives between the rounded corners*
20,1,$1+$1,$2,$3,$4,$5,0*
20,1,$1+$1,$4,$5,$6,$7,0*
20,1,$1+$1,$6,$7,$8,$9,0*
20,1,$1+$1,$8,$9,$2,$3,0*%
%AMHorizOval*
0 Thick line with rounded ends*
0 $1 width*
0 $2 $3 position (X,Y) of the first rounded end (center of the circle)*
0 $4 $5 position (X,Y) of the second rounded end (center of the circle)*
0 Add line between two ends*
20,1,$1,$2,$3,$4,$5,0*
0 Add two circle primitives to create the rounded ends*
1,1,$1,$2,$3*
1,1,$1,$4,$5*%
G04 Aperture macros list end*
%TA.AperFunction,ComponentPad*%
%ADD10HorizOval,2.250000X0.655001X0.730000X-0.655001X-0.730000X0*%
%TD*%
%TA.AperFunction,ComponentPad*%
%ADD11C,2.250000*%
%TD*%
%TA.AperFunction,ComponentPad*%
%ADD12HorizOval,2.250000X0.020000X0.290000X-0.020000X-0.290000X0*%
%TD*%
%TA.AperFunction,ComponentPad*%
%ADD13C,1.550000*%
%TD*%
%TA.AperFunction,ComponentPad*%
%ADD14RoundRect,1.200000X1.300000X-0.000010X1.300000X0.000010X-1.300000X0.000010X-1.300000X-0.000010X0*%
%TD*%
%TA.AperFunction,ComponentPad*%
%ADD15R,1.550000X1.550000*%
%TD*%
%TA.AperFunction,SMDPad,CuDef*%
%ADD16R,1.700000X0.820000*%
%TD*%
%TA.AperFunction,SMDPad,CuDef*%
%ADD17RoundRect,0.205000X-0.645000X-0.205000X0.645000X-0.205000X0.645000X0.205000X-0.645000X0.205000X0*%
%TD*%
%TA.AperFunction,SMDPad,CuDef*%
%ADD18RoundRect,0.205000X0.645000X0.205000X-0.645000X0.205000X-0.645000X-0.205000X0.645000X-0.205000X0*%
%TD*%
%TA.AperFunction,SMDPad,CuDef*%
%ADD19R,1.200000X0.900000*%
%TD*%
%TA.AperFunction,SMDPad,CuDef*%
%ADD20RoundRect,0.250000X-0.450000X0.262500X-0.450000X-0.262500X0.450000X-0.262500X0.450000X0.262500X0*%
%TD*%
%TA.AperFunction,SMDPad,CuDef*%
%ADD21R,1.400000X1.200000*%
%TD*%
%TA.AperFunction,SMDPad,CuDef*%
%ADD22RoundRect,0.250000X0.250000X0.475000X-0.250000X0.475000X-0.250000X-0.475000X0.250000X-0.475000X0*%
%TD*%
%TA.AperFunction,SMDPad,CuDef*%
%ADD23R,0.600000X1.240000*%
%TD*%
%TA.AperFunction,SMDPad,CuDef*%
%ADD24R,0.300000X1.240000*%
%TD*%
%TA.AperFunction,ComponentPad*%
%ADD25O,1.000000X1.800000*%
%TD*%
%TA.AperFunction,ComponentPad*%
%ADD26O,1.000000X2.100000*%
%TD*%
%TA.AperFunction,SMDPad,CuDef*%
%ADD27RoundRect,0.250000X-0.262500X-0.450000X0.262500X-0.450000X0.262500X0.450000X-0.262500X0.450000X0*%
%TD*%
%TA.AperFunction,SMDPad,CuDef*%
%ADD28RoundRect,0.250000X0.450000X-0.262500X0.450000X0.262500X-0.450000X0.262500X-0.450000X-0.262500X0*%
%TD*%
%TA.AperFunction,SMDPad,CuDef*%
%ADD29RoundRect,0.058800X0.691200X0.186200X-0.691200X0.186200X-0.691200X-0.186200X0.691200X-0.186200X0*%
%TD*%
%TA.AperFunction,SMDPad,CuDef*%
%ADD30RoundRect,0.058800X-0.691200X-0.186200X0.691200X-0.186200X0.691200X0.186200X-0.691200X0.186200X0*%
%TD*%
%TA.AperFunction,SMDPad,CuDef*%
%ADD31R,1.800000X1.100000*%
%TD*%
%TA.AperFunction,SMDPad,CuDef*%
%ADD32RoundRect,0.250000X-0.250000X-0.475000X0.250000X-0.475000X0.250000X0.475000X-0.250000X0.475000X0*%
%TD*%
%TA.AperFunction,SMDPad,CuDef*%
%ADD33RoundRect,0.028800X-0.301200X-0.131200X0.301200X-0.131200X0.301200X0.131200X-0.301200X0.131200X0*%
%TD*%
%TA.AperFunction,SMDPad,CuDef*%
%ADD34RoundRect,0.046200X-0.283800X-0.163800X0.283800X-0.163800X0.283800X0.163800X-0.283800X0.163800X0*%
%TD*%
%TA.AperFunction,SMDPad,CuDef*%
%ADD35RoundRect,0.075000X-0.075000X0.700000X-0.075000X-0.700000X0.075000X-0.700000X0.075000X0.700000X0*%
%TD*%
%TA.AperFunction,SMDPad,CuDef*%
%ADD36RoundRect,0.075000X-0.700000X0.075000X-0.700000X-0.075000X0.700000X-0.075000X0.700000X0.075000X0*%
%TD*%
%TA.AperFunction,SMDPad,CuDef*%
%ADD37RoundRect,0.250000X0.262500X0.450000X-0.262500X0.450000X-0.262500X-0.450000X0.262500X-0.450000X0*%
%TD*%
%TA.AperFunction,SMDPad,CuDef*%
%ADD38R,0.900000X1.200000*%
%TD*%
%TA.AperFunction,SMDPad,CuDef*%
%ADD39RoundRect,0.250000X0.475000X-0.250000X0.475000X0.250000X-0.475000X0.250000X-0.475000X-0.250000X0*%
%TD*%
%TA.AperFunction,SMDPad,CuDef*%
%ADD40RoundRect,0.225000X0.375000X-0.225000X0.375000X0.225000X-0.375000X0.225000X-0.375000X-0.225000X0*%
%TD*%
%TA.AperFunction,ViaPad*%
%ADD41C,1.500000*%
%TD*%
%TA.AperFunction,ViaPad*%
%ADD42C,1.000000*%
%TD*%
%TA.AperFunction,Conductor*%
%ADD43C,0.250000*%
%TD*%
%TA.AperFunction,Conductor*%
%ADD44C,0.304800*%
%TD*%
%TA.AperFunction,Conductor*%
%ADD45C,0.152400*%
%TD*%
%TA.AperFunction,Conductor*%
%ADD46C,0.200000*%
%TD*%
G04 APERTURE END LIST*
D10*
%TO.P,MX_F9,1,COL*%
%TO.N,COL9*%
X209570001Y-38005000D03*
D11*
X210225000Y-37275000D03*
D12*
%TO.P,MX_F9,2,ROW*%
%TO.N,Net-(D55-A)*%
X215245000Y-36485000D03*
D11*
X215265000Y-36195000D03*
%TD*%
D10*
%TO.P,MX_I1,1,COL*%
%TO.N,COL8*%
X200045001Y-76105000D03*
D11*
X200700000Y-75375000D03*
D12*
%TO.P,MX_I1,2,ROW*%
%TO.N,Net-(D51-A)*%
X205720000Y-74585000D03*
D11*
X205740000Y-74295000D03*
%TD*%
D10*
%TO.P,MX_]1,1,COL*%
%TO.N,COL12*%
X276245001Y-76105000D03*
D11*
X276900000Y-75375000D03*
D12*
%TO.P,MX_]1,2,ROW*%
%TO.N,Net-(D75-A)*%
X281920000Y-74585000D03*
D11*
X281940000Y-74295000D03*
%TD*%
D10*
%TO.P,MX_Left1,1,COL*%
%TO.N,COL13*%
X304820001Y-133255000D03*
D11*
X305475000Y-132525000D03*
D12*
%TO.P,MX_Left1,2,ROW*%
%TO.N,Net-(D48-A)*%
X310495000Y-131735000D03*
D11*
X310515000Y-131445000D03*
%TD*%
D10*
%TO.P,MX_R1,1,COL*%
%TO.N,COL4*%
X123845001Y-76105000D03*
D11*
X124500000Y-75375000D03*
D12*
%TO.P,MX_R1,2,ROW*%
%TO.N,Net-(D27-A)*%
X129520000Y-74585000D03*
D11*
X129540000Y-74295000D03*
%TD*%
D10*
%TO.P,MX_F4,1,COL*%
%TO.N,COL4*%
X114320001Y-38036250D03*
D11*
X114975000Y-37306250D03*
D12*
%TO.P,MX_F4,2,ROW*%
%TO.N,Net-(D25-A)*%
X119995000Y-36516250D03*
D11*
X120015000Y-36226250D03*
%TD*%
D10*
%TO.P,MX_F12,1,COL*%
%TO.N,COL12*%
X266720001Y-38005000D03*
D11*
X267375000Y-37275000D03*
D12*
%TO.P,MX_F12,2,ROW*%
%TO.N,Net-(D73-A)*%
X272395000Y-36485000D03*
D11*
X272415000Y-36195000D03*
%TD*%
D10*
%TO.P,MX_N1,1,COL*%
%TO.N,COL6*%
X176232501Y-114205000D03*
D11*
X176887500Y-113475000D03*
D12*
%TO.P,MX_N1,2,ROW*%
%TO.N,Net-(D41-A)*%
X181907500Y-112685000D03*
D11*
X181927500Y-112395000D03*
%TD*%
D10*
%TO.P,MX_T1,1,COL*%
%TO.N,COL5*%
X142895001Y-76105000D03*
D11*
X143550000Y-75375000D03*
D12*
%TO.P,MX_T1,2,ROW*%
%TO.N,Net-(D33-A)*%
X148570000Y-74585000D03*
D11*
X148590000Y-74295000D03*
%TD*%
D10*
%TO.P,MX_Del1,1,COL*%
%TO.N,COL14*%
X323870001Y-76105000D03*
D11*
X324525000Y-75375000D03*
D12*
%TO.P,MX_Del1,2,ROW*%
%TO.N,Net-(D87-A)*%
X329545000Y-74585000D03*
D11*
X329565000Y-74295000D03*
%TD*%
D10*
%TO.P,MX_LAlt1,1,COL*%
%TO.N,COL2*%
X88126251Y-133255000D03*
D11*
X88781250Y-132525000D03*
D12*
%TO.P,MX_LAlt1,2,ROW*%
%TO.N,Net-(D18-A)*%
X93801250Y-131735000D03*
D11*
X93821250Y-131445000D03*
%TD*%
D10*
%TO.P,MX_Ins1,1,COL*%
%TO.N,COL14*%
X323870001Y-57055000D03*
D11*
X324525000Y-56325000D03*
D12*
%TO.P,MX_Ins1,2,ROW*%
%TO.N,Net-(D86-A)*%
X329545000Y-55535000D03*
D11*
X329565000Y-55245000D03*
%TD*%
D10*
%TO.P,MX_9,1,COL*%
%TO.N,COL9*%
X209570001Y-57055000D03*
D11*
X210225000Y-56325000D03*
D12*
%TO.P,MX_9,2,ROW*%
%TO.N,Net-(D56-A)*%
X215245000Y-55535000D03*
D11*
X215265000Y-55245000D03*
%TD*%
D10*
%TO.P,MX_Y1,1,COL*%
%TO.N,COL6*%
X161945001Y-76105000D03*
D11*
X162600000Y-75375000D03*
D12*
%TO.P,MX_Y1,2,ROW*%
%TO.N,Net-(D39-A)*%
X167620000Y-74585000D03*
D11*
X167640000Y-74295000D03*
%TD*%
D10*
%TO.P,MX_F13,1,COL*%
%TO.N,COL4*%
X128607501Y-95155000D03*
D11*
X129262500Y-94425000D03*
D12*
%TO.P,MX_F13,2,ROW*%
%TO.N,Net-(D28-A)*%
X134282500Y-93635000D03*
D11*
X134302500Y-93345000D03*
%TD*%
D10*
%TO.P,MX_F6,1,COL*%
%TO.N,COL6*%
X152420001Y-38005000D03*
D11*
X153075000Y-37275000D03*
D12*
%TO.P,MX_F6,2,ROW*%
%TO.N,Net-(D37-A)*%
X158095000Y-36485000D03*
D11*
X158115000Y-36195000D03*
%TD*%
D10*
%TO.P,MX_RShift1,1,COL*%
%TO.N,COL13*%
X288151251Y-114205000D03*
D11*
X288806250Y-113475000D03*
D12*
%TO.P,MX_RShift1,2,ROW*%
%TO.N,Net-(D71-A)*%
X293826250Y-112685000D03*
D11*
X293846250Y-112395000D03*
%TD*%
D10*
%TO.P,MX_3,1,COL*%
%TO.N,COL3*%
X95270001Y-57055000D03*
D11*
X95925000Y-56325000D03*
D12*
%TO.P,MX_3,2,ROW*%
%TO.N,Net-(D20-A)*%
X100945000Y-55535000D03*
D11*
X100965000Y-55245000D03*
%TD*%
D10*
%TO.P,MX_Tilda1,1,COL*%
%TO.N,COL0*%
X38120001Y-57086250D03*
D11*
X38775000Y-56356250D03*
D12*
%TO.P,MX_Tilda1,2,ROW*%
%TO.N,Net-(D3-A)*%
X43795000Y-55566250D03*
D11*
X43815000Y-55276250D03*
%TD*%
D10*
%TO.P,MX_RCtrl1,1,COL*%
%TO.N,COL12*%
X273863751Y-133255000D03*
D11*
X274518750Y-132525000D03*
D12*
%TO.P,MX_RCtrl1,2,ROW*%
%TO.N,Net-(D42-A)*%
X279538750Y-131735000D03*
D11*
X279558750Y-131445000D03*
%TD*%
D10*
%TO.P,MX_W1,1,COL*%
%TO.N,COL2*%
X85745001Y-76105000D03*
D11*
X86400000Y-75375000D03*
D12*
%TO.P,MX_W1,2,ROW*%
%TO.N,Net-(D15-A)*%
X91420000Y-74585000D03*
D11*
X91440000Y-74295000D03*
%TD*%
D10*
%TO.P,MX_LCtrl1,1,COL*%
%TO.N,COL0*%
X40501251Y-133255000D03*
D11*
X41156250Y-132525000D03*
D12*
%TO.P,MX_LCtrl1,2,ROW*%
%TO.N,Net-(D8-A)*%
X46176250Y-131735000D03*
D11*
X46196250Y-131445000D03*
%TD*%
D10*
%TO.P,MX_'1,1,COL*%
%TO.N,COL11*%
X261957501Y-95155000D03*
D11*
X262612500Y-94425000D03*
D12*
%TO.P,MX_'1,2,ROW*%
%TO.N,Net-(D70-A)*%
X267632500Y-93635000D03*
D11*
X267652500Y-93345000D03*
%TD*%
D10*
%TO.P,MX_J1,1,COL*%
%TO.N,COL7*%
X185757501Y-95155000D03*
D11*
X186412500Y-94425000D03*
D12*
%TO.P,MX_J1,2,ROW*%
%TO.N,Net-(D46-A)*%
X191432500Y-93635000D03*
D11*
X191452500Y-93345000D03*
%TD*%
D10*
%TO.P,MX_LShift1,1,COL*%
%TO.N,COL0*%
X50026251Y-114205000D03*
D11*
X50681250Y-113475000D03*
D12*
%TO.P,MX_LShift1,2,ROW*%
%TO.N,Net-(D7-A)*%
X55701250Y-112685000D03*
D11*
X55721250Y-112395000D03*
%TD*%
D10*
%TO.P,MX_4,1,COL*%
%TO.N,COL4*%
X114320001Y-57055000D03*
D11*
X114975000Y-56325000D03*
D12*
%TO.P,MX_4,2,ROW*%
%TO.N,Net-(D26-A)*%
X119995000Y-55535000D03*
D11*
X120015000Y-55245000D03*
%TD*%
D10*
%TO.P,MX_[1,1,COL*%
%TO.N,COL11*%
X257195001Y-76105000D03*
D11*
X257850000Y-75375000D03*
D12*
%TO.P,MX_[1,2,ROW*%
%TO.N,Net-(D69-A)*%
X262870000Y-74585000D03*
D11*
X262890000Y-74295000D03*
%TD*%
D10*
%TO.P,MX_.1,1,COL*%
%TO.N,COL9*%
X233382501Y-114205000D03*
D11*
X234037500Y-113475000D03*
D12*
%TO.P,MX_.1,2,ROW*%
%TO.N,Net-(D59-A)*%
X239057500Y-112685000D03*
D11*
X239077500Y-112395000D03*
%TD*%
D10*
%TO.P,MX_Up1,1,COL*%
%TO.N,COL14*%
X323870001Y-114205000D03*
D11*
X324525000Y-113475000D03*
D12*
%TO.P,MX_Up1,2,ROW*%
%TO.N,Net-(D77-A)*%
X329545000Y-112685000D03*
D11*
X329565000Y-112395000D03*
%TD*%
D10*
%TO.P,MX_2,1,COL*%
%TO.N,COL2*%
X76220001Y-57086250D03*
D11*
X76875000Y-56356250D03*
D12*
%TO.P,MX_2,2,ROW*%
%TO.N,Net-(D14-A)*%
X81895000Y-55566250D03*
D11*
X81915000Y-55276250D03*
%TD*%
D10*
%TO.P,MX_Esc1,1,COL*%
%TO.N,COL0*%
X38120001Y-38036250D03*
D11*
X38775000Y-37306250D03*
D12*
%TO.P,MX_Esc1,2,ROW*%
%TO.N,Net-(D1-A)*%
X43795000Y-36516250D03*
D11*
X43815000Y-36226250D03*
%TD*%
D10*
%TO.P,MX_X1,1,COL*%
%TO.N,COL2*%
X100032501Y-114205000D03*
D11*
X100687500Y-113475000D03*
D12*
%TO.P,MX_X1,2,ROW*%
%TO.N,Net-(D17-A)*%
X105707500Y-112685000D03*
D11*
X105727500Y-112395000D03*
%TD*%
D10*
%TO.P,MX_Z1,1,COL*%
%TO.N,COL1*%
X80982501Y-114205000D03*
D11*
X81637500Y-113475000D03*
D12*
%TO.P,MX_Z1,2,ROW*%
%TO.N,Net-(D11-A)*%
X86657500Y-112685000D03*
D11*
X86677500Y-112395000D03*
%TD*%
D10*
%TO.P,MX_7,1,COL*%
%TO.N,COL7*%
X171470001Y-57055000D03*
D11*
X172125000Y-56325000D03*
D12*
%TO.P,MX_7,2,ROW*%
%TO.N,Net-(D44-A)*%
X177145000Y-55535000D03*
D11*
X177165000Y-55245000D03*
%TD*%
D10*
%TO.P,MX_End1,1,COL*%
%TO.N,COL15*%
X342920001Y-76105000D03*
D11*
X343575000Y-75375000D03*
D12*
%TO.P,MX_End1,2,ROW*%
%TO.N,Net-(D93-A)*%
X348595000Y-74585000D03*
D11*
X348615000Y-74295000D03*
%TD*%
D10*
%TO.P,MX_B1,1,COL*%
%TO.N,COL5*%
X157182501Y-114205000D03*
D11*
X157837500Y-113475000D03*
D12*
%TO.P,MX_B1,2,ROW*%
%TO.N,Net-(D35-A)*%
X162857500Y-112685000D03*
D11*
X162877500Y-112395000D03*
%TD*%
D10*
%TO.P,MX_D1,1,COL*%
%TO.N,COL3*%
X109557501Y-95155000D03*
D11*
X110212500Y-94425000D03*
D12*
%TO.P,MX_D1,2,ROW*%
%TO.N,Net-(D22-A)*%
X115232500Y-93635000D03*
D11*
X115252500Y-93345000D03*
%TD*%
D10*
%TO.P,MX_F1,1,COL*%
%TO.N,COL1*%
X57170001Y-38036250D03*
D11*
X57825000Y-37306250D03*
D12*
%TO.P,MX_F1,2,ROW*%
%TO.N,Net-(D2-A)*%
X62845000Y-36516250D03*
D11*
X62865000Y-36226250D03*
%TD*%
D10*
%TO.P,MX_V1,1,COL*%
%TO.N,COL4*%
X138132501Y-114205000D03*
D11*
X138787500Y-113475000D03*
D12*
%TO.P,MX_V1,2,ROW*%
%TO.N,Net-(D29-A)*%
X143807500Y-112685000D03*
D11*
X143827500Y-112395000D03*
%TD*%
D10*
%TO.P,MX_5,1,COL*%
%TO.N,COL5*%
X133370001Y-57055000D03*
D11*
X134025000Y-56325000D03*
D12*
%TO.P,MX_5,2,ROW*%
%TO.N,Net-(D32-A)*%
X139045000Y-55535000D03*
D11*
X139065000Y-55245000D03*
%TD*%
D10*
%TO.P,MX_PtrSc1,1,COL*%
%TO.N,COL14*%
X323870001Y-95155000D03*
D11*
X324525000Y-94425000D03*
D12*
%TO.P,MX_PtrSc1,2,ROW*%
%TO.N,Net-(D82-A)*%
X329545000Y-93635000D03*
D11*
X329565000Y-93345000D03*
%TD*%
D10*
%TO.P,MX_1,1,COL*%
%TO.N,COL1*%
X57170001Y-57086250D03*
D11*
X57825000Y-56356250D03*
D12*
%TO.P,MX_1,2,ROW*%
%TO.N,Net-(D4-A)*%
X62845000Y-55566250D03*
D11*
X62865000Y-55276250D03*
%TD*%
D10*
%TO.P,MX_PgDn1,1,COL*%
%TO.N,COL15*%
X342920001Y-114205000D03*
D11*
X343575000Y-113475000D03*
D12*
%TO.P,MX_PgDn1,2,ROW*%
%TO.N,Net-(D83-A)*%
X348595000Y-112685000D03*
D11*
X348615000Y-112395000D03*
%TD*%
D10*
%TO.P,MX_F8,1,COL*%
%TO.N,COL8*%
X190520001Y-38036250D03*
D11*
X191175000Y-37306250D03*
D12*
%TO.P,MX_F8,2,ROW*%
%TO.N,Net-(D49-A)*%
X196195000Y-36516250D03*
D11*
X196215000Y-36226250D03*
%TD*%
D10*
%TO.P,MX_BckSpace1,1,COL*%
%TO.N,COL13*%
X295295001Y-57055000D03*
D11*
X295950000Y-56325000D03*
D12*
%TO.P,MX_BckSpace1,2,ROW*%
%TO.N,Net-(D80-A)*%
X300970000Y-55535000D03*
D11*
X300990000Y-55245000D03*
%TD*%
D10*
%TO.P,MX_Space1,1,COL*%
%TO.N,COL5*%
X157182501Y-133255000D03*
D11*
X157837500Y-132525000D03*
D12*
%TO.P,MX_Space1,2,ROW*%
%TO.N,Net-(D24-A)*%
X162857500Y-131735000D03*
D11*
X162877500Y-131445000D03*
%TD*%
D10*
%TO.P,MX_H1,1,COL*%
%TO.N,COL6*%
X166707501Y-95155000D03*
D11*
X167362500Y-94425000D03*
D12*
%TO.P,MX_H1,2,ROW*%
%TO.N,Net-(D40-A)*%
X172382500Y-93635000D03*
D11*
X172402500Y-93345000D03*
%TD*%
D10*
%TO.P,MX_Caps1,1,COL*%
%TO.N,COL0*%
X45263751Y-95155000D03*
D11*
X45918750Y-94425000D03*
D12*
%TO.P,MX_Caps1,2,ROW*%
%TO.N,Net-(D6-A)*%
X50938750Y-93635000D03*
D11*
X50958750Y-93345000D03*
%TD*%
D10*
%TO.P,MX_6,1,COL*%
%TO.N,COL6*%
X152420001Y-57055000D03*
D11*
X153075000Y-56325000D03*
D12*
%TO.P,MX_6,2,ROW*%
%TO.N,Net-(D38-A)*%
X158095000Y-55535000D03*
D11*
X158115000Y-55245000D03*
%TD*%
D10*
%TO.P,MX_RAlt1,1,COL*%
%TO.N,COL9*%
X226238751Y-133255000D03*
D11*
X226893750Y-132525000D03*
D12*
%TO.P,MX_RAlt1,2,ROW*%
%TO.N,Net-(D30-A)*%
X231913750Y-131735000D03*
D11*
X231933750Y-131445000D03*
%TD*%
D10*
%TO.P,MX_LWin1,1,COL*%
%TO.N,COL1*%
X64313751Y-133255000D03*
D11*
X64968750Y-132525000D03*
D12*
%TO.P,MX_LWin1,2,ROW*%
%TO.N,Net-(D12-A)*%
X69988750Y-131735000D03*
D11*
X70008750Y-131445000D03*
%TD*%
D10*
%TO.P,MX_C1,1,COL*%
%TO.N,COL3*%
X119082501Y-114205000D03*
D11*
X119737500Y-113475000D03*
D12*
%TO.P,MX_C1,2,ROW*%
%TO.N,Net-(D23-A)*%
X124757500Y-112685000D03*
D11*
X124777500Y-112395000D03*
%TD*%
D10*
%TO.P,MX_F7,1,COL*%
%TO.N,COL7*%
X171470001Y-38005000D03*
D11*
X172125000Y-37275000D03*
D12*
%TO.P,MX_F7,2,ROW*%
%TO.N,Net-(D43-A)*%
X177145000Y-36485000D03*
D11*
X177165000Y-36195000D03*
%TD*%
D10*
%TO.P,MX_F11,1,COL*%
%TO.N,COL11*%
X247670001Y-38036250D03*
D11*
X248325000Y-37306250D03*
D12*
%TO.P,MX_F11,2,ROW*%
%TO.N,Net-(D67-A)*%
X253345000Y-36516250D03*
D11*
X253365000Y-36226250D03*
%TD*%
D10*
%TO.P,MX_M1,1,COL*%
%TO.N,COL7*%
X195282501Y-114205000D03*
D11*
X195937500Y-113475000D03*
D12*
%TO.P,MX_M1,2,ROW*%
%TO.N,Net-(D47-A)*%
X200957500Y-112685000D03*
D11*
X200977500Y-112395000D03*
%TD*%
D10*
%TO.P,MX_Q1,1,COL*%
%TO.N,COL1*%
X66695001Y-76105000D03*
D11*
X67350000Y-75375000D03*
D12*
%TO.P,MX_Q1,2,ROW*%
%TO.N,Net-(D9-A)*%
X72370000Y-74585000D03*
D11*
X72390000Y-74295000D03*
%TD*%
D10*
%TO.P,MX_-1,1,COL*%
%TO.N,COL11*%
X247670001Y-57055000D03*
D11*
X248325000Y-56325000D03*
D12*
%TO.P,MX_-1,2,ROW*%
%TO.N,Net-(D68-A)*%
X253345000Y-55535000D03*
D11*
X253365000Y-55245000D03*
%TD*%
D10*
%TO.P,MX_E1,1,COL*%
%TO.N,COL3*%
X104795001Y-76105000D03*
D11*
X105450000Y-75375000D03*
D12*
%TO.P,MX_E1,2,ROW*%
%TO.N,Net-(D21-A)*%
X110470000Y-74585000D03*
D11*
X110490000Y-74295000D03*
%TD*%
D10*
%TO.P,MX_A1,1,COL*%
%TO.N,COL1*%
X71457501Y-95155000D03*
D11*
X72112500Y-94425000D03*
D12*
%TO.P,MX_A1,2,ROW*%
%TO.N,Net-(D10-A)*%
X77132500Y-93635000D03*
D11*
X77152500Y-93345000D03*
%TD*%
D10*
%TO.P,MX_Tab1,1,COL*%
%TO.N,COL0*%
X42882501Y-76105000D03*
D11*
X43537500Y-75375000D03*
D12*
%TO.P,MX_Tab1,2,ROW*%
%TO.N,Net-(D5-A)*%
X48557500Y-74585000D03*
D11*
X48577500Y-74295000D03*
%TD*%
D10*
%TO.P,MX_O1,1,COL*%
%TO.N,COL9*%
X219095001Y-76105000D03*
D11*
X219750000Y-75375000D03*
D12*
%TO.P,MX_O1,2,ROW*%
%TO.N,Net-(D57-A)*%
X224770000Y-74585000D03*
D11*
X224790000Y-74295000D03*
%TD*%
D10*
%TO.P,MX_Right1,1,COL*%
%TO.N,COL15*%
X342920001Y-133255000D03*
D11*
X343575000Y-132525000D03*
D12*
%TO.P,MX_Right1,2,ROW*%
%TO.N,Net-(D60-A)*%
X348595000Y-131735000D03*
D11*
X348615000Y-131445000D03*
%TD*%
D10*
%TO.P,MX_U1,1,COL*%
%TO.N,COL7*%
X180995001Y-76105000D03*
D11*
X181650000Y-75375000D03*
D12*
%TO.P,MX_U1,2,ROW*%
%TO.N,Net-(D45-A)*%
X186670000Y-74585000D03*
D11*
X186690000Y-74295000D03*
%TD*%
D10*
%TO.P,MX_\u005C1,1,COL*%
%TO.N,COL13*%
X300057501Y-76105000D03*
D11*
X300712500Y-75375000D03*
D12*
%TO.P,MX_\u005C1,2,ROW*%
%TO.N,Net-(D81-A)*%
X305732500Y-74585000D03*
D11*
X305752500Y-74295000D03*
%TD*%
D10*
%TO.P,MX_PgUp1,1,COL*%
%TO.N,COL15*%
X342920001Y-95155000D03*
D11*
X343575000Y-94425000D03*
D12*
%TO.P,MX_PgUp1,2,ROW*%
%TO.N,Net-(D88-A)*%
X348595000Y-93635000D03*
D11*
X348615000Y-93345000D03*
%TD*%
D10*
%TO.P,MX_F3,1,COL*%
%TO.N,COL3*%
X95270001Y-38036250D03*
D11*
X95925000Y-37306250D03*
D12*
%TO.P,MX_F3,2,ROW*%
%TO.N,Net-(D19-A)*%
X100945000Y-36516250D03*
D11*
X100965000Y-36226250D03*
%TD*%
D13*
%TO.P,ENC1,1,1*%
%TO.N,GND*%
X338871875Y-43775000D03*
%TO.P,ENC1,2,2*%
%TO.N,S1*%
X338871875Y-38775000D03*
D14*
%TO.P,ENC1,3,MNT_1*%
%TO.N,GND*%
X345871875Y-46975000D03*
%TO.P,ENC1,4,MNT_2*%
X345871875Y-35575000D03*
D15*
%TO.P,ENC1,A,CHANNEL_A*%
%TO.N,A*%
X353371875Y-43775000D03*
D13*
%TO.P,ENC1,B,CHANNEL_B*%
%TO.N,B*%
X353371875Y-38775000D03*
%TO.P,ENC1,C,COMMON*%
%TO.N,GND*%
X353371875Y-41275000D03*
%TD*%
D10*
%TO.P,MX_;1,1,COL*%
%TO.N,COL10*%
X242907501Y-95155000D03*
D11*
X243562500Y-94425000D03*
D12*
%TO.P,MX_;1,2,ROW*%
%TO.N,Net-(D64-A)*%
X248582500Y-93635000D03*
D11*
X248602500Y-93345000D03*
%TD*%
D10*
%TO.P,MX_P1,1,COL*%
%TO.N,COL10*%
X238145001Y-76105000D03*
D11*
X238800000Y-75375000D03*
D12*
%TO.P,MX_P1,2,ROW*%
%TO.N,Net-(D63-A)*%
X243820000Y-74585000D03*
D11*
X243840000Y-74295000D03*
%TD*%
D10*
%TO.P,MX_Down1,1,COL*%
%TO.N,COL14*%
X323870001Y-133255000D03*
D11*
X324525000Y-132525000D03*
D12*
%TO.P,MX_Down1,2,ROW*%
%TO.N,Net-(D54-A)*%
X329545000Y-131735000D03*
D11*
X329565000Y-131445000D03*
%TD*%
D10*
%TO.P,MX_F5,1,COL*%
%TO.N,COL5*%
X133370001Y-38005000D03*
D11*
X134025000Y-37275000D03*
D12*
%TO.P,MX_F5,2,ROW*%
%TO.N,Net-(D31-A)*%
X139045000Y-36485000D03*
D11*
X139065000Y-36195000D03*
%TD*%
D10*
%TO.P,MX_Enter1,1,COL*%
%TO.N,COL13*%
X292913751Y-95155000D03*
D11*
X293568750Y-94425000D03*
D12*
%TO.P,MX_Enter1,2,ROW*%
%TO.N,Net-(D76-A)*%
X298588750Y-93635000D03*
D11*
X298608750Y-93345000D03*
%TD*%
D10*
%TO.P,MX_\u002C1,1,COL*%
%TO.N,COL8*%
X214332501Y-114205000D03*
D11*
X214987500Y-113475000D03*
D12*
%TO.P,MX_\u002C1,2,ROW*%
%TO.N,Net-(D53-A)*%
X220007500Y-112685000D03*
D11*
X220027500Y-112395000D03*
%TD*%
D10*
%TO.P,MX_G1,1,COL*%
%TO.N,COL5*%
X147657501Y-95155000D03*
D11*
X148312500Y-94425000D03*
D12*
%TO.P,MX_G1,2,ROW*%
%TO.N,Net-(D34-A)*%
X153332500Y-93635000D03*
D11*
X153352500Y-93345000D03*
%TD*%
D10*
%TO.P,MX_F2,1,COL*%
%TO.N,COL2*%
X76220001Y-38036250D03*
D11*
X76875000Y-37306250D03*
D12*
%TO.P,MX_F2,2,ROW*%
%TO.N,Net-(D13-A)*%
X81895000Y-36516250D03*
D11*
X81915000Y-36226250D03*
%TD*%
D10*
%TO.P,MX_=1,1,COL*%
%TO.N,COL12*%
X266720001Y-57055000D03*
D11*
X267375000Y-56325000D03*
D12*
%TO.P,MX_=1,2,ROW*%
%TO.N,Net-(D74-A)*%
X272395000Y-55535000D03*
D11*
X272415000Y-55245000D03*
%TD*%
D10*
%TO.P,MX_0,1,COL*%
%TO.N,COL10*%
X228620001Y-57055000D03*
D11*
X229275000Y-56325000D03*
D12*
%TO.P,MX_0,2,ROW*%
%TO.N,Net-(D62-A)*%
X234295000Y-55535000D03*
D11*
X234315000Y-55245000D03*
%TD*%
D10*
%TO.P,MX_S1,1,COL*%
%TO.N,COL2*%
X90507501Y-95155000D03*
D11*
X91162500Y-94425000D03*
D12*
%TO.P,MX_S1,2,ROW*%
%TO.N,Net-(D16-A)*%
X96182500Y-93635000D03*
D11*
X96202500Y-93345000D03*
%TD*%
D10*
%TO.P,MX_RWin1,1,COL*%
%TO.N,COL10*%
X250051251Y-133255000D03*
D11*
X250706250Y-132525000D03*
D12*
%TO.P,MX_RWin1,2,ROW*%
%TO.N,Net-(D36-A)*%
X255726250Y-131735000D03*
D11*
X255746250Y-131445000D03*
%TD*%
D10*
%TO.P,MX_8,1,COL*%
%TO.N,COL8*%
X190520001Y-57055000D03*
D11*
X191175000Y-56325000D03*
D12*
%TO.P,MX_8,2,ROW*%
%TO.N,Net-(D50-A)*%
X196195000Y-55535000D03*
D11*
X196215000Y-55245000D03*
%TD*%
D10*
%TO.P,MX_K1,1,COL*%
%TO.N,COL8*%
X204807501Y-95155000D03*
D11*
X205462500Y-94425000D03*
D12*
%TO.P,MX_K1,2,ROW*%
%TO.N,Net-(D52-A)*%
X210482500Y-93635000D03*
D11*
X210502500Y-93345000D03*
%TD*%
D10*
%TO.P,MX_L1,1,COL*%
%TO.N,COL9*%
X223857501Y-95155000D03*
D11*
X224512500Y-94425000D03*
D12*
%TO.P,MX_L1,2,ROW*%
%TO.N,Net-(D58-A)*%
X229532500Y-93635000D03*
D11*
X229552500Y-93345000D03*
%TD*%
D10*
%TO.P,MX_F10,1,COL*%
%TO.N,COL10*%
X228620001Y-38005000D03*
D11*
X229275000Y-37275000D03*
D12*
%TO.P,MX_F10,2,ROW*%
%TO.N,Net-(D61-A)*%
X234295000Y-36485000D03*
D11*
X234315000Y-36195000D03*
%TD*%
D10*
%TO.P,MX_Home1,1,COL*%
%TO.N,COL15*%
X342920001Y-57055000D03*
D11*
X343575000Y-56325000D03*
D12*
%TO.P,MX_Home1,2,ROW*%
%TO.N,Net-(D92-A)*%
X348595000Y-55535000D03*
D11*
X348615000Y-55245000D03*
%TD*%
D10*
%TO.P,MX_/1,1,COL*%
%TO.N,COL10*%
X252432501Y-114205000D03*
D11*
X253087500Y-113475000D03*
D12*
%TO.P,MX_/1,2,ROW*%
%TO.N,Net-(D65-A)*%
X258107500Y-112685000D03*
D11*
X258127500Y-112395000D03*
%TD*%
D16*
%TO.P,LED_=1,1,VDD*%
%TO.N,+5V*%
X267284200Y-65131250D03*
%TO.P,LED_=1,2,DOUT*%
%TO.N,Net-(LED_-1-DIN)*%
X267284200Y-66631250D03*
D17*
%TO.P,LED_=1,3,GND*%
%TO.N,GND*%
X272465800Y-66631250D03*
D16*
%TO.P,LED_=1,4,DIN*%
%TO.N,Net-(LED_=1-DIN)*%
X272465800Y-65131250D03*
%TD*%
%TO.P,LED_RSHIFT1,1,VDD*%
%TO.N,+5V*%
X293897050Y-123781250D03*
%TO.P,LED_RSHIFT1,2,DOUT*%
%TO.N,Net-(LED_RSHIFT1-DOUT)*%
X293897050Y-122281250D03*
D18*
%TO.P,LED_RSHIFT1,3,GND*%
%TO.N,GND*%
X288715450Y-122281250D03*
D16*
%TO.P,LED_RSHIFT1,4,DIN*%
%TO.N,Net-(LED_/1-DOUT)*%
X288715450Y-123781250D03*
%TD*%
D19*
%TO.P,D41,1,K*%
%TO.N,ROW4*%
X186531250Y-120014000D03*
%TO.P,D41,2,A*%
%TO.N,Net-(D41-A)*%
X186531250Y-116714000D03*
%TD*%
D20*
%TO.P,R5,1*%
%TO.N,Net-(J3-CC1)*%
X49212500Y-48300000D03*
%TO.P,R5,2*%
%TO.N,GND*%
X49212500Y-50125000D03*
%TD*%
D16*
%TO.P,LED_B1,1,VDD*%
%TO.N,+5V*%
X162928300Y-123781250D03*
%TO.P,LED_B1,2,DOUT*%
%TO.N,Net-(LED_B1-DOUT)*%
X162928300Y-122281250D03*
D18*
%TO.P,LED_B1,3,GND*%
%TO.N,GND*%
X157746700Y-122281250D03*
D16*
%TO.P,LED_B1,4,DIN*%
%TO.N,Net-(LED_B1-DIN)*%
X157746700Y-123781250D03*
%TD*%
%TO.P,LED_CAPS1,1,VDD*%
%TO.N,+5V*%
X45827950Y-103231250D03*
%TO.P,LED_CAPS1,2,DOUT*%
%TO.N,Net-(LED_CAPS1-DOUT)*%
X45827950Y-104731250D03*
D17*
%TO.P,LED_CAPS1,3,GND*%
%TO.N,GND*%
X51009550Y-104731250D03*
D16*
%TO.P,LED_CAPS1,4,DIN*%
%TO.N,Net-(LED_A1-DOUT)*%
X51009550Y-103231250D03*
%TD*%
D19*
%TO.P,D5,1,K*%
%TO.N,ROW2*%
X53181250Y-81914000D03*
%TO.P,D5,2,A*%
%TO.N,Net-(D5-A)*%
X53181250Y-78614000D03*
%TD*%
%TO.P,D12,1,K*%
%TO.N,ROW5*%
X74612500Y-139064000D03*
%TO.P,D12,2,A*%
%TO.N,Net-(D12-A)*%
X74612500Y-135764000D03*
%TD*%
D16*
%TO.P,LED_-1,1,VDD*%
%TO.N,+5V*%
X248234200Y-65131250D03*
%TO.P,LED_-1,2,DOUT*%
%TO.N,Net-(LED_-1-DOUT)*%
X248234200Y-66631250D03*
D17*
%TO.P,LED_-1,3,GND*%
%TO.N,GND*%
X253415800Y-66631250D03*
D16*
%TO.P,LED_-1,4,DIN*%
%TO.N,Net-(LED_-1-DIN)*%
X253415800Y-65131250D03*
%TD*%
D19*
%TO.P,D21,1,K*%
%TO.N,ROW2*%
X115093750Y-81914000D03*
%TO.P,D21,2,A*%
%TO.N,Net-(D21-A)*%
X115093750Y-78614000D03*
%TD*%
D16*
%TO.P,LED_]1,1,VDD*%
%TO.N,+5V*%
X281990800Y-85681250D03*
%TO.P,LED_]1,2,DOUT*%
%TO.N,Net-(LED_\u005C1-DIN)*%
X281990800Y-84181250D03*
D18*
%TO.P,LED_]1,3,GND*%
%TO.N,GND*%
X276809200Y-84181250D03*
D16*
%TO.P,LED_]1,4,DIN*%
%TO.N,Net-(LED_[1-DOUT)*%
X276809200Y-85681250D03*
%TD*%
D19*
%TO.P,D86,1,K*%
%TO.N,ROW1*%
X334168750Y-62864000D03*
%TO.P,D86,2,A*%
%TO.N,Net-(D86-A)*%
X334168750Y-59564000D03*
%TD*%
D16*
%TO.P,LED_Home1,1,VDD*%
%TO.N,+5V*%
X343484200Y-65131250D03*
%TO.P,LED_Home1,2,DOUT*%
%TO.N,Net-(LED_Home1-DOUT)*%
X343484200Y-66631250D03*
D17*
%TO.P,LED_Home1,3,GND*%
%TO.N,GND*%
X348665800Y-66631250D03*
D16*
%TO.P,LED_Home1,4,DIN*%
%TO.N,Net-(LED_F12-DOUT)*%
X348665800Y-65131250D03*
%TD*%
D19*
%TO.P,D60,1,K*%
%TO.N,ROW5*%
X353218750Y-139064000D03*
%TO.P,D60,2,A*%
%TO.N,Net-(D60-A)*%
X353218750Y-135764000D03*
%TD*%
%TO.P,D33,1,K*%
%TO.N,ROW2*%
X153193750Y-81914000D03*
%TO.P,D33,2,A*%
%TO.N,Net-(D33-A)*%
X153193750Y-78614000D03*
%TD*%
D16*
%TO.P,LED_F1,1,VDD*%
%TO.N,+5V*%
X62915800Y-47581250D03*
%TO.P,LED_F1,2,DOUT*%
%TO.N,Net-(LED_F1-DOUT)*%
X62915800Y-46081250D03*
D18*
%TO.P,LED_F1,3,GND*%
%TO.N,GND*%
X57734200Y-46081250D03*
D16*
%TO.P,LED_F1,4,DIN*%
%TO.N,Net-(LED_Esc1-DOUT)*%
X57734200Y-47581250D03*
%TD*%
%TO.P,LED_M1,1,VDD*%
%TO.N,+5V*%
X201028300Y-123781250D03*
%TO.P,LED_M1,2,DOUT*%
%TO.N,Net-(LED_\u002C1-DIN)*%
X201028300Y-122281250D03*
D18*
%TO.P,LED_M1,3,GND*%
%TO.N,GND*%
X195846700Y-122281250D03*
D16*
%TO.P,LED_M1,4,DIN*%
%TO.N,Net-(LED_M1-DIN)*%
X195846700Y-123781250D03*
%TD*%
D19*
%TO.P,D62,1,K*%
%TO.N,ROW1*%
X238918750Y-62864000D03*
%TO.P,D62,2,A*%
%TO.N,Net-(D62-A)*%
X238918750Y-59564000D03*
%TD*%
D16*
%TO.P,LED_L1,1,VDD*%
%TO.N,+5V*%
X224421700Y-103231250D03*
%TO.P,LED_L1,2,DOUT*%
%TO.N,Net-(LED_K1-DIN)*%
X224421700Y-104731250D03*
D17*
%TO.P,LED_L1,3,GND*%
%TO.N,GND*%
X229603300Y-104731250D03*
D16*
%TO.P,LED_L1,4,DIN*%
%TO.N,Net-(LED_;1-DOUT)*%
X229603300Y-103231250D03*
%TD*%
%TO.P,LED_LSHIFT1,1,VDD*%
%TO.N,+5V*%
X55772050Y-123781250D03*
%TO.P,LED_LSHIFT1,2,DOUT*%
%TO.N,Net-(LED_LSHIFT1-DOUT)*%
X55772050Y-122281250D03*
D18*
%TO.P,LED_LSHIFT1,3,GND*%
%TO.N,GND*%
X50590450Y-122281250D03*
D16*
%TO.P,LED_LSHIFT1,4,DIN*%
%TO.N,Net-(LED_CAPS1-DOUT)*%
X50590450Y-123781250D03*
%TD*%
D19*
%TO.P,D15,1,K*%
%TO.N,ROW2*%
X96043750Y-81914000D03*
%TO.P,D15,2,A*%
%TO.N,Net-(D15-A)*%
X96043750Y-78614000D03*
%TD*%
D21*
%TO.P,Y1,1,1*%
%TO.N,Net-(U3-PF0)*%
X147150000Y-134200000D03*
%TO.P,Y1,2,2*%
%TO.N,GND*%
X144950000Y-134200000D03*
%TO.P,Y1,3,3*%
%TO.N,Net-(U3-PF1)*%
X144950000Y-132500000D03*
%TO.P,Y1,4,4*%
%TO.N,GND*%
X147150000Y-132500000D03*
%TD*%
D19*
%TO.P,D18,1,K*%
%TO.N,ROW5*%
X98425000Y-139064000D03*
%TO.P,D18,2,A*%
%TO.N,Net-(D18-A)*%
X98425000Y-135764000D03*
%TD*%
%TO.P,D10,1,K*%
%TO.N,ROW3*%
X81756250Y-100964000D03*
%TO.P,D10,2,A*%
%TO.N,Net-(D10-A)*%
X81756250Y-97664000D03*
%TD*%
D16*
%TO.P,LED_Ins1,1,VDD*%
%TO.N,+5V*%
X324434200Y-65131250D03*
%TO.P,LED_Ins1,2,DOUT*%
%TO.N,Net-(LED_BckSpace1-DIN)*%
X324434200Y-66631250D03*
D17*
%TO.P,LED_Ins1,3,GND*%
%TO.N,GND*%
X329615800Y-66631250D03*
D16*
%TO.P,LED_Ins1,4,DIN*%
%TO.N,Net-(LED_Home1-DOUT)*%
X329615800Y-65131250D03*
%TD*%
%TO.P,LED_Del1,1,VDD*%
%TO.N,+5V*%
X329615800Y-85681250D03*
%TO.P,LED_Del1,2,DOUT*%
%TO.N,Net-(LED_Del1-DOUT)*%
X329615800Y-84181250D03*
D18*
%TO.P,LED_Del1,3,GND*%
%TO.N,GND*%
X324434200Y-84181250D03*
D16*
%TO.P,LED_Del1,4,DIN*%
%TO.N,Net-(LED_Del1-DIN)*%
X324434200Y-85681250D03*
%TD*%
%TO.P,LED_F13,1,VDD*%
%TO.N,+5V*%
X129171700Y-103231250D03*
%TO.P,LED_F13,2,DOUT*%
%TO.N,Net-(LED_D1-DIN)*%
X129171700Y-104731250D03*
D17*
%TO.P,LED_F13,3,GND*%
%TO.N,GND*%
X134353300Y-104731250D03*
D16*
%TO.P,LED_F13,4,DIN*%
%TO.N,Net-(LED_F13-DIN)*%
X134353300Y-103231250D03*
%TD*%
%TO.P,LED_F9,1,VDD*%
%TO.N,+5V*%
X215315800Y-47581250D03*
%TO.P,LED_F9,2,DOUT*%
%TO.N,Net-(LED_F10-DIN)*%
X215315800Y-46081250D03*
D18*
%TO.P,LED_F9,3,GND*%
%TO.N,GND*%
X210134200Y-46081250D03*
D16*
%TO.P,LED_F9,4,DIN*%
%TO.N,Net-(LED_F8-DOUT)*%
X210134200Y-47581250D03*
%TD*%
D19*
%TO.P,D20,1,K*%
%TO.N,ROW1*%
X105568750Y-62864000D03*
%TO.P,D20,2,A*%
%TO.N,Net-(D20-A)*%
X105568750Y-59564000D03*
%TD*%
D16*
%TO.P,LED_F6,1,VDD*%
%TO.N,+5V*%
X158165800Y-47581250D03*
%TO.P,LED_F6,2,DOUT*%
%TO.N,Net-(LED_F6-DOUT)*%
X158165800Y-46081250D03*
D18*
%TO.P,LED_F6,3,GND*%
%TO.N,GND*%
X152984200Y-46081250D03*
D16*
%TO.P,LED_F6,4,DIN*%
%TO.N,Net-(LED_F5-DOUT)*%
X152984200Y-47581250D03*
%TD*%
D19*
%TO.P,D22,1,K*%
%TO.N,ROW3*%
X119856250Y-100964000D03*
%TO.P,D22,2,A*%
%TO.N,Net-(D22-A)*%
X119856250Y-97664000D03*
%TD*%
D22*
%TO.P,C2,1*%
%TO.N,GND*%
X147000000Y-130175000D03*
%TO.P,C2,2*%
%TO.N,Net-(U3-PF1)*%
X145100000Y-130175000D03*
%TD*%
D16*
%TO.P,LED_F8,1,VDD*%
%TO.N,+5V*%
X196265800Y-47581250D03*
%TO.P,LED_F8,2,DOUT*%
%TO.N,Net-(LED_F8-DOUT)*%
X196265800Y-46081250D03*
D18*
%TO.P,LED_F8,3,GND*%
%TO.N,GND*%
X191084200Y-46081250D03*
D16*
%TO.P,LED_F8,4,DIN*%
%TO.N,Net-(LED_F7-DOUT)*%
X191084200Y-47581250D03*
%TD*%
%TO.P,LED_UP1,1,VDD*%
%TO.N,+5V*%
X329615800Y-123781250D03*
%TO.P,LED_UP1,2,DOUT*%
%TO.N,Net-(LED_PGDN1-DIN)*%
X329615800Y-122281250D03*
D18*
%TO.P,LED_UP1,3,GND*%
%TO.N,GND*%
X324434200Y-122281250D03*
D16*
%TO.P,LED_UP1,4,DIN*%
%TO.N,Net-(LED_RSHIFT1-DOUT)*%
X324434200Y-123781250D03*
%TD*%
%TO.P,LED_I1,1,VDD*%
%TO.N,+5V*%
X205790800Y-85681250D03*
%TO.P,LED_I1,2,DOUT*%
%TO.N,Net-(LED_I1-DOUT)*%
X205790800Y-84181250D03*
D18*
%TO.P,LED_I1,3,GND*%
%TO.N,GND*%
X200609200Y-84181250D03*
D16*
%TO.P,LED_I1,4,DIN*%
%TO.N,Net-(LED_I1-DIN)*%
X200609200Y-85681250D03*
%TD*%
D23*
%TO.P,J3,A1,GND*%
%TO.N,GND*%
X47219000Y-37680000D03*
%TO.P,J3,A4,VBUS*%
%TO.N,+5V*%
X48019000Y-37680000D03*
D24*
%TO.P,J3,A5,CC1*%
%TO.N,Net-(J3-CC1)*%
X49169000Y-37680000D03*
%TO.P,J3,A6,D+*%
%TO.N,Net-(J3-D+-PadA6)*%
X50169000Y-37680000D03*
%TO.P,J3,A7,D-*%
%TO.N,D-*%
X50669000Y-37680000D03*
%TO.P,J3,A8,SBU1*%
%TO.N,unconnected-(J3-SBU1-PadA8)*%
X51669000Y-37680000D03*
D23*
%TO.P,J3,A9,VBUS*%
%TO.N,+5V*%
X52819000Y-37680000D03*
%TO.P,J3,A12,GND*%
%TO.N,GND*%
X53619000Y-37680000D03*
%TO.P,J3,B1,GND*%
X53619000Y-37680000D03*
%TO.P,J3,B4,VBUS*%
%TO.N,+5V*%
X52819000Y-37680000D03*
D24*
%TO.P,J3,B5,CC2*%
%TO.N,Net-(J3-CC2)*%
X52169000Y-37680000D03*
%TO.P,J3,B6,D+*%
%TO.N,Net-(J3-D+-PadA6)*%
X51169000Y-37680000D03*
%TO.P,J3,B7,D-*%
%TO.N,D-*%
X49669000Y-37680000D03*
%TO.P,J3,B8,SBU2*%
%TO.N,unconnected-(J3-SBU2-PadB8)*%
X48669000Y-37680000D03*
D23*
%TO.P,J3,B9,VBUS*%
%TO.N,+5V*%
X48019000Y-37680000D03*
%TO.P,J3,B12,GND*%
%TO.N,GND*%
X47219000Y-37680000D03*
D25*
%TO.P,J3,S1,SHIELD*%
X46099000Y-32880000D03*
D26*
X46099000Y-37080000D03*
D25*
X54739000Y-32880000D03*
D26*
X54739000Y-37080000D03*
%TD*%
D19*
%TO.P,D47,1,K*%
%TO.N,ROW4*%
X205581250Y-120014000D03*
%TO.P,D47,2,A*%
%TO.N,Net-(D47-A)*%
X205581250Y-116714000D03*
%TD*%
%TO.P,D11,1,K*%
%TO.N,ROW4*%
X91281250Y-120014000D03*
%TO.P,D11,2,A*%
%TO.N,Net-(D11-A)*%
X91281250Y-116714000D03*
%TD*%
D16*
%TO.P,LED_\u005C1,1,VDD*%
%TO.N,+5V*%
X305803300Y-85681250D03*
%TO.P,LED_\u005C1,2,DOUT*%
%TO.N,Net-(LED_Del1-DIN)*%
X305803300Y-84181250D03*
D18*
%TO.P,LED_\u005C1,3,GND*%
%TO.N,GND*%
X300621700Y-84181250D03*
D16*
%TO.P,LED_\u005C1,4,DIN*%
%TO.N,Net-(LED_\u005C1-DIN)*%
X300621700Y-85681250D03*
%TD*%
D19*
%TO.P,D61,1,K*%
%TO.N,ROW0*%
X238918750Y-43814000D03*
%TO.P,D61,2,A*%
%TO.N,Net-(D61-A)*%
X238918750Y-40514000D03*
%TD*%
%TO.P,D67,1,K*%
%TO.N,ROW0*%
X257968750Y-43814000D03*
%TO.P,D67,2,A*%
%TO.N,Net-(D67-A)*%
X257968750Y-40514000D03*
%TD*%
D16*
%TO.P,LED_Y1,1,VDD*%
%TO.N,+5V*%
X167690800Y-85681250D03*
%TO.P,LED_Y1,2,DOUT*%
%TO.N,Net-(LED_U1-DIN)*%
X167690800Y-84181250D03*
D18*
%TO.P,LED_Y1,3,GND*%
%TO.N,GND*%
X162509200Y-84181250D03*
D16*
%TO.P,LED_Y1,4,DIN*%
%TO.N,Net-(LED_T1-DOUT)*%
X162509200Y-85681250D03*
%TD*%
%TO.P,LED_5,1,VDD*%
%TO.N,+5V*%
X133934200Y-65131250D03*
%TO.P,LED_5,2,DOUT*%
%TO.N,Net-(LED_4-DIN)*%
X133934200Y-66631250D03*
D17*
%TO.P,LED_5,3,GND*%
%TO.N,GND*%
X139115800Y-66631250D03*
D16*
%TO.P,LED_5,4,DIN*%
%TO.N,Net-(LED_5-DIN)*%
X139115800Y-65131250D03*
%TD*%
D19*
%TO.P,D34,1,K*%
%TO.N,ROW3*%
X157956250Y-100964000D03*
%TO.P,D34,2,A*%
%TO.N,Net-(D34-A)*%
X157956250Y-97664000D03*
%TD*%
D16*
%TO.P,LED_T1,1,VDD*%
%TO.N,+5V*%
X148640800Y-85681250D03*
%TO.P,LED_T1,2,DOUT*%
%TO.N,Net-(LED_T1-DOUT)*%
X148640800Y-84181250D03*
D18*
%TO.P,LED_T1,3,GND*%
%TO.N,GND*%
X143459200Y-84181250D03*
D16*
%TO.P,LED_T1,4,DIN*%
%TO.N,Net-(LED_R1-DOUT)*%
X143459200Y-85681250D03*
%TD*%
%TO.P,LED_K1,1,VDD*%
%TO.N,+5V*%
X205371700Y-103231250D03*
%TO.P,LED_K1,2,DOUT*%
%TO.N,Net-(LED_J1-DIN)*%
X205371700Y-104731250D03*
D17*
%TO.P,LED_K1,3,GND*%
%TO.N,GND*%
X210553300Y-104731250D03*
D16*
%TO.P,LED_K1,4,DIN*%
%TO.N,Net-(LED_K1-DIN)*%
X210553300Y-103231250D03*
%TD*%
D19*
%TO.P,D71,1,K*%
%TO.N,ROW4*%
X298450000Y-120014000D03*
%TO.P,D71,2,A*%
%TO.N,Net-(D71-A)*%
X298450000Y-116714000D03*
%TD*%
%TO.P,D26,1,K*%
%TO.N,ROW1*%
X124618750Y-62864000D03*
%TO.P,D26,2,A*%
%TO.N,Net-(D26-A)*%
X124618750Y-59564000D03*
%TD*%
%TO.P,D77,1,K*%
%TO.N,ROW4*%
X334168750Y-120014000D03*
%TO.P,D77,2,A*%
%TO.N,Net-(D77-A)*%
X334168750Y-116714000D03*
%TD*%
D20*
%TO.P,R3,1*%
%TO.N,Net-(J3-D+-PadA6)*%
X50800000Y-53594000D03*
%TO.P,R3,2*%
%TO.N,D+*%
X50800000Y-55419000D03*
%TD*%
D16*
%TO.P,LED_F2,1,VDD*%
%TO.N,+5V*%
X81965800Y-47581250D03*
%TO.P,LED_F2,2,DOUT*%
%TO.N,Net-(LED_F2-DOUT)*%
X81965800Y-46081250D03*
D18*
%TO.P,LED_F2,3,GND*%
%TO.N,GND*%
X76784200Y-46081250D03*
D16*
%TO.P,LED_F2,4,DIN*%
%TO.N,Net-(LED_F1-DOUT)*%
X76784200Y-47581250D03*
%TD*%
D19*
%TO.P,D7,1,K*%
%TO.N,ROW4*%
X60325000Y-120014000D03*
%TO.P,D7,2,A*%
%TO.N,Net-(D7-A)*%
X60325000Y-116714000D03*
%TD*%
D16*
%TO.P,LED_\u002C1,1,VDD*%
%TO.N,+5V*%
X220078300Y-123781250D03*
%TO.P,LED_\u002C1,2,DOUT*%
%TO.N,Net-(LED_\u002C1-DOUT)*%
X220078300Y-122281250D03*
D18*
%TO.P,LED_\u002C1,3,GND*%
%TO.N,GND*%
X214896700Y-122281250D03*
D16*
%TO.P,LED_\u002C1,4,DIN*%
%TO.N,Net-(LED_\u002C1-DIN)*%
X214896700Y-123781250D03*
%TD*%
%TO.P,LED_SPACE1,1,VDD*%
%TO.N,+5V*%
X157746700Y-141331250D03*
%TO.P,LED_SPACE1,2,DOUT*%
%TO.N,Net-(LED_LALT1-DIN)*%
X157746700Y-142831250D03*
D17*
%TO.P,LED_SPACE1,3,GND*%
%TO.N,GND*%
X162928300Y-142831250D03*
D16*
%TO.P,LED_SPACE1,4,DIN*%
%TO.N,Net-(LED_RALT1-DOUT)*%
X162928300Y-141331250D03*
%TD*%
D19*
%TO.P,D29,1,K*%
%TO.N,ROW4*%
X148431250Y-120014000D03*
%TO.P,D29,2,A*%
%TO.N,Net-(D29-A)*%
X148431250Y-116714000D03*
%TD*%
%TO.P,D80,1,K*%
%TO.N,ROW1*%
X305593750Y-62864000D03*
%TO.P,D80,2,A*%
%TO.N,Net-(D80-A)*%
X305593750Y-59564000D03*
%TD*%
D16*
%TO.P,LED_.1,1,VDD*%
%TO.N,+5V*%
X239128300Y-123781250D03*
%TO.P,LED_.1,2,DOUT*%
%TO.N,Net-(LED_.1-DOUT)*%
X239128300Y-122281250D03*
D18*
%TO.P,LED_.1,3,GND*%
%TO.N,GND*%
X233946700Y-122281250D03*
D16*
%TO.P,LED_.1,4,DIN*%
%TO.N,Net-(LED_\u002C1-DOUT)*%
X233946700Y-123781250D03*
%TD*%
%TO.P,LED_PRTSCN1,1,VDD*%
%TO.N,+5V*%
X324434200Y-103231250D03*
%TO.P,LED_PRTSCN1,2,DOUT*%
%TO.N,Net-(LED_ENTER1-DIN)*%
X324434200Y-104731250D03*
D17*
%TO.P,LED_PRTSCN1,3,GND*%
%TO.N,GND*%
X329615800Y-104731250D03*
D16*
%TO.P,LED_PRTSCN1,4,DIN*%
%TO.N,Net-(LED_PGUP1-DOUT)*%
X329615800Y-103231250D03*
%TD*%
%TO.P,LED_7,1,VDD*%
%TO.N,+5V*%
X172034200Y-65131250D03*
%TO.P,LED_7,2,DOUT*%
%TO.N,Net-(LED_6-DIN)*%
X172034200Y-66631250D03*
D17*
%TO.P,LED_7,3,GND*%
%TO.N,GND*%
X177215800Y-66631250D03*
D16*
%TO.P,LED_7,4,DIN*%
%TO.N,Net-(LED_7-DIN)*%
X177215800Y-65131250D03*
%TD*%
D19*
%TO.P,D76,1,K*%
%TO.N,ROW3*%
X303212500Y-100964000D03*
%TO.P,D76,2,A*%
%TO.N,Net-(D76-A)*%
X303212500Y-97664000D03*
%TD*%
D16*
%TO.P,LED_6,1,VDD*%
%TO.N,+5V*%
X152984200Y-65131250D03*
%TO.P,LED_6,2,DOUT*%
%TO.N,Net-(LED_5-DIN)*%
X152984200Y-66631250D03*
D17*
%TO.P,LED_6,3,GND*%
%TO.N,GND*%
X158165800Y-66631250D03*
D16*
%TO.P,LED_6,4,DIN*%
%TO.N,Net-(LED_6-DIN)*%
X158165800Y-65131250D03*
%TD*%
%TO.P,LED_Tilda1,1,VDD*%
%TO.N,+5V*%
X38684200Y-65131250D03*
%TO.P,LED_Tilda1,2,DOUT*%
%TO.N,Net-(LED_TAB1-DIN)*%
X38684200Y-66631250D03*
D17*
%TO.P,LED_Tilda1,3,GND*%
%TO.N,GND*%
X43865800Y-66631250D03*
D16*
%TO.P,LED_Tilda1,4,DIN*%
%TO.N,Net-(LED_1-DOUT)*%
X43865800Y-65131250D03*
%TD*%
%TO.P,LED_G1,1,VDD*%
%TO.N,+5V*%
X148100450Y-103231250D03*
%TO.P,LED_G1,2,DOUT*%
%TO.N,Net-(LED_F13-DIN)*%
X148100450Y-104731250D03*
D17*
%TO.P,LED_G1,3,GND*%
%TO.N,GND*%
X153282050Y-104731250D03*
D16*
%TO.P,LED_G1,4,DIN*%
%TO.N,Net-(LED_G1-DIN)*%
X153282050Y-103231250D03*
%TD*%
D19*
%TO.P,D38,1,K*%
%TO.N,ROW1*%
X162718750Y-62864000D03*
%TO.P,D38,2,A*%
%TO.N,Net-(D38-A)*%
X162718750Y-59564000D03*
%TD*%
D16*
%TO.P,LED_F5,1,VDD*%
%TO.N,+5V*%
X139115800Y-47581250D03*
%TO.P,LED_F5,2,DOUT*%
%TO.N,Net-(LED_F5-DOUT)*%
X139115800Y-46081250D03*
D18*
%TO.P,LED_F5,3,GND*%
%TO.N,GND*%
X133934200Y-46081250D03*
D16*
%TO.P,LED_F5,4,DIN*%
%TO.N,Net-(LED_F4-DOUT)*%
X133934200Y-47581250D03*
%TD*%
D19*
%TO.P,D51,1,K*%
%TO.N,ROW2*%
X210343750Y-81914000D03*
%TO.P,D51,2,A*%
%TO.N,Net-(D51-A)*%
X210343750Y-78614000D03*
%TD*%
D16*
%TO.P,LED_RIGHT1,1,VDD*%
%TO.N,+5V*%
X343484200Y-141331250D03*
%TO.P,LED_RIGHT1,2,DOUT*%
%TO.N,Net-(LED_DOWN1-DIN)*%
X343484200Y-142831250D03*
D17*
%TO.P,LED_RIGHT1,3,GND*%
%TO.N,GND*%
X348665800Y-142831250D03*
D16*
%TO.P,LED_RIGHT1,4,DIN*%
%TO.N,Net-(LED_PGDN1-DOUT)*%
X348665800Y-141331250D03*
%TD*%
D19*
%TO.P,D24,1,K*%
%TO.N,ROW5*%
X167481250Y-139762500D03*
%TO.P,D24,2,A*%
%TO.N,Net-(D24-A)*%
X167481250Y-136462500D03*
%TD*%
%TO.P,D55,1,K*%
%TO.N,ROW0*%
X219868750Y-43814000D03*
%TO.P,D55,2,A*%
%TO.N,Net-(D55-A)*%
X219868750Y-40514000D03*
%TD*%
%TO.P,D63,1,K*%
%TO.N,ROW2*%
X248443750Y-81914000D03*
%TO.P,D63,2,A*%
%TO.N,Net-(D63-A)*%
X248443750Y-78614000D03*
%TD*%
D16*
%TO.P,LED_F10,1,VDD*%
%TO.N,+5V*%
X234365800Y-47581250D03*
%TO.P,LED_F10,2,DOUT*%
%TO.N,Net-(LED_F10-DOUT)*%
X234365800Y-46081250D03*
D18*
%TO.P,LED_F10,3,GND*%
%TO.N,GND*%
X229184200Y-46081250D03*
D16*
%TO.P,LED_F10,4,DIN*%
%TO.N,Net-(LED_F10-DIN)*%
X229184200Y-47581250D03*
%TD*%
%TO.P,LED_Z1,1,VDD*%
%TO.N,+5V*%
X86728300Y-123781250D03*
%TO.P,LED_Z1,2,DOUT*%
%TO.N,Net-(LED_X1-DIN)*%
X86728300Y-122281250D03*
D18*
%TO.P,LED_Z1,3,GND*%
%TO.N,GND*%
X81546700Y-122281250D03*
D16*
%TO.P,LED_Z1,4,DIN*%
%TO.N,Net-(LED_LSHIFT1-DOUT)*%
X81546700Y-123781250D03*
%TD*%
%TO.P,LED_P1,1,VDD*%
%TO.N,+5V*%
X243890800Y-85681250D03*
%TO.P,LED_P1,2,DOUT*%
%TO.N,Net-(LED_P1-DOUT)*%
X243890800Y-84181250D03*
D18*
%TO.P,LED_P1,3,GND*%
%TO.N,GND*%
X238709200Y-84181250D03*
D16*
%TO.P,LED_P1,4,DIN*%
%TO.N,Net-(LED_O1-DOUT)*%
X238709200Y-85681250D03*
%TD*%
D19*
%TO.P,D23,1,K*%
%TO.N,ROW4*%
X129381250Y-120014000D03*
%TO.P,D23,2,A*%
%TO.N,Net-(D23-A)*%
X129381250Y-116714000D03*
%TD*%
D16*
%TO.P,LED_LEFT1,1,VDD*%
%TO.N,+5V*%
X305384200Y-141331250D03*
%TO.P,LED_LEFT1,2,DOUT*%
%TO.N,Net-(LED_LEFT1-DOUT)*%
X305384200Y-142831250D03*
D17*
%TO.P,LED_LEFT1,3,GND*%
%TO.N,GND*%
X310565800Y-142831250D03*
D16*
%TO.P,LED_LEFT1,4,DIN*%
%TO.N,Net-(LED_DOWN1-DOUT)*%
X310565800Y-141331250D03*
%TD*%
%TO.P,LED_9,1,VDD*%
%TO.N,+5V*%
X210134200Y-65131250D03*
%TO.P,LED_9,2,DOUT*%
%TO.N,Net-(LED_8-DIN)*%
X210134200Y-66631250D03*
D17*
%TO.P,LED_9,3,GND*%
%TO.N,GND*%
X215315800Y-66631250D03*
D16*
%TO.P,LED_9,4,DIN*%
%TO.N,Net-(LED_0-DOUT)*%
X215315800Y-65131250D03*
%TD*%
D19*
%TO.P,D13,1,K*%
%TO.N,ROW0*%
X86518750Y-43814000D03*
%TO.P,D13,2,A*%
%TO.N,Net-(D13-A)*%
X86518750Y-40514000D03*
%TD*%
%TO.P,D39,1,K*%
%TO.N,ROW2*%
X172243750Y-81914000D03*
%TO.P,D39,2,A*%
%TO.N,Net-(D39-A)*%
X172243750Y-78614000D03*
%TD*%
D27*
%TO.P,R6,1*%
%TO.N,Net-(J3-CC2)*%
X59015625Y-34131250D03*
%TO.P,R6,2*%
%TO.N,GND*%
X60840625Y-34131250D03*
%TD*%
D16*
%TO.P,LED_0,1,VDD*%
%TO.N,+5V*%
X229184200Y-65131250D03*
%TO.P,LED_0,2,DOUT*%
%TO.N,Net-(LED_0-DOUT)*%
X229184200Y-66631250D03*
D17*
%TO.P,LED_0,3,GND*%
%TO.N,GND*%
X234365800Y-66631250D03*
D16*
%TO.P,LED_0,4,DIN*%
%TO.N,Net-(LED_-1-DOUT)*%
X234365800Y-65131250D03*
%TD*%
D28*
%TO.P,R11,1*%
%TO.N,GND*%
X138112500Y-135056250D03*
%TO.P,R11,2*%
%TO.N,Net-(Q1-B)*%
X138112500Y-133231250D03*
%TD*%
D16*
%TO.P,LED_F11,1,VDD*%
%TO.N,+5V*%
X253537050Y-47581250D03*
%TO.P,LED_F11,2,DOUT*%
%TO.N,Net-(LED_F11-DOUT)*%
X253537050Y-46081250D03*
D18*
%TO.P,LED_F11,3,GND*%
%TO.N,GND*%
X248355450Y-46081250D03*
D16*
%TO.P,LED_F11,4,DIN*%
%TO.N,Net-(LED_F10-DOUT)*%
X248355450Y-47581250D03*
%TD*%
%TO.P,LED_E1,1,VDD*%
%TO.N,+5V*%
X110540800Y-85681250D03*
%TO.P,LED_E1,2,DOUT*%
%TO.N,Net-(LED_E1-DOUT)*%
X110540800Y-84181250D03*
D18*
%TO.P,LED_E1,3,GND*%
%TO.N,GND*%
X105359200Y-84181250D03*
D16*
%TO.P,LED_E1,4,DIN*%
%TO.N,Net-(LED_E1-DIN)*%
X105359200Y-85681250D03*
%TD*%
D19*
%TO.P,D52,1,K*%
%TO.N,ROW3*%
X215106250Y-100964000D03*
%TO.P,D52,2,A*%
%TO.N,Net-(D52-A)*%
X215106250Y-97664000D03*
%TD*%
D16*
%TO.P,LED_DOWN1,1,VDD*%
%TO.N,+5V*%
X324434200Y-141331250D03*
%TO.P,LED_DOWN1,2,DOUT*%
%TO.N,Net-(LED_DOWN1-DOUT)*%
X324434200Y-142831250D03*
D17*
%TO.P,LED_DOWN1,3,GND*%
%TO.N,GND*%
X329615800Y-142831250D03*
D16*
%TO.P,LED_DOWN1,4,DIN*%
%TO.N,Net-(LED_DOWN1-DIN)*%
X329615800Y-141331250D03*
%TD*%
%TO.P,LED_PGUP1,1,VDD*%
%TO.N,+5V*%
X343484200Y-103231250D03*
%TO.P,LED_PGUP1,2,DOUT*%
%TO.N,Net-(LED_PGUP1-DOUT)*%
X343484200Y-104731250D03*
D17*
%TO.P,LED_PGUP1,3,GND*%
%TO.N,GND*%
X348665800Y-104731250D03*
D16*
%TO.P,LED_PGUP1,4,DIN*%
%TO.N,Net-(LED_End1-DOUT)*%
X348665800Y-103231250D03*
%TD*%
D19*
%TO.P,D14,1,K*%
%TO.N,ROW1*%
X86518750Y-62864000D03*
%TO.P,D14,2,A*%
%TO.N,Net-(D14-A)*%
X86518750Y-59564000D03*
%TD*%
%TO.P,D32,1,K*%
%TO.N,ROW1*%
X143668750Y-62864000D03*
%TO.P,D32,2,A*%
%TO.N,Net-(D32-A)*%
X143668750Y-59564000D03*
%TD*%
%TO.P,D48,1,K*%
%TO.N,ROW5*%
X315118750Y-139064000D03*
%TO.P,D48,2,A*%
%TO.N,Net-(D48-A)*%
X315118750Y-135764000D03*
%TD*%
%TO.P,D40,1,K*%
%TO.N,ROW3*%
X177006250Y-100964000D03*
%TO.P,D40,2,A*%
%TO.N,Net-(D40-A)*%
X177006250Y-97664000D03*
%TD*%
D16*
%TO.P,LED_[1,1,VDD*%
%TO.N,+5V*%
X262940800Y-85681250D03*
%TO.P,LED_[1,2,DOUT*%
%TO.N,Net-(LED_[1-DOUT)*%
X262940800Y-84181250D03*
D18*
%TO.P,LED_[1,3,GND*%
%TO.N,GND*%
X257759200Y-84181250D03*
D16*
%TO.P,LED_[1,4,DIN*%
%TO.N,Net-(LED_P1-DOUT)*%
X257759200Y-85681250D03*
%TD*%
D19*
%TO.P,D28,1,K*%
%TO.N,ROW3*%
X138906250Y-100964000D03*
%TO.P,D28,2,A*%
%TO.N,Net-(D28-A)*%
X138906250Y-97664000D03*
%TD*%
%TO.P,D3,1,K*%
%TO.N,ROW1*%
X48418750Y-62864000D03*
%TO.P,D3,2,A*%
%TO.N,Net-(D3-A)*%
X48418750Y-59564000D03*
%TD*%
D16*
%TO.P,LED_;1,1,VDD*%
%TO.N,+5V*%
X243471700Y-103231250D03*
%TO.P,LED_;1,2,DOUT*%
%TO.N,Net-(LED_;1-DOUT)*%
X243471700Y-104731250D03*
D17*
%TO.P,LED_;1,3,GND*%
%TO.N,GND*%
X248653300Y-104731250D03*
D16*
%TO.P,LED_;1,4,DIN*%
%TO.N,Net-(LED_'1-DOUT)*%
X248653300Y-103231250D03*
%TD*%
D19*
%TO.P,D25,1,K*%
%TO.N,ROW0*%
X124618750Y-43814000D03*
%TO.P,D25,2,A*%
%TO.N,Net-(D25-A)*%
X124618750Y-40514000D03*
%TD*%
D16*
%TO.P,LED_End1,1,VDD*%
%TO.N,+5V*%
X348665800Y-85681250D03*
%TO.P,LED_End1,2,DOUT*%
%TO.N,Net-(LED_End1-DOUT)*%
X348665800Y-84181250D03*
D18*
%TO.P,LED_End1,3,GND*%
%TO.N,GND*%
X343484200Y-84181250D03*
D16*
%TO.P,LED_End1,4,DIN*%
%TO.N,Net-(LED_Del1-DOUT)*%
X343484200Y-85681250D03*
%TD*%
%TO.P,LED_TAB1,1,VDD*%
%TO.N,+5V*%
X48628300Y-85681250D03*
%TO.P,LED_TAB1,2,DOUT*%
%TO.N,Net-(LED_Q1-DIN)*%
X48628300Y-84181250D03*
D18*
%TO.P,LED_TAB1,3,GND*%
%TO.N,GND*%
X43446700Y-84181250D03*
D16*
%TO.P,LED_TAB1,4,DIN*%
%TO.N,Net-(LED_TAB1-DIN)*%
X43446700Y-85681250D03*
%TD*%
D19*
%TO.P,D73,1,K*%
%TO.N,ROW0*%
X277368000Y-43814000D03*
%TO.P,D73,2,A*%
%TO.N,Net-(D73-A)*%
X277368000Y-40514000D03*
%TD*%
D16*
%TO.P,LED_ENTER1,1,VDD*%
%TO.N,+5V*%
X293477950Y-103231250D03*
%TO.P,LED_ENTER1,2,DOUT*%
%TO.N,Net-(LED_'1-DIN)*%
X293477950Y-104731250D03*
D17*
%TO.P,LED_ENTER1,3,GND*%
%TO.N,GND*%
X298659550Y-104731250D03*
D16*
%TO.P,LED_ENTER1,4,DIN*%
%TO.N,Net-(LED_ENTER1-DIN)*%
X298659550Y-103231250D03*
%TD*%
%TO.P,LED_H1,1,VDD*%
%TO.N,+5V*%
X167271700Y-103231250D03*
%TO.P,LED_H1,2,DOUT*%
%TO.N,Net-(LED_G1-DIN)*%
X167271700Y-104731250D03*
D17*
%TO.P,LED_H1,3,GND*%
%TO.N,GND*%
X172453300Y-104731250D03*
D16*
%TO.P,LED_H1,4,DIN*%
%TO.N,Net-(LED_H1-DIN)*%
X172453300Y-103231250D03*
%TD*%
%TO.P,LED_Q1,1,VDD*%
%TO.N,+5V*%
X72440800Y-85681250D03*
%TO.P,LED_Q1,2,DOUT*%
%TO.N,Net-(LED_Q1-DOUT)*%
X72440800Y-84181250D03*
D18*
%TO.P,LED_Q1,3,GND*%
%TO.N,GND*%
X67259200Y-84181250D03*
D16*
%TO.P,LED_Q1,4,DIN*%
%TO.N,Net-(LED_Q1-DIN)*%
X67259200Y-85681250D03*
%TD*%
%TO.P,LED_J1,1,VDD*%
%TO.N,+5V*%
X186321700Y-103231250D03*
%TO.P,LED_J1,2,DOUT*%
%TO.N,Net-(LED_H1-DIN)*%
X186321700Y-104731250D03*
D17*
%TO.P,LED_J1,3,GND*%
%TO.N,GND*%
X191503300Y-104731250D03*
D16*
%TO.P,LED_J1,4,DIN*%
%TO.N,Net-(LED_J1-DIN)*%
X191503300Y-103231250D03*
%TD*%
%TO.P,LED_C1,1,VDD*%
%TO.N,+5V*%
X124707050Y-123781250D03*
%TO.P,LED_C1,2,DOUT*%
%TO.N,Net-(LED_C1-DOUT)*%
X124707050Y-122281250D03*
D18*
%TO.P,LED_C1,3,GND*%
%TO.N,GND*%
X119525450Y-122281250D03*
D16*
%TO.P,LED_C1,4,DIN*%
%TO.N,Net-(LED_C1-DIN)*%
X119525450Y-123781250D03*
%TD*%
D19*
%TO.P,D35,1,K*%
%TO.N,ROW4*%
X167481250Y-120014000D03*
%TO.P,D35,2,A*%
%TO.N,Net-(D35-A)*%
X167481250Y-116714000D03*
%TD*%
%TO.P,D58,1,K*%
%TO.N,ROW3*%
X234156250Y-100964000D03*
%TO.P,D58,2,A*%
%TO.N,Net-(D58-A)*%
X234156250Y-97664000D03*
%TD*%
D29*
%TO.P,U1,1,EN*%
%TO.N,+5V*%
X52905000Y-41887500D03*
%TO.P,U1,2,IN*%
X52905000Y-42537500D03*
%TO.P,U1,3,OUT*%
%TO.N,+3V3*%
X52905000Y-43187500D03*
%TO.P,U1,4,BP*%
%TO.N,unconnected-(U1-BP-Pad4)*%
X52905000Y-43837500D03*
D30*
%TO.P,U1,5,GND*%
%TO.N,GND*%
X48695000Y-43837500D03*
%TO.P,U1,6,GND*%
X48695000Y-43187500D03*
%TO.P,U1,7,GND*%
X48695000Y-42537500D03*
%TO.P,U1,8,GND*%
X48695000Y-41887500D03*
%TD*%
D16*
%TO.P,LED_R1,1,VDD*%
%TO.N,+5V*%
X129590800Y-85681250D03*
%TO.P,LED_R1,2,DOUT*%
%TO.N,Net-(LED_R1-DOUT)*%
X129590800Y-84181250D03*
D18*
%TO.P,LED_R1,3,GND*%
%TO.N,GND*%
X124409200Y-84181250D03*
D16*
%TO.P,LED_R1,4,DIN*%
%TO.N,Net-(LED_E1-DOUT)*%
X124409200Y-85681250D03*
%TD*%
%TO.P,LED_LCTRL1,1,VDD*%
%TO.N,+5V*%
X41065450Y-141331250D03*
%TO.P,LED_LCTRL1,2,DOUT*%
%TO.N,unconnected-(LED_LCTRL1-DOUT-Pad2)*%
X41065450Y-142831250D03*
D17*
%TO.P,LED_LCTRL1,3,GND*%
%TO.N,GND*%
X46247050Y-142831250D03*
D16*
%TO.P,LED_LCTRL1,4,DIN*%
%TO.N,Net-(LED_LCTRL1-DIN)*%
X46247050Y-141331250D03*
%TD*%
%TO.P,LED_3,1,VDD*%
%TO.N,+5V*%
X95834200Y-65131250D03*
%TO.P,LED_3,2,DOUT*%
%TO.N,Net-(LED_2-DIN)*%
X95834200Y-66631250D03*
D17*
%TO.P,LED_3,3,GND*%
%TO.N,GND*%
X101015800Y-66631250D03*
D16*
%TO.P,LED_3,4,DIN*%
%TO.N,Net-(LED_3-DIN)*%
X101015800Y-65131250D03*
%TD*%
D31*
%TO.P,SW1,1,1*%
%TO.N,Net-(Q1-B)*%
X134862500Y-134675000D03*
%TO.P,SW1,2,2*%
%TO.N,+3V3*%
X128662500Y-138375000D03*
%TO.P,SW1,3*%
%TO.N,N/C*%
X134862500Y-138375000D03*
%TO.P,SW1,4*%
X128662500Y-134675000D03*
%TD*%
D16*
%TO.P,LED_F7,1,VDD*%
%TO.N,+5V*%
X177215800Y-47581250D03*
%TO.P,LED_F7,2,DOUT*%
%TO.N,Net-(LED_F7-DOUT)*%
X177215800Y-46081250D03*
D18*
%TO.P,LED_F7,3,GND*%
%TO.N,GND*%
X172034200Y-46081250D03*
D16*
%TO.P,LED_F7,4,DIN*%
%TO.N,Net-(LED_F6-DOUT)*%
X172034200Y-47581250D03*
%TD*%
D19*
%TO.P,D45,1,K*%
%TO.N,ROW2*%
X191293750Y-81914000D03*
%TO.P,D45,2,A*%
%TO.N,Net-(D45-A)*%
X191293750Y-78614000D03*
%TD*%
%TO.P,D74,1,K*%
%TO.N,ROW1*%
X277018750Y-62864000D03*
%TO.P,D74,2,A*%
%TO.N,Net-(D74-A)*%
X277018750Y-59564000D03*
%TD*%
%TO.P,D82,1,K*%
%TO.N,ROW3*%
X334168750Y-100964000D03*
%TO.P,D82,2,A*%
%TO.N,Net-(D82-A)*%
X334168750Y-97664000D03*
%TD*%
%TO.P,D57,1,K*%
%TO.N,ROW2*%
X229393750Y-81914000D03*
%TO.P,D57,2,A*%
%TO.N,Net-(D57-A)*%
X229393750Y-78614000D03*
%TD*%
D16*
%TO.P,LED_/1,1,VDD*%
%TO.N,+5V*%
X258178300Y-123781250D03*
%TO.P,LED_/1,2,DOUT*%
%TO.N,Net-(LED_/1-DOUT)*%
X258178300Y-122281250D03*
D18*
%TO.P,LED_/1,3,GND*%
%TO.N,GND*%
X252996700Y-122281250D03*
D16*
%TO.P,LED_/1,4,DIN*%
%TO.N,Net-(LED_.1-DOUT)*%
X252996700Y-123781250D03*
%TD*%
D19*
%TO.P,D56,1,K*%
%TO.N,ROW1*%
X219868750Y-62864000D03*
%TO.P,D56,2,A*%
%TO.N,Net-(D56-A)*%
X219868750Y-59564000D03*
%TD*%
D27*
%TO.P,R1,1*%
%TO.N,B*%
X338018750Y-73818750D03*
%TO.P,R1,2*%
%TO.N,+5V*%
X339843750Y-73818750D03*
%TD*%
D32*
%TO.P,C10,1*%
%TO.N,B*%
X337981250Y-70643750D03*
%TO.P,C10,2*%
%TO.N,GND*%
X339881250Y-70643750D03*
%TD*%
D19*
%TO.P,D83,1,K*%
%TO.N,ROW4*%
X353218750Y-120014000D03*
%TO.P,D83,2,A*%
%TO.N,Net-(D83-A)*%
X353218750Y-116714000D03*
%TD*%
D16*
%TO.P,LED_8,1,VDD*%
%TO.N,+5V*%
X191084200Y-65131250D03*
%TO.P,LED_8,2,DOUT*%
%TO.N,Net-(LED_7-DIN)*%
X191084200Y-66631250D03*
D17*
%TO.P,LED_8,3,GND*%
%TO.N,GND*%
X196265800Y-66631250D03*
D16*
%TO.P,LED_8,4,DIN*%
%TO.N,Net-(LED_8-DIN)*%
X196265800Y-65131250D03*
%TD*%
D32*
%TO.P,C1,1*%
%TO.N,GND*%
X145100000Y-136525000D03*
%TO.P,C1,2*%
%TO.N,Net-(U3-PF0)*%
X147000000Y-136525000D03*
%TD*%
D16*
%TO.P,LED_1,1,VDD*%
%TO.N,+5V*%
X57734200Y-65131250D03*
%TO.P,LED_1,2,DOUT*%
%TO.N,Net-(LED_1-DOUT)*%
X57734200Y-66631250D03*
D17*
%TO.P,LED_1,3,GND*%
%TO.N,GND*%
X62915800Y-66631250D03*
D16*
%TO.P,LED_1,4,DIN*%
%TO.N,Net-(LED_1-DIN)*%
X62915800Y-65131250D03*
%TD*%
D28*
%TO.P,R2,1*%
%TO.N,+3V3*%
X48418750Y-55419000D03*
%TO.P,R2,2*%
%TO.N,Net-(J3-D+-PadA6)*%
X48418750Y-53594000D03*
%TD*%
D19*
%TO.P,D42,1,K*%
%TO.N,ROW5*%
X284162500Y-139064000D03*
%TO.P,D42,2,A*%
%TO.N,Net-(D42-A)*%
X284162500Y-135764000D03*
%TD*%
D16*
%TO.P,LED_U1,1,VDD*%
%TO.N,+5V*%
X186740800Y-85681250D03*
%TO.P,LED_U1,2,DOUT*%
%TO.N,Net-(LED_I1-DIN)*%
X186740800Y-84181250D03*
D18*
%TO.P,LED_U1,3,GND*%
%TO.N,GND*%
X181559200Y-84181250D03*
D16*
%TO.P,LED_U1,4,DIN*%
%TO.N,Net-(LED_U1-DIN)*%
X181559200Y-85681250D03*
%TD*%
D19*
%TO.P,D16,1,K*%
%TO.N,ROW3*%
X100806250Y-100964000D03*
%TO.P,D16,2,A*%
%TO.N,Net-(D16-A)*%
X100806250Y-97664000D03*
%TD*%
D33*
%TO.P,Q1,1,B*%
%TO.N,Net-(Q1-B)*%
X135196250Y-132162500D03*
%TO.P,Q1,2,E*%
%TO.N,GND*%
X135196250Y-131362500D03*
D34*
%TO.P,Q1,3,C*%
%TO.N,Net-(Q1-C)*%
X136266250Y-131762500D03*
%TD*%
D16*
%TO.P,LED_O1,1,VDD*%
%TO.N,+5V*%
X224840800Y-85681250D03*
%TO.P,LED_O1,2,DOUT*%
%TO.N,Net-(LED_O1-DOUT)*%
X224840800Y-84181250D03*
D18*
%TO.P,LED_O1,3,GND*%
%TO.N,GND*%
X219659200Y-84181250D03*
D16*
%TO.P,LED_O1,4,DIN*%
%TO.N,Net-(LED_I1-DOUT)*%
X219659200Y-85681250D03*
%TD*%
D19*
%TO.P,D69,1,K*%
%TO.N,ROW2*%
X267493750Y-81914000D03*
%TO.P,D69,2,A*%
%TO.N,Net-(D69-A)*%
X267493750Y-78614000D03*
%TD*%
%TO.P,D4,1,K*%
%TO.N,ROW1*%
X67468750Y-62864000D03*
%TO.P,D4,2,A*%
%TO.N,Net-(D4-A)*%
X67468750Y-59564000D03*
%TD*%
D16*
%TO.P,LED_F12,1,VDD*%
%TO.N,+5V*%
X272465800Y-47581250D03*
%TO.P,LED_F12,2,DOUT*%
%TO.N,Net-(LED_F12-DOUT)*%
X272465800Y-46081250D03*
D18*
%TO.P,LED_F12,3,GND*%
%TO.N,GND*%
X267284200Y-46081250D03*
D16*
%TO.P,LED_F12,4,DIN*%
%TO.N,Net-(LED_F11-DOUT)*%
X267284200Y-47581250D03*
%TD*%
D19*
%TO.P,D87,1,K*%
%TO.N,ROW2*%
X334168750Y-81914000D03*
%TO.P,D87,2,A*%
%TO.N,Net-(D87-A)*%
X334168750Y-78614000D03*
%TD*%
D16*
%TO.P,LED_W1,1,VDD*%
%TO.N,+5V*%
X91490800Y-85681250D03*
%TO.P,LED_W1,2,DOUT*%
%TO.N,Net-(LED_E1-DIN)*%
X91490800Y-84181250D03*
D18*
%TO.P,LED_W1,3,GND*%
%TO.N,GND*%
X86309200Y-84181250D03*
D16*
%TO.P,LED_W1,4,DIN*%
%TO.N,Net-(LED_Q1-DOUT)*%
X86309200Y-85681250D03*
%TD*%
%TO.P,LED_4,1,VDD*%
%TO.N,+5V*%
X114884200Y-65131250D03*
%TO.P,LED_4,2,DOUT*%
%TO.N,Net-(LED_3-DIN)*%
X114884200Y-66631250D03*
D17*
%TO.P,LED_4,3,GND*%
%TO.N,GND*%
X120065800Y-66631250D03*
D16*
%TO.P,LED_4,4,DIN*%
%TO.N,Net-(LED_4-DIN)*%
X120065800Y-65131250D03*
%TD*%
%TO.P,LED_X1,1,VDD*%
%TO.N,+5V*%
X105778300Y-123781250D03*
%TO.P,LED_X1,2,DOUT*%
%TO.N,Net-(LED_C1-DIN)*%
X105778300Y-122281250D03*
D18*
%TO.P,LED_X1,3,GND*%
%TO.N,GND*%
X100596700Y-122281250D03*
D16*
%TO.P,LED_X1,4,DIN*%
%TO.N,Net-(LED_X1-DIN)*%
X100596700Y-123781250D03*
%TD*%
%TO.P,LED_LALT1,1,VDD*%
%TO.N,+5V*%
X88690450Y-141331250D03*
%TO.P,LED_LALT1,2,DOUT*%
%TO.N,Net-(LED_LALT1-DOUT)*%
X88690450Y-142831250D03*
D17*
%TO.P,LED_LALT1,3,GND*%
%TO.N,GND*%
X93872050Y-142831250D03*
D16*
%TO.P,LED_LALT1,4,DIN*%
%TO.N,Net-(LED_LALT1-DIN)*%
X93872050Y-141331250D03*
%TD*%
D19*
%TO.P,D50,1,K*%
%TO.N,ROW1*%
X200818750Y-62864000D03*
%TO.P,D50,2,A*%
%TO.N,Net-(D50-A)*%
X200818750Y-59564000D03*
%TD*%
%TO.P,D43,1,K*%
%TO.N,ROW0*%
X181768750Y-43814000D03*
%TO.P,D43,2,A*%
%TO.N,Net-(D43-A)*%
X181768750Y-40514000D03*
%TD*%
%TO.P,D54,1,K*%
%TO.N,ROW5*%
X334168750Y-139064000D03*
%TO.P,D54,2,A*%
%TO.N,Net-(D54-A)*%
X334168750Y-135764000D03*
%TD*%
%TO.P,D46,1,K*%
%TO.N,ROW3*%
X196056250Y-100964000D03*
%TO.P,D46,2,A*%
%TO.N,Net-(D46-A)*%
X196056250Y-97664000D03*
%TD*%
D16*
%TO.P,LED_F3,1,VDD*%
%TO.N,+5V*%
X101015800Y-47581250D03*
%TO.P,LED_F3,2,DOUT*%
%TO.N,Net-(LED_F3-DOUT)*%
X101015800Y-46081250D03*
D18*
%TO.P,LED_F3,3,GND*%
%TO.N,GND*%
X95834200Y-46081250D03*
D16*
%TO.P,LED_F3,4,DIN*%
%TO.N,Net-(LED_F2-DOUT)*%
X95834200Y-47581250D03*
%TD*%
D19*
%TO.P,D68,1,K*%
%TO.N,ROW1*%
X257968750Y-62864000D03*
%TO.P,D68,2,A*%
%TO.N,Net-(D68-A)*%
X257968750Y-59564000D03*
%TD*%
%TO.P,D31,1,K*%
%TO.N,ROW0*%
X143668750Y-43814000D03*
%TO.P,D31,2,A*%
%TO.N,Net-(D31-A)*%
X143668750Y-40514000D03*
%TD*%
D35*
%TO.P,U3,1,VBAT*%
%TO.N,+3V3*%
X177606000Y-128437000D03*
%TO.P,U3,2,PC13*%
%TO.N,unconnected-(U3-PC13-Pad2)*%
X178106000Y-128437000D03*
%TO.P,U3,3,PC14*%
%TO.N,unconnected-(U3-PC14-Pad3)*%
X178606000Y-128437000D03*
%TO.P,U3,4,PC15*%
%TO.N,unconnected-(U3-PC15-Pad4)*%
X179106000Y-128437000D03*
%TO.P,U3,5,PF0*%
%TO.N,Net-(U3-PF0)*%
X179606000Y-128437000D03*
%TO.P,U3,6,PF1*%
%TO.N,Net-(U3-PF1)*%
X180106000Y-128437000D03*
%TO.P,U3,7,NRST*%
%TO.N,Net-(U3-NRST)*%
X180606000Y-128437000D03*
%TO.P,U3,8,PC0*%
%TO.N,D+*%
X181106000Y-128437000D03*
%TO.P,U3,9,PC1*%
%TO.N,D-*%
X181606000Y-128437000D03*
%TO.P,U3,10,PC2*%
%TO.N,unconnected-(U3-PC2-Pad10)*%
X182106000Y-128437000D03*
%TO.P,U3,11,PC3*%
%TO.N,COL6*%
X182606000Y-128437000D03*
%TO.P,U3,12,VSSA*%
%TO.N,GND*%
X183106000Y-128437000D03*
%TO.P,U3,13,VDDA*%
%TO.N,+3V3*%
X183606000Y-128437000D03*
%TO.P,U3,14,PA0*%
%TO.N,A*%
X184106000Y-128437000D03*
%TO.P,U3,15,PA1*%
%TO.N,B*%
X184606000Y-128437000D03*
%TO.P,U3,16,PA2*%
%TO.N,S1*%
X185106000Y-128437000D03*
D36*
%TO.P,U3,17,PA3*%
%TO.N,unconnected-(U3-PA3-Pad17)*%
X187031000Y-130362000D03*
%TO.P,U3,18,VSS*%
%TO.N,GND*%
X187031000Y-130862000D03*
%TO.P,U3,19,VDD*%
%TO.N,+3V3*%
X187031000Y-131362000D03*
%TO.P,U3,20,PA4*%
%TO.N,unconnected-(U3-PA4-Pad20)*%
X187031000Y-131862000D03*
%TO.P,U3,21,PA5*%
%TO.N,unconnected-(U3-PA5-Pad21)*%
X187031000Y-132362000D03*
%TO.P,U3,22,PA6*%
%TO.N,COL7*%
X187031000Y-132862000D03*
%TO.P,U3,23,PA7*%
%TO.N,COL8*%
X187031000Y-133362000D03*
%TO.P,U3,24,PC4*%
%TO.N,COL15*%
X187031000Y-133862000D03*
%TO.P,U3,25,PC5*%
%TO.N,COL14*%
X187031000Y-134362000D03*
%TO.P,U3,26,PB0*%
%TO.N,COL13*%
X187031000Y-134862000D03*
%TO.P,U3,27,PB1*%
%TO.N,COL12*%
X187031000Y-135362000D03*
%TO.P,U3,28,PB2*%
%TO.N,COL11*%
X187031000Y-135862000D03*
%TO.P,U3,29,PB10*%
%TO.N,COL10*%
X187031000Y-136362000D03*
%TO.P,U3,30,PB11*%
%TO.N,COL9*%
X187031000Y-136862000D03*
%TO.P,U3,31,VSS*%
%TO.N,GND*%
X187031000Y-137362000D03*
%TO.P,U3,32,VDD*%
%TO.N,+3V3*%
X187031000Y-137862000D03*
D35*
%TO.P,U3,33,PB12*%
%TO.N,unconnected-(U3-PB12-Pad33)*%
X185106000Y-139787000D03*
%TO.P,U3,34,PB13*%
%TO.N,unconnected-(U3-PB13-Pad34)*%
X184606000Y-139787000D03*
%TO.P,U3,35,PB14*%
%TO.N,unconnected-(U3-PB14-Pad35)*%
X184106000Y-139787000D03*
%TO.P,U3,36,PB15*%
%TO.N,unconnected-(U3-PB15-Pad36)*%
X183606000Y-139787000D03*
%TO.P,U3,37,PC6*%
%TO.N,unconnected-(U3-PC6-Pad37)*%
X183106000Y-139787000D03*
%TO.P,U3,38,PC7*%
%TO.N,unconnected-(U3-PC7-Pad38)*%
X182606000Y-139787000D03*
%TO.P,U3,39,PC8*%
%TO.N,unconnected-(U3-PC8-Pad39)*%
X182106000Y-139787000D03*
%TO.P,U3,40,PC9*%
%TO.N,unconnected-(U3-PC9-Pad40)*%
X181606000Y-139787000D03*
%TO.P,U3,41,PA8*%
%TO.N,ROW0*%
X181106000Y-139787000D03*
%TO.P,U3,42,PA9*%
%TO.N,ROW1*%
X180606000Y-139787000D03*
%TO.P,U3,43,PA10*%
%TO.N,ROW2*%
X180106000Y-139787000D03*
%TO.P,U3,44,PA11*%
%TO.N,ROW5*%
X179606000Y-139787000D03*
%TO.P,U3,45,PA12*%
%TO.N,ROW4*%
X179106000Y-139787000D03*
%TO.P,U3,46,PA13*%
%TO.N,ROW3*%
X178606000Y-139787000D03*
%TO.P,U3,47,VSS*%
%TO.N,GND*%
X178106000Y-139787000D03*
%TO.P,U3,48,VDDIO2*%
%TO.N,+3V3*%
X177606000Y-139787000D03*
D36*
%TO.P,U3,49,PA14*%
%TO.N,RGB_PIN*%
X175681000Y-137862000D03*
%TO.P,U3,50,PA15*%
%TO.N,unconnected-(U3-PA15-Pad50)*%
X175681000Y-137362000D03*
%TO.P,U3,51,PC10*%
%TO.N,unconnected-(U3-PC10-Pad51)*%
X175681000Y-136862000D03*
%TO.P,U3,52,PC11*%
%TO.N,unconnected-(U3-PC11-Pad52)*%
X175681000Y-136362000D03*
%TO.P,U3,53,PC12*%
%TO.N,unconnected-(U3-PC12-Pad53)*%
X175681000Y-135862000D03*
%TO.P,U3,54,PD2*%
%TO.N,unconnected-(U3-PD2-Pad54)*%
X175681000Y-135362000D03*
%TO.P,U3,55,PB3*%
%TO.N,COL2*%
X175681000Y-134862000D03*
%TO.P,U3,56,PB4*%
%TO.N,COL1*%
X175681000Y-134362000D03*
%TO.P,U3,57,PB5*%
%TO.N,COL0*%
X175681000Y-133862000D03*
%TO.P,U3,58,PB6*%
%TO.N,COL4*%
X175681000Y-133362000D03*
%TO.P,U3,59,PB7*%
%TO.N,COL3*%
X175681000Y-132862000D03*
%TO.P,U3,60,BOOT0*%
%TO.N,Net-(Q1-B)*%
X175681000Y-132362000D03*
%TO.P,U3,61,PB8*%
%TO.N,COL5*%
X175681000Y-131862000D03*
%TO.P,U3,62,PB9*%
%TO.N,unconnected-(U3-PB9-Pad62)*%
X175681000Y-131362000D03*
%TO.P,U3,63,VSS*%
%TO.N,GND*%
X175681000Y-130862000D03*
%TO.P,U3,64,VDD*%
%TO.N,+3V3*%
X175681000Y-130362000D03*
%TD*%
D19*
%TO.P,D65,1,K*%
%TO.N,ROW4*%
X262731250Y-120014000D03*
%TO.P,D65,2,A*%
%TO.N,Net-(D65-A)*%
X262731250Y-116714000D03*
%TD*%
%TO.P,D81,1,K*%
%TO.N,ROW2*%
X310356250Y-81914000D03*
%TO.P,D81,2,A*%
%TO.N,Net-(D81-A)*%
X310356250Y-78614000D03*
%TD*%
%TO.P,D92,1,K*%
%TO.N,ROW1*%
X353218750Y-62864000D03*
%TO.P,D92,2,A*%
%TO.N,Net-(D92-A)*%
X353218750Y-59564000D03*
%TD*%
%TO.P,D19,1,K*%
%TO.N,ROW0*%
X105568750Y-43814000D03*
%TO.P,D19,2,A*%
%TO.N,Net-(D19-A)*%
X105568750Y-40514000D03*
%TD*%
D16*
%TO.P,LED_'1,1,VDD*%
%TO.N,+5V*%
X262521700Y-103231250D03*
%TO.P,LED_'1,2,DOUT*%
%TO.N,Net-(LED_'1-DOUT)*%
X262521700Y-104731250D03*
D17*
%TO.P,LED_'1,3,GND*%
%TO.N,GND*%
X267703300Y-104731250D03*
D16*
%TO.P,LED_'1,4,DIN*%
%TO.N,Net-(LED_'1-DIN)*%
X267703300Y-103231250D03*
%TD*%
D19*
%TO.P,D44,1,K*%
%TO.N,ROW1*%
X181768750Y-62864000D03*
%TO.P,D44,2,A*%
%TO.N,Net-(D44-A)*%
X181768750Y-59564000D03*
%TD*%
D16*
%TO.P,LED_RCTRL1,1,VDD*%
%TO.N,+5V*%
X274427950Y-141331250D03*
%TO.P,LED_RCTRL1,2,DOUT*%
%TO.N,Net-(LED_RCTRL1-DOUT)*%
X274427950Y-142831250D03*
D17*
%TO.P,LED_RCTRL1,3,GND*%
%TO.N,GND*%
X279609550Y-142831250D03*
D16*
%TO.P,LED_RCTRL1,4,DIN*%
%TO.N,Net-(LED_LEFT1-DOUT)*%
X279609550Y-141331250D03*
%TD*%
D19*
%TO.P,D49,1,K*%
%TO.N,ROW0*%
X200818750Y-43814000D03*
%TO.P,D49,2,A*%
%TO.N,Net-(D49-A)*%
X200818750Y-40514000D03*
%TD*%
D20*
%TO.P,R10,1*%
%TO.N,Net-(Q1-C)*%
X138112500Y-129262500D03*
%TO.P,R10,2*%
%TO.N,Net-(U3-NRST)*%
X138112500Y-131087500D03*
%TD*%
D16*
%TO.P,LED_D1,1,VDD*%
%TO.N,+5V*%
X110242950Y-103231250D03*
%TO.P,LED_D1,2,DOUT*%
%TO.N,Net-(LED_D1-DOUT)*%
X110242950Y-104731250D03*
D17*
%TO.P,LED_D1,3,GND*%
%TO.N,GND*%
X115424550Y-104731250D03*
D16*
%TO.P,LED_D1,4,DIN*%
%TO.N,Net-(LED_D1-DIN)*%
X115424550Y-103231250D03*
%TD*%
D19*
%TO.P,D53,1,K*%
%TO.N,ROW4*%
X224631250Y-120014000D03*
%TO.P,D53,2,A*%
%TO.N,Net-(D53-A)*%
X224631250Y-116714000D03*
%TD*%
%TO.P,D6,1,K*%
%TO.N,ROW3*%
X55562500Y-100964000D03*
%TO.P,D6,2,A*%
%TO.N,Net-(D6-A)*%
X55562500Y-97664000D03*
%TD*%
D16*
%TO.P,LED_RALT1,1,VDD*%
%TO.N,+5V*%
X226802950Y-141331250D03*
%TO.P,LED_RALT1,2,DOUT*%
%TO.N,Net-(LED_RALT1-DOUT)*%
X226802950Y-142831250D03*
D17*
%TO.P,LED_RALT1,3,GND*%
%TO.N,GND*%
X231984550Y-142831250D03*
D16*
%TO.P,LED_RALT1,4,DIN*%
%TO.N,Net-(LED_RALT1-DIN)*%
X231984550Y-141331250D03*
%TD*%
D19*
%TO.P,D2,1,K*%
%TO.N,ROW0*%
X67468750Y-43814000D03*
%TO.P,D2,2,A*%
%TO.N,Net-(D2-A)*%
X67468750Y-40514000D03*
%TD*%
D16*
%TO.P,LED_RWIN1,1,VDD*%
%TO.N,+5V*%
X250615450Y-141331250D03*
%TO.P,LED_RWIN1,2,DOUT*%
%TO.N,Net-(LED_RALT1-DIN)*%
X250615450Y-142831250D03*
D17*
%TO.P,LED_RWIN1,3,GND*%
%TO.N,GND*%
X255797050Y-142831250D03*
D16*
%TO.P,LED_RWIN1,4,DIN*%
%TO.N,Net-(LED_RCTRL1-DOUT)*%
X255797050Y-141331250D03*
%TD*%
D37*
%TO.P,R9,1*%
%TO.N,+5V*%
X338653125Y-55165625D03*
%TO.P,R9,2*%
%TO.N,A*%
X336828125Y-55165625D03*
%TD*%
D19*
%TO.P,D64,1,K*%
%TO.N,ROW3*%
X253206250Y-100964000D03*
%TO.P,D64,2,A*%
%TO.N,Net-(D64-A)*%
X253206250Y-97664000D03*
%TD*%
%TO.P,D36,1,K*%
%TO.N,ROW5*%
X260350000Y-139064000D03*
%TO.P,D36,2,A*%
%TO.N,Net-(D36-A)*%
X260350000Y-135764000D03*
%TD*%
D38*
%TO.P,D1,1,K*%
%TO.N,ROW0*%
X39487750Y-34194250D03*
%TO.P,D1,2,A*%
%TO.N,Net-(D1-A)*%
X36187750Y-34194250D03*
%TD*%
D16*
%TO.P,LED_F4,1,VDD*%
%TO.N,+5V*%
X120065800Y-47581250D03*
%TO.P,LED_F4,2,DOUT*%
%TO.N,Net-(LED_F4-DOUT)*%
X120065800Y-46081250D03*
D18*
%TO.P,LED_F4,3,GND*%
%TO.N,GND*%
X114884200Y-46081250D03*
D16*
%TO.P,LED_F4,4,DIN*%
%TO.N,Net-(LED_F3-DOUT)*%
X114884200Y-47581250D03*
%TD*%
%TO.P,LED_2,1,VDD*%
%TO.N,+5V*%
X76784200Y-65131250D03*
%TO.P,LED_2,2,DOUT*%
%TO.N,Net-(LED_1-DIN)*%
X76784200Y-66631250D03*
D17*
%TO.P,LED_2,3,GND*%
%TO.N,GND*%
X81965800Y-66631250D03*
D16*
%TO.P,LED_2,4,DIN*%
%TO.N,Net-(LED_2-DIN)*%
X81965800Y-65131250D03*
%TD*%
%TO.P,LED_V1,1,VDD*%
%TO.N,+5V*%
X143878300Y-123781250D03*
%TO.P,LED_V1,2,DOUT*%
%TO.N,Net-(LED_B1-DIN)*%
X143878300Y-122281250D03*
D18*
%TO.P,LED_V1,3,GND*%
%TO.N,GND*%
X138696700Y-122281250D03*
D16*
%TO.P,LED_V1,4,DIN*%
%TO.N,Net-(LED_C1-DOUT)*%
X138696700Y-123781250D03*
%TD*%
%TO.P,LED_N1,1,VDD*%
%TO.N,+5V*%
X181978300Y-123781250D03*
%TO.P,LED_N1,2,DOUT*%
%TO.N,Net-(LED_M1-DIN)*%
X181978300Y-122281250D03*
D18*
%TO.P,LED_N1,3,GND*%
%TO.N,GND*%
X176796700Y-122281250D03*
D16*
%TO.P,LED_N1,4,DIN*%
%TO.N,Net-(LED_B1-DOUT)*%
X176796700Y-123781250D03*
%TD*%
D19*
%TO.P,D27,1,K*%
%TO.N,ROW2*%
X134143750Y-81914000D03*
%TO.P,D27,2,A*%
%TO.N,Net-(D27-A)*%
X134143750Y-78614000D03*
%TD*%
D16*
%TO.P,LED_BckSpace1,1,VDD*%
%TO.N,+5V*%
X295859200Y-65131250D03*
%TO.P,LED_BckSpace1,2,DOUT*%
%TO.N,Net-(LED_=1-DIN)*%
X295859200Y-66631250D03*
D17*
%TO.P,LED_BckSpace1,3,GND*%
%TO.N,GND*%
X301040800Y-66631250D03*
D16*
%TO.P,LED_BckSpace1,4,DIN*%
%TO.N,Net-(LED_BckSpace1-DIN)*%
X301040800Y-65131250D03*
%TD*%
D19*
%TO.P,D59,1,K*%
%TO.N,ROW4*%
X243681250Y-120014000D03*
%TO.P,D59,2,A*%
%TO.N,Net-(D59-A)*%
X243681250Y-116714000D03*
%TD*%
D16*
%TO.P,LED_LWIN1,1,VDD*%
%TO.N,+5V*%
X64877950Y-141331250D03*
%TO.P,LED_LWIN1,2,DOUT*%
%TO.N,Net-(LED_LCTRL1-DIN)*%
X64877950Y-142831250D03*
D17*
%TO.P,LED_LWIN1,3,GND*%
%TO.N,GND*%
X70059550Y-142831250D03*
D16*
%TO.P,LED_LWIN1,4,DIN*%
%TO.N,Net-(LED_LALT1-DOUT)*%
X70059550Y-141331250D03*
%TD*%
%TO.P,LED_A1,1,VDD*%
%TO.N,+5V*%
X72021700Y-103231250D03*
%TO.P,LED_A1,2,DOUT*%
%TO.N,Net-(LED_A1-DOUT)*%
X72021700Y-104731250D03*
D17*
%TO.P,LED_A1,3,GND*%
%TO.N,GND*%
X77203300Y-104731250D03*
D16*
%TO.P,LED_A1,4,DIN*%
%TO.N,Net-(LED_A1-DIN)*%
X77203300Y-103231250D03*
%TD*%
%TO.P,LED_PGDN1,1,VDD*%
%TO.N,+5V*%
X348665800Y-123781250D03*
%TO.P,LED_PGDN1,2,DOUT*%
%TO.N,Net-(LED_PGDN1-DOUT)*%
X348665800Y-122281250D03*
D18*
%TO.P,LED_PGDN1,3,GND*%
%TO.N,GND*%
X343484200Y-122281250D03*
D16*
%TO.P,LED_PGDN1,4,DIN*%
%TO.N,Net-(LED_PGDN1-DIN)*%
X343484200Y-123781250D03*
%TD*%
D19*
%TO.P,D9,1,K*%
%TO.N,ROW2*%
X76993750Y-81914000D03*
%TO.P,D9,2,A*%
%TO.N,Net-(D9-A)*%
X76993750Y-78614000D03*
%TD*%
%TO.P,D37,1,K*%
%TO.N,ROW0*%
X162718750Y-43814000D03*
%TO.P,D37,2,A*%
%TO.N,Net-(D37-A)*%
X162718750Y-40514000D03*
%TD*%
%TO.P,D17,1,K*%
%TO.N,ROW4*%
X110331250Y-120014000D03*
%TO.P,D17,2,A*%
%TO.N,Net-(D17-A)*%
X110331250Y-116714000D03*
%TD*%
%TO.P,D70,1,K*%
%TO.N,ROW3*%
X272256250Y-100964000D03*
%TO.P,D70,2,A*%
%TO.N,Net-(D70-A)*%
X272256250Y-97664000D03*
%TD*%
%TO.P,D8,1,K*%
%TO.N,ROW5*%
X50800000Y-139064000D03*
%TO.P,D8,2,A*%
%TO.N,Net-(D8-A)*%
X50800000Y-135764000D03*
%TD*%
D32*
%TO.P,C11,1*%
%TO.N,+5V*%
X48580000Y-40005000D03*
%TO.P,C11,2*%
%TO.N,GND*%
X50480000Y-40005000D03*
%TD*%
D16*
%TO.P,LED_S1,1,VDD*%
%TO.N,+5V*%
X91071700Y-103231250D03*
%TO.P,LED_S1,2,DOUT*%
%TO.N,Net-(LED_A1-DIN)*%
X91071700Y-104731250D03*
D17*
%TO.P,LED_S1,3,GND*%
%TO.N,GND*%
X96253300Y-104731250D03*
D16*
%TO.P,LED_S1,4,DIN*%
%TO.N,Net-(LED_D1-DOUT)*%
X96253300Y-103231250D03*
%TD*%
D19*
%TO.P,D75,1,K*%
%TO.N,ROW2*%
X286543750Y-81914000D03*
%TO.P,D75,2,A*%
%TO.N,Net-(D75-A)*%
X286543750Y-78614000D03*
%TD*%
D16*
%TO.P,LED_Esc1,1,VDD*%
%TO.N,+5V*%
X43865800Y-47581250D03*
%TO.P,LED_Esc1,2,DOUT*%
%TO.N,Net-(LED_Esc1-DOUT)*%
X43865800Y-46081250D03*
D18*
%TO.P,LED_Esc1,3,GND*%
%TO.N,GND*%
X38684200Y-46081250D03*
D16*
%TO.P,LED_Esc1,4,DIN*%
%TO.N,RGB_PIN*%
X38684200Y-47581250D03*
%TD*%
D32*
%TO.P,C8,1*%
%TO.N,A*%
X336790625Y-51990625D03*
%TO.P,C8,2*%
%TO.N,GND*%
X338690625Y-51990625D03*
%TD*%
D19*
%TO.P,D30,1,K*%
%TO.N,ROW5*%
X236537500Y-139064000D03*
%TO.P,D30,2,A*%
%TO.N,Net-(D30-A)*%
X236537500Y-135764000D03*
%TD*%
D39*
%TO.P,C12,1*%
%TO.N,+3V3*%
X46355000Y-45146000D03*
%TO.P,C12,2*%
%TO.N,GND*%
X46355000Y-43246000D03*
%TD*%
D40*
%TO.P,D93,1,K*%
%TO.N,ROW2*%
X353187000Y-81914000D03*
%TO.P,D93,2,A*%
%TO.N,Net-(D93-A)*%
X353187000Y-78614000D03*
%TD*%
D19*
%TO.P,D88,1,K*%
%TO.N,ROW3*%
X353218750Y-100964000D03*
%TO.P,D88,2,A*%
%TO.N,Net-(D88-A)*%
X353218750Y-97664000D03*
%TD*%
D41*
%TO.N,GND*%
X55562500Y-46037500D03*
X55562500Y-50006250D03*
X71437500Y-34131250D03*
X71437500Y-44846875D03*
X38100000Y-105257239D03*
X340518750Y-51990625D03*
X38100000Y-84137500D03*
X339725000Y-67865625D03*
X141684375Y-136921875D03*
X38100000Y-119856250D03*
X136525000Y-122301000D03*
X35718750Y-50006250D03*
X138112500Y-136921875D03*
X141287500Y-128008175D03*
X35718750Y-46037500D03*
X37488700Y-68262500D03*
%TO.N,+5V*%
X273843750Y-49212500D03*
X314706000Y-101981000D03*
X46831250Y-47625000D03*
X279400000Y-63956250D03*
X338765625Y-63956250D03*
X47117000Y-51435000D03*
X338765625Y-57150000D03*
X314706000Y-123361100D03*
X44730750Y-40259000D03*
X314706000Y-63956250D03*
X314706000Y-86396050D03*
X339725000Y-75803125D03*
X321691000Y-140156250D03*
X64683158Y-43663717D03*
X64690625Y-48756250D03*
X339725000Y-86883650D03*
D42*
%TO.N,ROW0*%
X183356250Y-142380000D03*
X34528125Y-34131250D03*
%TO.N,ROW1*%
X182102057Y-142380000D03*
X34150000Y-63316937D03*
%TO.N,COL0*%
X123031250Y-138112500D03*
X167481728Y-132511840D03*
%TO.N,COL1*%
X122183074Y-137264324D03*
X167468817Y-133711273D03*
%TO.N,D+*%
X173037500Y-126991285D03*
X51228946Y-57117929D03*
X62706250Y-90279776D03*
X163200985Y-91811601D03*
%TO.N,D-*%
X49784000Y-35941000D03*
X162843381Y-90141845D03*
X62706250Y-89080273D03*
X171887497Y-126991285D03*
%TO.N,ROW3*%
X53181250Y-100965000D03*
X160734375Y-107990622D03*
X53181250Y-107156250D03*
X171846875Y-140096875D03*
%TO.N,ROW2*%
X180875652Y-142380000D03*
X34943750Y-82393260D03*
%TO.N,ROW5*%
X48418750Y-139065000D03*
X179451017Y-142380000D03*
%TO.N,A*%
X336946875Y-57150000D03*
X181439425Y-93853859D03*
X188515625Y-125015625D03*
X353615625Y-50403125D03*
X336946875Y-87709375D03*
%TO.N,B*%
X338096878Y-87709375D03*
X188515625Y-126305281D03*
X342848800Y-69056250D03*
X338096878Y-75803125D03*
X181836300Y-92706718D03*
X337981250Y-69056250D03*
%TO.N,S1*%
X188515625Y-127455284D03*
X335756250Y-89319593D03*
X182562500Y-91678125D03*
%TO.N,COL5*%
X156182615Y-129988865D03*
%TO.N,COL4*%
X145256250Y-126149226D03*
X165893750Y-126067063D03*
X165893750Y-130968750D03*
%TO.N,COL2*%
X167508635Y-134910115D03*
X121334898Y-136416148D03*
%TO.N,COL3*%
X167481250Y-126991285D03*
X126206250Y-126206250D03*
X167481250Y-130968750D03*
%TO.N,COL6*%
X182688042Y-125165931D03*
%TO.N,COL7*%
X194468750Y-132635800D03*
%TO.N,Net-(J3-CC2)*%
X56356250Y-35718750D03*
X56356250Y-33734375D03*
%TO.N,Net-(J3-D+-PadA6)*%
X51816000Y-35941000D03*
X52959000Y-52324000D03*
%TO.N,Net-(J3-CC1)*%
X48260000Y-35941000D03*
X49212500Y-46905750D03*
%TO.N,RGB_PIN*%
X36115625Y-106331739D03*
X34528125Y-47625000D03*
X161528125Y-106706730D03*
X171007887Y-137862000D03*
D41*
%TO.N,+3V3*%
X55562500Y-54768750D03*
X126206250Y-137831750D03*
X62706250Y-87630770D03*
X189309375Y-130571875D03*
X189309375Y-138906250D03*
X131762500Y-110331250D03*
X173831250Y-139700000D03*
X162941000Y-88265000D03*
X175021875Y-128437000D03*
X168275000Y-109537500D03*
X183866104Y-125922354D03*
D42*
X53975000Y-45243750D03*
%TO.N,Net-(LED_CAPS1-DOUT)*%
X43656250Y-104775000D03*
X43656250Y-123825000D03*
%TO.N,Net-(LED_End1-DOUT)*%
X350837500Y-103187500D03*
X350837500Y-84137500D03*
%TO.N,Net-(LED_F12-DOUT)*%
X350837500Y-65087500D03*
X351234375Y-49609375D03*
%TO.N,Net-(LED_PGDN1-DOUT)*%
X350837500Y-141287500D03*
X350837500Y-122237500D03*
%TO.N,Net-(LED_TAB1-DIN)*%
X36512500Y-85725000D03*
X36512500Y-66675000D03*
%TO.N,COL11*%
X265906250Y-131762500D03*
%TO.N,COL8*%
X213518750Y-133135800D03*
%TO.N,ROW4*%
X160734375Y-109140625D03*
X57943750Y-107980750D03*
X171846875Y-141287500D03*
X56356250Y-120015000D03*
%TD*%
D43*
%TO.N,GND*%
X120025000Y-67132291D02*
X120698959Y-67806250D01*
X176837500Y-122281250D02*
X176837500Y-121780209D01*
X96212500Y-105463500D02*
X96212500Y-104731250D01*
X272425000Y-66631250D02*
X272845150Y-66211100D01*
X166145153Y-144416825D02*
X190248597Y-144416825D01*
X328901041Y-105906250D02*
X329575000Y-105232291D01*
X172748959Y-44906250D02*
X189950000Y-44906250D01*
X52143750Y-105906250D02*
X76488541Y-105906250D01*
X328901041Y-67806250D02*
X329575000Y-67132291D01*
X153241250Y-105232291D02*
X153915209Y-105906250D01*
X158125000Y-67300000D02*
X158125000Y-66631250D01*
X253037500Y-121780209D02*
X253711459Y-121106250D01*
X144950000Y-136375000D02*
X145100000Y-136525000D01*
X96212500Y-105463500D02*
X96655250Y-105906250D01*
X183106000Y-129418000D02*
X181662000Y-130862000D01*
X93229750Y-144006250D02*
X93831250Y-143404750D01*
X100975000Y-67132291D02*
X101041291Y-67132291D01*
X233651041Y-67806250D02*
X234325000Y-67132291D01*
X234998959Y-67806250D02*
X252701041Y-67806250D01*
X46206250Y-143332291D02*
X46206250Y-142831250D01*
X38681250Y-46037500D02*
X38725000Y-46081250D01*
X81587500Y-122281250D02*
X81587500Y-121780209D01*
X148589282Y-138112500D02*
X146687500Y-138112500D01*
X256549750Y-82931000D02*
X257800000Y-84181250D01*
X37306250Y-140940272D02*
X37306250Y-126317546D01*
X111731467Y-142411579D02*
X113836579Y-142411579D01*
X162550000Y-83680209D02*
X163223959Y-83006250D01*
X163240625Y-142478125D02*
X164206453Y-142478125D01*
X187031000Y-137362000D02*
X179690994Y-137362000D01*
X44644452Y-37905548D02*
X44858637Y-37719000D01*
X44858637Y-37719000D02*
X45460000Y-37719000D01*
X135196250Y-129916250D02*
X135196250Y-131362500D01*
X309851041Y-144006250D02*
X310525000Y-143332291D01*
X210512500Y-105232291D02*
X210512500Y-104731250D01*
X115383750Y-105232291D02*
X116057709Y-105906250D01*
X229562500Y-105232291D02*
X229562500Y-104731250D01*
X252701041Y-67806250D02*
X253375000Y-67132291D01*
X232617709Y-144006250D02*
X255082291Y-144006250D01*
X138737500Y-122281250D02*
X138737500Y-121780209D01*
X168356071Y-129300179D02*
X169917893Y-130862000D01*
X139748959Y-67806250D02*
X157618750Y-67806250D01*
X348625000Y-143332291D02*
X348625000Y-142831250D01*
X164206453Y-142478125D02*
X166145153Y-144416825D01*
X328901041Y-144006250D02*
X329575000Y-143332291D01*
X43656250Y-43668000D02*
X43656250Y-38893750D01*
X48695000Y-43187500D02*
X48695000Y-42537500D01*
X258473959Y-83006250D02*
X275675000Y-83006250D01*
X104225000Y-83006250D02*
X105400000Y-84181250D01*
X196898959Y-67806250D02*
X214641750Y-67806250D01*
X192136459Y-105906250D02*
X209838541Y-105906250D01*
X40481250Y-122237500D02*
X41275000Y-122237500D01*
X76825000Y-46081250D02*
X76825000Y-45580209D01*
X119566250Y-121780209D02*
X120240209Y-121106250D01*
X181662000Y-130862000D02*
X175681000Y-130862000D01*
X172412500Y-105232291D02*
X173086459Y-105906250D01*
X82598959Y-67806250D02*
X100301041Y-67806250D01*
X141287500Y-128008175D02*
X137104325Y-128008175D01*
X46355000Y-43246000D02*
X48636500Y-43246000D01*
X298618750Y-105232291D02*
X298618750Y-104731250D01*
X279568750Y-143332291D02*
X279568750Y-142831250D01*
X324475000Y-84181250D02*
X324475000Y-83680209D01*
X339665625Y-67806250D02*
X339725000Y-67865625D01*
X177175000Y-67132291D02*
X177175000Y-66631250D01*
X47381250Y-144006250D02*
X69344791Y-144006250D01*
X299038900Y-104311100D02*
X317264164Y-104311100D01*
X330248959Y-105906250D02*
X347951041Y-105906250D01*
X239499209Y-82931000D02*
X256549750Y-82931000D01*
X40372228Y-144006250D02*
X45532291Y-144006250D01*
X100301041Y-67806250D02*
X100975000Y-67132291D01*
D44*
X46099000Y-32880000D02*
X54739000Y-32880000D01*
D43*
X95769750Y-105906250D02*
X96212500Y-105463500D01*
X101311459Y-121106250D02*
X118391250Y-121106250D01*
X146750000Y-132500000D02*
X147150000Y-132500000D01*
X228050000Y-44906250D02*
X229225000Y-46081250D01*
X343525000Y-84181250D02*
X343525000Y-83968750D01*
X63548959Y-67806250D02*
X81251041Y-67806250D01*
X43825000Y-67132291D02*
X44498959Y-67806250D01*
X248612500Y-105232291D02*
X249286459Y-105906250D01*
X115383750Y-105232291D02*
X115383750Y-104731250D01*
X141684375Y-136921875D02*
X144703125Y-136921875D01*
X138401041Y-67806250D02*
X139075000Y-67132291D01*
X50192000Y-105918000D02*
X38760761Y-105918000D01*
X151850000Y-44906250D02*
X153025000Y-46081250D01*
X272425000Y-67132291D02*
X272425000Y-66631250D01*
X123275000Y-83006250D02*
X124450000Y-84181250D01*
X105400000Y-84181250D02*
X105400000Y-83680209D01*
X114925000Y-45580209D02*
X115598959Y-44906250D01*
X134312500Y-105232291D02*
X134986459Y-105906250D01*
X62875000Y-67132291D02*
X62875000Y-66631250D01*
X153025000Y-46081250D02*
X153025000Y-45580209D01*
X339725000Y-67865625D02*
X339881250Y-68021875D01*
X70692709Y-144006250D02*
X93229750Y-144006250D01*
X342350000Y-83006250D02*
X343525000Y-84181250D01*
X77162500Y-105232291D02*
X77836459Y-105906250D01*
X46206250Y-142831250D02*
X47381250Y-144006250D01*
X172075000Y-46081250D02*
X172075000Y-45580209D01*
X67973959Y-83006250D02*
X85175000Y-83006250D01*
X187031000Y-130862000D02*
X183463000Y-130862000D01*
X173086459Y-105906250D02*
X190788541Y-105906250D01*
X81925000Y-67132291D02*
X82598959Y-67806250D01*
X125123959Y-83006250D02*
X142325000Y-83006250D01*
X271751041Y-67806250D02*
X272425000Y-67132291D01*
X49212500Y-50125000D02*
X55443750Y-50125000D01*
X181662000Y-130862000D02*
X181662000Y-135390994D01*
X162887500Y-142831250D02*
X163240625Y-142478125D01*
X62201041Y-67806250D02*
X62875000Y-67132291D01*
X183463000Y-130862000D02*
X181662000Y-130862000D01*
X210631726Y-144006250D02*
X231269791Y-144006250D01*
X144950000Y-134200000D02*
X145050000Y-134200000D01*
X120025000Y-67132291D02*
X120025000Y-66631250D01*
X288756250Y-122281250D02*
X288756250Y-121780209D01*
X113836579Y-142411579D02*
X115431250Y-144006250D01*
X144703125Y-136921875D02*
X145100000Y-136525000D01*
X85175000Y-83006250D02*
X86350000Y-84181250D01*
X230236459Y-105906250D02*
X247938541Y-105906250D01*
X94700000Y-44906250D02*
X95875000Y-46081250D01*
X210848959Y-44906250D02*
X228050000Y-44906250D01*
X190788541Y-105906250D02*
X191462500Y-105232291D01*
X257800000Y-83680209D02*
X258473959Y-83006250D01*
X231269791Y-144006250D02*
X231943750Y-143332291D01*
X209838541Y-105906250D02*
X210512500Y-105232291D01*
X44236709Y-82931000D02*
X66049750Y-82931000D01*
X339881250Y-70100859D02*
X339881250Y-70246875D01*
X288756250Y-121780209D02*
X289430209Y-121106250D01*
X248612500Y-105232291D02*
X248612500Y-104731250D01*
X45532291Y-144006250D02*
X46206250Y-143332291D01*
X175662500Y-121106250D02*
X176837500Y-122281250D01*
X317264164Y-104311100D02*
X318859314Y-105906250D01*
X300662500Y-83680209D02*
X301336459Y-83006250D01*
X57775000Y-45580209D02*
X57775000Y-46081250D01*
X138112500Y-135056250D02*
X138112500Y-136921875D01*
X253375000Y-67132291D02*
X254048959Y-67806250D01*
X111311796Y-142831250D02*
X111731467Y-142411579D01*
X43825000Y-67132291D02*
X43825000Y-66631250D01*
X228888541Y-105906250D02*
X229562500Y-105232291D01*
X82261459Y-121106250D02*
X99462500Y-121106250D01*
X299487500Y-83006250D02*
X300662500Y-84181250D01*
X101715250Y-67806250D02*
X119351041Y-67806250D01*
X324475000Y-122281250D02*
X324475000Y-121780209D01*
X348625000Y-105232291D02*
X348625000Y-104731250D01*
X158125000Y-67300000D02*
X158631250Y-67806250D01*
X329575000Y-105232291D02*
X329575000Y-104731250D01*
X215275000Y-67173000D02*
X215908250Y-67806250D01*
X148589282Y-138112500D02*
X154860266Y-131841516D01*
X38100000Y-84137500D02*
X43443750Y-84137500D01*
X41342546Y-122281250D02*
X50631250Y-122281250D01*
X37306250Y-140940272D02*
X40372228Y-144006250D01*
X276850000Y-83680209D02*
X277523959Y-83006250D01*
X195887500Y-122281250D02*
X195887500Y-121780209D01*
X120698959Y-67806250D02*
X138401041Y-67806250D01*
X234661459Y-121106250D02*
X251862500Y-121106250D01*
X253037500Y-122281250D02*
X253037500Y-121780209D01*
X277523959Y-83006250D02*
X299487500Y-83006250D01*
X297944791Y-105906250D02*
X298618750Y-105232291D01*
X50968750Y-104731250D02*
X50968750Y-105141250D01*
X254048959Y-67806250D02*
X271751041Y-67806250D01*
X325148959Y-83006250D02*
X342350000Y-83006250D01*
X51305209Y-121106250D02*
X80412500Y-121106250D01*
X113750000Y-44906250D02*
X114925000Y-46081250D01*
X232812500Y-121106250D02*
X233987500Y-122281250D01*
X77836459Y-105906250D02*
X95769750Y-105906250D01*
X301718250Y-65913000D02*
X316865000Y-65913000D01*
X134648959Y-44906250D02*
X151850000Y-44906250D01*
X170900000Y-44906250D02*
X172075000Y-46081250D01*
X100637500Y-122281250D02*
X100637500Y-121780209D01*
X219700000Y-84181250D02*
X219700000Y-83680209D01*
X169917893Y-130862000D02*
X175681000Y-130862000D01*
X76825000Y-45580209D02*
X77498959Y-44906250D01*
X96655250Y-105906250D02*
X114709791Y-105906250D01*
X196561459Y-121106250D02*
X213762500Y-121106250D01*
X199399750Y-82931000D02*
X200650000Y-84181250D01*
X325148959Y-121106250D02*
X342350000Y-121106250D01*
X118391250Y-121106250D02*
X119566250Y-122281250D01*
X77498959Y-44906250D02*
X94700000Y-44906250D01*
X231943750Y-143332291D02*
X231943750Y-142831250D01*
X196225000Y-67132291D02*
X196898959Y-67806250D01*
X209103601Y-142478125D02*
X210631726Y-144006250D01*
X215908250Y-67806250D02*
X233651041Y-67806250D01*
X324475000Y-83680209D02*
X325148959Y-83006250D01*
X45460000Y-37719000D02*
X46099000Y-37080000D01*
X285413100Y-104311100D02*
X287008250Y-105906250D01*
X231943750Y-143332291D02*
X232617709Y-144006250D01*
X60840625Y-34131250D02*
X71437500Y-34131250D01*
X253711459Y-121106250D02*
X287581250Y-121106250D01*
X86350000Y-84181250D02*
X86350000Y-83680209D01*
X229898959Y-44906250D02*
X247221250Y-44906250D01*
X251862500Y-121106250D02*
X253037500Y-122281250D01*
X229562500Y-105232291D02*
X230236459Y-105906250D01*
X119566250Y-122281250D02*
X119566250Y-121780209D01*
X114709791Y-105906250D02*
X115383750Y-105232291D01*
X134986459Y-105906250D02*
X152567291Y-105906250D01*
X255756250Y-143332291D02*
X256430209Y-144006250D01*
X95875000Y-45580209D02*
X96548959Y-44906250D01*
X87023959Y-83006250D02*
X104225000Y-83006250D01*
X329575000Y-143332291D02*
X329575000Y-142831250D01*
X114925000Y-46081250D02*
X114925000Y-45580209D01*
X144950000Y-134200000D02*
X144950000Y-136375000D01*
X43487500Y-83680209D02*
X44236709Y-82931000D01*
X329575000Y-67132291D02*
X329575000Y-66631250D01*
X106073959Y-83006250D02*
X123275000Y-83006250D01*
X300326041Y-67806250D02*
X301000000Y-67132291D01*
X181600000Y-83680209D02*
X182349209Y-82931000D01*
X247221250Y-44906250D02*
X248396250Y-46081250D01*
X139075000Y-67132291D02*
X139075000Y-66631250D01*
X43668000Y-43656250D02*
X45944750Y-43656250D01*
X293669850Y-66211100D02*
X295265000Y-67806250D01*
X152567291Y-105906250D02*
X153241250Y-105232291D01*
X50968750Y-104731250D02*
X52143750Y-105906250D01*
X342350000Y-121106250D02*
X343525000Y-122281250D01*
X177175000Y-67132291D02*
X177848959Y-67806250D01*
X154860266Y-131841516D02*
X154860266Y-130145178D01*
X105400000Y-83680209D02*
X106073959Y-83006250D01*
X183106000Y-128437000D02*
X183106000Y-129418000D01*
X162887500Y-143332291D02*
X162887500Y-142831250D01*
X163223959Y-83006250D02*
X180425000Y-83006250D01*
X95875000Y-46081250D02*
X95875000Y-45580209D01*
X182349209Y-82931000D02*
X199399750Y-82931000D01*
X158461459Y-121106250D02*
X175662500Y-121106250D01*
X234325000Y-67132291D02*
X234998959Y-67806250D01*
X311198959Y-144006250D02*
X328901041Y-144006250D01*
X329575000Y-143332291D02*
X330248959Y-144006250D01*
X347891666Y-67865625D02*
X348625000Y-67132291D01*
X48636500Y-43246000D02*
X48695000Y-43187500D01*
X276850000Y-84181250D02*
X276850000Y-83680209D01*
X234325000Y-67132291D02*
X234325000Y-66631250D01*
X139075000Y-67132291D02*
X139748959Y-67806250D01*
X81251041Y-67806250D02*
X81925000Y-67132291D01*
X215611459Y-121106250D02*
X232812500Y-121106250D01*
X210512500Y-105232291D02*
X211186459Y-105906250D01*
X191462500Y-105232291D02*
X192136459Y-105906250D01*
X48695000Y-43837500D02*
X48695000Y-43187500D01*
X295265000Y-67806250D02*
X300326041Y-67806250D01*
X50631250Y-121780209D02*
X51305209Y-121106250D01*
X161375000Y-83006250D02*
X162550000Y-84181250D01*
X310525000Y-143332291D02*
X311198959Y-144006250D01*
X134312500Y-105232291D02*
X134312500Y-104731250D01*
X191125000Y-45580209D02*
X191798959Y-44906250D01*
X347951041Y-144006250D02*
X348625000Y-143332291D01*
X301336459Y-83006250D02*
X323300000Y-83006250D01*
X267662500Y-104731250D02*
X268082650Y-104311100D01*
X124450000Y-84181250D02*
X124450000Y-83680209D01*
X348625000Y-67132291D02*
X348625000Y-66631250D01*
X253375000Y-67132291D02*
X253375000Y-66631250D01*
X136525000Y-122301000D02*
X138676950Y-122301000D01*
X178106000Y-138946994D02*
X178106000Y-139787000D01*
X48695000Y-41887500D02*
X50480000Y-40102500D01*
X147150000Y-132500000D02*
X147150000Y-130325000D01*
X67300000Y-84181250D02*
X67300000Y-83680209D01*
X153915209Y-105906250D02*
X171738541Y-105906250D01*
X249286459Y-105906250D02*
X267092750Y-105906250D01*
X58448959Y-44906250D02*
X57775000Y-45580209D01*
X38100000Y-43656250D02*
X43644500Y-43656250D01*
X50631250Y-122281250D02*
X50631250Y-121780209D01*
X96548959Y-44906250D02*
X113750000Y-44906250D01*
X137104325Y-128008175D02*
X135196250Y-129916250D01*
X180425000Y-83006250D02*
X181600000Y-84181250D01*
X268082650Y-104311100D02*
X285413100Y-104311100D01*
X195551041Y-67806250D02*
X196225000Y-67132291D01*
X137562500Y-121106250D02*
X138737500Y-122281250D01*
X209000000Y-44906250D02*
X210175000Y-46081250D01*
X287581250Y-121106250D02*
X288756250Y-122281250D01*
X191798959Y-44906250D02*
X209000000Y-44906250D01*
X139486709Y-121031000D02*
X156537250Y-121031000D01*
X195887500Y-121780209D02*
X196561459Y-121106250D01*
X346868750Y-46975000D02*
X345068750Y-46975000D01*
X300662500Y-84181250D02*
X300662500Y-83680209D01*
X192187297Y-142478125D02*
X209103601Y-142478125D01*
X339725000Y-67865625D02*
X347891666Y-67865625D01*
X162213541Y-144006250D02*
X162887500Y-143332291D01*
X196225000Y-67132291D02*
X196225000Y-66631250D01*
X138737500Y-121780209D02*
X139486709Y-121031000D01*
X35837500Y-50125000D02*
X49212500Y-50125000D01*
X289430209Y-121106250D02*
X323300000Y-121106250D01*
X42694791Y-68262500D02*
X43825000Y-67132291D01*
X38760761Y-105918000D02*
X38100000Y-105257239D01*
X214641750Y-67806250D02*
X215275000Y-67173000D01*
X279568750Y-143332291D02*
X280242709Y-144006250D01*
X214937500Y-121780209D02*
X215611459Y-121106250D01*
X99462500Y-121106250D02*
X100637500Y-122281250D01*
X37306250Y-126317546D02*
X41342546Y-122281250D01*
X120240209Y-121106250D02*
X137562500Y-121106250D01*
X70018750Y-143332291D02*
X70018750Y-142831250D01*
X267092750Y-105906250D02*
X267662500Y-105336500D01*
X211186459Y-105906250D02*
X228888541Y-105906250D01*
X310525000Y-143332291D02*
X310525000Y-142831250D01*
X43487500Y-84181250D02*
X43487500Y-83680209D01*
X146687500Y-138112500D02*
X145100000Y-136525000D01*
X143500000Y-84181250D02*
X143500000Y-83680209D01*
X329575000Y-67132291D02*
X330248959Y-67806250D01*
X168114457Y-129058566D02*
X168356071Y-129300179D01*
X330248959Y-67806250D02*
X339665625Y-67806250D01*
X280242709Y-144006250D02*
X309851041Y-144006250D01*
X176501041Y-67806250D02*
X177175000Y-67132291D01*
X255082291Y-144006250D02*
X255756250Y-143332291D01*
X214937500Y-122281250D02*
X214937500Y-121780209D01*
X272845150Y-66211100D02*
X293669850Y-66211100D01*
X157618750Y-67806250D02*
X158125000Y-67300000D01*
X55443750Y-50125000D02*
X55562500Y-50006250D01*
X172075000Y-45580209D02*
X172748959Y-44906250D01*
X229225000Y-45580209D02*
X229898959Y-44906250D01*
X329575000Y-105232291D02*
X330248959Y-105906250D01*
D44*
X50480000Y-39687500D02*
X50480000Y-40102500D01*
D43*
X80412500Y-121106250D02*
X81587500Y-122281250D01*
X330248959Y-144006250D02*
X347951041Y-144006250D01*
X256430209Y-144006250D02*
X278894791Y-144006250D01*
X316865000Y-65913000D02*
X318758250Y-67806250D01*
X70018750Y-143332291D02*
X70692709Y-144006250D01*
X181600000Y-84181250D02*
X181600000Y-83680209D01*
X323300000Y-121106250D02*
X324475000Y-122281250D01*
X75590625Y-44846875D02*
X76825000Y-46081250D01*
X201323959Y-83006250D02*
X218525000Y-83006250D01*
D44*
X338690625Y-51990625D02*
X340518750Y-51990625D01*
D43*
X132800000Y-44906250D02*
X133975000Y-46081250D01*
X172412500Y-105232291D02*
X172412500Y-104731250D01*
X67300000Y-83680209D02*
X67973959Y-83006250D01*
X37488700Y-68262500D02*
X42694791Y-68262500D01*
D44*
X47219000Y-37680000D02*
X46699000Y-37680000D01*
D43*
X171738541Y-105906250D02*
X172412500Y-105232291D01*
X76488541Y-105906250D02*
X77162500Y-105232291D01*
X255756250Y-143332291D02*
X255756250Y-142831250D01*
X194712500Y-121106250D02*
X195887500Y-122281250D01*
D44*
X344671875Y-35575000D02*
X346471875Y-35575000D01*
D43*
X50480000Y-40102500D02*
X50480000Y-40005000D01*
X43443750Y-84137500D02*
X43487500Y-84181250D01*
X81587500Y-121780209D02*
X82261459Y-121106250D01*
X116057709Y-105906250D02*
X133638541Y-105906250D01*
X48695000Y-42537500D02*
X48695000Y-41887500D01*
X191125000Y-46081250D02*
X191125000Y-45580209D01*
X119351041Y-67806250D02*
X120025000Y-67132291D01*
X200650000Y-83680209D02*
X201323959Y-83006250D01*
X324475000Y-121780209D02*
X325148959Y-121106250D01*
X190248597Y-144416825D02*
X192187297Y-142478125D01*
X38100000Y-119856250D02*
X40481250Y-122237500D01*
X210175000Y-46081250D02*
X210175000Y-45580209D01*
X138676950Y-122301000D02*
X138696700Y-122281250D01*
X176837500Y-121780209D02*
X177511459Y-121106250D01*
X249070209Y-44906250D02*
X266150000Y-44906250D01*
X287008250Y-105906250D02*
X297944791Y-105906250D01*
X43644500Y-43656250D02*
X43656250Y-43668000D01*
X266150000Y-44906250D02*
X267325000Y-46081250D01*
X71437500Y-44846875D02*
X71378125Y-44906250D01*
X191462500Y-105232291D02*
X191462500Y-104731250D01*
X339881250Y-68021875D02*
X339881250Y-70246875D01*
X318859314Y-105906250D02*
X328901041Y-105906250D01*
X71378125Y-44906250D02*
X58448959Y-44906250D01*
X238750000Y-83680209D02*
X239499209Y-82931000D01*
X181662000Y-135390994D02*
X179690994Y-137362000D01*
X44498959Y-67806250D02*
X62201041Y-67806250D01*
X162550000Y-84181250D02*
X162550000Y-83680209D01*
X210175000Y-45580209D02*
X210848959Y-44906250D01*
X133638541Y-105906250D02*
X134312500Y-105232291D01*
X43656250Y-38893750D02*
X44644452Y-37905548D01*
X177511459Y-121106250D02*
X194712500Y-121106250D01*
X301000000Y-67132291D02*
X301000000Y-66631250D01*
X145050000Y-134200000D02*
X146750000Y-132500000D01*
X57775000Y-46081250D02*
X57731250Y-46037500D01*
X50968750Y-105141250D02*
X50192000Y-105918000D01*
X153025000Y-45580209D02*
X153698959Y-44906250D01*
X213762500Y-121106250D02*
X214937500Y-122281250D01*
X233987500Y-121780209D02*
X234661459Y-121106250D01*
X93831250Y-143404750D02*
X93831250Y-142831250D01*
X93831250Y-142831250D02*
X111311796Y-142831250D01*
X189950000Y-44906250D02*
X191125000Y-46081250D01*
X298618750Y-104731250D02*
X299038900Y-104311100D01*
X347951041Y-105906250D02*
X348625000Y-105232291D01*
X115431250Y-144006250D02*
X162213541Y-144006250D01*
X144173959Y-83006250D02*
X161375000Y-83006250D01*
X66049750Y-82931000D02*
X67300000Y-84181250D01*
X124450000Y-83680209D02*
X125123959Y-83006250D01*
X248396250Y-46081250D02*
X248396250Y-45580209D01*
X142325000Y-83006250D02*
X143500000Y-84181250D01*
D44*
X54139000Y-37680000D02*
X54739000Y-37080000D01*
D43*
X200650000Y-84181250D02*
X200650000Y-83680209D01*
X35718750Y-50006250D02*
X35837500Y-50125000D01*
X215275000Y-67173000D02*
X215275000Y-66631250D01*
X115598959Y-44906250D02*
X132800000Y-44906250D01*
X157787500Y-122281250D02*
X157787500Y-121780209D01*
X45944750Y-43656250D02*
X46355000Y-43246000D01*
X101041291Y-67132291D02*
X101715250Y-67806250D01*
X323300000Y-83006250D02*
X324475000Y-84181250D01*
X237575000Y-83006250D02*
X238750000Y-84181250D01*
X35718750Y-46037500D02*
X38100000Y-43656250D01*
X275675000Y-83006250D02*
X276850000Y-84181250D01*
X69344791Y-144006250D02*
X70018750Y-143332291D01*
X133975000Y-45580209D02*
X134648959Y-44906250D01*
X218525000Y-83006250D02*
X219700000Y-84181250D01*
X100975000Y-67132291D02*
X100975000Y-66631250D01*
X233987500Y-122281250D02*
X233987500Y-121780209D01*
X158631250Y-67806250D02*
X176501041Y-67806250D01*
X155946878Y-129058566D02*
X168114457Y-129058566D01*
X220373959Y-83006250D02*
X237575000Y-83006250D01*
X153241250Y-105232291D02*
X153241250Y-104731250D01*
X248396250Y-45580209D02*
X249070209Y-44906250D01*
D44*
X46699000Y-37680000D02*
X46099000Y-37080000D01*
D43*
X153698959Y-44906250D02*
X170900000Y-44906250D01*
X267662500Y-105336500D02*
X267662500Y-104731250D01*
X77162500Y-105232291D02*
X77162500Y-104731250D01*
X154860266Y-130145178D02*
X155946878Y-129058566D01*
X157787500Y-121780209D02*
X158461459Y-121106250D01*
X257800000Y-84181250D02*
X257800000Y-83680209D01*
X229225000Y-46081250D02*
X229225000Y-45580209D01*
X278894791Y-144006250D02*
X279568750Y-143332291D01*
X81925000Y-67132291D02*
X81925000Y-66631250D01*
X71437500Y-44846875D02*
X75590625Y-44846875D01*
X133975000Y-46081250D02*
X133975000Y-45580209D01*
X301000000Y-66631250D02*
X301718250Y-65913000D01*
X219700000Y-83680209D02*
X220373959Y-83006250D01*
X43656250Y-43668000D02*
X43668000Y-43656250D01*
X57731250Y-46037500D02*
X55562500Y-46037500D01*
X177848959Y-67806250D02*
X195551041Y-67806250D01*
X247938541Y-105906250D02*
X248612500Y-105232291D01*
X143500000Y-83680209D02*
X144173959Y-83006250D01*
X35718750Y-46037500D02*
X38681250Y-46037500D01*
X156537250Y-121031000D02*
X157787500Y-122281250D01*
X38725000Y-46081250D02*
X38725000Y-46004446D01*
X100637500Y-121780209D02*
X101311459Y-121106250D01*
X147150000Y-130325000D02*
X147000000Y-130175000D01*
X62875000Y-67132291D02*
X63548959Y-67806250D01*
X318758250Y-67806250D02*
X328901041Y-67806250D01*
X179690994Y-137362000D02*
X178106000Y-138946994D01*
X71437500Y-44846875D02*
X71762000Y-45171375D01*
D44*
X53619000Y-37680000D02*
X54139000Y-37680000D01*
D43*
X86350000Y-83680209D02*
X87023959Y-83006250D01*
X238750000Y-84181250D02*
X238750000Y-83680209D01*
D45*
%TO.N,Net-(U3-PF0)*%
X173699590Y-128322285D02*
X155840215Y-128322285D01*
X146837500Y-136518750D02*
X146843750Y-136525000D01*
X147000000Y-136525000D02*
X147000000Y-134350000D01*
X179606000Y-127596994D02*
X179346486Y-127337480D01*
X149962500Y-134200000D02*
X147150000Y-134200000D01*
X147000000Y-134350000D02*
X147150000Y-134200000D01*
X155840215Y-128322285D02*
X149962500Y-134200000D01*
X179606000Y-128437000D02*
X179606000Y-127596994D01*
X174684395Y-127337480D02*
X173699590Y-128322285D01*
X179346486Y-127337480D02*
X174684395Y-127337480D01*
D44*
%TO.N,+5V*%
X124666250Y-124496050D02*
X125153850Y-124983650D01*
X210175000Y-64630209D02*
X210848959Y-63956250D01*
X81291750Y-48756250D02*
X81925000Y-48123000D01*
X271910000Y-48756250D02*
X272425000Y-48241250D01*
X293856250Y-124354750D02*
X293856250Y-123781250D01*
X177175000Y-48241250D02*
X177690000Y-48756250D01*
X148141250Y-102730209D02*
X148815209Y-102056250D01*
X219522500Y-124956250D02*
X220037500Y-124441250D01*
X133975000Y-65131250D02*
X133975000Y-64630209D01*
X91937600Y-86883650D02*
X109966350Y-86883650D01*
X138568750Y-48756250D02*
X139075000Y-48250000D01*
X95875000Y-64630209D02*
X96548959Y-63956250D01*
X90962400Y-86883650D02*
X91450000Y-86396050D01*
X58290000Y-63956250D02*
X75650000Y-63956250D01*
X191798959Y-63956250D02*
X209000000Y-63956250D01*
X224312400Y-86883650D02*
X224800000Y-86396050D01*
X273293750Y-140156250D02*
X274468750Y-141331250D01*
X243362400Y-86883650D02*
X243850000Y-86396050D01*
X91112500Y-102571250D02*
X91702750Y-101981000D01*
X210175000Y-65131250D02*
X210175000Y-64630209D01*
X64918750Y-140671250D02*
X65433750Y-140156250D01*
X44984750Y-40005000D02*
X48580000Y-40005000D01*
X119510000Y-48756250D02*
X120025000Y-48241250D01*
X158640000Y-48756250D02*
X176660000Y-48756250D01*
X186362500Y-102730209D02*
X187036459Y-102056250D01*
X81925000Y-48123000D02*
X81925000Y-47581250D01*
X167650000Y-86396050D02*
X168137600Y-86883650D01*
X52905000Y-42537500D02*
X57618750Y-42537500D01*
X105737500Y-123858054D02*
X105737500Y-123781250D01*
X196225000Y-48241250D02*
X196740000Y-48756250D01*
X56178800Y-123333700D02*
X74310516Y-123333700D01*
X49014900Y-86108650D02*
X48587500Y-85681250D01*
X323300000Y-63956250D02*
X324475000Y-65131250D01*
X314706000Y-86396050D02*
X324650010Y-86396050D01*
X56600000Y-63956250D02*
X57775000Y-65131250D01*
X224800000Y-86396050D02*
X224800000Y-85681250D01*
X253496250Y-48241250D02*
X254011250Y-48756250D01*
X148600000Y-86396050D02*
X149087600Y-86883650D01*
X251330209Y-140156250D02*
X273293750Y-140156250D01*
X167312500Y-103231250D02*
X167312500Y-102730209D01*
X48580000Y-40005000D02*
X48019000Y-39444000D01*
X64050000Y-48756250D02*
X64690625Y-48756250D01*
X205412500Y-103231250D02*
X205412500Y-102571250D01*
X59681250Y-51435000D02*
X62875000Y-48241250D01*
X155575000Y-142381730D02*
X156625480Y-141331250D01*
X206002750Y-101981000D02*
X223212250Y-101981000D01*
X267998959Y-63956250D02*
X279400000Y-63956250D01*
X41106250Y-141331250D02*
X41106250Y-140671250D01*
X86687500Y-124321040D02*
X86687500Y-123781250D01*
X224462500Y-102730209D02*
X225136459Y-102056250D01*
X167312500Y-102730209D02*
X167986459Y-102056250D01*
X120025000Y-48241250D02*
X120540000Y-48756250D01*
X163810718Y-140156250D02*
X167323218Y-143668750D01*
X176660000Y-48756250D02*
X177175000Y-48241250D01*
X55731250Y-123781250D02*
X56178800Y-123333700D01*
X120540000Y-48756250D02*
X138568750Y-48756250D01*
X86687500Y-123858054D02*
X86687500Y-123781250D01*
X209000000Y-63956250D02*
X210175000Y-65131250D01*
X317163100Y-123361100D02*
X318758250Y-124956250D01*
X151850000Y-63956250D02*
X153025000Y-65131250D01*
X45868750Y-103231250D02*
X45868750Y-102571250D01*
X58744967Y-43663717D02*
X64683158Y-43663717D01*
X110500000Y-86350000D02*
X110500000Y-85681250D01*
X210848959Y-63956250D02*
X228050000Y-63956250D01*
X129550000Y-86396050D02*
X130037600Y-86883650D01*
X100975000Y-48377000D02*
X100975000Y-47581250D01*
X220037500Y-124441250D02*
X220037500Y-123781250D01*
X263077500Y-102056250D02*
X292343750Y-102056250D01*
X186700000Y-86396050D02*
X186700000Y-85681250D01*
X91702750Y-101981000D02*
X109033500Y-101981000D01*
X115236198Y-142381730D02*
X155575000Y-142381730D01*
X157610000Y-48756250D02*
X158125000Y-48241250D01*
X158125000Y-48241250D02*
X158640000Y-48756250D01*
X170900000Y-63956250D02*
X172075000Y-65131250D01*
X229225000Y-65131250D02*
X229225000Y-64630209D01*
X88731250Y-140830209D02*
X89405209Y-140156250D01*
X305274900Y-86883650D02*
X305762500Y-86396050D01*
X177175000Y-48241250D02*
X177175000Y-47581250D01*
X234840000Y-48756250D02*
X252981250Y-48756250D01*
X239764250Y-124956250D02*
X257463541Y-124956250D01*
X250656250Y-141331250D02*
X250656250Y-140830209D01*
X229225000Y-64630209D02*
X229898959Y-63956250D01*
X143837500Y-124640500D02*
X144180650Y-124983650D01*
X91450000Y-85758054D02*
X91450000Y-85681250D01*
X324475000Y-140830209D02*
X325148959Y-140156250D01*
X162887500Y-124496050D02*
X162887500Y-123781250D01*
X282483650Y-86883650D02*
X305274900Y-86883650D01*
X329575000Y-124282291D02*
X329575000Y-123781250D01*
X73602400Y-86883650D02*
X90962400Y-86883650D01*
X72400000Y-85681250D02*
X73602400Y-86883650D01*
X72062500Y-103231250D02*
X72062500Y-102730209D01*
X89937500Y-102056250D02*
X91112500Y-103231250D01*
X181594350Y-124983650D02*
X181937500Y-124640500D01*
X186700000Y-86396050D02*
X187187600Y-86883650D01*
X248275000Y-64630209D02*
X248948959Y-63956250D01*
X205750000Y-86396050D02*
X206237600Y-86883650D01*
X162399900Y-124983650D02*
X162887500Y-124496050D01*
X215275000Y-48241250D02*
X215275000Y-47581250D01*
X63743750Y-140156250D02*
X64918750Y-141331250D01*
X274468750Y-141331250D02*
X274468750Y-140830209D01*
X195187250Y-124956250D02*
X200417750Y-124956250D01*
X281950000Y-86350000D02*
X282483650Y-86883650D01*
X139075000Y-48250000D02*
X139075000Y-47581250D01*
X86687500Y-124321040D02*
X87350110Y-124983650D01*
X201557250Y-124956250D02*
X219522500Y-124956250D01*
X134648959Y-63956250D02*
X151850000Y-63956250D01*
X293856250Y-123781250D02*
X294276400Y-123361100D01*
X41621250Y-140156250D02*
X63743750Y-140156250D01*
X225287600Y-86883650D02*
X243362400Y-86883650D01*
X109033500Y-101981000D02*
X110283750Y-103231250D01*
X168137600Y-86883650D02*
X186212400Y-86883650D01*
X324475000Y-102730209D02*
X325148959Y-102056250D01*
X224462500Y-103231250D02*
X224462500Y-102730209D01*
X191125000Y-65131250D02*
X191125000Y-64630209D01*
X153025000Y-64630209D02*
X153698959Y-63956250D01*
X124666250Y-123858054D02*
X124666250Y-123781250D01*
X338653125Y-57037500D02*
X338765625Y-57150000D01*
X110283750Y-103231250D02*
X110283750Y-102730209D01*
X305425000Y-140830209D02*
X306098959Y-140156250D01*
X46787500Y-47581250D02*
X46831250Y-47625000D01*
X281416350Y-86883650D02*
X281950000Y-86350000D01*
X342350000Y-102056250D02*
X343525000Y-103231250D01*
X144180650Y-124983650D02*
X162399900Y-124983650D01*
X304250000Y-140156250D02*
X305425000Y-141331250D01*
X52905000Y-38989000D02*
X52905000Y-37766000D01*
X215790000Y-48756250D02*
X233810000Y-48756250D01*
X263387600Y-86883650D02*
X281416350Y-86883650D01*
X191646875Y-141331250D02*
X226843750Y-141331250D01*
X72062500Y-102730209D02*
X72736459Y-102056250D01*
X262562500Y-103231250D02*
X262562500Y-102571250D01*
X342350000Y-63956250D02*
X343525000Y-65131250D01*
X72400000Y-86396050D02*
X71912400Y-86883650D01*
X143494350Y-124983650D02*
X143837500Y-124640500D01*
X77574209Y-63881000D02*
X94624750Y-63881000D01*
X110283750Y-102730209D02*
X110957709Y-102056250D01*
X39240000Y-63956250D02*
X56600000Y-63956250D01*
X65433750Y-140156250D02*
X87556250Y-140156250D01*
X139075000Y-48250000D02*
X139581250Y-48756250D01*
X130037600Y-86883650D02*
X148112400Y-86883650D01*
X146966250Y-102056250D02*
X148141250Y-103231250D01*
X157787500Y-140671250D02*
X158302500Y-140156250D01*
X57618750Y-42537500D02*
X58744967Y-43663717D01*
X132800000Y-63956250D02*
X133975000Y-65131250D01*
X63515650Y-86883650D02*
X62740650Y-86108650D01*
X157787500Y-141331250D02*
X157787500Y-140671250D01*
X243850000Y-86396050D02*
X244337600Y-86883650D01*
X106225100Y-124983650D02*
X124178650Y-124983650D01*
X72400000Y-85681250D02*
X72400000Y-86396050D01*
X224800000Y-85758054D02*
X224800000Y-85681250D01*
X233810000Y-48756250D02*
X234325000Y-48241250D01*
X324475000Y-141331250D02*
X324475000Y-140830209D01*
X257463541Y-124956250D02*
X258137500Y-124282291D01*
X186212400Y-86883650D02*
X186700000Y-86396050D01*
X262900000Y-85758054D02*
X262900000Y-85681250D01*
X187036459Y-102056250D02*
X204237500Y-102056250D01*
X167650000Y-85758054D02*
X167650000Y-85681250D01*
X258137500Y-124282291D02*
X258137500Y-123781250D01*
X57775000Y-64471250D02*
X58290000Y-63956250D01*
X293518750Y-102571250D02*
X294109000Y-101981000D01*
X48019000Y-38989000D02*
X48019000Y-37680000D01*
X177690000Y-48756250D02*
X195710000Y-48756250D01*
X324475000Y-103231250D02*
X324475000Y-102730209D01*
X91450000Y-86396050D02*
X91937600Y-86883650D01*
X324475000Y-65131250D02*
X324475000Y-64630209D01*
X305425000Y-141331250D02*
X305425000Y-140830209D01*
X306098959Y-140156250D02*
X321691000Y-140156250D01*
X243850000Y-86396050D02*
X243850000Y-85681250D01*
X330237610Y-86883650D02*
X339725000Y-86883650D01*
X215275000Y-48241250D02*
X215790000Y-48756250D01*
X196225000Y-48241250D02*
X196225000Y-47581250D01*
X128037500Y-102056250D02*
X129212500Y-103231250D01*
X62875000Y-47581250D02*
X64050000Y-48756250D01*
X153698959Y-63956250D02*
X170900000Y-63956250D01*
X148600000Y-85758054D02*
X148600000Y-85681250D01*
X249481250Y-140156250D02*
X250656250Y-141331250D01*
X64690625Y-48756250D02*
X81291750Y-48756250D01*
X292343750Y-102056250D02*
X293518750Y-103231250D01*
X250656250Y-140830209D02*
X251330209Y-140156250D01*
X88731250Y-141331250D02*
X88731250Y-140830209D01*
X247100000Y-63956250D02*
X248275000Y-65131250D01*
X324475000Y-64630209D02*
X325148959Y-63956250D01*
X339843750Y-75684375D02*
X339843750Y-73421875D01*
X167323218Y-143668750D02*
X189309375Y-143668750D01*
X52905000Y-41887500D02*
X52905000Y-42537500D01*
X205750000Y-85758054D02*
X205750000Y-85681250D01*
X89405209Y-140156250D02*
X113010717Y-140156250D01*
X64918750Y-141331250D02*
X64918750Y-140671250D01*
X321691000Y-140156250D02*
X323300000Y-140156250D01*
X111033650Y-86883650D02*
X129062400Y-86883650D01*
X262900000Y-86396050D02*
X262900000Y-85681250D01*
X258137500Y-123781250D02*
X258557650Y-123361100D01*
X279400000Y-63956250D02*
X294725000Y-63956250D01*
X153025000Y-65131250D02*
X153025000Y-64630209D01*
X305762500Y-86396050D02*
X314706000Y-86396050D01*
X149087600Y-86883650D02*
X167162400Y-86883650D01*
X87350110Y-124983650D02*
X105249900Y-124983650D01*
X314706000Y-101981000D02*
X323224750Y-101981000D01*
X294109000Y-101981000D02*
X314706000Y-101981000D01*
X105249900Y-124983650D02*
X105737500Y-124496050D01*
X318758250Y-124956250D02*
X328901041Y-124956250D01*
X262900000Y-86396050D02*
X263387600Y-86883650D01*
X328912390Y-86883650D02*
X329575000Y-86221040D01*
X113010717Y-140156250D02*
X113736197Y-140881730D01*
X229898959Y-63956250D02*
X247100000Y-63956250D01*
X110957709Y-102056250D02*
X128037500Y-102056250D01*
X124666250Y-124496050D02*
X124666250Y-123781250D01*
X254011250Y-48756250D02*
X271910000Y-48756250D01*
X275142709Y-140156250D02*
X304250000Y-140156250D01*
X129212500Y-103231250D02*
X129212500Y-102571250D01*
X200417750Y-124956250D02*
X200987500Y-124386500D01*
X329575000Y-85758054D02*
X329575000Y-85681250D01*
X272425000Y-48241250D02*
X272425000Y-47581250D01*
X148141250Y-103231250D02*
X148141250Y-102730209D01*
X252981250Y-48756250D02*
X253496250Y-48241250D01*
X158302500Y-140156250D02*
X163810718Y-140156250D01*
X214760000Y-48756250D02*
X215275000Y-48241250D01*
X266150000Y-63956250D02*
X267325000Y-65131250D01*
X329575000Y-124282291D02*
X330248959Y-124956250D01*
X244027500Y-102056250D02*
X261387500Y-102056250D01*
X182337500Y-124181250D02*
X194412250Y-124181250D01*
X200987500Y-124386500D02*
X201557250Y-124956250D01*
X187187600Y-86883650D02*
X205262400Y-86883650D01*
X220552500Y-124956250D02*
X238413541Y-124956250D01*
X244337600Y-86883650D02*
X262412400Y-86883650D01*
X295900000Y-64471250D02*
X296415000Y-63956250D01*
X243850000Y-85758054D02*
X243850000Y-85681250D01*
X339725000Y-63956250D02*
X342350000Y-63956250D01*
X62875000Y-48241250D02*
X62875000Y-47581250D01*
X281950000Y-85758054D02*
X281950000Y-85681250D01*
X76825000Y-65131250D02*
X76825000Y-64630209D01*
X329575000Y-86221040D02*
X330237610Y-86883650D01*
X239087500Y-124282291D02*
X239087500Y-123781250D01*
X248275000Y-65131250D02*
X248275000Y-64630209D01*
X224800000Y-86396050D02*
X225287600Y-86883650D01*
X220037500Y-124441250D02*
X220552500Y-124956250D01*
X86024890Y-124983650D02*
X86687500Y-124321040D01*
X243512500Y-103231250D02*
X243512500Y-102571250D01*
X133975000Y-64630209D02*
X134648959Y-63956250D01*
X158125000Y-48241250D02*
X158125000Y-47581250D01*
X166137500Y-102056250D02*
X167312500Y-103231250D01*
X243512500Y-102571250D02*
X244027500Y-102056250D01*
X101354250Y-48756250D02*
X119510000Y-48756250D01*
X70887500Y-102056250D02*
X72062500Y-103231250D01*
X115598959Y-63956250D02*
X132800000Y-63956250D01*
X280460100Y-123361100D02*
X282055250Y-124956250D01*
X273396250Y-49212500D02*
X273843750Y-49212500D01*
X189309375Y-143668750D02*
X191646875Y-141331250D01*
X189950000Y-63956250D02*
X191125000Y-65131250D01*
X323224750Y-101981000D02*
X324475000Y-103231250D01*
X305762500Y-86396050D02*
X305762500Y-85681250D01*
X325148959Y-102056250D02*
X342350000Y-102056250D01*
X162887500Y-123858054D02*
X162887500Y-123781250D01*
X295900000Y-65131250D02*
X295900000Y-64471250D01*
X294276400Y-123361100D02*
X314706000Y-123361100D01*
X57775000Y-65131250D02*
X57775000Y-64471250D01*
X325148959Y-63956250D02*
X339725000Y-63956250D01*
X148600000Y-86396050D02*
X148600000Y-85681250D01*
X262412400Y-86883650D02*
X262900000Y-86396050D01*
X239090291Y-124282291D02*
X239764250Y-124956250D01*
X328901041Y-124956250D02*
X329575000Y-124282291D01*
X95875000Y-65131250D02*
X95875000Y-64630209D01*
X227358750Y-140156250D02*
X249481250Y-140156250D01*
X293518750Y-103231250D02*
X293518750Y-102571250D01*
X62875000Y-47658054D02*
X62875000Y-47581250D01*
X348625000Y-85758054D02*
X348625000Y-85681250D01*
X196740000Y-48756250D02*
X214760000Y-48756250D01*
X294725000Y-63956250D02*
X295900000Y-65131250D01*
X242337500Y-102056250D02*
X243512500Y-103231250D01*
X45868750Y-102571250D02*
X46383750Y-102056250D01*
X129550000Y-86396050D02*
X129550000Y-85681250D01*
X114617859Y-141763391D02*
X115236198Y-142381730D01*
X87556250Y-140156250D02*
X88731250Y-141331250D01*
X267325000Y-64630209D02*
X267998959Y-63956250D01*
X248948959Y-63956250D02*
X266150000Y-63956250D01*
X314706000Y-123361100D02*
X317163100Y-123361100D01*
X281950000Y-86350000D02*
X281950000Y-85681250D01*
X62740650Y-86108650D02*
X49014900Y-86108650D01*
X100975000Y-48377000D02*
X101354250Y-48756250D01*
X125153850Y-124983650D02*
X143494350Y-124983650D01*
X206237600Y-86883650D02*
X224312400Y-86883650D01*
X167162400Y-86883650D02*
X167650000Y-86396050D01*
X262562500Y-102571250D02*
X263077500Y-102056250D01*
X226843750Y-141331250D02*
X226843750Y-140671250D01*
X139581250Y-48756250D02*
X157610000Y-48756250D01*
X274468750Y-140830209D02*
X275142709Y-140156250D01*
X172748959Y-63956250D02*
X189950000Y-63956250D01*
X129212500Y-102571250D02*
X129727500Y-102056250D01*
X129550000Y-85758054D02*
X129550000Y-85681250D01*
X342350000Y-140156250D02*
X343525000Y-141331250D01*
X200987500Y-124386500D02*
X200987500Y-123781250D01*
X143837500Y-123858054D02*
X143837500Y-123781250D01*
X272425000Y-48241250D02*
X273396250Y-49212500D01*
X181937500Y-124640500D02*
X181937500Y-123781250D01*
X105737500Y-124496050D02*
X105737500Y-123781250D01*
X75960466Y-124983650D02*
X86024890Y-124983650D01*
X163375100Y-124983650D02*
X181594350Y-124983650D01*
X38725000Y-64471250D02*
X39240000Y-63956250D01*
X129727500Y-102056250D02*
X146966250Y-102056250D01*
X94624750Y-63881000D02*
X95875000Y-65131250D01*
X348625000Y-86221040D02*
X348625000Y-85681250D01*
X261387500Y-102056250D02*
X262562500Y-103231250D01*
X110500000Y-86350000D02*
X111033650Y-86883650D01*
X239087500Y-124282291D02*
X239090291Y-124282291D01*
X267325000Y-65131250D02*
X267325000Y-64630209D01*
X186700000Y-85758054D02*
X186700000Y-85681250D01*
X186362500Y-103231250D02*
X186362500Y-102730209D01*
X204237500Y-102056250D02*
X205412500Y-103231250D01*
X100975000Y-48377000D02*
X100595750Y-48756250D01*
X282055250Y-124956250D02*
X293254750Y-124956250D01*
X105737500Y-124496050D02*
X106225100Y-124983650D01*
X330248959Y-124956250D02*
X348110000Y-124956250D01*
X228050000Y-63956250D02*
X229225000Y-65131250D01*
X47117000Y-51435000D02*
X59681250Y-51435000D01*
X325137610Y-86883650D02*
X328912390Y-86883650D01*
X181937500Y-123858054D02*
X181937500Y-123781250D01*
X91450000Y-86396050D02*
X91450000Y-85681250D01*
X148112400Y-86883650D02*
X148600000Y-86396050D01*
X172075000Y-64630209D02*
X172748959Y-63956250D01*
X148815209Y-102056250D02*
X166137500Y-102056250D01*
X167986459Y-102056250D02*
X185187500Y-102056250D01*
X109966350Y-86883650D02*
X110500000Y-86350000D01*
X156625480Y-141331250D02*
X157787500Y-141331250D01*
X100595750Y-48756250D02*
X82558250Y-48756250D01*
X185187500Y-102056250D02*
X186362500Y-103231250D01*
X314706000Y-63956250D02*
X323300000Y-63956250D01*
X44730750Y-40259000D02*
X44984750Y-40005000D01*
X38725000Y-65131250D02*
X38725000Y-64471250D01*
X71912400Y-86883650D02*
X63515650Y-86883650D01*
X43825000Y-47581250D02*
X46787500Y-47581250D01*
X339725000Y-75803125D02*
X339843750Y-75684375D01*
X172075000Y-65131250D02*
X172075000Y-64630209D01*
X191125000Y-64630209D02*
X191798959Y-63956250D01*
X205262400Y-86883650D02*
X205750000Y-86396050D01*
X48019000Y-39444000D02*
X48019000Y-38989000D01*
X234325000Y-48241250D02*
X234325000Y-47581250D01*
X339725000Y-86883650D02*
X347962390Y-86883650D01*
X225136459Y-102056250D02*
X242337500Y-102056250D01*
X347962390Y-86883650D02*
X348625000Y-86221040D01*
X75650000Y-63956250D02*
X76825000Y-65131250D01*
X194412250Y-124181250D02*
X195187250Y-124956250D01*
X124178650Y-124983650D02*
X124666250Y-124496050D01*
X74310516Y-123333700D02*
X75960466Y-124983650D01*
X258557650Y-123361100D02*
X280460100Y-123361100D01*
X113750000Y-63956250D02*
X114925000Y-65131250D01*
X143837500Y-124640500D02*
X143837500Y-123781250D01*
X323300000Y-140156250D02*
X324475000Y-141331250D01*
X162887500Y-124496050D02*
X163375100Y-124983650D01*
X205750000Y-86396050D02*
X205750000Y-85681250D01*
X348110000Y-124956250D02*
X348625000Y-124441250D01*
X52905000Y-41887500D02*
X52905000Y-38989000D01*
X52905000Y-37766000D02*
X52819000Y-37680000D01*
X338653125Y-55165625D02*
X338653125Y-57037500D01*
X76825000Y-64630209D02*
X77574209Y-63881000D01*
X293254750Y-124956250D02*
X293856250Y-124354750D01*
X46383750Y-102056250D02*
X70887500Y-102056250D01*
X91112500Y-103231250D02*
X91112500Y-102571250D01*
X113736197Y-140881730D02*
X114617859Y-141763391D01*
X72736459Y-102056250D02*
X89937500Y-102056250D01*
X348625000Y-124441250D02*
X348625000Y-123781250D01*
X114925000Y-65131250D02*
X114925000Y-64630209D01*
X253496250Y-48241250D02*
X253496250Y-47581250D01*
X223212250Y-101981000D02*
X224462500Y-103231250D01*
X305762500Y-85758054D02*
X305762500Y-85681250D01*
X195710000Y-48756250D02*
X196225000Y-48241250D01*
X114925000Y-64630209D02*
X115598959Y-63956250D01*
X324650010Y-86396050D02*
X325137610Y-86883650D01*
X325148959Y-140156250D02*
X342350000Y-140156250D01*
X41106250Y-140671250D02*
X41621250Y-140156250D01*
X205412500Y-102571250D02*
X206002750Y-101981000D01*
X238413541Y-124956250D02*
X239087500Y-124282291D01*
X226843750Y-140671250D02*
X227358750Y-140156250D01*
X167650000Y-86396050D02*
X167650000Y-85681250D01*
X181937500Y-123781250D02*
X182337500Y-124181250D01*
X129062400Y-86883650D02*
X129550000Y-86396050D01*
X329575000Y-86221040D02*
X329575000Y-85681250D01*
X96548959Y-63956250D02*
X113750000Y-63956250D01*
X296415000Y-63956250D02*
X314706000Y-63956250D01*
X120025000Y-48241250D02*
X120025000Y-47581250D01*
X234325000Y-48241250D02*
X234840000Y-48756250D01*
X82558250Y-48756250D02*
X81925000Y-48123000D01*
D45*
%TO.N,ROW0*%
X59176200Y-36443200D02*
X57261125Y-34528125D01*
X39487750Y-34194250D02*
X39661020Y-34367520D01*
X257968750Y-43814000D02*
X277368000Y-43814000D01*
X57261125Y-34528125D02*
X39821625Y-34528125D01*
X181106000Y-140490040D02*
X181106000Y-139787000D01*
X59176200Y-36776203D02*
X59176200Y-36443200D01*
X67468750Y-43814000D02*
X86518750Y-43814000D01*
X39487750Y-33137750D02*
X39487750Y-34194250D01*
X162718750Y-43814000D02*
X181768750Y-43814000D01*
X219868750Y-43814000D02*
X238918750Y-43814000D01*
X181764450Y-140788200D02*
X181404160Y-140788200D01*
X67468750Y-43814000D02*
X66213997Y-43814000D01*
X105568750Y-43814000D02*
X124618750Y-43814000D01*
X181768750Y-43814000D02*
X200818750Y-43814000D01*
X183356250Y-142380000D02*
X181764450Y-140788200D01*
X86518750Y-43814000D02*
X105568750Y-43814000D01*
X238918750Y-43814000D02*
X257968750Y-43814000D01*
X39290625Y-32940625D02*
X39487750Y-33137750D01*
X200818750Y-43814000D02*
X219868750Y-43814000D01*
X34528125Y-34131250D02*
X35718750Y-32940625D01*
X181404160Y-140788200D02*
X181106000Y-140490040D01*
X39821625Y-34528125D02*
X39487750Y-34194250D01*
X124618750Y-43814000D02*
X143668750Y-43814000D01*
X66213997Y-43814000D02*
X59176200Y-36776203D01*
X35718750Y-32940625D02*
X39290625Y-32940625D01*
X143668750Y-43814000D02*
X162718750Y-43814000D01*
%TO.N,Net-(U3-PF1)*%
X174594217Y-127000000D02*
X173574332Y-128019885D01*
X145100000Y-130175000D02*
X145100000Y-132350000D01*
X179644723Y-127000000D02*
X174594217Y-127000000D01*
X145100000Y-132350000D02*
X144950000Y-132500000D01*
X180106000Y-127461277D02*
X179644723Y-127000000D01*
X180106000Y-128437000D02*
X180106000Y-127461277D01*
X173574332Y-128019885D02*
X147255115Y-128019885D01*
X147255115Y-128019885D02*
X145100000Y-130175000D01*
X144637500Y-130325000D02*
X144787500Y-130175000D01*
%TO.N,Net-(D1-A)*%
X43307500Y-35718750D02*
X43815000Y-36226250D01*
X36187750Y-34194250D02*
X36187750Y-35394000D01*
X36512500Y-35718750D02*
X43307500Y-35718750D01*
X36187750Y-35394000D02*
X36512500Y-35718750D01*
%TO.N,ROW1*%
X238918750Y-62864000D02*
X257968750Y-62864000D01*
X277018750Y-62864000D02*
X305593750Y-62864000D01*
X200818750Y-62864000D02*
X219868750Y-62864000D01*
X67468750Y-62864000D02*
X86518750Y-62864000D01*
X143668750Y-62864000D02*
X162718750Y-62864000D01*
X180606000Y-140883943D02*
X180606000Y-139787000D01*
X219868750Y-62864000D02*
X238918750Y-62864000D01*
X182102057Y-142380000D02*
X180606000Y-140883943D01*
X48418750Y-62864000D02*
X67468750Y-62864000D01*
X334168750Y-62864000D02*
X353218750Y-62864000D01*
X34602937Y-62864000D02*
X48418750Y-62864000D01*
X34150000Y-63316937D02*
X34602937Y-62864000D01*
X257968750Y-62864000D02*
X277018750Y-62864000D01*
X105568750Y-62864000D02*
X124618750Y-62864000D01*
X305593750Y-62864000D02*
X334168750Y-62864000D01*
X181768750Y-62864000D02*
X200818750Y-62864000D01*
X143668750Y-62864000D02*
X124618750Y-62864000D01*
X86518750Y-62864000D02*
X105568750Y-62864000D01*
X162718750Y-62864000D02*
X181768750Y-62864000D01*
%TO.N,Net-(D2-A)*%
X66532750Y-40514000D02*
X62825000Y-36806250D01*
X67468750Y-40514000D02*
X66532750Y-40514000D01*
%TO.N,Net-(D3-A)*%
X47482750Y-59564000D02*
X43775000Y-55856250D01*
X48418750Y-59564000D02*
X47482750Y-59564000D01*
%TO.N,COL0*%
X68759611Y-128098421D02*
X45582829Y-128098421D01*
X70115593Y-126742439D02*
X68759611Y-128098421D01*
X175675020Y-133887480D02*
X168857368Y-133887480D01*
X118804939Y-126742439D02*
X70115593Y-126742439D01*
X168857368Y-133887480D02*
X167481728Y-132511840D01*
X45582829Y-128098421D02*
X41156250Y-132525000D01*
X175681000Y-133862000D02*
X175681000Y-133881500D01*
X123031250Y-130968750D02*
X118804939Y-126742439D01*
X175681000Y-133881500D02*
X175675020Y-133887480D01*
X123031250Y-138112500D02*
X123031250Y-130968750D01*
%TO.N,COL1*%
X96043750Y-127191959D02*
X112712500Y-127191959D01*
X167850160Y-134085604D02*
X167843148Y-134085604D01*
X118618741Y-127191959D02*
X112712500Y-127191959D01*
X70301791Y-127191959D02*
X96043750Y-127191959D01*
X122581730Y-131154948D02*
X122316516Y-130889734D01*
X118744641Y-127317859D02*
X118618741Y-127191959D01*
X122581730Y-136865668D02*
X122581730Y-132556250D01*
X175681000Y-134362000D02*
X168126556Y-134362000D01*
X64968750Y-132525000D02*
X70301791Y-127191959D01*
X168126556Y-134362000D02*
X167850160Y-134085604D01*
X122183074Y-137264324D02*
X122581730Y-136865668D01*
X167843148Y-134085604D02*
X167468817Y-133711273D01*
X122581730Y-132556250D02*
X122581730Y-131154948D01*
X122316516Y-130889734D02*
X118744641Y-127317859D01*
D46*
%TO.N,D+*%
X173965345Y-126063440D02*
X179874210Y-126063440D01*
X179874210Y-126063440D02*
X181106000Y-127295230D01*
X163200985Y-91630129D02*
X163200985Y-91811601D01*
X62706250Y-90279776D02*
X64531216Y-88454810D01*
X51228946Y-55847946D02*
X50800000Y-55419000D01*
X51228946Y-57117929D02*
X51228946Y-55847946D01*
X173037500Y-126991285D02*
X173965345Y-126063440D01*
X64531216Y-88454810D02*
X160025666Y-88454810D01*
X160025666Y-88454810D02*
X163200985Y-91630129D01*
X181093750Y-128424750D02*
X181106000Y-128437000D01*
X181106000Y-127295230D02*
X181106000Y-128437000D01*
%TO.N,D-*%
X49784000Y-35941000D02*
X49784000Y-35975000D01*
X50512000Y-36703000D02*
X49826000Y-36703000D01*
X173165342Y-125713440D02*
X180019185Y-125713440D01*
X50669000Y-36860000D02*
X50512000Y-36703000D01*
X63765964Y-88055290D02*
X160756826Y-88055290D01*
X62706250Y-89080273D02*
X62740981Y-89080273D01*
X181618250Y-128437000D02*
X181606000Y-128437000D01*
X49669000Y-36860000D02*
X49669000Y-37680000D01*
X49784000Y-35975000D02*
X50512000Y-36703000D01*
X181606000Y-127300256D02*
X181606000Y-128437000D01*
X171887497Y-126991285D02*
X173165342Y-125713440D01*
X180019185Y-125713440D02*
X181606000Y-127300256D01*
X49826000Y-36703000D02*
X49669000Y-36860000D01*
X160756826Y-88055290D02*
X162843381Y-90141845D01*
X181656480Y-128398770D02*
X181618250Y-128437000D01*
X50669000Y-37680000D02*
X50669000Y-36860000D01*
X62740981Y-89080273D02*
X63765964Y-88055290D01*
D45*
%TO.N,Net-(D4-A)*%
X67468750Y-59564000D02*
X66532750Y-59564000D01*
X66532750Y-59564000D02*
X62825000Y-55856250D01*
%TO.N,Net-(D5-A)*%
X53181250Y-78614000D02*
X52276500Y-78614000D01*
X52276500Y-78614000D02*
X48537500Y-74875000D01*
%TO.N,Net-(D6-A)*%
X55562500Y-97664000D02*
X54657750Y-97664000D01*
X54657750Y-97664000D02*
X50918750Y-93925000D01*
%TO.N,ROW3*%
X177006250Y-100964000D02*
X196056250Y-100964000D01*
X334168750Y-100964000D02*
X353218750Y-100964000D01*
X196056250Y-100964000D02*
X215106250Y-100964000D01*
X159900003Y-107156250D02*
X53181250Y-107156250D01*
X157956250Y-100964000D02*
X177006250Y-100964000D01*
X253206250Y-100964000D02*
X272256250Y-100964000D01*
X171846875Y-140096875D02*
X173037500Y-141287500D01*
X215106250Y-100964000D02*
X234156250Y-100964000D01*
X160734375Y-107990622D02*
X159900003Y-107156250D01*
X53182250Y-100964000D02*
X53181250Y-100965000D01*
X119856250Y-100964000D02*
X138906250Y-100964000D01*
X272256250Y-100964000D02*
X303212500Y-100964000D01*
X55562500Y-100964000D02*
X53182250Y-100964000D01*
X178593750Y-141287500D02*
X178606000Y-141275250D01*
X55562500Y-100964000D02*
X81756250Y-100964000D01*
X100806250Y-100964000D02*
X119856250Y-100964000D01*
X138906250Y-100964000D02*
X157956250Y-100964000D01*
X178606000Y-141275250D02*
X178606000Y-139787000D01*
X303212500Y-100964000D02*
X334168750Y-100964000D01*
X234156250Y-100964000D02*
X253206250Y-100964000D01*
X81756250Y-100964000D02*
X100806250Y-100964000D01*
X173037500Y-141287500D02*
X178593750Y-141287500D01*
%TO.N,ROW2*%
X191293750Y-81914000D02*
X210343750Y-81914000D01*
X134143750Y-81914000D02*
X153193750Y-81914000D01*
X267493750Y-81914000D02*
X286543750Y-81914000D01*
X76993750Y-81914000D02*
X96043750Y-81914000D01*
X35423010Y-81914000D02*
X53181250Y-81914000D01*
X115093750Y-81914000D02*
X134143750Y-81914000D01*
X248443750Y-81914000D02*
X267493750Y-81914000D01*
X180106000Y-141610348D02*
X180106000Y-139787000D01*
X53181250Y-81914000D02*
X76993750Y-81914000D01*
X96043750Y-81914000D02*
X115093750Y-81914000D01*
X229393750Y-81914000D02*
X248443750Y-81914000D01*
X172243750Y-81914000D02*
X191293750Y-81914000D01*
X310356250Y-81914000D02*
X334168750Y-81914000D01*
X210343750Y-81914000D02*
X229393750Y-81914000D01*
X153193750Y-81914000D02*
X172243750Y-81914000D01*
X180875652Y-142380000D02*
X180106000Y-141610348D01*
X286543750Y-81914000D02*
X310356250Y-81914000D01*
X34943750Y-82393260D02*
X35423010Y-81914000D01*
X334168750Y-81914000D02*
X353187000Y-81914000D01*
%TO.N,Net-(D7-A)*%
X60325000Y-116714000D02*
X59420250Y-116714000D01*
X59420250Y-116714000D02*
X55681250Y-112975000D01*
%TO.N,Net-(D8-A)*%
X46362500Y-132025000D02*
X46156250Y-132025000D01*
X49895250Y-135764000D02*
X46156250Y-132025000D01*
X50800000Y-135764000D02*
X49895250Y-135764000D01*
%TO.N,Net-(D9-A)*%
X76993750Y-78614000D02*
X76089000Y-78614000D01*
X76089000Y-78614000D02*
X72350000Y-74875000D01*
%TO.N,Net-(D10-A)*%
X80851500Y-97664000D02*
X77112500Y-93925000D01*
X81756250Y-97664000D02*
X80851500Y-97664000D01*
%TO.N,ROW5*%
X179606000Y-142225017D02*
X179606000Y-139787000D01*
X167475000Y-139756250D02*
X157106250Y-139756250D01*
X188912500Y-143271875D02*
X170990625Y-143271875D01*
X260350000Y-139064000D02*
X236537500Y-139064000D01*
X115422395Y-141932210D02*
X112554184Y-139064000D01*
X315118750Y-139064000D02*
X284162500Y-139064000D01*
X334168750Y-139064000D02*
X315118750Y-139064000D01*
X193120375Y-139064000D02*
X188912500Y-143271875D01*
X179451017Y-142380000D02*
X179606000Y-142225017D01*
X236537500Y-139064000D02*
X193120375Y-139064000D01*
X170990625Y-143271875D02*
X167481250Y-139762500D01*
X260350000Y-139064000D02*
X284162500Y-139064000D01*
X50799000Y-139065000D02*
X50800000Y-139064000D01*
X353218750Y-139064000D02*
X334168750Y-139064000D01*
X112554184Y-139064000D02*
X98425000Y-139064000D01*
X154930290Y-141932210D02*
X115422395Y-141932210D01*
X48418750Y-139065000D02*
X50799000Y-139065000D01*
X167481250Y-139762500D02*
X167475000Y-139756250D01*
X98425000Y-139064000D02*
X74612500Y-139064000D01*
X74612500Y-139064000D02*
X50800000Y-139064000D01*
X157106250Y-139756250D02*
X154930290Y-141932210D01*
%TO.N,Net-(D11-A)*%
X90376500Y-116714000D02*
X86637500Y-112975000D01*
X91281250Y-116714000D02*
X90376500Y-116714000D01*
%TO.N,Net-(D12-A)*%
X74612500Y-135764000D02*
X73707750Y-135764000D01*
X73707750Y-135764000D02*
X69968750Y-132025000D01*
%TO.N,Net-(D13-A)*%
X85582750Y-40514000D02*
X81875000Y-36806250D01*
X86518750Y-40514000D02*
X85582750Y-40514000D01*
%TO.N,Net-(D14-A)*%
X85582750Y-59564000D02*
X81875000Y-55856250D01*
X86518750Y-59564000D02*
X85582750Y-59564000D01*
%TO.N,Net-(D15-A)*%
X95139000Y-78614000D02*
X91400000Y-74875000D01*
X96043750Y-78614000D02*
X95139000Y-78614000D01*
%TO.N,Net-(D16-A)*%
X100806250Y-97664000D02*
X99901500Y-97664000D01*
X99901500Y-97664000D02*
X96162500Y-93925000D01*
X96368750Y-93925000D02*
X96162500Y-93925000D01*
%TO.N,Net-(D17-A)*%
X110331250Y-116714000D02*
X109426500Y-116714000D01*
X105893750Y-112975000D02*
X105687500Y-112975000D01*
X109426500Y-116714000D02*
X105687500Y-112975000D01*
%TO.N,Net-(D18-A)*%
X97520250Y-135764000D02*
X93781250Y-132025000D01*
X93987500Y-132025000D02*
X93781250Y-132025000D01*
X98425000Y-135764000D02*
X97520250Y-135764000D01*
%TO.N,Net-(D19-A)*%
X104632750Y-40514000D02*
X100925000Y-36806250D01*
X105568750Y-40514000D02*
X104632750Y-40514000D01*
%TO.N,Net-(D20-A)*%
X105568750Y-59564000D02*
X104664000Y-59564000D01*
X104664000Y-59564000D02*
X100925000Y-55825000D01*
%TO.N,Net-(D21-A)*%
X114189000Y-78614000D02*
X110450000Y-74875000D01*
X115093750Y-78614000D02*
X114189000Y-78614000D01*
%TO.N,Net-(D22-A)*%
X119856250Y-97664000D02*
X118951500Y-97664000D01*
X118951500Y-97664000D02*
X115212500Y-93925000D01*
%TO.N,Net-(D23-A)*%
X124943750Y-112975000D02*
X124737500Y-112975000D01*
X129381250Y-116714000D02*
X128476500Y-116714000D01*
X128476500Y-116714000D02*
X124737500Y-112975000D01*
%TO.N,Net-(D24-A)*%
X167481250Y-136048750D02*
X162877500Y-131445000D01*
X167481250Y-136462500D02*
X167481250Y-136048750D01*
%TO.N,Net-(D25-A)*%
X120212500Y-36806250D02*
X119975000Y-36806250D01*
X123682750Y-40514000D02*
X119975000Y-36806250D01*
X124618750Y-40514000D02*
X123682750Y-40514000D01*
%TO.N,Net-(D26-A)*%
X123714000Y-59564000D02*
X119975000Y-55825000D01*
X124618750Y-59564000D02*
X123714000Y-59564000D01*
%TO.N,Net-(D27-A)*%
X133239000Y-78614000D02*
X129500000Y-74875000D01*
X134143750Y-78614000D02*
X133239000Y-78614000D01*
%TO.N,Net-(D28-A)*%
X138001500Y-97664000D02*
X134262500Y-93925000D01*
X138906250Y-97664000D02*
X138001500Y-97664000D01*
%TO.N,Net-(D29-A)*%
X147526500Y-116714000D02*
X143787500Y-112975000D01*
X148431250Y-116714000D02*
X147526500Y-116714000D01*
%TO.N,Net-(D30-A)*%
X236537500Y-135668750D02*
X236157500Y-135668750D01*
X236537500Y-135764000D02*
X235632750Y-135764000D01*
X235632750Y-135764000D02*
X231893750Y-132025000D01*
%TO.N,Net-(D31-A)*%
X143668750Y-40514000D02*
X142764000Y-40514000D01*
X142764000Y-40514000D02*
X139025000Y-36775000D01*
%TO.N,Net-(D32-A)*%
X142764000Y-59564000D02*
X139025000Y-55825000D01*
X143668750Y-59564000D02*
X142764000Y-59564000D01*
%TO.N,Net-(D33-A)*%
X152289000Y-78614000D02*
X148550000Y-74875000D01*
X153193750Y-78614000D02*
X152289000Y-78614000D01*
%TO.N,Net-(D34-A)*%
X157956250Y-97664000D02*
X157051500Y-97664000D01*
X157051500Y-97664000D02*
X153312500Y-93925000D01*
%TO.N,Net-(D35-A)*%
X166576500Y-116714000D02*
X162837500Y-112975000D01*
X167481250Y-116714000D02*
X166576500Y-116714000D01*
X163043750Y-112975000D02*
X162837500Y-112975000D01*
%TO.N,Net-(D36-A)*%
X259445250Y-135764000D02*
X255706250Y-132025000D01*
X260350000Y-135764000D02*
X259445250Y-135764000D01*
%TO.N,Net-(D37-A)*%
X162718750Y-40514000D02*
X161814000Y-40514000D01*
X161814000Y-40514000D02*
X158075000Y-36775000D01*
%TO.N,Net-(D38-A)*%
X161814000Y-59564000D02*
X158075000Y-55825000D01*
X162718750Y-59564000D02*
X161814000Y-59564000D01*
%TO.N,Net-(D39-A)*%
X172243750Y-78614000D02*
X171339000Y-78614000D01*
X171339000Y-78614000D02*
X167600000Y-74875000D01*
%TO.N,Net-(D40-A)*%
X176101500Y-97664000D02*
X172362500Y-93925000D01*
X177006250Y-97664000D02*
X176101500Y-97664000D01*
%TO.N,Net-(D41-A)*%
X185626500Y-116714000D02*
X181887500Y-112975000D01*
X186531250Y-116714000D02*
X185626500Y-116714000D01*
%TO.N,Net-(D42-A)*%
X283257750Y-135764000D02*
X279518750Y-132025000D01*
X284162500Y-135764000D02*
X283257750Y-135764000D01*
%TO.N,Net-(D43-A)*%
X180864000Y-40514000D02*
X177125000Y-36775000D01*
X181768750Y-40514000D02*
X180864000Y-40514000D01*
%TO.N,Net-(D44-A)*%
X180864000Y-59564000D02*
X177125000Y-55825000D01*
X181768750Y-59564000D02*
X180864000Y-59564000D01*
%TO.N,Net-(D45-A)*%
X191293750Y-78614000D02*
X190389000Y-78614000D01*
X190389000Y-78614000D02*
X186650000Y-74875000D01*
%TO.N,Net-(D46-A)*%
X195151500Y-97664000D02*
X191412500Y-93925000D01*
X196056250Y-97664000D02*
X195151500Y-97664000D01*
%TO.N,Net-(D47-A)*%
X204676500Y-116714000D02*
X200937500Y-112975000D01*
X205581250Y-116714000D02*
X204676500Y-116714000D01*
%TO.N,Net-(D48-A)*%
X314214000Y-135764000D02*
X310475000Y-132025000D01*
X315118750Y-135764000D02*
X314214000Y-135764000D01*
%TO.N,Net-(D49-A)*%
X199882750Y-40514000D02*
X196175000Y-36806250D01*
X196412500Y-36806250D02*
X196175000Y-36806250D01*
X200818750Y-40514000D02*
X199882750Y-40514000D01*
%TO.N,Net-(D50-A)*%
X200818750Y-59564000D02*
X199914000Y-59564000D01*
X199914000Y-59564000D02*
X196175000Y-55825000D01*
%TO.N,Net-(D51-A)*%
X209439000Y-78614000D02*
X205700000Y-74875000D01*
X210343750Y-78614000D02*
X209439000Y-78614000D01*
%TO.N,Net-(D52-A)*%
X214201500Y-97664000D02*
X210462500Y-93925000D01*
X215106250Y-97664000D02*
X214201500Y-97664000D01*
%TO.N,Net-(D53-A)*%
X223726500Y-116714000D02*
X219987500Y-112975000D01*
X220193750Y-112975000D02*
X219987500Y-112975000D01*
X224631250Y-116714000D02*
X223726500Y-116714000D01*
%TO.N,Net-(D54-A)*%
X333264000Y-135764000D02*
X329525000Y-132025000D01*
X334168750Y-135764000D02*
X333264000Y-135764000D01*
%TO.N,Net-(D55-A)*%
X219868750Y-40514000D02*
X218964000Y-40514000D01*
X218964000Y-40514000D02*
X215225000Y-36775000D01*
%TO.N,Net-(D56-A)*%
X219868750Y-59564000D02*
X218964000Y-59564000D01*
X218964000Y-59564000D02*
X215225000Y-55825000D01*
%TO.N,Net-(D57-A)*%
X228489000Y-78614000D02*
X224750000Y-74875000D01*
X229393750Y-78614000D02*
X228489000Y-78614000D01*
%TO.N,Net-(D58-A)*%
X234156250Y-97664000D02*
X233251500Y-97664000D01*
X233251500Y-97664000D02*
X229512500Y-93925000D01*
%TO.N,Net-(D59-A)*%
X243681250Y-116714000D02*
X242776500Y-116714000D01*
X239243750Y-112975000D02*
X239037500Y-112975000D01*
X242776500Y-116714000D02*
X239037500Y-112975000D01*
%TO.N,Net-(D60-A)*%
X352314000Y-135764000D02*
X348575000Y-132025000D01*
X353218750Y-135764000D02*
X352314000Y-135764000D01*
%TO.N,Net-(D61-A)*%
X238014000Y-40514000D02*
X234275000Y-36775000D01*
X238918750Y-40514000D02*
X238014000Y-40514000D01*
%TO.N,Net-(D62-A)*%
X238918750Y-59564000D02*
X238014000Y-59564000D01*
X238014000Y-59564000D02*
X234275000Y-55825000D01*
%TO.N,Net-(D63-A)*%
X247539000Y-78614000D02*
X243800000Y-74875000D01*
X248443750Y-78614000D02*
X247539000Y-78614000D01*
%TO.N,Net-(D64-A)*%
X253206250Y-97664000D02*
X252301500Y-97664000D01*
X252301500Y-97664000D02*
X248562500Y-93925000D01*
%TO.N,Net-(D65-A)*%
X258293750Y-112975000D02*
X258087500Y-112975000D01*
X261826500Y-116714000D02*
X258087500Y-112975000D01*
X262731250Y-116714000D02*
X261826500Y-116714000D01*
%TO.N,Net-(D67-A)*%
X257032750Y-40514000D02*
X253325000Y-36806250D01*
X257968750Y-40514000D02*
X257032750Y-40514000D01*
%TO.N,Net-(D68-A)*%
X257064000Y-59564000D02*
X253325000Y-55825000D01*
X257968750Y-59564000D02*
X257064000Y-59564000D01*
%TO.N,A*%
X336790625Y-51990625D02*
X336790625Y-51834375D01*
X336790625Y-50956250D02*
X336790625Y-51990625D01*
X184106000Y-127202032D02*
X184106000Y-128437000D01*
X353615625Y-50403125D02*
X337343750Y-50403125D01*
X188515625Y-125015625D02*
X186292407Y-125015625D01*
X337343750Y-50403125D02*
X336790625Y-50956250D01*
X186292407Y-125015625D02*
X184106000Y-127202032D01*
X181110100Y-93524534D02*
X181110100Y-91552864D01*
X181110100Y-91552864D02*
X184371971Y-88290993D01*
X336946875Y-57150000D02*
X336946875Y-55284375D01*
X336946875Y-55284375D02*
X336828125Y-55165625D01*
X336828125Y-52028125D02*
X336790625Y-51990625D01*
X336828125Y-55165625D02*
X336828125Y-52028125D01*
X181439425Y-93853859D02*
X181110100Y-93524534D01*
X184371971Y-88290993D02*
X336365257Y-88290993D01*
X336365257Y-88290993D02*
X336946875Y-87709375D01*
%TO.N,Net-(D69-A)*%
X267493750Y-78614000D02*
X266589000Y-78614000D01*
X266589000Y-78614000D02*
X262850000Y-74875000D01*
%TO.N,Net-(D70-A)*%
X272256250Y-97664000D02*
X271351500Y-97664000D01*
X271351500Y-97664000D02*
X267612500Y-93925000D01*
%TO.N,Net-(D71-A)*%
X297545250Y-116714000D02*
X293806250Y-112975000D01*
X298450000Y-116714000D02*
X297545250Y-116714000D01*
%TO.N,Net-(D73-A)*%
X272581250Y-36775000D02*
X272375000Y-36775000D01*
X277368000Y-40514000D02*
X276114000Y-40514000D01*
X276114000Y-40514000D02*
X272375000Y-36775000D01*
%TO.N,Net-(D74-A)*%
X276114000Y-59564000D02*
X272375000Y-55825000D01*
X277018750Y-59564000D02*
X276114000Y-59564000D01*
%TO.N,B*%
X184606000Y-127337750D02*
X184606000Y-128437000D01*
X354806250Y-68262500D02*
X354806250Y-40209375D01*
X181836300Y-91254322D02*
X184497229Y-88593393D01*
X185638469Y-126305281D02*
X184606000Y-127337750D01*
X337981250Y-70246875D02*
X338018750Y-70284375D01*
X337212860Y-88593393D02*
X338096878Y-87709375D01*
X354806250Y-40209375D02*
X353371875Y-38775000D01*
X181836300Y-92706718D02*
X181836300Y-91254322D01*
X338018750Y-73421875D02*
X338096878Y-73500003D01*
X338018750Y-70284375D02*
X338018750Y-73421875D01*
X342848800Y-69056250D02*
X354012500Y-69056250D01*
X354012500Y-69056250D02*
X354806250Y-68262500D01*
X184497229Y-88593393D02*
X337212860Y-88593393D01*
X338096878Y-73500003D02*
X338096878Y-75803125D01*
X188515625Y-126305281D02*
X185638469Y-126305281D01*
X337981250Y-69056250D02*
X337981250Y-70246875D01*
%TO.N,Net-(D75-A)*%
X286543750Y-78614000D02*
X285639000Y-78614000D01*
X282106250Y-74875000D02*
X281900000Y-74875000D01*
X285639000Y-78614000D02*
X281900000Y-74875000D01*
%TO.N,S1*%
X185182593Y-127396875D02*
X185080520Y-127498948D01*
X185080520Y-128411520D02*
X185106000Y-128437000D01*
X184582578Y-88935703D02*
X184618280Y-88900000D01*
X185080520Y-127498948D02*
X185080520Y-128411520D01*
X182562500Y-91678125D02*
X182562500Y-90955780D01*
X188457216Y-127396875D02*
X185182593Y-127396875D01*
X335332450Y-88895793D02*
X184622488Y-88895793D01*
X184622488Y-88895793D02*
X184582578Y-88935703D01*
X188515625Y-127455284D02*
X188457216Y-127396875D01*
X182562500Y-90955780D02*
X184582578Y-88935703D01*
X335756250Y-89319593D02*
X335332450Y-88895793D01*
%TO.N,Net-(D76-A)*%
X303212500Y-97664000D02*
X302307750Y-97664000D01*
X302307750Y-97664000D02*
X298568750Y-93925000D01*
%TO.N,Net-(D77-A)*%
X333264000Y-116714000D02*
X329525000Y-112975000D01*
X334168750Y-116714000D02*
X333264000Y-116714000D01*
%TO.N,Net-(D80-A)*%
X305593750Y-59564000D02*
X304689000Y-59564000D01*
X304689000Y-59564000D02*
X300950000Y-55825000D01*
%TO.N,Net-(D81-A)*%
X310356250Y-78614000D02*
X309451500Y-78614000D01*
X309451500Y-78614000D02*
X305712500Y-74875000D01*
%TO.N,Net-(D82-A)*%
X334168750Y-97664000D02*
X333264000Y-97664000D01*
X333264000Y-97664000D02*
X329525000Y-93925000D01*
%TO.N,Net-(D83-A)*%
X352314000Y-116714000D02*
X348575000Y-112975000D01*
X348781250Y-112975000D02*
X348575000Y-112975000D01*
X353218750Y-116714000D02*
X352314000Y-116714000D01*
%TO.N,Net-(D86-A)*%
X334168750Y-59564000D02*
X333264000Y-59564000D01*
X333264000Y-59564000D02*
X329525000Y-55825000D01*
%TO.N,Net-(D87-A)*%
X333264000Y-78614000D02*
X329525000Y-74875000D01*
X334168750Y-78614000D02*
X333264000Y-78614000D01*
%TO.N,Net-(D88-A)*%
X353218750Y-97664000D02*
X352314000Y-97664000D01*
X352314000Y-97664000D02*
X348575000Y-93925000D01*
%TO.N,COL5*%
X168435087Y-130014912D02*
X168008972Y-129588798D01*
X168008972Y-129588798D02*
X167928260Y-129508086D01*
X167928260Y-129508086D02*
X156663394Y-129508086D01*
X175681000Y-131862000D02*
X170282175Y-131862000D01*
X156663394Y-129508086D02*
X156182615Y-129988865D01*
X170282175Y-131862000D02*
X168435087Y-130014912D01*
%TO.N,COL4*%
X166710640Y-131785640D02*
X167901265Y-131785640D01*
X169477625Y-133362000D02*
X175681000Y-133362000D01*
X145256250Y-126206250D02*
X145256250Y-126149226D01*
X165436607Y-126524206D02*
X145574206Y-126524206D01*
X167901265Y-131785640D02*
X169477625Y-133362000D01*
X145574206Y-126524206D02*
X145256250Y-126206250D01*
X165893750Y-126067063D02*
X165436607Y-126524206D01*
X165893750Y-130968750D02*
X166710640Y-131785640D01*
%TO.N,COL2*%
X122132210Y-131341146D02*
X122132210Y-133350000D01*
X119220532Y-128429468D02*
X122132210Y-131341146D01*
X121334898Y-136416148D02*
X122132210Y-135618836D01*
X118432543Y-127641479D02*
X119220532Y-128429468D01*
X93664771Y-127641479D02*
X112712500Y-127641479D01*
X122132210Y-135618836D02*
X122132210Y-133350000D01*
X112712500Y-127641479D02*
X118432543Y-127641479D01*
X88781250Y-132525000D02*
X93664771Y-127641479D01*
X167556750Y-134862000D02*
X167508635Y-134910115D01*
X175681000Y-134862000D02*
X167556750Y-134862000D01*
%TO.N,COL3*%
X167481250Y-130968750D02*
X167997547Y-130968750D01*
X169890797Y-132862000D02*
X175681000Y-132862000D01*
X167481250Y-126991285D02*
X167463691Y-126973726D01*
X126973726Y-126973726D02*
X126206250Y-126206250D01*
X167463691Y-126973726D02*
X126973726Y-126973726D01*
X167997547Y-130968750D02*
X169890797Y-132862000D01*
X175681000Y-132862000D02*
X175655520Y-132836520D01*
%TO.N,COL6*%
X182606000Y-125247973D02*
X182606000Y-128437000D01*
X182688042Y-125165931D02*
X182606000Y-125247973D01*
%TO.N,COL7*%
X194242550Y-132862000D02*
X187031000Y-132862000D01*
X194468750Y-132635800D02*
X194242550Y-132862000D01*
%TO.N,Net-(D92-A)*%
X353218750Y-59564000D02*
X352314000Y-59564000D01*
X352314000Y-59564000D02*
X348575000Y-55825000D01*
%TO.N,Net-(D93-A)*%
X352314000Y-78614000D02*
X348575000Y-74875000D01*
X353187000Y-78614000D02*
X352314000Y-78614000D01*
%TO.N,Net-(J3-CC2)*%
X52169000Y-36860000D02*
X52169000Y-37680000D01*
X58618750Y-33734375D02*
X59015625Y-34131250D01*
X56356250Y-33734375D02*
X58618750Y-33734375D01*
X53310250Y-35718750D02*
X52169000Y-36860000D01*
X56356250Y-35718750D02*
X53310250Y-35718750D01*
%TO.N,Net-(J3-D+-PadA6)*%
X51169000Y-38452400D02*
X51169000Y-37680000D01*
X50169000Y-38452400D02*
X50242800Y-38526200D01*
X51816000Y-35941000D02*
X51169000Y-36588000D01*
X51689000Y-53594000D02*
X52959000Y-52324000D01*
X51169000Y-36588000D02*
X51169000Y-37680000D01*
X50169000Y-37680000D02*
X50169000Y-38452400D01*
X50242800Y-38526200D02*
X51095200Y-38526200D01*
X48418750Y-53594000D02*
X50800000Y-53594000D01*
X51095200Y-38526200D02*
X51169000Y-38452400D01*
X50800000Y-53594000D02*
X51689000Y-53594000D01*
%TO.N,Net-(J3-CC1)*%
X49169000Y-36850000D02*
X49169000Y-37680000D01*
X48260000Y-35941000D02*
X49169000Y-36850000D01*
X49212500Y-46905750D02*
X49212500Y-48006750D01*
%TO.N,Net-(LED_'1-DIN)*%
X285000000Y-103231250D02*
X286500000Y-104731250D01*
X267662500Y-103231250D02*
X285000000Y-103231250D01*
X286500000Y-104731250D02*
X293518750Y-104731250D01*
%TO.N,Net-(LED_'1-DOUT)*%
X248612500Y-103231250D02*
X254837500Y-103231250D01*
X256337500Y-104731250D02*
X262562500Y-104731250D01*
X262562500Y-104731250D02*
X262562500Y-104943750D01*
X254837500Y-103231250D02*
X256337500Y-104731250D01*
%TO.N,Net-(LED_\u002C1-DIN)*%
X200987500Y-122281250D02*
X207212500Y-122281250D01*
X207212500Y-122281250D02*
X208712500Y-123781250D01*
X208712500Y-123781250D02*
X214937500Y-123781250D01*
%TO.N,Net-(LED_\u002C1-DOUT)*%
X227762500Y-123781250D02*
X233987500Y-123781250D01*
X220037500Y-122281250D02*
X226262500Y-122281250D01*
X226262500Y-122281250D02*
X227762500Y-123781250D01*
%TO.N,RGB_PIN*%
X53975000Y-106706730D02*
X53600009Y-106331739D01*
X53600009Y-106331739D02*
X36115625Y-106331739D01*
X171007887Y-137862000D02*
X175681000Y-137862000D01*
X161528125Y-106706730D02*
X53975000Y-106706730D01*
X34968750Y-47581250D02*
X38725000Y-47581250D01*
X34925000Y-47625000D02*
X34968750Y-47581250D01*
X34528125Y-47625000D02*
X34925000Y-47625000D01*
%TO.N,Net-(LED_-1-DOUT)*%
X248275000Y-66631250D02*
X242050000Y-66631250D01*
X242050000Y-66631250D02*
X240550000Y-65131250D01*
X240550000Y-65131250D02*
X234325000Y-65131250D01*
%TO.N,Net-(LED_-1-DIN)*%
X259600000Y-65131250D02*
X253375000Y-65131250D01*
X267325000Y-66631250D02*
X261100000Y-66631250D01*
X261100000Y-66631250D02*
X259600000Y-65131250D01*
%TO.N,Net-(LED_.1-DOUT)*%
X246812500Y-123781250D02*
X253037500Y-123781250D01*
X245312500Y-122281250D02*
X246812500Y-123781250D01*
X239087500Y-122281250D02*
X245312500Y-122281250D01*
D43*
%TO.N,+3V3*%
X177519000Y-139700000D02*
X177606000Y-139787000D01*
X52905000Y-43187500D02*
X53674496Y-43187500D01*
D44*
X53818750Y-45400000D02*
X53975000Y-45243750D01*
D43*
X168275000Y-109537500D02*
X167481250Y-110331250D01*
X167481250Y-110331250D02*
X131762500Y-110331250D01*
X162306770Y-87630770D02*
X162941000Y-88265000D01*
X189309375Y-130571875D02*
X188519250Y-131362000D01*
X128662500Y-138375000D02*
X126749500Y-138375000D01*
X62706250Y-87630770D02*
X162306770Y-87630770D01*
D44*
X183606000Y-128437000D02*
X183606000Y-126182458D01*
D43*
X53975000Y-45243750D02*
X53877250Y-45146000D01*
X175021875Y-129702875D02*
X175681000Y-130362000D01*
X53979520Y-45239230D02*
X53975000Y-45243750D01*
X55562500Y-54768750D02*
X52387500Y-57943750D01*
X188519250Y-131362000D02*
X187031000Y-131362000D01*
D44*
X177606000Y-128437000D02*
X175021875Y-128437000D01*
D43*
X53979520Y-43492524D02*
X53979520Y-45239230D01*
X52387500Y-57943750D02*
X50958750Y-57943750D01*
X50958750Y-57943750D02*
X48434000Y-55419000D01*
D44*
X183606000Y-126182458D02*
X183866104Y-125922354D01*
D43*
X48434000Y-55419000D02*
X48418750Y-55419000D01*
X53674496Y-43187500D02*
X53979520Y-43492524D01*
X189309375Y-138906250D02*
X188265125Y-137862000D01*
X173831250Y-139700000D02*
X177519000Y-139700000D01*
X126749500Y-138375000D02*
X126206250Y-137831750D01*
X188265125Y-137862000D02*
X187031000Y-137862000D01*
X53877250Y-45146000D02*
X46355000Y-45146000D01*
X175021875Y-128437000D02*
X175021875Y-129702875D01*
D45*
%TO.N,Net-(LED_/1-DOUT)*%
X280523250Y-122281250D02*
X282023250Y-123781250D01*
X282023250Y-123781250D02*
X288756250Y-123781250D01*
X258137500Y-122281250D02*
X280523250Y-122281250D01*
%TO.N,Net-(LED_0-DOUT)*%
X223000000Y-66631250D02*
X221500000Y-65131250D01*
X221500000Y-65131250D02*
X215275000Y-65131250D01*
X229225000Y-66631250D02*
X223000000Y-66631250D01*
%TO.N,Net-(LED_1-DOUT)*%
X57775000Y-66631250D02*
X51550000Y-66631250D01*
X50050000Y-65131250D02*
X43825000Y-65131250D01*
X51550000Y-66631250D02*
X50050000Y-65131250D01*
%TO.N,Net-(LED_1-DIN)*%
X69100000Y-65131250D02*
X62875000Y-65131250D01*
X76825000Y-66631250D02*
X70600000Y-66631250D01*
X70600000Y-66631250D02*
X69100000Y-65131250D01*
%TO.N,Net-(LED_2-DIN)*%
X95875000Y-66631250D02*
X89650000Y-66631250D01*
X89650000Y-66631250D02*
X88150000Y-65131250D01*
X88150000Y-65131250D02*
X81925000Y-65131250D01*
%TO.N,Net-(LED_3-DIN)*%
X107200000Y-65131250D02*
X100975000Y-65131250D01*
X114925000Y-66631250D02*
X108700000Y-66631250D01*
X108700000Y-66631250D02*
X107200000Y-65131250D01*
%TO.N,Net-(LED_4-DIN)*%
X133975000Y-66631250D02*
X127750000Y-66631250D01*
X126250000Y-65131250D02*
X120025000Y-65131250D01*
X127750000Y-66631250D02*
X126250000Y-65131250D01*
%TO.N,Net-(LED_5-DIN)*%
X146800000Y-66631250D02*
X145300000Y-65131250D01*
X145300000Y-65131250D02*
X139075000Y-65131250D01*
X153025000Y-66631250D02*
X146800000Y-66631250D01*
%TO.N,Net-(LED_6-DIN)*%
X172075000Y-66631250D02*
X165850000Y-66631250D01*
X165850000Y-66631250D02*
X164350000Y-65131250D01*
X164350000Y-65131250D02*
X158125000Y-65131250D01*
%TO.N,Net-(LED_7-DIN)*%
X184900000Y-66631250D02*
X183400000Y-65131250D01*
X183400000Y-65131250D02*
X177175000Y-65131250D01*
X191125000Y-66631250D02*
X184900000Y-66631250D01*
%TO.N,Net-(LED_8-DIN)*%
X202450000Y-65131250D02*
X196225000Y-65131250D01*
X203950000Y-66631250D02*
X202450000Y-65131250D01*
X210175000Y-66631250D02*
X203950000Y-66631250D01*
%TO.N,Net-(LED_;1-DOUT)*%
X235787500Y-103231250D02*
X237287500Y-104731250D01*
X237287500Y-104731250D02*
X243512500Y-104731250D01*
X229562500Y-103231250D02*
X235787500Y-103231250D01*
%TO.N,Net-(LED_=1-DIN)*%
X295460000Y-66631250D02*
X295900000Y-66631250D01*
X272425000Y-65131250D02*
X293960000Y-65131250D01*
X293960000Y-65131250D02*
X295460000Y-66631250D01*
%TO.N,Net-(LED_A1-DIN)*%
X77162500Y-103231250D02*
X83387500Y-103231250D01*
X83387500Y-103231250D02*
X84887500Y-104731250D01*
X84887500Y-104731250D02*
X91112500Y-104731250D01*
%TO.N,Net-(LED_A1-DOUT)*%
X50968750Y-103231250D02*
X64337500Y-103231250D01*
X64337500Y-103231250D02*
X65837500Y-104731250D01*
X65837500Y-104731250D02*
X72062500Y-104731250D01*
%TO.N,Net-(LED_B1-DIN)*%
X150062500Y-122281250D02*
X151562500Y-123781250D01*
X151562500Y-123781250D02*
X157787500Y-123781250D01*
X143837500Y-122281250D02*
X150062500Y-122281250D01*
%TO.N,Net-(LED_B1-DOUT)*%
X169112500Y-122281250D02*
X170612500Y-123781250D01*
X162887500Y-122281250D02*
X169112500Y-122281250D01*
X170612500Y-123781250D02*
X176837500Y-123781250D01*
%TO.N,Net-(LED_BckSpace1-DIN)*%
X318250000Y-66631250D02*
X316750000Y-65131250D01*
X324475000Y-66631250D02*
X318250000Y-66631250D01*
X316750000Y-65131250D02*
X301000000Y-65131250D01*
%TO.N,Net-(LED_C1-DIN)*%
X111962500Y-122281250D02*
X113462500Y-123781250D01*
X113462500Y-123781250D02*
X119566250Y-123781250D01*
X105737500Y-122281250D02*
X111962500Y-122281250D01*
%TO.N,Net-(LED_C1-DOUT)*%
X131012500Y-122281250D02*
X132512500Y-123781250D01*
X124666250Y-122281250D02*
X131012500Y-122281250D01*
X132512500Y-123781250D02*
X138737500Y-123781250D01*
%TO.N,Net-(LED_CAPS1-DOUT)*%
X43656250Y-123825000D02*
X43700000Y-123781250D01*
X43700000Y-123781250D02*
X50631250Y-123781250D01*
X45868750Y-104731250D02*
X43700000Y-104731250D01*
X43700000Y-104731250D02*
X43656250Y-104775000D01*
%TO.N,Net-(LED_D1-DIN)*%
X115383750Y-103231250D02*
X121487500Y-103231250D01*
X122987500Y-104731250D02*
X129212500Y-104731250D01*
X121487500Y-103231250D02*
X122987500Y-104731250D01*
%TO.N,Net-(LED_D1-DOUT)*%
X102437500Y-103231250D02*
X103937500Y-104731250D01*
X96212500Y-103231250D02*
X102437500Y-103231250D01*
X103937500Y-104731250D02*
X110283750Y-104731250D01*
%TO.N,Net-(LED_Del1-DIN)*%
X305762500Y-84181250D02*
X316750000Y-84181250D01*
X316750000Y-84181250D02*
X318250000Y-85681250D01*
X318250000Y-85681250D02*
X324475000Y-85681250D01*
%TO.N,Net-(LED_Del1-DOUT)*%
X335800000Y-84181250D02*
X337300000Y-85681250D01*
X329575000Y-84181250D02*
X335800000Y-84181250D01*
X337300000Y-85681250D02*
X343525000Y-85681250D01*
%TO.N,Net-(LED_DOWN1-DIN)*%
X338093750Y-142831250D02*
X343525000Y-142831250D01*
X329575000Y-141331250D02*
X336593750Y-141331250D01*
X336593750Y-141331250D02*
X338093750Y-142831250D01*
%TO.N,Net-(LED_DOWN1-DOUT)*%
X318250000Y-142831250D02*
X324475000Y-142831250D01*
X316750000Y-141331250D02*
X318250000Y-142831250D01*
X310525000Y-141331250D02*
X316750000Y-141331250D01*
%TO.N,Net-(LED_E1-DIN)*%
X99175000Y-85681250D02*
X105400000Y-85681250D01*
X97675000Y-84181250D02*
X99175000Y-85681250D01*
X91450000Y-84181250D02*
X97675000Y-84181250D01*
%TO.N,Net-(LED_E1-DOUT)*%
X110500000Y-84181250D02*
X116725000Y-84181250D01*
X118225000Y-85681250D02*
X124450000Y-85681250D01*
X116725000Y-84181250D02*
X118225000Y-85681250D01*
%TO.N,Net-(LED_End1-DOUT)*%
X348668750Y-84137500D02*
X348625000Y-84181250D01*
X350837500Y-84137500D02*
X348668750Y-84137500D01*
X350793750Y-103231250D02*
X350837500Y-103187500D01*
X348625000Y-103231250D02*
X350793750Y-103231250D01*
%TO.N,Net-(LED_ENTER1-DIN)*%
X318250000Y-104731250D02*
X324475000Y-104731250D01*
X298618750Y-103231250D02*
X316750000Y-103231250D01*
X316750000Y-103231250D02*
X318250000Y-104731250D01*
%TO.N,Net-(LED_Esc1-DOUT)*%
X51550000Y-47581250D02*
X57775000Y-47581250D01*
X50050000Y-46081250D02*
X51550000Y-47581250D01*
X43825000Y-46081250D02*
X50050000Y-46081250D01*
%TO.N,Net-(LED_F1-DOUT)*%
X62875000Y-46081250D02*
X69100000Y-46081250D01*
X70600000Y-47581250D02*
X76825000Y-47581250D01*
X69100000Y-46081250D02*
X70600000Y-47581250D01*
%TO.N,Net-(LED_F2-DOUT)*%
X88150000Y-46081250D02*
X89650000Y-47581250D01*
X81925000Y-46081250D02*
X88150000Y-46081250D01*
X89650000Y-47581250D02*
X95875000Y-47581250D01*
%TO.N,Net-(LED_F3-DOUT)*%
X108700000Y-47581250D02*
X114925000Y-47581250D01*
X107200000Y-46081250D02*
X108700000Y-47581250D01*
X100975000Y-46081250D02*
X107200000Y-46081250D01*
%TO.N,Net-(LED_F4-DOUT)*%
X120025000Y-46081250D02*
X126250000Y-46081250D01*
X126250000Y-46081250D02*
X127750000Y-47581250D01*
X127750000Y-47581250D02*
X133975000Y-47581250D01*
%TO.N,Net-(LED_F5-DOUT)*%
X138953750Y-45837500D02*
X145056250Y-45837500D01*
X145056250Y-45837500D02*
X146800000Y-47581250D01*
X146800000Y-47581250D02*
X153025000Y-47581250D01*
%TO.N,Net-(LED_F6-DOUT)*%
X164350000Y-46081250D02*
X165850000Y-47581250D01*
X158125000Y-46081250D02*
X164350000Y-46081250D01*
X165850000Y-47581250D02*
X172075000Y-47581250D01*
%TO.N,Net-(LED_F7-DOUT)*%
X183400000Y-46081250D02*
X184900000Y-47581250D01*
X184900000Y-47581250D02*
X191125000Y-47581250D01*
X177175000Y-46081250D02*
X183400000Y-46081250D01*
%TO.N,Net-(LED_F8-DOUT)*%
X202450000Y-46081250D02*
X203950000Y-47581250D01*
X203950000Y-47581250D02*
X210175000Y-47581250D01*
X196225000Y-46081250D02*
X202450000Y-46081250D01*
%TO.N,Net-(LED_F10-DIN)*%
X221500000Y-46081250D02*
X223000000Y-47581250D01*
X215275000Y-46081250D02*
X221500000Y-46081250D01*
X223000000Y-47581250D02*
X229225000Y-47581250D01*
%TO.N,Net-(LED_F10-DOUT)*%
X240550000Y-46081250D02*
X242050000Y-47581250D01*
X242050000Y-47581250D02*
X248396250Y-47581250D01*
X234325000Y-46081250D02*
X240550000Y-46081250D01*
%TO.N,Net-(LED_F11-DOUT)*%
X259600000Y-46081250D02*
X261100000Y-47581250D01*
X261100000Y-47581250D02*
X267325000Y-47581250D01*
X253496250Y-46081250D02*
X259600000Y-46081250D01*
%TO.N,Net-(LED_F12-DOUT)*%
X336550000Y-49609375D02*
X334565625Y-51593750D01*
X278418300Y-51593750D02*
X272905800Y-46081250D01*
X350837500Y-65087500D02*
X348668750Y-65087500D01*
X334565625Y-51593750D02*
X278418300Y-51593750D01*
X351234375Y-49609375D02*
X336550000Y-49609375D01*
X272905800Y-46081250D02*
X272465800Y-46081250D01*
X348668750Y-65087500D02*
X348625000Y-65131250D01*
%TO.N,Net-(LED_F13-DIN)*%
X140537500Y-103231250D02*
X142037500Y-104731250D01*
X134312500Y-103231250D02*
X140537500Y-103231250D01*
X142037500Y-104731250D02*
X148141250Y-104731250D01*
%TO.N,Net-(LED_G1-DIN)*%
X159587500Y-103231250D02*
X161087500Y-104731250D01*
X153241250Y-103231250D02*
X159587500Y-103231250D01*
X161087500Y-104731250D02*
X167312500Y-104731250D01*
%TO.N,Net-(LED_H1-DIN)*%
X178637500Y-103231250D02*
X180137500Y-104731250D01*
X172412500Y-103231250D02*
X178637500Y-103231250D01*
X180137500Y-104731250D02*
X186362500Y-104731250D01*
%TO.N,Net-(LED_Home1-DOUT)*%
X337300000Y-66631250D02*
X335800000Y-65131250D01*
X335800000Y-65131250D02*
X329575000Y-65131250D01*
X343525000Y-66631250D02*
X337300000Y-66631250D01*
%TO.N,Net-(LED_I1-DIN)*%
X186700000Y-84181250D02*
X192925000Y-84181250D01*
X192925000Y-84181250D02*
X194425000Y-85681250D01*
X194425000Y-85681250D02*
X200650000Y-85681250D01*
%TO.N,Net-(LED_I1-DOUT)*%
X213475000Y-85681250D02*
X219700000Y-85681250D01*
X205750000Y-84181250D02*
X211975000Y-84181250D01*
X211975000Y-84181250D02*
X213475000Y-85681250D01*
%TO.N,Net-(LED_J1-DIN)*%
X197687500Y-103231250D02*
X199187500Y-104731250D01*
X199187500Y-104731250D02*
X205412500Y-104731250D01*
X191462500Y-103231250D02*
X197687500Y-103231250D01*
%TO.N,Net-(LED_K1-DIN)*%
X210512500Y-103231250D02*
X216737500Y-103231250D01*
X218237500Y-104731250D02*
X224462500Y-104731250D01*
X216737500Y-103231250D02*
X218237500Y-104731250D01*
%TO.N,Net-(LED_LALT1-DOUT)*%
X80125000Y-142831250D02*
X78625000Y-141331250D01*
X88731250Y-142831250D02*
X80125000Y-142831250D01*
X78625000Y-141331250D02*
X70018750Y-141331250D01*
%TO.N,Net-(LED_LALT1-DIN)*%
X115050000Y-142831250D02*
X113550000Y-141331250D01*
X113550000Y-141331250D02*
X93831250Y-141331250D01*
X157787500Y-142831250D02*
X115050000Y-142831250D01*
%TO.N,Net-(LED_LCTRL1-DIN)*%
X54812500Y-141331250D02*
X46206250Y-141331250D01*
X56312500Y-142831250D02*
X54812500Y-141331250D01*
X64918750Y-142831250D02*
X56312500Y-142831250D01*
%TO.N,Net-(LED_LEFT1-DOUT)*%
X289675000Y-142831250D02*
X288175000Y-141331250D01*
X288175000Y-141331250D02*
X279568750Y-141331250D01*
X305425000Y-142831250D02*
X289675000Y-142831250D01*
%TO.N,Net-(LED_LSHIFT1-DOUT)*%
X73862500Y-122281250D02*
X75362500Y-123781250D01*
X55731250Y-122281250D02*
X73862500Y-122281250D01*
X75362500Y-123781250D02*
X81587500Y-123781250D01*
%TO.N,Net-(LED_M1-DIN)*%
X181937500Y-122281250D02*
X188162500Y-122281250D01*
X189662500Y-123781250D02*
X195887500Y-123781250D01*
X188162500Y-122281250D02*
X189662500Y-123781250D01*
%TO.N,Net-(LED_O1-DOUT)*%
X231025000Y-84181250D02*
X232525000Y-85681250D01*
X224800000Y-84181250D02*
X231025000Y-84181250D01*
X232525000Y-85681250D02*
X238750000Y-85681250D01*
%TO.N,Net-(LED_P1-DOUT)*%
X243850000Y-84181250D02*
X250075000Y-84181250D01*
X251575000Y-85681250D02*
X257800000Y-85681250D01*
X250075000Y-84181250D02*
X251575000Y-85681250D01*
%TO.N,Net-(LED_PGDN1-DOUT)*%
X350793750Y-141331250D02*
X350837500Y-141287500D01*
X348625000Y-141331250D02*
X350793750Y-141331250D01*
X350837500Y-122237500D02*
X348668750Y-122237500D01*
X348668750Y-122237500D02*
X348625000Y-122281250D01*
%TO.N,Net-(LED_PGDN1-DIN)*%
X335800000Y-122281250D02*
X337300000Y-123781250D01*
X329575000Y-122281250D02*
X335800000Y-122281250D01*
X337300000Y-123781250D02*
X343525000Y-123781250D01*
%TO.N,Net-(LED_PGUP1-DOUT)*%
X329575000Y-103231250D02*
X335800000Y-103231250D01*
X335800000Y-103231250D02*
X337300000Y-104731250D01*
X337300000Y-104731250D02*
X343525000Y-104731250D01*
%TO.N,Net-(LED_Q1-DOUT)*%
X80125000Y-85681250D02*
X86350000Y-85681250D01*
X78625000Y-84181250D02*
X80125000Y-85681250D01*
X72400000Y-84181250D02*
X78625000Y-84181250D01*
%TO.N,Net-(LED_Q1-DIN)*%
X61075000Y-85681250D02*
X67300000Y-85681250D01*
X48587500Y-84181250D02*
X59575000Y-84181250D01*
X59575000Y-84181250D02*
X61075000Y-85681250D01*
%TO.N,Net-(LED_R1-DOUT)*%
X129550000Y-84181250D02*
X135775000Y-84181250D01*
X135775000Y-84181250D02*
X137275000Y-85681250D01*
X137275000Y-85681250D02*
X143500000Y-85681250D01*
%TO.N,Net-(LED_RALT1-DIN)*%
X242050000Y-142831250D02*
X240550000Y-141331250D01*
X240550000Y-141331250D02*
X231943750Y-141331250D01*
X250656250Y-142831250D02*
X242050000Y-142831250D01*
%TO.N,Net-(LED_RALT1-DOUT)*%
X226843750Y-142831250D02*
X226072879Y-142060379D01*
X192108371Y-142060379D02*
X190103125Y-144065625D01*
X166290625Y-144065625D02*
X163556250Y-141331250D01*
X190103125Y-144065625D02*
X166290625Y-144065625D01*
X163556250Y-141331250D02*
X162887500Y-141331250D01*
X226072879Y-142060379D02*
X192108371Y-142060379D01*
%TO.N,Net-(LED_RCTRL1-DOUT)*%
X265862500Y-142831250D02*
X264362500Y-141331250D01*
X274468750Y-142831250D02*
X265862500Y-142831250D01*
X264362500Y-141331250D02*
X255756250Y-141331250D01*
%TO.N,Net-(LED_RSHIFT1-DOUT)*%
X318250000Y-123781250D02*
X324475000Y-123781250D01*
X316750000Y-122281250D02*
X318250000Y-123781250D01*
X293856250Y-122281250D02*
X316750000Y-122281250D01*
%TO.N,Net-(LED_T1-DOUT)*%
X148600000Y-84181250D02*
X154825000Y-84181250D01*
X156325000Y-85681250D02*
X162550000Y-85681250D01*
X154825000Y-84181250D02*
X156325000Y-85681250D01*
%TO.N,Net-(LED_TAB1-DIN)*%
X36556250Y-85681250D02*
X43487500Y-85681250D01*
X36556250Y-66631250D02*
X36512500Y-66675000D01*
X38725000Y-66631250D02*
X36556250Y-66631250D01*
X36512500Y-85725000D02*
X36556250Y-85681250D01*
%TO.N,Net-(LED_U1-DIN)*%
X173875000Y-84181250D02*
X175375000Y-85681250D01*
X175375000Y-85681250D02*
X181600000Y-85681250D01*
X167650000Y-84181250D02*
X173875000Y-84181250D01*
%TO.N,Net-(LED_X1-DIN)*%
X86687500Y-122281250D02*
X92912500Y-122281250D01*
X94412500Y-123781250D02*
X100637500Y-123781250D01*
X92912500Y-122281250D02*
X94412500Y-123781250D01*
%TO.N,Net-(LED_[1-DOUT)*%
X270625000Y-85681250D02*
X276850000Y-85681250D01*
X269125000Y-84181250D02*
X270625000Y-85681250D01*
X262900000Y-84181250D02*
X269125000Y-84181250D01*
%TO.N,Net-(LED_\u005C1-DIN)*%
X281950000Y-84181250D02*
X288175000Y-84181250D01*
X289675000Y-85681250D02*
X300662500Y-85681250D01*
X288175000Y-84181250D02*
X289675000Y-85681250D01*
%TO.N,Net-(Q1-B)*%
X134862500Y-133275000D02*
X134862500Y-132496250D01*
X134862500Y-134675000D02*
X134862500Y-133275000D01*
X157379894Y-129957606D02*
X167742063Y-129957606D01*
X167742063Y-129957606D02*
X168117229Y-130332771D01*
X138112500Y-133231250D02*
X139818750Y-133231250D01*
X134906250Y-133231250D02*
X134862500Y-133275000D01*
X168117229Y-130332771D02*
X170146457Y-132362000D01*
X134862500Y-132496250D02*
X135196250Y-132162500D01*
X170146457Y-132362000D02*
X175681000Y-132362000D01*
X138112500Y-133231250D02*
X134906250Y-133231250D01*
X141684375Y-138509375D02*
X148828125Y-138509375D01*
X139818750Y-136643750D02*
X141684375Y-138509375D01*
X139818750Y-133231250D02*
X139818750Y-136643750D01*
X148828125Y-138509375D02*
X157379894Y-129957606D01*
%TO.N,Net-(Q1-C)*%
X136266250Y-131108750D02*
X138112500Y-129262500D01*
X136266250Y-131762500D02*
X136266250Y-131108750D01*
%TO.N,Net-(U3-NRST)*%
X147129857Y-127717485D02*
X145862967Y-128984375D01*
X174468959Y-126697600D02*
X173449074Y-127717485D01*
X180606000Y-127325560D02*
X179978040Y-126697600D01*
X173449074Y-127717485D02*
X147129857Y-127717485D01*
X180606000Y-128437000D02*
X180606000Y-127325560D01*
X179978040Y-126697600D02*
X174468959Y-126697600D01*
X140215625Y-128984375D02*
X138112500Y-131087500D01*
X145862967Y-128984375D02*
X140215625Y-128984375D01*
%TO.N,COL11*%
X264318750Y-131762500D02*
X265906250Y-131762500D01*
X224087835Y-129446981D02*
X262003231Y-129446981D01*
X262003231Y-129446981D02*
X264318750Y-131762500D01*
X217672814Y-135862000D02*
X224087835Y-129446981D01*
X187031000Y-135862000D02*
X217672814Y-135862000D01*
%TO.N,COL8*%
X213518750Y-133135800D02*
X213292550Y-133362000D01*
X213292550Y-133362000D02*
X187031000Y-133362000D01*
%TO.N,COL9*%
X187031000Y-136862000D02*
X217944250Y-136862000D01*
X222281250Y-132525000D02*
X226893750Y-132525000D01*
X217944250Y-136862000D02*
X222281250Y-132525000D01*
%TO.N,COL10*%
X224274032Y-129896501D02*
X217808532Y-136362000D01*
X248077751Y-129896501D02*
X224274032Y-129896501D01*
X250706250Y-132525000D02*
X248077751Y-129896501D01*
X217808532Y-136362000D02*
X187031000Y-136362000D01*
%TO.N,COL12*%
X223901638Y-128997461D02*
X270991211Y-128997461D01*
X222487049Y-130412049D02*
X223901638Y-128997461D01*
X270991211Y-128997461D02*
X274518750Y-132525000D01*
X217511616Y-135387480D02*
X222487049Y-130412049D01*
X186531250Y-135387480D02*
X217511616Y-135387480D01*
%TO.N,COL13*%
X272587074Y-129957606D02*
X300216981Y-129957606D01*
X217401380Y-134862000D02*
X223715441Y-128547941D01*
X223715441Y-128547941D02*
X271177408Y-128547941D01*
X302784375Y-132525000D02*
X305475000Y-132525000D01*
X271177408Y-128547941D02*
X272587074Y-129957606D01*
X300216981Y-129957606D02*
X302784375Y-132525000D01*
X187031000Y-134862000D02*
X217401380Y-134862000D01*
%TO.N,COL14*%
X272451343Y-129186157D02*
X271363608Y-128098422D01*
X272451343Y-129186157D02*
X272773272Y-129508086D01*
X219470082Y-132157581D02*
X217240183Y-134387480D01*
X223529244Y-128098421D02*
X221851332Y-129776332D01*
X321508086Y-129508086D02*
X324525000Y-132525000D01*
X217240183Y-134387480D02*
X186531250Y-134387480D01*
X269875000Y-128098421D02*
X223529244Y-128098421D01*
X271363608Y-128098422D02*
X269875000Y-128098421D01*
X221851332Y-129776332D02*
X219470082Y-132157581D01*
X272773272Y-129508086D02*
X321508086Y-129508086D01*
%TO.N,COL15*%
X223343047Y-127648901D02*
X217129945Y-133862000D01*
X217129945Y-133862000D02*
X187031000Y-133862000D01*
X269081250Y-127648901D02*
X223343047Y-127648901D01*
X272959470Y-129058566D02*
X271549805Y-127648902D01*
X271549805Y-127648902D02*
X269081250Y-127648901D01*
X340108566Y-129058566D02*
X272959470Y-129058566D01*
X343575000Y-132525000D02*
X340108566Y-129058566D01*
%TO.N,ROW4*%
X262731250Y-120014000D02*
X298450000Y-120014000D01*
X179106000Y-141410967D02*
X179106000Y-139787000D01*
X60325000Y-120014000D02*
X91281250Y-120014000D01*
X58318730Y-107605770D02*
X57943750Y-107980750D01*
X334168750Y-120014000D02*
X353218750Y-120014000D01*
X56356250Y-120015000D02*
X56357250Y-120014000D01*
X129381250Y-120014000D02*
X148431250Y-120014000D01*
X167481250Y-120014000D02*
X186531250Y-120014000D01*
X110331250Y-120014000D02*
X129381250Y-120014000D01*
X186531250Y-120014000D02*
X205581250Y-120014000D01*
X159199520Y-107605770D02*
X58318730Y-107605770D01*
X56357250Y-120014000D02*
X60325000Y-120014000D01*
X178590602Y-141926365D02*
X179106000Y-141410967D01*
X160734375Y-109140625D02*
X159199520Y-107605770D01*
X91281250Y-120014000D02*
X110331250Y-120014000D01*
X224631250Y-120014000D02*
X243681250Y-120014000D01*
X172485740Y-141926365D02*
X178590602Y-141926365D01*
X171846875Y-141287500D02*
X172485740Y-141926365D01*
X298450000Y-120014000D02*
X334168750Y-120014000D01*
X205581250Y-120014000D02*
X224631250Y-120014000D01*
X243681250Y-120014000D02*
X262731250Y-120014000D01*
X148431250Y-120014000D02*
X167481250Y-120014000D01*
%TD*%
M02*
