%TF.GenerationSoftware,KiCad,Pcbnew,9.0.4*%
%TF.CreationDate,2025-09-14T19:43:05+01:00*%
%TF.ProjectId,keyboard,6b657962-6f61-4726-942e-6b696361645f,rev?*%
%TF.SameCoordinates,Original*%
%TF.FileFunction,Copper,L1,Top*%
%TF.FilePolarity,Positive*%
%FSLAX46Y46*%
G04 Gerber Fmt 4.6, Leading zero omitted, Abs format (unit mm)*
G04 Created by KiCad (PCBNEW 9.0.4) date 2025-09-14 19:43:05*
%MOMM*%
%LPD*%
G01*
G04 APERTURE LIST*
G04 Aperture macros list*
%AMRoundRect*
0 Rectangle with rounded corners*
0 $1 Rounding radius*
0 $2 $3 $4 $5 $6 $7 $8 $9 X,Y pos of 4 corners*
0 Add a 4 corners polygon primitive as box body*
4,1,4,$2,$3,$4,$5,$6,$7,$8,$9,$2,$3,0*
0 Add four circle primitives for the rounded corners*
1,1,$1+$1,$2,$3*
1,1,$1+$1,$4,$5*
1,1,$1+$1,$6,$7*
1,1,$1+$1,$8,$9*
0 Add four rect primitives between the rounded corners*
20,1,$1+$1,$2,$3,$4,$5,0*
20,1,$1+$1,$4,$5,$6,$7,0*
20,1,$1+$1,$6,$7,$8,$9,0*
20,1,$1+$1,$8,$9,$2,$3,0*%
%AMHorizOval*
0 Thick line with rounded ends*
0 $1 width*
0 $2 $3 position (X,Y) of the first rounded end (center of the circle)*
0 $4 $5 position (X,Y) of the second rounded end (center of the circle)*
0 Add line between two ends*
20,1,$1,$2,$3,$4,$5,0*
0 Add two circle primitives to create the rounded ends*
1,1,$1,$2,$3*
1,1,$1,$4,$5*%
G04 Aperture macros list end*
%TA.AperFunction,ComponentPad*%
%ADD10HorizOval,2.250000X0.655001X0.730000X-0.655001X-0.730000X0*%
%TD*%
%TA.AperFunction,ComponentPad*%
%ADD11C,2.250000*%
%TD*%
%TA.AperFunction,ComponentPad*%
%ADD12HorizOval,2.250000X0.020000X0.290000X-0.020000X-0.290000X0*%
%TD*%
%TA.AperFunction,ComponentPad*%
%ADD13C,1.550000*%
%TD*%
%TA.AperFunction,ComponentPad*%
%ADD14RoundRect,1.200000X1.300000X-0.000010X1.300000X0.000010X-1.300000X0.000010X-1.300000X-0.000010X0*%
%TD*%
%TA.AperFunction,ComponentPad*%
%ADD15R,1.550000X1.550000*%
%TD*%
%TA.AperFunction,ComponentPad*%
%ADD16O,1.000000X1.800000*%
%TD*%
%TA.AperFunction,ComponentPad*%
%ADD17O,1.000000X2.100000*%
%TD*%
%TA.AperFunction,ViaPad*%
%ADD18C,1.500000*%
%TD*%
%TA.AperFunction,ViaPad*%
%ADD19C,1.000000*%
%TD*%
%TA.AperFunction,Conductor*%
%ADD20C,0.304800*%
%TD*%
%TA.AperFunction,Conductor*%
%ADD21C,0.250000*%
%TD*%
%TA.AperFunction,Conductor*%
%ADD22C,0.152400*%
%TD*%
%TA.AperFunction,Conductor*%
%ADD23C,0.200000*%
%TD*%
G04 APERTURE END LIST*
D10*
%TO.P,MX_F9,1,COL*%
%TO.N,COL9*%
X209570001Y-38005000D03*
D11*
X210225000Y-37275000D03*
D12*
%TO.P,MX_F9,2,ROW*%
%TO.N,Net-(D55-A)*%
X215245000Y-36485000D03*
D11*
X215265000Y-36195000D03*
%TD*%
D10*
%TO.P,MX_I1,1,COL*%
%TO.N,COL8*%
X200045001Y-76105000D03*
D11*
X200700000Y-75375000D03*
D12*
%TO.P,MX_I1,2,ROW*%
%TO.N,Net-(D51-A)*%
X205720000Y-74585000D03*
D11*
X205740000Y-74295000D03*
%TD*%
D10*
%TO.P,MX_]1,1,COL*%
%TO.N,COL12*%
X276245001Y-76105000D03*
D11*
X276900000Y-75375000D03*
D12*
%TO.P,MX_]1,2,ROW*%
%TO.N,Net-(D75-A)*%
X281920000Y-74585000D03*
D11*
X281940000Y-74295000D03*
%TD*%
D10*
%TO.P,MX_Left1,1,COL*%
%TO.N,COL13*%
X304820001Y-133255000D03*
D11*
X305475000Y-132525000D03*
D12*
%TO.P,MX_Left1,2,ROW*%
%TO.N,Net-(D48-A)*%
X310495000Y-131735000D03*
D11*
X310515000Y-131445000D03*
%TD*%
D10*
%TO.P,MX_R1,1,COL*%
%TO.N,COL4*%
X123845001Y-76105000D03*
D11*
X124500000Y-75375000D03*
D12*
%TO.P,MX_R1,2,ROW*%
%TO.N,Net-(D27-A)*%
X129520000Y-74585000D03*
D11*
X129540000Y-74295000D03*
%TD*%
D10*
%TO.P,MX_F4,1,COL*%
%TO.N,COL4*%
X114320001Y-38036250D03*
D11*
X114975000Y-37306250D03*
D12*
%TO.P,MX_F4,2,ROW*%
%TO.N,Net-(D25-A)*%
X119995000Y-36516250D03*
D11*
X120015000Y-36226250D03*
%TD*%
D10*
%TO.P,MX_F12,1,COL*%
%TO.N,COL12*%
X266720001Y-38005000D03*
D11*
X267375000Y-37275000D03*
D12*
%TO.P,MX_F12,2,ROW*%
%TO.N,Net-(D73-A)*%
X272395000Y-36485000D03*
D11*
X272415000Y-36195000D03*
%TD*%
D10*
%TO.P,MX_N1,1,COL*%
%TO.N,COL6*%
X176232501Y-114205000D03*
D11*
X176887500Y-113475000D03*
D12*
%TO.P,MX_N1,2,ROW*%
%TO.N,Net-(D41-A)*%
X181907500Y-112685000D03*
D11*
X181927500Y-112395000D03*
%TD*%
D10*
%TO.P,MX_T1,1,COL*%
%TO.N,COL5*%
X142895001Y-76105000D03*
D11*
X143550000Y-75375000D03*
D12*
%TO.P,MX_T1,2,ROW*%
%TO.N,Net-(D33-A)*%
X148570000Y-74585000D03*
D11*
X148590000Y-74295000D03*
%TD*%
D10*
%TO.P,MX_Del1,1,COL*%
%TO.N,COL14*%
X323870001Y-76105000D03*
D11*
X324525000Y-75375000D03*
D12*
%TO.P,MX_Del1,2,ROW*%
%TO.N,Net-(D87-A)*%
X329545000Y-74585000D03*
D11*
X329565000Y-74295000D03*
%TD*%
D10*
%TO.P,MX_LAlt1,1,COL*%
%TO.N,COL2*%
X88126251Y-133255000D03*
D11*
X88781250Y-132525000D03*
D12*
%TO.P,MX_LAlt1,2,ROW*%
%TO.N,Net-(D18-A)*%
X93801250Y-131735000D03*
D11*
X93821250Y-131445000D03*
%TD*%
D10*
%TO.P,MX_Ins1,1,COL*%
%TO.N,COL14*%
X323870001Y-57055000D03*
D11*
X324525000Y-56325000D03*
D12*
%TO.P,MX_Ins1,2,ROW*%
%TO.N,Net-(D86-A)*%
X329545000Y-55535000D03*
D11*
X329565000Y-55245000D03*
%TD*%
D10*
%TO.P,MX_9,1,COL*%
%TO.N,COL9*%
X209570001Y-57055000D03*
D11*
X210225000Y-56325000D03*
D12*
%TO.P,MX_9,2,ROW*%
%TO.N,Net-(D56-A)*%
X215245000Y-55535000D03*
D11*
X215265000Y-55245000D03*
%TD*%
D10*
%TO.P,MX_Y1,1,COL*%
%TO.N,COL6*%
X161945001Y-76105000D03*
D11*
X162600000Y-75375000D03*
D12*
%TO.P,MX_Y1,2,ROW*%
%TO.N,Net-(D39-A)*%
X167620000Y-74585000D03*
D11*
X167640000Y-74295000D03*
%TD*%
D10*
%TO.P,MX_F13,1,COL*%
%TO.N,COL4*%
X128607501Y-95155000D03*
D11*
X129262500Y-94425000D03*
D12*
%TO.P,MX_F13,2,ROW*%
%TO.N,Net-(D28-A)*%
X134282500Y-93635000D03*
D11*
X134302500Y-93345000D03*
%TD*%
D10*
%TO.P,MX_F6,1,COL*%
%TO.N,COL6*%
X152420001Y-38005000D03*
D11*
X153075000Y-37275000D03*
D12*
%TO.P,MX_F6,2,ROW*%
%TO.N,Net-(D37-A)*%
X158095000Y-36485000D03*
D11*
X158115000Y-36195000D03*
%TD*%
D10*
%TO.P,MX_RShift1,1,COL*%
%TO.N,COL13*%
X288151251Y-114205000D03*
D11*
X288806250Y-113475000D03*
D12*
%TO.P,MX_RShift1,2,ROW*%
%TO.N,Net-(D71-A)*%
X293826250Y-112685000D03*
D11*
X293846250Y-112395000D03*
%TD*%
D10*
%TO.P,MX_3,1,COL*%
%TO.N,COL3*%
X95270001Y-57055000D03*
D11*
X95925000Y-56325000D03*
D12*
%TO.P,MX_3,2,ROW*%
%TO.N,Net-(D20-A)*%
X100945000Y-55535000D03*
D11*
X100965000Y-55245000D03*
%TD*%
D10*
%TO.P,MX_Tilda1,1,COL*%
%TO.N,COL0*%
X38120001Y-57086250D03*
D11*
X38775000Y-56356250D03*
D12*
%TO.P,MX_Tilda1,2,ROW*%
%TO.N,Net-(D3-A)*%
X43795000Y-55566250D03*
D11*
X43815000Y-55276250D03*
%TD*%
D10*
%TO.P,MX_RCtrl1,1,COL*%
%TO.N,COL12*%
X273863751Y-133255000D03*
D11*
X274518750Y-132525000D03*
D12*
%TO.P,MX_RCtrl1,2,ROW*%
%TO.N,Net-(D42-A)*%
X279538750Y-131735000D03*
D11*
X279558750Y-131445000D03*
%TD*%
D10*
%TO.P,MX_W1,1,COL*%
%TO.N,COL2*%
X85745001Y-76105000D03*
D11*
X86400000Y-75375000D03*
D12*
%TO.P,MX_W1,2,ROW*%
%TO.N,Net-(D15-A)*%
X91420000Y-74585000D03*
D11*
X91440000Y-74295000D03*
%TD*%
D10*
%TO.P,MX_LCtrl1,1,COL*%
%TO.N,COL0*%
X40501251Y-133255000D03*
D11*
X41156250Y-132525000D03*
D12*
%TO.P,MX_LCtrl1,2,ROW*%
%TO.N,Net-(D8-A)*%
X46176250Y-131735000D03*
D11*
X46196250Y-131445000D03*
%TD*%
D10*
%TO.P,MX_'1,1,COL*%
%TO.N,COL11*%
X261957501Y-95155000D03*
D11*
X262612500Y-94425000D03*
D12*
%TO.P,MX_'1,2,ROW*%
%TO.N,Net-(D70-A)*%
X267632500Y-93635000D03*
D11*
X267652500Y-93345000D03*
%TD*%
D10*
%TO.P,MX_J1,1,COL*%
%TO.N,COL7*%
X185757501Y-95155000D03*
D11*
X186412500Y-94425000D03*
D12*
%TO.P,MX_J1,2,ROW*%
%TO.N,Net-(D46-A)*%
X191432500Y-93635000D03*
D11*
X191452500Y-93345000D03*
%TD*%
D10*
%TO.P,MX_LShift1,1,COL*%
%TO.N,COL0*%
X50026251Y-114205000D03*
D11*
X50681250Y-113475000D03*
D12*
%TO.P,MX_LShift1,2,ROW*%
%TO.N,Net-(D7-A)*%
X55701250Y-112685000D03*
D11*
X55721250Y-112395000D03*
%TD*%
D10*
%TO.P,MX_4,1,COL*%
%TO.N,COL4*%
X114320001Y-57055000D03*
D11*
X114975000Y-56325000D03*
D12*
%TO.P,MX_4,2,ROW*%
%TO.N,Net-(D26-A)*%
X119995000Y-55535000D03*
D11*
X120015000Y-55245000D03*
%TD*%
D10*
%TO.P,MX_[1,1,COL*%
%TO.N,COL11*%
X257195001Y-76105000D03*
D11*
X257850000Y-75375000D03*
D12*
%TO.P,MX_[1,2,ROW*%
%TO.N,Net-(D69-A)*%
X262870000Y-74585000D03*
D11*
X262890000Y-74295000D03*
%TD*%
D10*
%TO.P,MX_.1,1,COL*%
%TO.N,COL9*%
X233382501Y-114205000D03*
D11*
X234037500Y-113475000D03*
D12*
%TO.P,MX_.1,2,ROW*%
%TO.N,Net-(D59-A)*%
X239057500Y-112685000D03*
D11*
X239077500Y-112395000D03*
%TD*%
D10*
%TO.P,MX_Up1,1,COL*%
%TO.N,COL14*%
X323870001Y-114205000D03*
D11*
X324525000Y-113475000D03*
D12*
%TO.P,MX_Up1,2,ROW*%
%TO.N,Net-(D77-A)*%
X329545000Y-112685000D03*
D11*
X329565000Y-112395000D03*
%TD*%
D10*
%TO.P,MX_2,1,COL*%
%TO.N,COL2*%
X76220001Y-57086250D03*
D11*
X76875000Y-56356250D03*
D12*
%TO.P,MX_2,2,ROW*%
%TO.N,Net-(D14-A)*%
X81895000Y-55566250D03*
D11*
X81915000Y-55276250D03*
%TD*%
D10*
%TO.P,MX_Esc1,1,COL*%
%TO.N,COL0*%
X38120001Y-38036250D03*
D11*
X38775000Y-37306250D03*
D12*
%TO.P,MX_Esc1,2,ROW*%
%TO.N,Net-(D1-A)*%
X43795000Y-36516250D03*
D11*
X43815000Y-36226250D03*
%TD*%
D10*
%TO.P,MX_X1,1,COL*%
%TO.N,COL2*%
X100032501Y-114205000D03*
D11*
X100687500Y-113475000D03*
D12*
%TO.P,MX_X1,2,ROW*%
%TO.N,Net-(D17-A)*%
X105707500Y-112685000D03*
D11*
X105727500Y-112395000D03*
%TD*%
D10*
%TO.P,MX_Z1,1,COL*%
%TO.N,COL1*%
X80982501Y-114205000D03*
D11*
X81637500Y-113475000D03*
D12*
%TO.P,MX_Z1,2,ROW*%
%TO.N,Net-(D11-A)*%
X86657500Y-112685000D03*
D11*
X86677500Y-112395000D03*
%TD*%
D10*
%TO.P,MX_7,1,COL*%
%TO.N,COL7*%
X171470001Y-57055000D03*
D11*
X172125000Y-56325000D03*
D12*
%TO.P,MX_7,2,ROW*%
%TO.N,Net-(D44-A)*%
X177145000Y-55535000D03*
D11*
X177165000Y-55245000D03*
%TD*%
D10*
%TO.P,MX_End1,1,COL*%
%TO.N,COL15*%
X342920001Y-76105000D03*
D11*
X343575000Y-75375000D03*
D12*
%TO.P,MX_End1,2,ROW*%
%TO.N,Net-(D93-A)*%
X348595000Y-74585000D03*
D11*
X348615000Y-74295000D03*
%TD*%
D10*
%TO.P,MX_B1,1,COL*%
%TO.N,COL5*%
X157182501Y-114205000D03*
D11*
X157837500Y-113475000D03*
D12*
%TO.P,MX_B1,2,ROW*%
%TO.N,Net-(D35-A)*%
X162857500Y-112685000D03*
D11*
X162877500Y-112395000D03*
%TD*%
D10*
%TO.P,MX_D1,1,COL*%
%TO.N,COL3*%
X109557501Y-95155000D03*
D11*
X110212500Y-94425000D03*
D12*
%TO.P,MX_D1,2,ROW*%
%TO.N,Net-(D22-A)*%
X115232500Y-93635000D03*
D11*
X115252500Y-93345000D03*
%TD*%
D10*
%TO.P,MX_F1,1,COL*%
%TO.N,COL1*%
X57170001Y-38036250D03*
D11*
X57825000Y-37306250D03*
D12*
%TO.P,MX_F1,2,ROW*%
%TO.N,Net-(D2-A)*%
X62845000Y-36516250D03*
D11*
X62865000Y-36226250D03*
%TD*%
D10*
%TO.P,MX_V1,1,COL*%
%TO.N,COL4*%
X138132501Y-114205000D03*
D11*
X138787500Y-113475000D03*
D12*
%TO.P,MX_V1,2,ROW*%
%TO.N,Net-(D29-A)*%
X143807500Y-112685000D03*
D11*
X143827500Y-112395000D03*
%TD*%
D10*
%TO.P,MX_5,1,COL*%
%TO.N,COL5*%
X133370001Y-57055000D03*
D11*
X134025000Y-56325000D03*
D12*
%TO.P,MX_5,2,ROW*%
%TO.N,Net-(D32-A)*%
X139045000Y-55535000D03*
D11*
X139065000Y-55245000D03*
%TD*%
D10*
%TO.P,MX_PtrSc1,1,COL*%
%TO.N,COL14*%
X323870001Y-95155000D03*
D11*
X324525000Y-94425000D03*
D12*
%TO.P,MX_PtrSc1,2,ROW*%
%TO.N,Net-(D82-A)*%
X329545000Y-93635000D03*
D11*
X329565000Y-93345000D03*
%TD*%
D10*
%TO.P,MX_1,1,COL*%
%TO.N,COL1*%
X57170001Y-57086250D03*
D11*
X57825000Y-56356250D03*
D12*
%TO.P,MX_1,2,ROW*%
%TO.N,Net-(D4-A)*%
X62845000Y-55566250D03*
D11*
X62865000Y-55276250D03*
%TD*%
D10*
%TO.P,MX_PgDn1,1,COL*%
%TO.N,COL15*%
X342920001Y-114205000D03*
D11*
X343575000Y-113475000D03*
D12*
%TO.P,MX_PgDn1,2,ROW*%
%TO.N,Net-(D83-A)*%
X348595000Y-112685000D03*
D11*
X348615000Y-112395000D03*
%TD*%
D10*
%TO.P,MX_F8,1,COL*%
%TO.N,COL8*%
X190520001Y-38036250D03*
D11*
X191175000Y-37306250D03*
D12*
%TO.P,MX_F8,2,ROW*%
%TO.N,Net-(D49-A)*%
X196195000Y-36516250D03*
D11*
X196215000Y-36226250D03*
%TD*%
D10*
%TO.P,MX_BckSpace1,1,COL*%
%TO.N,COL13*%
X295295001Y-57055000D03*
D11*
X295950000Y-56325000D03*
D12*
%TO.P,MX_BckSpace1,2,ROW*%
%TO.N,Net-(D80-A)*%
X300970000Y-55535000D03*
D11*
X300990000Y-55245000D03*
%TD*%
D10*
%TO.P,MX_Space1,1,COL*%
%TO.N,COL5*%
X157182501Y-133255000D03*
D11*
X157837500Y-132525000D03*
D12*
%TO.P,MX_Space1,2,ROW*%
%TO.N,Net-(D24-A)*%
X162857500Y-131735000D03*
D11*
X162877500Y-131445000D03*
%TD*%
D10*
%TO.P,MX_H1,1,COL*%
%TO.N,COL6*%
X166707501Y-95155000D03*
D11*
X167362500Y-94425000D03*
D12*
%TO.P,MX_H1,2,ROW*%
%TO.N,Net-(D40-A)*%
X172382500Y-93635000D03*
D11*
X172402500Y-93345000D03*
%TD*%
D10*
%TO.P,MX_Caps1,1,COL*%
%TO.N,COL0*%
X45263751Y-95155000D03*
D11*
X45918750Y-94425000D03*
D12*
%TO.P,MX_Caps1,2,ROW*%
%TO.N,Net-(D6-A)*%
X50938750Y-93635000D03*
D11*
X50958750Y-93345000D03*
%TD*%
D10*
%TO.P,MX_6,1,COL*%
%TO.N,COL6*%
X152420001Y-57055000D03*
D11*
X153075000Y-56325000D03*
D12*
%TO.P,MX_6,2,ROW*%
%TO.N,Net-(D38-A)*%
X158095000Y-55535000D03*
D11*
X158115000Y-55245000D03*
%TD*%
D10*
%TO.P,MX_RAlt1,1,COL*%
%TO.N,COL9*%
X226238751Y-133255000D03*
D11*
X226893750Y-132525000D03*
D12*
%TO.P,MX_RAlt1,2,ROW*%
%TO.N,Net-(D30-A)*%
X231913750Y-131735000D03*
D11*
X231933750Y-131445000D03*
%TD*%
D10*
%TO.P,MX_LWin1,1,COL*%
%TO.N,COL1*%
X64313751Y-133255000D03*
D11*
X64968750Y-132525000D03*
D12*
%TO.P,MX_LWin1,2,ROW*%
%TO.N,Net-(D12-A)*%
X69988750Y-131735000D03*
D11*
X70008750Y-131445000D03*
%TD*%
D10*
%TO.P,MX_C1,1,COL*%
%TO.N,COL3*%
X119082501Y-114205000D03*
D11*
X119737500Y-113475000D03*
D12*
%TO.P,MX_C1,2,ROW*%
%TO.N,Net-(D23-A)*%
X124757500Y-112685000D03*
D11*
X124777500Y-112395000D03*
%TD*%
D10*
%TO.P,MX_F7,1,COL*%
%TO.N,COL7*%
X171470001Y-38005000D03*
D11*
X172125000Y-37275000D03*
D12*
%TO.P,MX_F7,2,ROW*%
%TO.N,Net-(D43-A)*%
X177145000Y-36485000D03*
D11*
X177165000Y-36195000D03*
%TD*%
D10*
%TO.P,MX_F11,1,COL*%
%TO.N,COL11*%
X247670001Y-38036250D03*
D11*
X248325000Y-37306250D03*
D12*
%TO.P,MX_F11,2,ROW*%
%TO.N,Net-(D67-A)*%
X253345000Y-36516250D03*
D11*
X253365000Y-36226250D03*
%TD*%
D10*
%TO.P,MX_M1,1,COL*%
%TO.N,COL7*%
X195282501Y-114205000D03*
D11*
X195937500Y-113475000D03*
D12*
%TO.P,MX_M1,2,ROW*%
%TO.N,Net-(D47-A)*%
X200957500Y-112685000D03*
D11*
X200977500Y-112395000D03*
%TD*%
D10*
%TO.P,MX_Q1,1,COL*%
%TO.N,COL1*%
X66695001Y-76105000D03*
D11*
X67350000Y-75375000D03*
D12*
%TO.P,MX_Q1,2,ROW*%
%TO.N,Net-(D9-A)*%
X72370000Y-74585000D03*
D11*
X72390000Y-74295000D03*
%TD*%
D10*
%TO.P,MX_-1,1,COL*%
%TO.N,COL11*%
X247670001Y-57055000D03*
D11*
X248325000Y-56325000D03*
D12*
%TO.P,MX_-1,2,ROW*%
%TO.N,Net-(D68-A)*%
X253345000Y-55535000D03*
D11*
X253365000Y-55245000D03*
%TD*%
D10*
%TO.P,MX_E1,1,COL*%
%TO.N,COL3*%
X104795001Y-76105000D03*
D11*
X105450000Y-75375000D03*
D12*
%TO.P,MX_E1,2,ROW*%
%TO.N,Net-(D21-A)*%
X110470000Y-74585000D03*
D11*
X110490000Y-74295000D03*
%TD*%
D10*
%TO.P,MX_A1,1,COL*%
%TO.N,COL1*%
X71457501Y-95155000D03*
D11*
X72112500Y-94425000D03*
D12*
%TO.P,MX_A1,2,ROW*%
%TO.N,Net-(D10-A)*%
X77132500Y-93635000D03*
D11*
X77152500Y-93345000D03*
%TD*%
D10*
%TO.P,MX_Tab1,1,COL*%
%TO.N,COL0*%
X42882501Y-76105000D03*
D11*
X43537500Y-75375000D03*
D12*
%TO.P,MX_Tab1,2,ROW*%
%TO.N,Net-(D5-A)*%
X48557500Y-74585000D03*
D11*
X48577500Y-74295000D03*
%TD*%
D10*
%TO.P,MX_O1,1,COL*%
%TO.N,COL9*%
X219095001Y-76105000D03*
D11*
X219750000Y-75375000D03*
D12*
%TO.P,MX_O1,2,ROW*%
%TO.N,Net-(D57-A)*%
X224770000Y-74585000D03*
D11*
X224790000Y-74295000D03*
%TD*%
D10*
%TO.P,MX_Right1,1,COL*%
%TO.N,COL15*%
X342920001Y-133255000D03*
D11*
X343575000Y-132525000D03*
D12*
%TO.P,MX_Right1,2,ROW*%
%TO.N,Net-(D60-A)*%
X348595000Y-131735000D03*
D11*
X348615000Y-131445000D03*
%TD*%
D10*
%TO.P,MX_U1,1,COL*%
%TO.N,COL7*%
X180995001Y-76105000D03*
D11*
X181650000Y-75375000D03*
D12*
%TO.P,MX_U1,2,ROW*%
%TO.N,Net-(D45-A)*%
X186670000Y-74585000D03*
D11*
X186690000Y-74295000D03*
%TD*%
D10*
%TO.P,MX_\u005C1,1,COL*%
%TO.N,COL13*%
X300057501Y-76105000D03*
D11*
X300712500Y-75375000D03*
D12*
%TO.P,MX_\u005C1,2,ROW*%
%TO.N,Net-(D81-A)*%
X305732500Y-74585000D03*
D11*
X305752500Y-74295000D03*
%TD*%
D10*
%TO.P,MX_PgUp1,1,COL*%
%TO.N,COL15*%
X342920001Y-95155000D03*
D11*
X343575000Y-94425000D03*
D12*
%TO.P,MX_PgUp1,2,ROW*%
%TO.N,Net-(D88-A)*%
X348595000Y-93635000D03*
D11*
X348615000Y-93345000D03*
%TD*%
D10*
%TO.P,MX_F3,1,COL*%
%TO.N,COL3*%
X95270001Y-38036250D03*
D11*
X95925000Y-37306250D03*
D12*
%TO.P,MX_F3,2,ROW*%
%TO.N,Net-(D19-A)*%
X100945000Y-36516250D03*
D11*
X100965000Y-36226250D03*
%TD*%
D13*
%TO.P,ENC1,1,1*%
%TO.N,GND*%
X338871875Y-43775000D03*
%TO.P,ENC1,2,2*%
%TO.N,S1*%
X338871875Y-38775000D03*
D14*
%TO.P,ENC1,3,MNT_1*%
%TO.N,GND*%
X345871875Y-46975000D03*
%TO.P,ENC1,4,MNT_2*%
X345871875Y-35575000D03*
D15*
%TO.P,ENC1,A,CHANNEL_A*%
%TO.N,A*%
X353371875Y-43775000D03*
D13*
%TO.P,ENC1,B,CHANNEL_B*%
%TO.N,B*%
X353371875Y-38775000D03*
%TO.P,ENC1,C,COMMON*%
%TO.N,GND*%
X353371875Y-41275000D03*
%TD*%
D10*
%TO.P,MX_;1,1,COL*%
%TO.N,COL10*%
X242907501Y-95155000D03*
D11*
X243562500Y-94425000D03*
D12*
%TO.P,MX_;1,2,ROW*%
%TO.N,Net-(D64-A)*%
X248582500Y-93635000D03*
D11*
X248602500Y-93345000D03*
%TD*%
D10*
%TO.P,MX_P1,1,COL*%
%TO.N,COL10*%
X238145001Y-76105000D03*
D11*
X238800000Y-75375000D03*
D12*
%TO.P,MX_P1,2,ROW*%
%TO.N,Net-(D63-A)*%
X243820000Y-74585000D03*
D11*
X243840000Y-74295000D03*
%TD*%
D10*
%TO.P,MX_Down1,1,COL*%
%TO.N,COL14*%
X323870001Y-133255000D03*
D11*
X324525000Y-132525000D03*
D12*
%TO.P,MX_Down1,2,ROW*%
%TO.N,Net-(D54-A)*%
X329545000Y-131735000D03*
D11*
X329565000Y-131445000D03*
%TD*%
D10*
%TO.P,MX_F5,1,COL*%
%TO.N,COL5*%
X133370001Y-38005000D03*
D11*
X134025000Y-37275000D03*
D12*
%TO.P,MX_F5,2,ROW*%
%TO.N,Net-(D31-A)*%
X139045000Y-36485000D03*
D11*
X139065000Y-36195000D03*
%TD*%
D10*
%TO.P,MX_Enter1,1,COL*%
%TO.N,COL13*%
X292913751Y-95155000D03*
D11*
X293568750Y-94425000D03*
D12*
%TO.P,MX_Enter1,2,ROW*%
%TO.N,Net-(D76-A)*%
X298588750Y-93635000D03*
D11*
X298608750Y-93345000D03*
%TD*%
D10*
%TO.P,MX_\u002C1,1,COL*%
%TO.N,COL8*%
X214332501Y-114205000D03*
D11*
X214987500Y-113475000D03*
D12*
%TO.P,MX_\u002C1,2,ROW*%
%TO.N,Net-(D53-A)*%
X220007500Y-112685000D03*
D11*
X220027500Y-112395000D03*
%TD*%
D10*
%TO.P,MX_G1,1,COL*%
%TO.N,COL5*%
X147657501Y-95155000D03*
D11*
X148312500Y-94425000D03*
D12*
%TO.P,MX_G1,2,ROW*%
%TO.N,Net-(D34-A)*%
X153332500Y-93635000D03*
D11*
X153352500Y-93345000D03*
%TD*%
D10*
%TO.P,MX_F2,1,COL*%
%TO.N,COL2*%
X76220001Y-38036250D03*
D11*
X76875000Y-37306250D03*
D12*
%TO.P,MX_F2,2,ROW*%
%TO.N,Net-(D13-A)*%
X81895000Y-36516250D03*
D11*
X81915000Y-36226250D03*
%TD*%
D10*
%TO.P,MX_=1,1,COL*%
%TO.N,COL12*%
X266720001Y-57055000D03*
D11*
X267375000Y-56325000D03*
D12*
%TO.P,MX_=1,2,ROW*%
%TO.N,Net-(D74-A)*%
X272395000Y-55535000D03*
D11*
X272415000Y-55245000D03*
%TD*%
D10*
%TO.P,MX_0,1,COL*%
%TO.N,COL10*%
X228620001Y-57055000D03*
D11*
X229275000Y-56325000D03*
D12*
%TO.P,MX_0,2,ROW*%
%TO.N,Net-(D62-A)*%
X234295000Y-55535000D03*
D11*
X234315000Y-55245000D03*
%TD*%
D10*
%TO.P,MX_S1,1,COL*%
%TO.N,COL2*%
X90507501Y-95155000D03*
D11*
X91162500Y-94425000D03*
D12*
%TO.P,MX_S1,2,ROW*%
%TO.N,Net-(D16-A)*%
X96182500Y-93635000D03*
D11*
X96202500Y-93345000D03*
%TD*%
D10*
%TO.P,MX_RWin1,1,COL*%
%TO.N,COL10*%
X250051251Y-133255000D03*
D11*
X250706250Y-132525000D03*
D12*
%TO.P,MX_RWin1,2,ROW*%
%TO.N,Net-(D36-A)*%
X255726250Y-131735000D03*
D11*
X255746250Y-131445000D03*
%TD*%
D10*
%TO.P,MX_8,1,COL*%
%TO.N,COL8*%
X190520001Y-57055000D03*
D11*
X191175000Y-56325000D03*
D12*
%TO.P,MX_8,2,ROW*%
%TO.N,Net-(D50-A)*%
X196195000Y-55535000D03*
D11*
X196215000Y-55245000D03*
%TD*%
D10*
%TO.P,MX_K1,1,COL*%
%TO.N,COL8*%
X204807501Y-95155000D03*
D11*
X205462500Y-94425000D03*
D12*
%TO.P,MX_K1,2,ROW*%
%TO.N,Net-(D52-A)*%
X210482500Y-93635000D03*
D11*
X210502500Y-93345000D03*
%TD*%
D10*
%TO.P,MX_L1,1,COL*%
%TO.N,COL9*%
X223857501Y-95155000D03*
D11*
X224512500Y-94425000D03*
D12*
%TO.P,MX_L1,2,ROW*%
%TO.N,Net-(D58-A)*%
X229532500Y-93635000D03*
D11*
X229552500Y-93345000D03*
%TD*%
D10*
%TO.P,MX_F10,1,COL*%
%TO.N,COL10*%
X228620001Y-38005000D03*
D11*
X229275000Y-37275000D03*
D12*
%TO.P,MX_F10,2,ROW*%
%TO.N,Net-(D61-A)*%
X234295000Y-36485000D03*
D11*
X234315000Y-36195000D03*
%TD*%
D10*
%TO.P,MX_Home1,1,COL*%
%TO.N,COL15*%
X342920001Y-57055000D03*
D11*
X343575000Y-56325000D03*
D12*
%TO.P,MX_Home1,2,ROW*%
%TO.N,Net-(D92-A)*%
X348595000Y-55535000D03*
D11*
X348615000Y-55245000D03*
%TD*%
D10*
%TO.P,MX_/1,1,COL*%
%TO.N,COL10*%
X252432501Y-114205000D03*
D11*
X253087500Y-113475000D03*
D12*
%TO.P,MX_/1,2,ROW*%
%TO.N,Net-(D65-A)*%
X258107500Y-112685000D03*
D11*
X258127500Y-112395000D03*
%TD*%
D16*
%TO.P,J3,S1,SHIELD*%
%TO.N,GND*%
X46099000Y-32880000D03*
D17*
X46099000Y-37080000D03*
D16*
X54739000Y-32880000D03*
D17*
X54739000Y-37080000D03*
%TD*%
D18*
%TO.N,GND*%
X55562500Y-46037500D03*
X55562500Y-50006250D03*
X71437500Y-34131250D03*
X71437500Y-44846875D03*
X38100000Y-105257239D03*
X340518750Y-51990625D03*
X38100000Y-84137500D03*
X339725000Y-67865625D03*
X141684375Y-136921875D03*
X38100000Y-119856250D03*
X136525000Y-122301000D03*
X35718750Y-50006250D03*
X138112500Y-136921875D03*
X141287500Y-128008175D03*
X35718750Y-46037500D03*
X37488700Y-68262500D03*
%TO.N,+5V*%
X273843750Y-49212500D03*
X314706000Y-101981000D03*
X46831250Y-47625000D03*
X279400000Y-63956250D03*
X338765625Y-63956250D03*
X47117000Y-51435000D03*
X338765625Y-57150000D03*
X314706000Y-123361100D03*
X44730750Y-40259000D03*
X314706000Y-63956250D03*
X314706000Y-86396050D03*
X339725000Y-75803125D03*
X321691000Y-140156250D03*
X64683158Y-43663717D03*
X64690625Y-48756250D03*
X339725000Y-86883650D03*
D19*
%TO.N,ROW0*%
X183356250Y-142380000D03*
X34528125Y-34131250D03*
%TO.N,ROW1*%
X182102057Y-142380000D03*
X34150000Y-63316937D03*
%TO.N,COL0*%
X123031250Y-138112500D03*
X167481728Y-132511840D03*
%TO.N,COL1*%
X122183074Y-137264324D03*
X167468817Y-133711273D03*
%TO.N,D+*%
X173037500Y-126991285D03*
X51228946Y-57117929D03*
X62706250Y-90279776D03*
X163200985Y-91811601D03*
%TO.N,D-*%
X49784000Y-35941000D03*
X162843381Y-90141845D03*
X62706250Y-89080273D03*
X171887497Y-126991285D03*
%TO.N,ROW3*%
X53181250Y-100965000D03*
X160734375Y-107990622D03*
X53181250Y-107156250D03*
X171846875Y-140096875D03*
%TO.N,ROW2*%
X180875652Y-142380000D03*
X34943750Y-82393260D03*
%TO.N,ROW5*%
X48418750Y-139065000D03*
X179451017Y-142380000D03*
%TO.N,A*%
X336946875Y-57150000D03*
X181439425Y-93853859D03*
X188515625Y-125015625D03*
X353615625Y-50403125D03*
X336946875Y-87709375D03*
%TO.N,B*%
X338096878Y-87709375D03*
X188515625Y-126305281D03*
X342848800Y-69056250D03*
X338096878Y-75803125D03*
X181836300Y-92706718D03*
X337981250Y-69056250D03*
%TO.N,S1*%
X188515625Y-127455284D03*
X335756250Y-89319593D03*
X182562500Y-91678125D03*
%TO.N,COL5*%
X156182615Y-129988865D03*
%TO.N,COL4*%
X145256250Y-126149226D03*
X165893750Y-126067063D03*
X165893750Y-130968750D03*
%TO.N,COL2*%
X167508635Y-134910115D03*
X121334898Y-136416148D03*
%TO.N,COL3*%
X167481250Y-126991285D03*
X126206250Y-126206250D03*
X167481250Y-130968750D03*
%TO.N,COL6*%
X182688042Y-125165931D03*
%TO.N,COL7*%
X194468750Y-132635800D03*
%TO.N,Net-(J3-CC2)*%
X56356250Y-35718750D03*
X56356250Y-33734375D03*
%TO.N,Net-(J3-D+-PadA6)*%
X51816000Y-35941000D03*
X52959000Y-52324000D03*
%TO.N,Net-(J3-CC1)*%
X48260000Y-35941000D03*
X49212500Y-46905750D03*
%TO.N,RGB_PIN*%
X36115625Y-106331739D03*
X34528125Y-47625000D03*
X161528125Y-106706730D03*
X171007887Y-137862000D03*
D18*
%TO.N,+3V3*%
X55562500Y-54768750D03*
X126206250Y-137831750D03*
X62706250Y-87630770D03*
X189309375Y-130571875D03*
X189309375Y-138906250D03*
X131762500Y-110331250D03*
X173831250Y-139700000D03*
X162941000Y-88265000D03*
X175021875Y-128437000D03*
X168275000Y-109537500D03*
X183866104Y-125922354D03*
D19*
X53975000Y-45243750D03*
%TO.N,Net-(LED_CAPS1-DOUT)*%
X43656250Y-104775000D03*
X43656250Y-123825000D03*
%TO.N,Net-(LED_End1-DOUT)*%
X350837500Y-103187500D03*
X350837500Y-84137500D03*
%TO.N,Net-(LED_F12-DOUT)*%
X350837500Y-65087500D03*
X351234375Y-49609375D03*
%TO.N,Net-(LED_PGDN1-DOUT)*%
X350837500Y-141287500D03*
X350837500Y-122237500D03*
%TO.N,Net-(LED_TAB1-DIN)*%
X36512500Y-85725000D03*
X36512500Y-66675000D03*
%TO.N,COL11*%
X265906250Y-131762500D03*
%TO.N,COL8*%
X213518750Y-133135800D03*
%TO.N,ROW4*%
X160734375Y-109140625D03*
X57943750Y-107980750D03*
X171846875Y-141287500D03*
X56356250Y-120015000D03*
%TD*%
D20*
%TO.N,GND*%
X339725000Y-67865625D02*
X342106250Y-65484375D01*
X351571875Y-41275000D02*
X345871875Y-46975000D01*
X341456250Y-51990625D02*
X346471875Y-46975000D01*
D21*
X141684375Y-136921875D02*
X138112500Y-136921875D01*
X35718750Y-50006250D02*
X35718750Y-46037500D01*
D20*
X340518750Y-58099657D02*
X340518750Y-51990625D01*
D21*
X71437500Y-34131250D02*
X71437500Y-44846875D01*
X38100000Y-84137500D02*
X38100000Y-119856250D01*
X37488700Y-68262500D02*
X37306250Y-68080050D01*
D20*
X340518750Y-51990625D02*
X341456250Y-51990625D01*
D21*
X35718750Y-59065409D02*
X35718750Y-50006250D01*
X141287500Y-128008175D02*
X141287500Y-136525000D01*
X37306250Y-63234591D02*
X34925000Y-60853341D01*
X136525000Y-123031250D02*
X136525000Y-122301000D01*
D20*
X338871875Y-43775000D02*
X342671875Y-43775000D01*
D21*
X55562500Y-50006250D02*
X55562500Y-46037500D01*
X141287500Y-136525000D02*
X141684375Y-136921875D01*
D20*
X54739000Y-32880000D02*
X54739000Y-37080000D01*
X342106250Y-65484375D02*
X342106250Y-59687157D01*
D21*
X37488700Y-68262500D02*
X37306250Y-68444950D01*
X34925000Y-60853341D02*
X34925000Y-59859159D01*
X141287500Y-127793750D02*
X136525000Y-123031250D01*
D20*
X353371875Y-41275000D02*
X351571875Y-41275000D01*
X342671875Y-43775000D02*
X345871875Y-46975000D01*
D21*
X37306250Y-68080050D02*
X37306250Y-63234591D01*
D20*
X351571875Y-41275000D02*
X345871875Y-35575000D01*
D21*
X34925000Y-59859159D02*
X35718750Y-59065409D01*
X141287500Y-128008175D02*
X141287500Y-127793750D01*
D20*
X46099000Y-32880000D02*
X46099000Y-37080000D01*
D21*
X37306250Y-83343750D02*
X38100000Y-84137500D01*
D20*
X342106250Y-59687157D02*
X340518750Y-58099657D01*
D21*
X37306250Y-68444950D02*
X37306250Y-83343750D01*
D20*
%TO.N,+5V*%
X314706000Y-86396050D02*
X314706000Y-101981000D01*
X273843750Y-49212500D02*
X279400000Y-54768750D01*
X338765625Y-57150000D02*
X338765625Y-63956250D01*
X44730750Y-45524500D02*
X46831250Y-47625000D01*
X279400000Y-54768750D02*
X279400000Y-63956250D01*
X314706000Y-101981000D02*
X314706000Y-123361100D01*
X46831250Y-51149250D02*
X47117000Y-51435000D01*
X339725000Y-75803125D02*
X339725000Y-86883650D01*
X44730750Y-40259000D02*
X44730750Y-45524500D01*
X314706000Y-133171250D02*
X321691000Y-140156250D01*
X64683158Y-48748783D02*
X64690625Y-48756250D01*
X314706000Y-63956250D02*
X314706000Y-86396050D01*
X314706000Y-123361100D02*
X314706000Y-133171250D01*
X64683158Y-43663717D02*
X64683158Y-48748783D01*
X46831250Y-47625000D02*
X46831250Y-51149250D01*
D22*
%TO.N,ROW0*%
X180876875Y-144859375D02*
X116141329Y-144859375D01*
X183356250Y-142380000D02*
X180876875Y-144859375D01*
X113693533Y-142411579D02*
X111588421Y-142411579D01*
X34528125Y-34131250D02*
X33337500Y-35321875D01*
X116141329Y-144859375D02*
X113693533Y-142411579D01*
X111588421Y-142411579D02*
X109140625Y-144859375D01*
X33337500Y-35321875D02*
X33337500Y-139699998D01*
X109140625Y-144859375D02*
X38496875Y-144859375D01*
X38496875Y-144859375D02*
X33337500Y-139700000D01*
%TO.N,ROW1*%
X116474647Y-144556975D02*
X113879731Y-141962059D01*
X111402224Y-141962059D02*
X108807308Y-144556975D01*
X108807308Y-144556975D02*
X38830194Y-144556975D01*
X113879731Y-141962059D02*
X111402224Y-141962059D01*
X34150000Y-139876781D02*
X34150000Y-63316937D01*
X179925082Y-144556975D02*
X116474647Y-144556975D01*
X38830194Y-144556975D02*
X34150000Y-139876781D01*
X182102057Y-142380000D02*
X179925082Y-144556975D01*
%TO.N,COL0*%
X140300340Y-139888950D02*
X124807700Y-139888950D01*
X163012990Y-137615083D02*
X161721823Y-138906250D01*
X46005750Y-94456250D02*
X46005750Y-108680250D01*
X43537500Y-75375000D02*
X43537500Y-92043750D01*
X50681250Y-113475000D02*
X50681250Y-123000000D01*
X50681250Y-123000000D02*
X41156250Y-132525000D01*
X141283040Y-138906250D02*
X140300340Y-139888950D01*
X38893750Y-70580250D02*
X43719750Y-75406250D01*
X38893750Y-56356250D02*
X38893750Y-70580250D01*
X166354280Y-132511840D02*
X163012990Y-135853130D01*
X46005750Y-108680250D02*
X50831750Y-113506250D01*
X124807700Y-139888950D02*
X123031250Y-138112500D01*
X43537500Y-92043750D02*
X45918750Y-94425000D01*
X167481728Y-132511840D02*
X166354280Y-132511840D01*
X163012990Y-135853130D02*
X163012990Y-137615083D01*
X38893750Y-37306250D02*
X38893750Y-56356250D01*
X161721823Y-138906250D02*
X141283040Y-138906250D01*
%TO.N,COL1*%
X161847081Y-139208650D02*
X141408298Y-139208650D01*
X64968750Y-129796659D02*
X64968750Y-132525000D01*
X122183074Y-138638420D02*
X122183074Y-137264324D01*
X140425598Y-140191350D02*
X123736004Y-140191350D01*
X141408298Y-139208650D02*
X140425598Y-140191350D01*
X163315390Y-137740341D02*
X161847081Y-139208650D01*
X67350000Y-89662500D02*
X72112500Y-94425000D01*
X123736004Y-140191350D02*
X122183074Y-138638420D01*
X57943750Y-37306250D02*
X57943750Y-56356250D01*
X64580000Y-75375000D02*
X67350000Y-75375000D01*
X167468817Y-133711273D02*
X165582505Y-133711273D01*
X67595750Y-75406250D02*
X67727329Y-75537829D01*
X163315390Y-135978388D02*
X163315390Y-137740341D01*
X67350000Y-75375000D02*
X67350000Y-89662500D01*
X57825000Y-68620000D02*
X64580000Y-75375000D01*
X72112500Y-106783500D02*
X78804000Y-113475000D01*
X165582505Y-133711273D02*
X163315390Y-135978388D01*
X80327500Y-114935000D02*
X79830409Y-114935000D01*
X72112500Y-94425000D02*
X72112500Y-106783500D01*
X57825000Y-56356250D02*
X57825000Y-68620000D01*
X78804000Y-113475000D02*
X81637500Y-113475000D01*
X79830409Y-114935000D02*
X64968750Y-129796659D01*
D23*
%TO.N,D+*%
X163487500Y-92098116D02*
X163200985Y-91811601D01*
X173037500Y-111954105D02*
X163487500Y-102404105D01*
X51228946Y-57117929D02*
X51196875Y-57150000D01*
X60836247Y-78070003D02*
X61257219Y-78490975D01*
X51196875Y-68430631D02*
X54486247Y-71720003D01*
X61257219Y-88830745D02*
X62706250Y-90279776D01*
X54486247Y-71720003D02*
X54486247Y-71731525D01*
X60824725Y-78070003D02*
X60836247Y-78070003D01*
X173037500Y-126991285D02*
X173037500Y-111954105D01*
X61257219Y-78490975D02*
X61257219Y-88830745D01*
X51196875Y-57150000D02*
X51196875Y-68430631D01*
X163487500Y-102404105D02*
X163487500Y-92098116D01*
X54486247Y-71731525D02*
X60824725Y-78070003D01*
%TO.N,D-*%
X171887497Y-126991285D02*
X172243750Y-126635032D01*
X49784000Y-45466000D02*
X49784000Y-35941000D01*
X53500961Y-54008961D02*
X53213000Y-53721000D01*
X162401485Y-92453469D02*
X162401485Y-90583741D01*
X50419000Y-46101000D02*
X49784000Y-45466000D01*
X53213000Y-53721000D02*
X50419000Y-50927000D01*
X53550480Y-70219230D02*
X53641625Y-70310375D01*
X163087980Y-93139964D02*
X162401485Y-92453469D01*
X162401485Y-90583741D02*
X162843381Y-90141845D01*
X50419000Y-50038000D02*
X50419000Y-46101000D01*
X53641625Y-70310375D02*
X61656739Y-78325489D01*
X53641625Y-70310375D02*
X53500961Y-70169711D01*
X172243750Y-126635032D02*
X172243750Y-111918750D01*
X62671519Y-89080273D02*
X62706250Y-89080273D01*
X53500961Y-70169711D02*
X53500961Y-55084039D01*
X53500961Y-55084039D02*
X53500961Y-54008961D01*
X172243750Y-111918750D02*
X163087980Y-102762980D01*
X61656739Y-88065493D02*
X62671519Y-89080273D01*
X50419000Y-50927000D02*
X50419000Y-50038000D01*
X61656739Y-78325489D02*
X61656739Y-88065493D01*
X163087980Y-102762980D02*
X163087980Y-93139964D01*
D22*
%TO.N,ROW3*%
X169862500Y-138244615D02*
X171714760Y-140096875D01*
X171714760Y-140096875D02*
X171846875Y-140096875D01*
X161426943Y-108683190D02*
X162658190Y-108683190D01*
X53181250Y-100965000D02*
X53181250Y-107156250D01*
X162658190Y-108683190D02*
X169862500Y-115887500D01*
X160734375Y-107990622D02*
X161426943Y-108683190D01*
X169862500Y-115887500D02*
X169862500Y-138244615D01*
%TO.N,ROW2*%
X34925000Y-82412010D02*
X34943750Y-82393260D01*
X179001077Y-144254575D02*
X116807965Y-144254575D01*
X108473989Y-144254575D02*
X39093480Y-144254575D01*
X180875652Y-142380000D02*
X179001077Y-144254575D01*
X34925000Y-140086095D02*
X34925000Y-82412010D01*
X110092407Y-142636157D02*
X108473989Y-144254575D01*
X116807965Y-144254575D02*
X114065929Y-141512539D01*
X39093480Y-144254575D02*
X34925000Y-140086095D01*
X111216027Y-141512539D02*
X110092407Y-142636157D01*
X114065929Y-141512539D02*
X111216027Y-141512539D01*
%TO.N,ROW5*%
X177878842Y-143952175D02*
X116933223Y-143952175D01*
X179451017Y-142380000D02*
X177878842Y-143952175D01*
X108348731Y-143952175D02*
X51083425Y-143952175D01*
X48418750Y-141287500D02*
X48418750Y-139065000D01*
X116933223Y-143952175D02*
X114191187Y-141210139D01*
X111090767Y-141210139D02*
X108348731Y-143952175D01*
X114191187Y-141210139D02*
X111090767Y-141210139D01*
X51083425Y-143952175D02*
X48418750Y-141287500D01*
%TO.N,A*%
X353615625Y-50403125D02*
X353371875Y-50159375D01*
X189006975Y-113234633D02*
X181863225Y-106090883D01*
X181863225Y-106090883D02*
X181863225Y-94277659D01*
X353371875Y-50159375D02*
X353371875Y-43775000D01*
X181863225Y-94277659D02*
X181439425Y-93853859D01*
X188515625Y-125015625D02*
X189006975Y-124524275D01*
X336946875Y-87709375D02*
X336946875Y-57943750D01*
X336946875Y-57943750D02*
X336946875Y-57150000D01*
X189006975Y-124524275D02*
X189006975Y-113234633D01*
%TO.N,B*%
X182165625Y-93036043D02*
X181836300Y-92706718D01*
X337981250Y-69056250D02*
X342848800Y-69056250D01*
X188515625Y-126305281D02*
X189309375Y-125511531D01*
X189309375Y-113109375D02*
X182165625Y-105965625D01*
X338096878Y-75803125D02*
X338096878Y-87709375D01*
X189309375Y-125511531D02*
X189309375Y-113109375D01*
X182165625Y-105965625D02*
X182165625Y-93036043D01*
%TO.N,S1*%
X337740625Y-48815625D02*
X337740625Y-39906250D01*
X189611775Y-126359134D02*
X189611775Y-112984117D01*
X335756250Y-50800000D02*
X337740625Y-48815625D01*
X182562500Y-105934842D02*
X182562500Y-91678125D01*
X335756250Y-89319593D02*
X335756250Y-50800000D01*
X189611775Y-112984117D02*
X182562500Y-105934842D01*
X337740625Y-39906250D02*
X338871875Y-38775000D01*
X188515625Y-127455284D02*
X189611775Y-126359134D01*
%TO.N,COL5*%
X143550000Y-75375000D02*
X143550000Y-89662500D01*
X157837500Y-113475000D02*
X157837500Y-132525000D01*
X134143750Y-37306250D02*
X134143750Y-56356250D01*
X143795750Y-75406250D02*
X143927329Y-75537829D01*
X155004000Y-113475000D02*
X157837500Y-113475000D01*
X156182615Y-130870115D02*
X157837500Y-132525000D01*
X156182615Y-129988865D02*
X156182615Y-130870115D01*
X141288000Y-75375000D02*
X143550000Y-75375000D01*
X148312500Y-106783500D02*
X155004000Y-113475000D01*
X143550000Y-89662500D02*
X148312500Y-94425000D01*
X134025000Y-56325000D02*
X134025000Y-68112000D01*
X134025000Y-68112000D02*
X141288000Y-75375000D01*
X148312500Y-94425000D02*
X148312500Y-106783500D01*
%TO.N,COL4*%
X114975000Y-56325000D02*
X114975000Y-67858000D01*
X124500000Y-75375000D02*
X124500000Y-89662500D01*
X114975000Y-67858000D02*
X122492000Y-75375000D01*
X145256250Y-118094296D02*
X145256250Y-126149226D01*
X165893750Y-130968750D02*
X165893750Y-126067063D01*
X129262500Y-94425000D02*
X129262500Y-106910500D01*
X115093750Y-37306250D02*
X115093750Y-56356250D01*
X140636954Y-113475000D02*
X145256250Y-118094296D01*
X129667000Y-107315000D02*
X132627500Y-107315000D01*
X122492000Y-75375000D02*
X124500000Y-75375000D01*
X132627500Y-107315000D02*
X138787500Y-113475000D01*
X129262500Y-106910500D02*
X129667000Y-107315000D01*
X138787500Y-113475000D02*
X140636954Y-113475000D01*
X124500000Y-89662500D02*
X129262500Y-94425000D01*
%TO.N,COL2*%
X76875000Y-56356250D02*
X76875000Y-68112000D01*
X88781250Y-125034159D02*
X88781250Y-132525000D01*
X98880409Y-114935000D02*
X88781250Y-125034159D01*
X91162500Y-94425000D02*
X91162500Y-106783500D01*
X163044819Y-138438569D02*
X161972338Y-139511050D01*
X163617790Y-137865599D02*
X163044819Y-138438569D01*
X163617790Y-136103646D02*
X163617790Y-137865599D01*
X86400000Y-75375000D02*
X86400000Y-89662500D01*
X97854000Y-113475000D02*
X100687500Y-113475000D01*
X161972338Y-139511050D02*
X141581740Y-139511050D01*
X140599040Y-140493750D02*
X123610746Y-140493750D01*
X76875000Y-68112000D02*
X84138000Y-75375000D01*
X121358563Y-136439813D02*
X121334898Y-136416148D01*
X123610746Y-140493750D02*
X121358563Y-138241567D01*
X99377500Y-114935000D02*
X98880409Y-114935000D01*
X91162500Y-106783500D02*
X97854000Y-113475000D01*
X141581740Y-139511050D02*
X140599040Y-140493750D01*
X121358563Y-138241567D02*
X121358563Y-136439813D01*
X86400000Y-89662500D02*
X91162500Y-94425000D01*
X84138000Y-75375000D02*
X86400000Y-75375000D01*
X167508635Y-134910115D02*
X164811321Y-134910115D01*
X76993750Y-37306250D02*
X76993750Y-56356250D01*
X164811321Y-134910115D02*
X163617790Y-136103646D01*
%TO.N,COL3*%
X126206250Y-118094296D02*
X126206250Y-126206250D01*
X105450000Y-75375000D02*
X105450000Y-89662500D01*
X116904000Y-113475000D02*
X119737500Y-113475000D01*
X95925000Y-67985000D02*
X103315000Y-75375000D01*
X105695750Y-75406250D02*
X105827329Y-75537829D01*
X119737500Y-113475000D02*
X121586954Y-113475000D01*
X121586954Y-113475000D02*
X126206250Y-118094296D01*
X103315000Y-75375000D02*
X105450000Y-75375000D01*
X95925000Y-56325000D02*
X95925000Y-67985000D01*
X110212500Y-106783500D02*
X116904000Y-113475000D01*
X96043750Y-37306250D02*
X96043750Y-56356250D01*
X167481250Y-130968750D02*
X167481250Y-126991285D01*
X110212500Y-94425000D02*
X110212500Y-106783500D01*
X105450000Y-89662500D02*
X110212500Y-94425000D01*
%TO.N,COL6*%
X167362500Y-94425000D02*
X169211954Y-94425000D01*
X176887500Y-107275000D02*
X176887500Y-113475000D01*
X167481250Y-94306250D02*
X167362500Y-94425000D01*
X164449454Y-75375000D02*
X167481250Y-78406796D01*
X153075000Y-67985000D02*
X160465000Y-75375000D01*
X153193750Y-37306250D02*
X153193750Y-56356250D01*
X153075000Y-56325000D02*
X153075000Y-67985000D01*
X169211954Y-94425000D02*
X173692979Y-98906025D01*
X162600000Y-75375000D02*
X164449454Y-75375000D01*
X182688042Y-125165931D02*
X183356250Y-124497723D01*
X183356250Y-124497723D02*
X183356250Y-118094296D01*
X177006250Y-107156250D02*
X176887500Y-107275000D01*
X173692979Y-98906025D02*
X173692979Y-103842979D01*
X183356250Y-118094296D02*
X178736954Y-113475000D01*
X178736954Y-113475000D02*
X176887500Y-113475000D01*
X173692979Y-103842979D02*
X177006250Y-107156250D01*
X167481250Y-78406796D02*
X167481250Y-94306250D01*
X160465000Y-75375000D02*
X162600000Y-75375000D01*
%TO.N,COL7*%
X194468750Y-131762500D02*
X194468750Y-132635800D01*
X181895750Y-75406250D02*
X182027329Y-75537829D01*
X181701200Y-75426200D02*
X181701200Y-89713700D01*
X172125000Y-56325000D02*
X172125000Y-68112000D01*
X181701200Y-89713700D02*
X186412500Y-94425000D01*
X194478125Y-131753125D02*
X194468750Y-131762500D01*
X179388000Y-75375000D02*
X181650000Y-75375000D01*
X194478125Y-115084375D02*
X194627500Y-114935000D01*
X172125000Y-68112000D02*
X179388000Y-75375000D01*
X186412500Y-94425000D02*
X186412500Y-106148500D01*
X196333750Y-113696250D02*
X196251329Y-113778671D01*
X186412500Y-106148500D02*
X193739000Y-113475000D01*
X181650000Y-75375000D02*
X181701200Y-75426200D01*
X172243750Y-37306250D02*
X172243750Y-56356250D01*
X194478125Y-131753125D02*
X194478125Y-115084375D01*
X193739000Y-113475000D02*
X195937500Y-113475000D01*
%TO.N,Net-(J3-CC2)*%
X56356250Y-35718750D02*
X56356250Y-33734375D01*
%TO.N,Net-(J3-D+-PadA6)*%
X51816000Y-51181000D02*
X51816000Y-35941000D01*
X52959000Y-52324000D02*
X51816000Y-51181000D01*
%TO.N,Net-(J3-CC1)*%
X49212500Y-46905750D02*
X48260000Y-45953250D01*
X48260000Y-45953250D02*
X48260000Y-35941000D01*
%TO.N,RGB_PIN*%
X34528125Y-48021875D02*
X34528125Y-47625000D01*
X34525000Y-61115625D02*
X34525000Y-48025000D01*
X161528125Y-106759375D02*
X170259375Y-115490625D01*
X35718750Y-65471540D02*
X34925000Y-64677790D01*
X36115625Y-106331739D02*
X35718750Y-105934864D01*
X170259375Y-137715625D02*
X170405750Y-137862000D01*
X34925000Y-61515625D02*
X34525000Y-61115625D01*
X35718750Y-105934864D02*
X35718750Y-65471540D01*
X34925000Y-64677790D02*
X34925000Y-61515625D01*
X34525000Y-48025000D02*
X34528125Y-48021875D01*
X170259375Y-115490625D02*
X170259375Y-137715625D01*
X161528125Y-106706730D02*
X161528125Y-106759375D01*
X170405750Y-137862000D02*
X171007887Y-137862000D01*
D21*
%TO.N,+3V3*%
X170619739Y-111882239D02*
X170619739Y-126963489D01*
X189309375Y-138906250D02*
X189309375Y-140096875D01*
X61118750Y-76993750D02*
X62706250Y-78581250D01*
X162663460Y-103925960D02*
X162663460Y-93564484D01*
X126206250Y-131762500D02*
X131762500Y-126206250D01*
X53975000Y-45243750D02*
X53975000Y-54768750D01*
X53975000Y-54768750D02*
X53975000Y-69850000D01*
X189309375Y-140096875D02*
X188118750Y-141287500D01*
X173037500Y-138906250D02*
X173831250Y-139700000D01*
X60325000Y-76200000D02*
X61118750Y-76993750D01*
X161863496Y-92764520D02*
X161863496Y-89342504D01*
X175418750Y-141287500D02*
X173831250Y-139700000D01*
X189309375Y-130571875D02*
X189309375Y-138906250D01*
X161863496Y-89342504D02*
X162941000Y-88265000D01*
X55562500Y-54768750D02*
X53975000Y-54768750D01*
X175021875Y-128437000D02*
X173981750Y-128437000D01*
X126206250Y-137831750D02*
X126206250Y-131762500D01*
X173981750Y-128437000D02*
X173037500Y-129381250D01*
X131762500Y-126206250D02*
X131762500Y-110331250D01*
X62706250Y-78581250D02*
X62706250Y-87630770D01*
X168275000Y-109537500D02*
X170619739Y-111882239D01*
X53975000Y-69850000D02*
X60325000Y-76200000D01*
X173037500Y-129381250D02*
X173037500Y-138906250D01*
X188118750Y-141287500D02*
X175418750Y-141287500D01*
X170619739Y-126963489D02*
X173037500Y-129381250D01*
X168275000Y-109537500D02*
X162663460Y-103925960D01*
X162663460Y-93564484D02*
X161863496Y-92764520D01*
X184659854Y-125922354D02*
X183866104Y-125922354D01*
X189309375Y-130571875D02*
X184659854Y-125922354D01*
D22*
%TO.N,Net-(LED_CAPS1-DOUT)*%
X43656250Y-104775000D02*
X43656250Y-123825000D01*
%TO.N,Net-(LED_End1-DOUT)*%
X349885000Y-97927233D02*
X349885000Y-102235000D01*
X350837500Y-84137500D02*
X350837500Y-96974733D01*
X349885000Y-102235000D02*
X350837500Y-103187500D01*
X350837500Y-96974733D02*
X349885000Y-97927233D01*
%TO.N,Net-(LED_F12-DOUT)*%
X349905479Y-60980479D02*
X350837500Y-61912500D01*
X349905479Y-59807430D02*
X349905479Y-60980479D01*
X351234375Y-49609375D02*
X350837500Y-50006250D01*
X350837500Y-50006250D02*
X350837500Y-58875409D01*
X350837500Y-58875409D02*
X349905479Y-59807430D01*
X350837500Y-61912500D02*
X350837500Y-65087500D01*
%TO.N,Net-(LED_PGDN1-DOUT)*%
X350837500Y-122237500D02*
X350837500Y-135074733D01*
X349905000Y-136007233D02*
X349905000Y-140355000D01*
X350837500Y-135074733D02*
X349905000Y-136007233D01*
X349905000Y-140355000D02*
X350837500Y-141287500D01*
%TO.N,Net-(LED_TAB1-DIN)*%
X36512500Y-66675000D02*
X36512500Y-85725000D01*
%TO.N,COL11*%
X247015000Y-66833750D02*
X255556250Y-75375000D01*
X257850000Y-89662500D02*
X262612500Y-94425000D01*
X257850000Y-75375000D02*
X257850000Y-89662500D01*
X255556250Y-75375000D02*
X257850000Y-75375000D01*
X247133750Y-55046250D02*
X248443750Y-56356250D01*
X261302500Y-95885000D02*
X261302500Y-109696250D01*
X247015000Y-57785000D02*
X247015000Y-66833750D01*
X265906250Y-114300000D02*
X265906250Y-131762500D01*
X261302500Y-109696250D02*
X265906250Y-114300000D01*
X247133750Y-38766250D02*
X247133750Y-55046250D01*
%TO.N,COL8*%
X213677500Y-132977050D02*
X213677500Y-114935000D01*
X191175000Y-68112000D02*
X198438000Y-75375000D01*
X200700000Y-89662500D02*
X205462500Y-94425000D01*
X205462500Y-94425000D02*
X205462500Y-106021500D01*
X191293750Y-37306250D02*
X191293750Y-56356250D01*
X205462500Y-106021500D02*
X212916000Y-113475000D01*
X212916000Y-113475000D02*
X214987500Y-113475000D01*
X191293750Y-56356250D02*
X191425329Y-56487829D01*
X200700000Y-75375000D02*
X200700000Y-89662500D01*
X213518750Y-133135800D02*
X213677500Y-132977050D01*
X191175000Y-56325000D02*
X191175000Y-68112000D01*
X198438000Y-75375000D02*
X200700000Y-75375000D01*
%TO.N,COL9*%
X210225000Y-56325000D02*
X210225000Y-67985000D01*
X219750000Y-89662500D02*
X224512500Y-94425000D01*
X232727500Y-114935000D02*
X232230409Y-114935000D01*
X209033750Y-38766250D02*
X209033750Y-55046250D01*
X231839000Y-113475000D02*
X234037500Y-113475000D01*
X219750000Y-75375000D02*
X219750000Y-89662500D01*
X224512500Y-94425000D02*
X224512500Y-106148500D01*
X209033750Y-55046250D02*
X210343750Y-56356250D01*
X224512500Y-106148500D02*
X231839000Y-113475000D01*
X226893750Y-120271659D02*
X226893750Y-132525000D01*
X232230409Y-114935000D02*
X226893750Y-120271659D01*
X210225000Y-67985000D02*
X217615000Y-75375000D01*
X219995750Y-75406250D02*
X220127329Y-75537829D01*
X217615000Y-75375000D02*
X219750000Y-75375000D01*
%TO.N,COL10*%
X251777500Y-131453750D02*
X250706250Y-132525000D01*
X238800000Y-75375000D02*
X238800000Y-89662500D01*
X236506250Y-75375000D02*
X238800000Y-75375000D01*
X228083750Y-38766250D02*
X228083750Y-55046250D01*
X238800000Y-89662500D02*
X243562500Y-94425000D01*
X251777500Y-114935000D02*
X251777500Y-131453750D01*
X227806250Y-66675000D02*
X236506250Y-75375000D01*
X243562500Y-106021500D02*
X251016000Y-113475000D01*
X243562500Y-94425000D02*
X243562500Y-106021500D01*
X227965000Y-57785000D02*
X227806250Y-57943750D01*
X227806250Y-57943750D02*
X227806250Y-66675000D01*
X228083750Y-55046250D02*
X229393750Y-56356250D01*
X251016000Y-113475000D02*
X253087500Y-113475000D01*
%TO.N,COL12*%
X276900000Y-130143750D02*
X274518750Y-132525000D01*
X267493750Y-37306250D02*
X267493750Y-56356250D01*
X266065000Y-57785000D02*
X266065000Y-66833750D01*
X274606250Y-75375000D02*
X276900000Y-75375000D01*
X266065000Y-66833750D02*
X274606250Y-75375000D01*
X276900000Y-75375000D02*
X276900000Y-130143750D01*
%TO.N,COL13*%
X294640000Y-69302500D02*
X294640000Y-57785000D01*
X293568750Y-108712500D02*
X288806250Y-113475000D01*
X293568750Y-94425000D02*
X293568750Y-108712500D01*
X300712500Y-75375000D02*
X300712500Y-87281250D01*
X300712500Y-87281250D02*
X293568750Y-94425000D01*
X300712500Y-75375000D02*
X294640000Y-69302500D01*
X290655704Y-113475000D02*
X295136729Y-117956025D01*
X295136729Y-117956025D02*
X295136729Y-122186729D01*
X295136729Y-122186729D02*
X305475000Y-132525000D01*
X288806250Y-113475000D02*
X290655704Y-113475000D01*
%TO.N,COL14*%
X324525000Y-132525000D02*
X324525000Y-113769218D01*
X324525000Y-94425000D02*
X324525000Y-75375000D01*
X324525000Y-75375000D02*
X324525000Y-56325000D01*
X324525000Y-113769218D02*
X324377891Y-113622109D01*
X324525000Y-113475000D02*
X324525000Y-94425000D01*
%TO.N,COL15*%
X343575000Y-56325000D02*
X343575000Y-75375000D01*
X343575000Y-113475000D02*
X343575000Y-132525000D01*
X343575000Y-75375000D02*
X343575000Y-94425000D01*
X343575000Y-94425000D02*
X343575000Y-113475000D01*
%TO.N,ROW4*%
X56356250Y-114403493D02*
X57943750Y-112815993D01*
X57943750Y-112815993D02*
X57943750Y-107980750D01*
X169465625Y-138906250D02*
X171846875Y-141287500D01*
X56356250Y-120015000D02*
X56356250Y-114403493D01*
X169465625Y-115918283D02*
X169465625Y-138906250D01*
X160734375Y-109140625D02*
X162687967Y-109140625D01*
X162687967Y-109140625D02*
X169465625Y-115918283D01*
%TD*%
M02*
