%TF.GenerationSoftware,KiCad,Pcbnew,9.0.4*%
%TF.CreationDate,2025-09-14T19:43:05+01:00*%
%TF.ProjectId,keyboard,6b657962-6f61-4726-942e-6b696361645f,rev?*%
%TF.SameCoordinates,Original*%
%TF.FileFunction,Soldermask,Bot*%
%TF.FilePolarity,Negative*%
%FSLAX46Y46*%
G04 Gerber Fmt 4.6, Leading zero omitted, Abs format (unit mm)*
G04 Created by KiCad (PCBNEW 9.0.4) date 2025-09-14 19:43:05*
%MOMM*%
%LPD*%
G01*
G04 APERTURE LIST*
G04 Aperture macros list*
%AMRoundRect*
0 Rectangle with rounded corners*
0 $1 Rounding radius*
0 $2 $3 $4 $5 $6 $7 $8 $9 X,Y pos of 4 corners*
0 Add a 4 corners polygon primitive as box body*
4,1,4,$2,$3,$4,$5,$6,$7,$8,$9,$2,$3,0*
0 Add four circle primitives for the rounded corners*
1,1,$1+$1,$2,$3*
1,1,$1+$1,$4,$5*
1,1,$1+$1,$6,$7*
1,1,$1+$1,$8,$9*
0 Add four rect primitives between the rounded corners*
20,1,$1+$1,$2,$3,$4,$5,0*
20,1,$1+$1,$4,$5,$6,$7,0*
20,1,$1+$1,$6,$7,$8,$9,0*
20,1,$1+$1,$8,$9,$2,$3,0*%
%AMHorizOval*
0 Thick line with rounded ends*
0 $1 width*
0 $2 $3 position (X,Y) of the first rounded end (center of the circle)*
0 $4 $5 position (X,Y) of the second rounded end (center of the circle)*
0 Add line between two ends*
20,1,$1,$2,$3,$4,$5,0*
0 Add two circle primitives to create the rounded ends*
1,1,$1,$2,$3*
1,1,$1,$4,$5*%
G04 Aperture macros list end*
%ADD10C,1.750000*%
%ADD11C,3.987800*%
%ADD12HorizOval,2.250000X0.655001X0.730000X-0.655001X-0.730000X0*%
%ADD13C,2.250000*%
%ADD14HorizOval,2.250000X0.020000X0.290000X-0.020000X-0.290000X0*%
%ADD15C,3.048000*%
%ADD16R,1.700000X0.820000*%
%ADD17RoundRect,0.205000X-0.645000X-0.205000X0.645000X-0.205000X0.645000X0.205000X-0.645000X0.205000X0*%
%ADD18RoundRect,0.205000X0.645000X0.205000X-0.645000X0.205000X-0.645000X-0.205000X0.645000X-0.205000X0*%
%ADD19R,1.200000X0.900000*%
%ADD20RoundRect,0.250000X-0.450000X0.262500X-0.450000X-0.262500X0.450000X-0.262500X0.450000X0.262500X0*%
%ADD21R,1.400000X1.200000*%
%ADD22RoundRect,0.250000X0.250000X0.475000X-0.250000X0.475000X-0.250000X-0.475000X0.250000X-0.475000X0*%
%ADD23C,0.650000*%
%ADD24R,0.600000X1.240000*%
%ADD25R,0.300000X1.240000*%
%ADD26O,1.000000X1.800000*%
%ADD27O,1.000000X2.100000*%
%ADD28RoundRect,0.250000X-0.262500X-0.450000X0.262500X-0.450000X0.262500X0.450000X-0.262500X0.450000X0*%
%ADD29RoundRect,0.250000X0.450000X-0.262500X0.450000X0.262500X-0.450000X0.262500X-0.450000X-0.262500X0*%
%ADD30RoundRect,0.058800X0.691200X0.186200X-0.691200X0.186200X-0.691200X-0.186200X0.691200X-0.186200X0*%
%ADD31RoundRect,0.058800X-0.691200X-0.186200X0.691200X-0.186200X0.691200X0.186200X-0.691200X0.186200X0*%
%ADD32R,1.800000X1.100000*%
%ADD33RoundRect,0.250000X-0.250000X-0.475000X0.250000X-0.475000X0.250000X0.475000X-0.250000X0.475000X0*%
%ADD34RoundRect,0.028800X-0.301200X-0.131200X0.301200X-0.131200X0.301200X0.131200X-0.301200X0.131200X0*%
%ADD35RoundRect,0.046200X-0.283800X-0.163800X0.283800X-0.163800X0.283800X0.163800X-0.283800X0.163800X0*%
%ADD36RoundRect,0.075000X-0.075000X0.700000X-0.075000X-0.700000X0.075000X-0.700000X0.075000X0.700000X0*%
%ADD37RoundRect,0.075000X-0.700000X0.075000X-0.700000X-0.075000X0.700000X-0.075000X0.700000X0.075000X0*%
%ADD38RoundRect,0.250000X0.262500X0.450000X-0.262500X0.450000X-0.262500X-0.450000X0.262500X-0.450000X0*%
%ADD39R,0.900000X1.200000*%
%ADD40RoundRect,0.250000X0.475000X-0.250000X0.475000X0.250000X-0.475000X0.250000X-0.475000X-0.250000X0*%
%ADD41RoundRect,0.225000X0.375000X-0.225000X0.375000X0.225000X-0.375000X0.225000X-0.375000X-0.225000X0*%
G04 APERTURE END LIST*
D10*
%TO.C,MX_F9*%
X207645000Y-41275000D03*
D11*
X212725000Y-41275000D03*
D10*
X217805000Y-41275000D03*
D12*
X209570001Y-38005000D03*
D13*
X210225000Y-37275000D03*
D14*
X215245000Y-36485000D03*
D13*
X215265000Y-36195000D03*
%TD*%
D10*
%TO.C,MX_I1*%
X198120000Y-79375000D03*
D11*
X203200000Y-79375000D03*
D10*
X208280000Y-79375000D03*
D12*
X200045001Y-76105000D03*
D13*
X200700000Y-75375000D03*
D14*
X205720000Y-74585000D03*
D13*
X205740000Y-74295000D03*
%TD*%
D10*
%TO.C,MX_]1*%
X274320000Y-79375000D03*
D11*
X279400000Y-79375000D03*
D10*
X284480000Y-79375000D03*
D12*
X276245001Y-76105000D03*
D13*
X276900000Y-75375000D03*
D14*
X281920000Y-74585000D03*
D13*
X281940000Y-74295000D03*
%TD*%
D10*
%TO.C,MX_Left1*%
X302895000Y-136525000D03*
D11*
X307975000Y-136525000D03*
D10*
X313055000Y-136525000D03*
D12*
X304820001Y-133255000D03*
D13*
X305475000Y-132525000D03*
D14*
X310495000Y-131735000D03*
D13*
X310515000Y-131445000D03*
%TD*%
D10*
%TO.C,MX_R1*%
X121920000Y-79375000D03*
D11*
X127000000Y-79375000D03*
D10*
X132080000Y-79375000D03*
D12*
X123845001Y-76105000D03*
D13*
X124500000Y-75375000D03*
D14*
X129520000Y-74585000D03*
D13*
X129540000Y-74295000D03*
%TD*%
D10*
%TO.C,MX_F4*%
X112395000Y-41306250D03*
D11*
X117475000Y-41306250D03*
D10*
X122555000Y-41306250D03*
D12*
X114320001Y-38036250D03*
D13*
X114975000Y-37306250D03*
D14*
X119995000Y-36516250D03*
D13*
X120015000Y-36226250D03*
%TD*%
D10*
%TO.C,MX_F12*%
X264795000Y-41275000D03*
D11*
X269875000Y-41275000D03*
D10*
X274955000Y-41275000D03*
D12*
X266720001Y-38005000D03*
D13*
X267375000Y-37275000D03*
D14*
X272395000Y-36485000D03*
D13*
X272415000Y-36195000D03*
%TD*%
D10*
%TO.C,MX_N1*%
X174307500Y-117475000D03*
D11*
X179387500Y-117475000D03*
D10*
X184467500Y-117475000D03*
D12*
X176232501Y-114205000D03*
D13*
X176887500Y-113475000D03*
D14*
X181907500Y-112685000D03*
D13*
X181927500Y-112395000D03*
%TD*%
D10*
%TO.C,MX_T1*%
X140970000Y-79375000D03*
D11*
X146050000Y-79375000D03*
D10*
X151130000Y-79375000D03*
D12*
X142895001Y-76105000D03*
D13*
X143550000Y-75375000D03*
D14*
X148570000Y-74585000D03*
D13*
X148590000Y-74295000D03*
%TD*%
D10*
%TO.C,MX_Del1*%
X321945000Y-79375000D03*
D11*
X327025000Y-79375000D03*
D10*
X332105000Y-79375000D03*
D12*
X323870001Y-76105000D03*
D13*
X324525000Y-75375000D03*
D14*
X329545000Y-74585000D03*
D13*
X329565000Y-74295000D03*
%TD*%
D10*
%TO.C,MX_LAlt1*%
X86201250Y-136525000D03*
D11*
X91281250Y-136525000D03*
D10*
X96361250Y-136525000D03*
D12*
X88126251Y-133255000D03*
D13*
X88781250Y-132525000D03*
D14*
X93801250Y-131735000D03*
D13*
X93821250Y-131445000D03*
%TD*%
D10*
%TO.C,MX_Ins1*%
X321945000Y-60325000D03*
D11*
X327025000Y-60325000D03*
D10*
X332105000Y-60325000D03*
D12*
X323870001Y-57055000D03*
D13*
X324525000Y-56325000D03*
D14*
X329545000Y-55535000D03*
D13*
X329565000Y-55245000D03*
%TD*%
D10*
%TO.C,MX_9*%
X207645000Y-60325000D03*
D11*
X212725000Y-60325000D03*
D10*
X217805000Y-60325000D03*
D12*
X209570001Y-57055000D03*
D13*
X210225000Y-56325000D03*
D14*
X215245000Y-55535000D03*
D13*
X215265000Y-55245000D03*
%TD*%
D10*
%TO.C,MX_Y1*%
X160020000Y-79375000D03*
D11*
X165100000Y-79375000D03*
D10*
X170180000Y-79375000D03*
D12*
X161945001Y-76105000D03*
D13*
X162600000Y-75375000D03*
D14*
X167620000Y-74585000D03*
D13*
X167640000Y-74295000D03*
%TD*%
D10*
%TO.C,MX_F13*%
X126682500Y-98425000D03*
D11*
X131762500Y-98425000D03*
D10*
X136842500Y-98425000D03*
D12*
X128607501Y-95155000D03*
D13*
X129262500Y-94425000D03*
D14*
X134282500Y-93635000D03*
D13*
X134302500Y-93345000D03*
%TD*%
D10*
%TO.C,MX_F6*%
X150495000Y-41275000D03*
D11*
X155575000Y-41275000D03*
D10*
X160655000Y-41275000D03*
D12*
X152420001Y-38005000D03*
D13*
X153075000Y-37275000D03*
D14*
X158095000Y-36485000D03*
D13*
X158115000Y-36195000D03*
%TD*%
D15*
%TO.C,MX_RShift1*%
X279368250Y-110490000D03*
D11*
X279368250Y-125730000D03*
D10*
X286226250Y-117475000D03*
D11*
X291306250Y-117475000D03*
D10*
X296386250Y-117475000D03*
D15*
X303244250Y-110490000D03*
D11*
X303244250Y-125730000D03*
D12*
X288151251Y-114205000D03*
D13*
X288806250Y-113475000D03*
D14*
X293826250Y-112685000D03*
D13*
X293846250Y-112395000D03*
%TD*%
D10*
%TO.C,MX_3*%
X93345000Y-60325000D03*
D11*
X98425000Y-60325000D03*
D10*
X103505000Y-60325000D03*
D12*
X95270001Y-57055000D03*
D13*
X95925000Y-56325000D03*
D14*
X100945000Y-55535000D03*
D13*
X100965000Y-55245000D03*
%TD*%
D10*
%TO.C,MX_Tilda1*%
X36195000Y-60356250D03*
D11*
X41275000Y-60356250D03*
D10*
X46355000Y-60356250D03*
D12*
X38120001Y-57086250D03*
D13*
X38775000Y-56356250D03*
D14*
X43795000Y-55566250D03*
D13*
X43815000Y-55276250D03*
%TD*%
D10*
%TO.C,MX_RCtrl1*%
X271938750Y-136525000D03*
D11*
X277018750Y-136525000D03*
D10*
X282098750Y-136525000D03*
D12*
X273863751Y-133255000D03*
D13*
X274518750Y-132525000D03*
D14*
X279538750Y-131735000D03*
D13*
X279558750Y-131445000D03*
%TD*%
D10*
%TO.C,MX_W1*%
X83820000Y-79375000D03*
D11*
X88900000Y-79375000D03*
D10*
X93980000Y-79375000D03*
D12*
X85745001Y-76105000D03*
D13*
X86400000Y-75375000D03*
D14*
X91420000Y-74585000D03*
D13*
X91440000Y-74295000D03*
%TD*%
D10*
%TO.C,MX_LCtrl1*%
X38576250Y-136525000D03*
D11*
X43656250Y-136525000D03*
D10*
X48736250Y-136525000D03*
D12*
X40501251Y-133255000D03*
D13*
X41156250Y-132525000D03*
D14*
X46176250Y-131735000D03*
D13*
X46196250Y-131445000D03*
%TD*%
D10*
%TO.C,MX_'1*%
X260032500Y-98425000D03*
D11*
X265112500Y-98425000D03*
D10*
X270192500Y-98425000D03*
D12*
X261957501Y-95155000D03*
D13*
X262612500Y-94425000D03*
D14*
X267632500Y-93635000D03*
D13*
X267652500Y-93345000D03*
%TD*%
D10*
%TO.C,MX_J1*%
X183832500Y-98425000D03*
D11*
X188912500Y-98425000D03*
D10*
X193992500Y-98425000D03*
D12*
X185757501Y-95155000D03*
D13*
X186412500Y-94425000D03*
D14*
X191432500Y-93635000D03*
D13*
X191452500Y-93345000D03*
%TD*%
D15*
%TO.C,MX_LShift1*%
X41243250Y-110490000D03*
D11*
X41243250Y-125730000D03*
D10*
X48101250Y-117475000D03*
D11*
X53181250Y-117475000D03*
D10*
X58261250Y-117475000D03*
D15*
X65119250Y-110490000D03*
D11*
X65119250Y-125730000D03*
D12*
X50026251Y-114205000D03*
D13*
X50681250Y-113475000D03*
D14*
X55701250Y-112685000D03*
D13*
X55721250Y-112395000D03*
%TD*%
D10*
%TO.C,MX_4*%
X112395000Y-60325000D03*
D11*
X117475000Y-60325000D03*
D10*
X122555000Y-60325000D03*
D12*
X114320001Y-57055000D03*
D13*
X114975000Y-56325000D03*
D14*
X119995000Y-55535000D03*
D13*
X120015000Y-55245000D03*
%TD*%
D10*
%TO.C,MX_[1*%
X255270000Y-79375000D03*
D11*
X260350000Y-79375000D03*
D10*
X265430000Y-79375000D03*
D12*
X257195001Y-76105000D03*
D13*
X257850000Y-75375000D03*
D14*
X262870000Y-74585000D03*
D13*
X262890000Y-74295000D03*
%TD*%
D10*
%TO.C,MX_.1*%
X231457500Y-117475000D03*
D11*
X236537500Y-117475000D03*
D10*
X241617500Y-117475000D03*
D12*
X233382501Y-114205000D03*
D13*
X234037500Y-113475000D03*
D14*
X239057500Y-112685000D03*
D13*
X239077500Y-112395000D03*
%TD*%
D10*
%TO.C,MX_Up1*%
X321945000Y-117475000D03*
D11*
X327025000Y-117475000D03*
D10*
X332105000Y-117475000D03*
D12*
X323870001Y-114205000D03*
D13*
X324525000Y-113475000D03*
D14*
X329545000Y-112685000D03*
D13*
X329565000Y-112395000D03*
%TD*%
D10*
%TO.C,MX_2*%
X74295000Y-60356250D03*
D11*
X79375000Y-60356250D03*
D10*
X84455000Y-60356250D03*
D12*
X76220001Y-57086250D03*
D13*
X76875000Y-56356250D03*
D14*
X81895000Y-55566250D03*
D13*
X81915000Y-55276250D03*
%TD*%
D10*
%TO.C,MX_Esc1*%
X36195000Y-41306250D03*
D11*
X41275000Y-41306250D03*
D10*
X46355000Y-41306250D03*
D12*
X38120001Y-38036250D03*
D13*
X38775000Y-37306250D03*
D14*
X43795000Y-36516250D03*
D13*
X43815000Y-36226250D03*
%TD*%
D10*
%TO.C,MX_X1*%
X98107500Y-117475000D03*
D11*
X103187500Y-117475000D03*
D10*
X108267500Y-117475000D03*
D12*
X100032501Y-114205000D03*
D13*
X100687500Y-113475000D03*
D14*
X105707500Y-112685000D03*
D13*
X105727500Y-112395000D03*
%TD*%
D10*
%TO.C,MX_Z1*%
X79057500Y-117475000D03*
D11*
X84137500Y-117475000D03*
D10*
X89217500Y-117475000D03*
D12*
X80982501Y-114205000D03*
D13*
X81637500Y-113475000D03*
D14*
X86657500Y-112685000D03*
D13*
X86677500Y-112395000D03*
%TD*%
D10*
%TO.C,MX_7*%
X169545000Y-60325000D03*
D11*
X174625000Y-60325000D03*
D10*
X179705000Y-60325000D03*
D12*
X171470001Y-57055000D03*
D13*
X172125000Y-56325000D03*
D14*
X177145000Y-55535000D03*
D13*
X177165000Y-55245000D03*
%TD*%
D10*
%TO.C,MX_End1*%
X340995000Y-79375000D03*
D11*
X346075000Y-79375000D03*
D10*
X351155000Y-79375000D03*
D12*
X342920001Y-76105000D03*
D13*
X343575000Y-75375000D03*
D14*
X348595000Y-74585000D03*
D13*
X348615000Y-74295000D03*
%TD*%
D10*
%TO.C,MX_B1*%
X155257500Y-117475000D03*
D11*
X160337500Y-117475000D03*
D10*
X165417500Y-117475000D03*
D12*
X157182501Y-114205000D03*
D13*
X157837500Y-113475000D03*
D14*
X162857500Y-112685000D03*
D13*
X162877500Y-112395000D03*
%TD*%
D10*
%TO.C,MX_D1*%
X107632500Y-98425000D03*
D11*
X112712500Y-98425000D03*
D10*
X117792500Y-98425000D03*
D12*
X109557501Y-95155000D03*
D13*
X110212500Y-94425000D03*
D14*
X115232500Y-93635000D03*
D13*
X115252500Y-93345000D03*
%TD*%
D10*
%TO.C,MX_F1*%
X55245000Y-41306250D03*
D11*
X60325000Y-41306250D03*
D10*
X65405000Y-41306250D03*
D12*
X57170001Y-38036250D03*
D13*
X57825000Y-37306250D03*
D14*
X62845000Y-36516250D03*
D13*
X62865000Y-36226250D03*
%TD*%
D10*
%TO.C,MX_V1*%
X136207500Y-117475000D03*
D11*
X141287500Y-117475000D03*
D10*
X146367500Y-117475000D03*
D12*
X138132501Y-114205000D03*
D13*
X138787500Y-113475000D03*
D14*
X143807500Y-112685000D03*
D13*
X143827500Y-112395000D03*
%TD*%
D10*
%TO.C,MX_5*%
X131445000Y-60325000D03*
D11*
X136525000Y-60325000D03*
D10*
X141605000Y-60325000D03*
D12*
X133370001Y-57055000D03*
D13*
X134025000Y-56325000D03*
D14*
X139045000Y-55535000D03*
D13*
X139065000Y-55245000D03*
%TD*%
D10*
%TO.C,MX_PtrSc1*%
X321945000Y-98425000D03*
D11*
X327025000Y-98425000D03*
D10*
X332105000Y-98425000D03*
D12*
X323870001Y-95155000D03*
D13*
X324525000Y-94425000D03*
D14*
X329545000Y-93635000D03*
D13*
X329565000Y-93345000D03*
%TD*%
D10*
%TO.C,MX_1*%
X55245000Y-60356250D03*
D11*
X60325000Y-60356250D03*
D10*
X65405000Y-60356250D03*
D12*
X57170001Y-57086250D03*
D13*
X57825000Y-56356250D03*
D14*
X62845000Y-55566250D03*
D13*
X62865000Y-55276250D03*
%TD*%
D10*
%TO.C,MX_PgDn1*%
X340995000Y-117475000D03*
D11*
X346075000Y-117475000D03*
D10*
X351155000Y-117475000D03*
D12*
X342920001Y-114205000D03*
D13*
X343575000Y-113475000D03*
D14*
X348595000Y-112685000D03*
D13*
X348615000Y-112395000D03*
%TD*%
D10*
%TO.C,MX_F8*%
X188595000Y-41306250D03*
D11*
X193675000Y-41306250D03*
D10*
X198755000Y-41306250D03*
D12*
X190520001Y-38036250D03*
D13*
X191175000Y-37306250D03*
D14*
X196195000Y-36516250D03*
D13*
X196215000Y-36226250D03*
%TD*%
D15*
%TO.C,MX_BckSpace1*%
X286512000Y-53340000D03*
D11*
X286512000Y-68580000D03*
D10*
X293370000Y-60325000D03*
D11*
X298450000Y-60325000D03*
D10*
X303530000Y-60325000D03*
D15*
X310388000Y-53340000D03*
D11*
X310388000Y-68580000D03*
D12*
X295295001Y-57055000D03*
D13*
X295950000Y-56325000D03*
D14*
X300970000Y-55535000D03*
D13*
X300990000Y-55245000D03*
%TD*%
D15*
%TO.C,MX_Space1*%
X112712500Y-129540000D03*
D11*
X112712500Y-144780000D03*
D10*
X155257500Y-136525000D03*
D11*
X160337500Y-136525000D03*
D10*
X165417500Y-136525000D03*
D15*
X207962500Y-129540000D03*
D11*
X207962500Y-144780000D03*
D12*
X157182501Y-133255000D03*
D13*
X157837500Y-132525000D03*
D14*
X162857500Y-131735000D03*
D13*
X162877500Y-131445000D03*
%TD*%
D10*
%TO.C,MX_H1*%
X164782500Y-98425000D03*
D11*
X169862500Y-98425000D03*
D10*
X174942500Y-98425000D03*
D12*
X166707501Y-95155000D03*
D13*
X167362500Y-94425000D03*
D14*
X172382500Y-93635000D03*
D13*
X172402500Y-93345000D03*
%TD*%
D10*
%TO.C,MX_Caps1*%
X43338750Y-98425000D03*
D11*
X48418750Y-98425000D03*
D10*
X53498750Y-98425000D03*
D12*
X45263751Y-95155000D03*
D13*
X45918750Y-94425000D03*
D14*
X50938750Y-93635000D03*
D13*
X50958750Y-93345000D03*
%TD*%
D10*
%TO.C,MX_6*%
X150495000Y-60325000D03*
D11*
X155575000Y-60325000D03*
D10*
X160655000Y-60325000D03*
D12*
X152420001Y-57055000D03*
D13*
X153075000Y-56325000D03*
D14*
X158095000Y-55535000D03*
D13*
X158115000Y-55245000D03*
%TD*%
D10*
%TO.C,MX_RAlt1*%
X224313750Y-136525000D03*
D11*
X229393750Y-136525000D03*
D10*
X234473750Y-136525000D03*
D12*
X226238751Y-133255000D03*
D13*
X226893750Y-132525000D03*
D14*
X231913750Y-131735000D03*
D13*
X231933750Y-131445000D03*
%TD*%
D10*
%TO.C,MX_LWin1*%
X62388750Y-136525000D03*
D11*
X67468750Y-136525000D03*
D10*
X72548750Y-136525000D03*
D12*
X64313751Y-133255000D03*
D13*
X64968750Y-132525000D03*
D14*
X69988750Y-131735000D03*
D13*
X70008750Y-131445000D03*
%TD*%
D10*
%TO.C,MX_C1*%
X117157500Y-117475000D03*
D11*
X122237500Y-117475000D03*
D10*
X127317500Y-117475000D03*
D12*
X119082501Y-114205000D03*
D13*
X119737500Y-113475000D03*
D14*
X124757500Y-112685000D03*
D13*
X124777500Y-112395000D03*
%TD*%
D10*
%TO.C,MX_F7*%
X169545000Y-41275000D03*
D11*
X174625000Y-41275000D03*
D10*
X179705000Y-41275000D03*
D12*
X171470001Y-38005000D03*
D13*
X172125000Y-37275000D03*
D14*
X177145000Y-36485000D03*
D13*
X177165000Y-36195000D03*
%TD*%
D10*
%TO.C,MX_F11*%
X245745000Y-41306250D03*
D11*
X250825000Y-41306250D03*
D10*
X255905000Y-41306250D03*
D12*
X247670001Y-38036250D03*
D13*
X248325000Y-37306250D03*
D14*
X253345000Y-36516250D03*
D13*
X253365000Y-36226250D03*
%TD*%
D10*
%TO.C,MX_M1*%
X193357500Y-117475000D03*
D11*
X198437500Y-117475000D03*
D10*
X203517500Y-117475000D03*
D12*
X195282501Y-114205000D03*
D13*
X195937500Y-113475000D03*
D14*
X200957500Y-112685000D03*
D13*
X200977500Y-112395000D03*
%TD*%
D10*
%TO.C,MX_Q1*%
X64770000Y-79375000D03*
D11*
X69850000Y-79375000D03*
D10*
X74930000Y-79375000D03*
D12*
X66695001Y-76105000D03*
D13*
X67350000Y-75375000D03*
D14*
X72370000Y-74585000D03*
D13*
X72390000Y-74295000D03*
%TD*%
D10*
%TO.C,MX_-1*%
X245745000Y-60325000D03*
D11*
X250825000Y-60325000D03*
D10*
X255905000Y-60325000D03*
D12*
X247670001Y-57055000D03*
D13*
X248325000Y-56325000D03*
D14*
X253345000Y-55535000D03*
D13*
X253365000Y-55245000D03*
%TD*%
D10*
%TO.C,MX_E1*%
X102870000Y-79375000D03*
D11*
X107950000Y-79375000D03*
D10*
X113030000Y-79375000D03*
D12*
X104795001Y-76105000D03*
D13*
X105450000Y-75375000D03*
D14*
X110470000Y-74585000D03*
D13*
X110490000Y-74295000D03*
%TD*%
D10*
%TO.C,MX_A1*%
X69532500Y-98425000D03*
D11*
X74612500Y-98425000D03*
D10*
X79692500Y-98425000D03*
D12*
X71457501Y-95155000D03*
D13*
X72112500Y-94425000D03*
D14*
X77132500Y-93635000D03*
D13*
X77152500Y-93345000D03*
%TD*%
D10*
%TO.C,MX_Tab1*%
X40957500Y-79375000D03*
D11*
X46037500Y-79375000D03*
D10*
X51117500Y-79375000D03*
D12*
X42882501Y-76105000D03*
D13*
X43537500Y-75375000D03*
D14*
X48557500Y-74585000D03*
D13*
X48577500Y-74295000D03*
%TD*%
D10*
%TO.C,MX_O1*%
X217170000Y-79375000D03*
D11*
X222250000Y-79375000D03*
D10*
X227330000Y-79375000D03*
D12*
X219095001Y-76105000D03*
D13*
X219750000Y-75375000D03*
D14*
X224770000Y-74585000D03*
D13*
X224790000Y-74295000D03*
%TD*%
D10*
%TO.C,MX_Right1*%
X340995000Y-136525000D03*
D11*
X346075000Y-136525000D03*
D10*
X351155000Y-136525000D03*
D12*
X342920001Y-133255000D03*
D13*
X343575000Y-132525000D03*
D14*
X348595000Y-131735000D03*
D13*
X348615000Y-131445000D03*
%TD*%
D10*
%TO.C,MX_U1*%
X179070000Y-79375000D03*
D11*
X184150000Y-79375000D03*
D10*
X189230000Y-79375000D03*
D12*
X180995001Y-76105000D03*
D13*
X181650000Y-75375000D03*
D14*
X186670000Y-74585000D03*
D13*
X186690000Y-74295000D03*
%TD*%
D10*
%TO.C,MX_\u005C1*%
X298132500Y-79375000D03*
D11*
X303212500Y-79375000D03*
D10*
X308292500Y-79375000D03*
D12*
X300057501Y-76105000D03*
D13*
X300712500Y-75375000D03*
D14*
X305732500Y-74585000D03*
D13*
X305752500Y-74295000D03*
%TD*%
D10*
%TO.C,MX_PgUp1*%
X340995000Y-98425000D03*
D11*
X346075000Y-98425000D03*
D10*
X351155000Y-98425000D03*
D12*
X342920001Y-95155000D03*
D13*
X343575000Y-94425000D03*
D14*
X348595000Y-93635000D03*
D13*
X348615000Y-93345000D03*
%TD*%
D10*
%TO.C,MX_F3*%
X93345000Y-41306250D03*
D11*
X98425000Y-41306250D03*
D10*
X103505000Y-41306250D03*
D12*
X95270001Y-38036250D03*
D13*
X95925000Y-37306250D03*
D14*
X100945000Y-36516250D03*
D13*
X100965000Y-36226250D03*
%TD*%
D10*
%TO.C,MX_;1*%
X240982500Y-98425000D03*
D11*
X246062500Y-98425000D03*
D10*
X251142500Y-98425000D03*
D12*
X242907501Y-95155000D03*
D13*
X243562500Y-94425000D03*
D14*
X248582500Y-93635000D03*
D13*
X248602500Y-93345000D03*
%TD*%
D10*
%TO.C,MX_P1*%
X236220000Y-79375000D03*
D11*
X241300000Y-79375000D03*
D10*
X246380000Y-79375000D03*
D12*
X238145001Y-76105000D03*
D13*
X238800000Y-75375000D03*
D14*
X243820000Y-74585000D03*
D13*
X243840000Y-74295000D03*
%TD*%
D10*
%TO.C,MX_Down1*%
X321945000Y-136525000D03*
D11*
X327025000Y-136525000D03*
D10*
X332105000Y-136525000D03*
D12*
X323870001Y-133255000D03*
D13*
X324525000Y-132525000D03*
D14*
X329545000Y-131735000D03*
D13*
X329565000Y-131445000D03*
%TD*%
D10*
%TO.C,MX_F5*%
X131445000Y-41275000D03*
D11*
X136525000Y-41275000D03*
D10*
X141605000Y-41275000D03*
D12*
X133370001Y-38005000D03*
D13*
X134025000Y-37275000D03*
D14*
X139045000Y-36485000D03*
D13*
X139065000Y-36195000D03*
%TD*%
D15*
%TO.C,MX_Enter1*%
X284130750Y-91440000D03*
D11*
X284130750Y-106680000D03*
D10*
X290988750Y-98425000D03*
D11*
X296068750Y-98425000D03*
D10*
X301148750Y-98425000D03*
D15*
X308006750Y-91440000D03*
D11*
X308006750Y-106680000D03*
D12*
X292913751Y-95155000D03*
D13*
X293568750Y-94425000D03*
D14*
X298588750Y-93635000D03*
D13*
X298608750Y-93345000D03*
%TD*%
D10*
%TO.C,MX_\u002C1*%
X212407500Y-117475000D03*
D11*
X217487500Y-117475000D03*
D10*
X222567500Y-117475000D03*
D12*
X214332501Y-114205000D03*
D13*
X214987500Y-113475000D03*
D14*
X220007500Y-112685000D03*
D13*
X220027500Y-112395000D03*
%TD*%
D10*
%TO.C,MX_G1*%
X145732500Y-98425000D03*
D11*
X150812500Y-98425000D03*
D10*
X155892500Y-98425000D03*
D12*
X147657501Y-95155000D03*
D13*
X148312500Y-94425000D03*
D14*
X153332500Y-93635000D03*
D13*
X153352500Y-93345000D03*
%TD*%
D10*
%TO.C,MX_F2*%
X74295000Y-41306250D03*
D11*
X79375000Y-41306250D03*
D10*
X84455000Y-41306250D03*
D12*
X76220001Y-38036250D03*
D13*
X76875000Y-37306250D03*
D14*
X81895000Y-36516250D03*
D13*
X81915000Y-36226250D03*
%TD*%
D10*
%TO.C,MX_=1*%
X264795000Y-60325000D03*
D11*
X269875000Y-60325000D03*
D10*
X274955000Y-60325000D03*
D12*
X266720001Y-57055000D03*
D13*
X267375000Y-56325000D03*
D14*
X272395000Y-55535000D03*
D13*
X272415000Y-55245000D03*
%TD*%
D10*
%TO.C,MX_0*%
X226695000Y-60325000D03*
D11*
X231775000Y-60325000D03*
D10*
X236855000Y-60325000D03*
D12*
X228620001Y-57055000D03*
D13*
X229275000Y-56325000D03*
D14*
X234295000Y-55535000D03*
D13*
X234315000Y-55245000D03*
%TD*%
D10*
%TO.C,MX_S1*%
X88582500Y-98425000D03*
D11*
X93662500Y-98425000D03*
D10*
X98742500Y-98425000D03*
D12*
X90507501Y-95155000D03*
D13*
X91162500Y-94425000D03*
D14*
X96182500Y-93635000D03*
D13*
X96202500Y-93345000D03*
%TD*%
D10*
%TO.C,MX_RWin1*%
X248126250Y-136525000D03*
D11*
X253206250Y-136525000D03*
D10*
X258286250Y-136525000D03*
D12*
X250051251Y-133255000D03*
D13*
X250706250Y-132525000D03*
D14*
X255726250Y-131735000D03*
D13*
X255746250Y-131445000D03*
%TD*%
D10*
%TO.C,MX_8*%
X188595000Y-60325000D03*
D11*
X193675000Y-60325000D03*
D10*
X198755000Y-60325000D03*
D12*
X190520001Y-57055000D03*
D13*
X191175000Y-56325000D03*
D14*
X196195000Y-55535000D03*
D13*
X196215000Y-55245000D03*
%TD*%
D10*
%TO.C,MX_K1*%
X202882500Y-98425000D03*
D11*
X207962500Y-98425000D03*
D10*
X213042500Y-98425000D03*
D12*
X204807501Y-95155000D03*
D13*
X205462500Y-94425000D03*
D14*
X210482500Y-93635000D03*
D13*
X210502500Y-93345000D03*
%TD*%
D10*
%TO.C,MX_L1*%
X221932500Y-98425000D03*
D11*
X227012500Y-98425000D03*
D10*
X232092500Y-98425000D03*
D12*
X223857501Y-95155000D03*
D13*
X224512500Y-94425000D03*
D14*
X229532500Y-93635000D03*
D13*
X229552500Y-93345000D03*
%TD*%
D10*
%TO.C,MX_F10*%
X226695000Y-41275000D03*
D11*
X231775000Y-41275000D03*
D10*
X236855000Y-41275000D03*
D12*
X228620001Y-38005000D03*
D13*
X229275000Y-37275000D03*
D14*
X234295000Y-36485000D03*
D13*
X234315000Y-36195000D03*
%TD*%
D10*
%TO.C,MX_Home1*%
X340995000Y-60325000D03*
D11*
X346075000Y-60325000D03*
D10*
X351155000Y-60325000D03*
D12*
X342920001Y-57055000D03*
D13*
X343575000Y-56325000D03*
D14*
X348595000Y-55535000D03*
D13*
X348615000Y-55245000D03*
%TD*%
D10*
%TO.C,MX_/1*%
X250507500Y-117475000D03*
D11*
X255587500Y-117475000D03*
D10*
X260667500Y-117475000D03*
D12*
X252432501Y-114205000D03*
D13*
X253087500Y-113475000D03*
D14*
X258107500Y-112685000D03*
D13*
X258127500Y-112395000D03*
%TD*%
D16*
%TO.C,LED_=1*%
X267284200Y-65131250D03*
X267284200Y-66631250D03*
D17*
X272465800Y-66631250D03*
D16*
X272465800Y-65131250D03*
%TD*%
%TO.C,LED_RSHIFT1*%
X293897050Y-123781250D03*
X293897050Y-122281250D03*
D18*
X288715450Y-122281250D03*
D16*
X288715450Y-123781250D03*
%TD*%
D19*
%TO.C,D41*%
X186531250Y-120014000D03*
X186531250Y-116714000D03*
%TD*%
D20*
%TO.C,R5*%
X49212500Y-48300000D03*
X49212500Y-50125000D03*
%TD*%
D16*
%TO.C,LED_B1*%
X162928300Y-123781250D03*
X162928300Y-122281250D03*
D18*
X157746700Y-122281250D03*
D16*
X157746700Y-123781250D03*
%TD*%
%TO.C,LED_CAPS1*%
X45827950Y-103231250D03*
X45827950Y-104731250D03*
D17*
X51009550Y-104731250D03*
D16*
X51009550Y-103231250D03*
%TD*%
D19*
%TO.C,D5*%
X53181250Y-81914000D03*
X53181250Y-78614000D03*
%TD*%
%TO.C,D12*%
X74612500Y-139064000D03*
X74612500Y-135764000D03*
%TD*%
D16*
%TO.C,LED_-1*%
X248234200Y-65131250D03*
X248234200Y-66631250D03*
D17*
X253415800Y-66631250D03*
D16*
X253415800Y-65131250D03*
%TD*%
D19*
%TO.C,D21*%
X115093750Y-81914000D03*
X115093750Y-78614000D03*
%TD*%
D16*
%TO.C,LED_]1*%
X281990800Y-85681250D03*
X281990800Y-84181250D03*
D18*
X276809200Y-84181250D03*
D16*
X276809200Y-85681250D03*
%TD*%
D19*
%TO.C,D86*%
X334168750Y-62864000D03*
X334168750Y-59564000D03*
%TD*%
D16*
%TO.C,LED_Home1*%
X343484200Y-65131250D03*
X343484200Y-66631250D03*
D17*
X348665800Y-66631250D03*
D16*
X348665800Y-65131250D03*
%TD*%
D19*
%TO.C,D60*%
X353218750Y-139064000D03*
X353218750Y-135764000D03*
%TD*%
%TO.C,D33*%
X153193750Y-81914000D03*
X153193750Y-78614000D03*
%TD*%
D16*
%TO.C,LED_F1*%
X62915800Y-47581250D03*
X62915800Y-46081250D03*
D18*
X57734200Y-46081250D03*
D16*
X57734200Y-47581250D03*
%TD*%
%TO.C,LED_M1*%
X201028300Y-123781250D03*
X201028300Y-122281250D03*
D18*
X195846700Y-122281250D03*
D16*
X195846700Y-123781250D03*
%TD*%
D19*
%TO.C,D62*%
X238918750Y-62864000D03*
X238918750Y-59564000D03*
%TD*%
D16*
%TO.C,LED_L1*%
X224421700Y-103231250D03*
X224421700Y-104731250D03*
D17*
X229603300Y-104731250D03*
D16*
X229603300Y-103231250D03*
%TD*%
%TO.C,LED_LSHIFT1*%
X55772050Y-123781250D03*
X55772050Y-122281250D03*
D18*
X50590450Y-122281250D03*
D16*
X50590450Y-123781250D03*
%TD*%
D19*
%TO.C,D15*%
X96043750Y-81914000D03*
X96043750Y-78614000D03*
%TD*%
D21*
%TO.C,Y1*%
X147150000Y-134200000D03*
X144950000Y-134200000D03*
X144950000Y-132500000D03*
X147150000Y-132500000D03*
%TD*%
D19*
%TO.C,D18*%
X98425000Y-139064000D03*
X98425000Y-135764000D03*
%TD*%
%TO.C,D10*%
X81756250Y-100964000D03*
X81756250Y-97664000D03*
%TD*%
D16*
%TO.C,LED_Ins1*%
X324434200Y-65131250D03*
X324434200Y-66631250D03*
D17*
X329615800Y-66631250D03*
D16*
X329615800Y-65131250D03*
%TD*%
%TO.C,LED_Del1*%
X329615800Y-85681250D03*
X329615800Y-84181250D03*
D18*
X324434200Y-84181250D03*
D16*
X324434200Y-85681250D03*
%TD*%
%TO.C,LED_F13*%
X129171700Y-103231250D03*
X129171700Y-104731250D03*
D17*
X134353300Y-104731250D03*
D16*
X134353300Y-103231250D03*
%TD*%
%TO.C,LED_F9*%
X215315800Y-47581250D03*
X215315800Y-46081250D03*
D18*
X210134200Y-46081250D03*
D16*
X210134200Y-47581250D03*
%TD*%
D19*
%TO.C,D20*%
X105568750Y-62864000D03*
X105568750Y-59564000D03*
%TD*%
D16*
%TO.C,LED_F6*%
X158165800Y-47581250D03*
X158165800Y-46081250D03*
D18*
X152984200Y-46081250D03*
D16*
X152984200Y-47581250D03*
%TD*%
D19*
%TO.C,D22*%
X119856250Y-100964000D03*
X119856250Y-97664000D03*
%TD*%
D22*
%TO.C,C2*%
X147000000Y-130175000D03*
X145100000Y-130175000D03*
%TD*%
D16*
%TO.C,LED_F8*%
X196265800Y-47581250D03*
X196265800Y-46081250D03*
D18*
X191084200Y-46081250D03*
D16*
X191084200Y-47581250D03*
%TD*%
%TO.C,LED_UP1*%
X329615800Y-123781250D03*
X329615800Y-122281250D03*
D18*
X324434200Y-122281250D03*
D16*
X324434200Y-123781250D03*
%TD*%
%TO.C,LED_I1*%
X205790800Y-85681250D03*
X205790800Y-84181250D03*
D18*
X200609200Y-84181250D03*
D16*
X200609200Y-85681250D03*
%TD*%
D23*
%TO.C,J3*%
X47529000Y-36560000D03*
X53309000Y-36560000D03*
D24*
X47219000Y-37680000D03*
X48019000Y-37680000D03*
D25*
X49169000Y-37680000D03*
X50169000Y-37680000D03*
X50669000Y-37680000D03*
X51669000Y-37680000D03*
D24*
X52819000Y-37680000D03*
X53619000Y-37680000D03*
X53619000Y-37680000D03*
X52819000Y-37680000D03*
D25*
X52169000Y-37680000D03*
X51169000Y-37680000D03*
X49669000Y-37680000D03*
X48669000Y-37680000D03*
D24*
X48019000Y-37680000D03*
X47219000Y-37680000D03*
D26*
X46099000Y-32880000D03*
D27*
X46099000Y-37080000D03*
D26*
X54739000Y-32880000D03*
D27*
X54739000Y-37080000D03*
%TD*%
D19*
%TO.C,D47*%
X205581250Y-120014000D03*
X205581250Y-116714000D03*
%TD*%
%TO.C,D11*%
X91281250Y-120014000D03*
X91281250Y-116714000D03*
%TD*%
D16*
%TO.C,LED_\u005C1*%
X305803300Y-85681250D03*
X305803300Y-84181250D03*
D18*
X300621700Y-84181250D03*
D16*
X300621700Y-85681250D03*
%TD*%
D19*
%TO.C,D61*%
X238918750Y-43814000D03*
X238918750Y-40514000D03*
%TD*%
%TO.C,D67*%
X257968750Y-43814000D03*
X257968750Y-40514000D03*
%TD*%
D16*
%TO.C,LED_Y1*%
X167690800Y-85681250D03*
X167690800Y-84181250D03*
D18*
X162509200Y-84181250D03*
D16*
X162509200Y-85681250D03*
%TD*%
%TO.C,LED_5*%
X133934200Y-65131250D03*
X133934200Y-66631250D03*
D17*
X139115800Y-66631250D03*
D16*
X139115800Y-65131250D03*
%TD*%
D19*
%TO.C,D34*%
X157956250Y-100964000D03*
X157956250Y-97664000D03*
%TD*%
D16*
%TO.C,LED_T1*%
X148640800Y-85681250D03*
X148640800Y-84181250D03*
D18*
X143459200Y-84181250D03*
D16*
X143459200Y-85681250D03*
%TD*%
%TO.C,LED_K1*%
X205371700Y-103231250D03*
X205371700Y-104731250D03*
D17*
X210553300Y-104731250D03*
D16*
X210553300Y-103231250D03*
%TD*%
D19*
%TO.C,D71*%
X298450000Y-120014000D03*
X298450000Y-116714000D03*
%TD*%
%TO.C,D26*%
X124618750Y-62864000D03*
X124618750Y-59564000D03*
%TD*%
%TO.C,D77*%
X334168750Y-120014000D03*
X334168750Y-116714000D03*
%TD*%
D20*
%TO.C,R3*%
X50800000Y-53594000D03*
X50800000Y-55419000D03*
%TD*%
D16*
%TO.C,LED_F2*%
X81965800Y-47581250D03*
X81965800Y-46081250D03*
D18*
X76784200Y-46081250D03*
D16*
X76784200Y-47581250D03*
%TD*%
D19*
%TO.C,D7*%
X60325000Y-120014000D03*
X60325000Y-116714000D03*
%TD*%
D16*
%TO.C,LED_\u002C1*%
X220078300Y-123781250D03*
X220078300Y-122281250D03*
D18*
X214896700Y-122281250D03*
D16*
X214896700Y-123781250D03*
%TD*%
%TO.C,LED_SPACE1*%
X157746700Y-141331250D03*
X157746700Y-142831250D03*
D17*
X162928300Y-142831250D03*
D16*
X162928300Y-141331250D03*
%TD*%
D19*
%TO.C,D29*%
X148431250Y-120014000D03*
X148431250Y-116714000D03*
%TD*%
%TO.C,D80*%
X305593750Y-62864000D03*
X305593750Y-59564000D03*
%TD*%
D16*
%TO.C,LED_.1*%
X239128300Y-123781250D03*
X239128300Y-122281250D03*
D18*
X233946700Y-122281250D03*
D16*
X233946700Y-123781250D03*
%TD*%
%TO.C,LED_PRTSCN1*%
X324434200Y-103231250D03*
X324434200Y-104731250D03*
D17*
X329615800Y-104731250D03*
D16*
X329615800Y-103231250D03*
%TD*%
%TO.C,LED_7*%
X172034200Y-65131250D03*
X172034200Y-66631250D03*
D17*
X177215800Y-66631250D03*
D16*
X177215800Y-65131250D03*
%TD*%
D19*
%TO.C,D76*%
X303212500Y-100964000D03*
X303212500Y-97664000D03*
%TD*%
D16*
%TO.C,LED_6*%
X152984200Y-65131250D03*
X152984200Y-66631250D03*
D17*
X158165800Y-66631250D03*
D16*
X158165800Y-65131250D03*
%TD*%
%TO.C,LED_Tilda1*%
X38684200Y-65131250D03*
X38684200Y-66631250D03*
D17*
X43865800Y-66631250D03*
D16*
X43865800Y-65131250D03*
%TD*%
%TO.C,LED_G1*%
X148100450Y-103231250D03*
X148100450Y-104731250D03*
D17*
X153282050Y-104731250D03*
D16*
X153282050Y-103231250D03*
%TD*%
D19*
%TO.C,D38*%
X162718750Y-62864000D03*
X162718750Y-59564000D03*
%TD*%
D16*
%TO.C,LED_F5*%
X139115800Y-47581250D03*
X139115800Y-46081250D03*
D18*
X133934200Y-46081250D03*
D16*
X133934200Y-47581250D03*
%TD*%
D19*
%TO.C,D51*%
X210343750Y-81914000D03*
X210343750Y-78614000D03*
%TD*%
D16*
%TO.C,LED_RIGHT1*%
X343484200Y-141331250D03*
X343484200Y-142831250D03*
D17*
X348665800Y-142831250D03*
D16*
X348665800Y-141331250D03*
%TD*%
D19*
%TO.C,D24*%
X167481250Y-139762500D03*
X167481250Y-136462500D03*
%TD*%
%TO.C,D55*%
X219868750Y-43814000D03*
X219868750Y-40514000D03*
%TD*%
%TO.C,D63*%
X248443750Y-81914000D03*
X248443750Y-78614000D03*
%TD*%
D16*
%TO.C,LED_F10*%
X234365800Y-47581250D03*
X234365800Y-46081250D03*
D18*
X229184200Y-46081250D03*
D16*
X229184200Y-47581250D03*
%TD*%
%TO.C,LED_Z1*%
X86728300Y-123781250D03*
X86728300Y-122281250D03*
D18*
X81546700Y-122281250D03*
D16*
X81546700Y-123781250D03*
%TD*%
%TO.C,LED_P1*%
X243890800Y-85681250D03*
X243890800Y-84181250D03*
D18*
X238709200Y-84181250D03*
D16*
X238709200Y-85681250D03*
%TD*%
D19*
%TO.C,D23*%
X129381250Y-120014000D03*
X129381250Y-116714000D03*
%TD*%
D16*
%TO.C,LED_LEFT1*%
X305384200Y-141331250D03*
X305384200Y-142831250D03*
D17*
X310565800Y-142831250D03*
D16*
X310565800Y-141331250D03*
%TD*%
%TO.C,LED_9*%
X210134200Y-65131250D03*
X210134200Y-66631250D03*
D17*
X215315800Y-66631250D03*
D16*
X215315800Y-65131250D03*
%TD*%
D19*
%TO.C,D13*%
X86518750Y-43814000D03*
X86518750Y-40514000D03*
%TD*%
%TO.C,D39*%
X172243750Y-81914000D03*
X172243750Y-78614000D03*
%TD*%
D28*
%TO.C,R6*%
X59015625Y-34131250D03*
X60840625Y-34131250D03*
%TD*%
D16*
%TO.C,LED_0*%
X229184200Y-65131250D03*
X229184200Y-66631250D03*
D17*
X234365800Y-66631250D03*
D16*
X234365800Y-65131250D03*
%TD*%
D29*
%TO.C,R11*%
X138112500Y-135056250D03*
X138112500Y-133231250D03*
%TD*%
D16*
%TO.C,LED_F11*%
X253537050Y-47581250D03*
X253537050Y-46081250D03*
D18*
X248355450Y-46081250D03*
D16*
X248355450Y-47581250D03*
%TD*%
%TO.C,LED_E1*%
X110540800Y-85681250D03*
X110540800Y-84181250D03*
D18*
X105359200Y-84181250D03*
D16*
X105359200Y-85681250D03*
%TD*%
D19*
%TO.C,D52*%
X215106250Y-100964000D03*
X215106250Y-97664000D03*
%TD*%
D16*
%TO.C,LED_DOWN1*%
X324434200Y-141331250D03*
X324434200Y-142831250D03*
D17*
X329615800Y-142831250D03*
D16*
X329615800Y-141331250D03*
%TD*%
%TO.C,LED_PGUP1*%
X343484200Y-103231250D03*
X343484200Y-104731250D03*
D17*
X348665800Y-104731250D03*
D16*
X348665800Y-103231250D03*
%TD*%
D19*
%TO.C,D14*%
X86518750Y-62864000D03*
X86518750Y-59564000D03*
%TD*%
%TO.C,D32*%
X143668750Y-62864000D03*
X143668750Y-59564000D03*
%TD*%
%TO.C,D48*%
X315118750Y-139064000D03*
X315118750Y-135764000D03*
%TD*%
%TO.C,D40*%
X177006250Y-100964000D03*
X177006250Y-97664000D03*
%TD*%
D16*
%TO.C,LED_[1*%
X262940800Y-85681250D03*
X262940800Y-84181250D03*
D18*
X257759200Y-84181250D03*
D16*
X257759200Y-85681250D03*
%TD*%
D19*
%TO.C,D28*%
X138906250Y-100964000D03*
X138906250Y-97664000D03*
%TD*%
%TO.C,D3*%
X48418750Y-62864000D03*
X48418750Y-59564000D03*
%TD*%
D16*
%TO.C,LED_;1*%
X243471700Y-103231250D03*
X243471700Y-104731250D03*
D17*
X248653300Y-104731250D03*
D16*
X248653300Y-103231250D03*
%TD*%
D19*
%TO.C,D25*%
X124618750Y-43814000D03*
X124618750Y-40514000D03*
%TD*%
D16*
%TO.C,LED_End1*%
X348665800Y-85681250D03*
X348665800Y-84181250D03*
D18*
X343484200Y-84181250D03*
D16*
X343484200Y-85681250D03*
%TD*%
%TO.C,LED_TAB1*%
X48628300Y-85681250D03*
X48628300Y-84181250D03*
D18*
X43446700Y-84181250D03*
D16*
X43446700Y-85681250D03*
%TD*%
D19*
%TO.C,D73*%
X277368000Y-43814000D03*
X277368000Y-40514000D03*
%TD*%
D16*
%TO.C,LED_ENTER1*%
X293477950Y-103231250D03*
X293477950Y-104731250D03*
D17*
X298659550Y-104731250D03*
D16*
X298659550Y-103231250D03*
%TD*%
%TO.C,LED_H1*%
X167271700Y-103231250D03*
X167271700Y-104731250D03*
D17*
X172453300Y-104731250D03*
D16*
X172453300Y-103231250D03*
%TD*%
%TO.C,LED_Q1*%
X72440800Y-85681250D03*
X72440800Y-84181250D03*
D18*
X67259200Y-84181250D03*
D16*
X67259200Y-85681250D03*
%TD*%
%TO.C,LED_J1*%
X186321700Y-103231250D03*
X186321700Y-104731250D03*
D17*
X191503300Y-104731250D03*
D16*
X191503300Y-103231250D03*
%TD*%
%TO.C,LED_C1*%
X124707050Y-123781250D03*
X124707050Y-122281250D03*
D18*
X119525450Y-122281250D03*
D16*
X119525450Y-123781250D03*
%TD*%
D19*
%TO.C,D35*%
X167481250Y-120014000D03*
X167481250Y-116714000D03*
%TD*%
%TO.C,D58*%
X234156250Y-100964000D03*
X234156250Y-97664000D03*
%TD*%
D30*
%TO.C,U1*%
X52905000Y-41887500D03*
X52905000Y-42537500D03*
X52905000Y-43187500D03*
X52905000Y-43837500D03*
D31*
X48695000Y-43837500D03*
X48695000Y-43187500D03*
X48695000Y-42537500D03*
X48695000Y-41887500D03*
%TD*%
D16*
%TO.C,LED_R1*%
X129590800Y-85681250D03*
X129590800Y-84181250D03*
D18*
X124409200Y-84181250D03*
D16*
X124409200Y-85681250D03*
%TD*%
%TO.C,LED_LCTRL1*%
X41065450Y-141331250D03*
X41065450Y-142831250D03*
D17*
X46247050Y-142831250D03*
D16*
X46247050Y-141331250D03*
%TD*%
%TO.C,LED_3*%
X95834200Y-65131250D03*
X95834200Y-66631250D03*
D17*
X101015800Y-66631250D03*
D16*
X101015800Y-65131250D03*
%TD*%
D32*
%TO.C,SW1*%
X134862500Y-134675000D03*
X128662500Y-138375000D03*
X134862500Y-138375000D03*
X128662500Y-134675000D03*
%TD*%
D16*
%TO.C,LED_F7*%
X177215800Y-47581250D03*
X177215800Y-46081250D03*
D18*
X172034200Y-46081250D03*
D16*
X172034200Y-47581250D03*
%TD*%
D19*
%TO.C,D45*%
X191293750Y-81914000D03*
X191293750Y-78614000D03*
%TD*%
%TO.C,D74*%
X277018750Y-62864000D03*
X277018750Y-59564000D03*
%TD*%
%TO.C,D82*%
X334168750Y-100964000D03*
X334168750Y-97664000D03*
%TD*%
%TO.C,D57*%
X229393750Y-81914000D03*
X229393750Y-78614000D03*
%TD*%
D16*
%TO.C,LED_/1*%
X258178300Y-123781250D03*
X258178300Y-122281250D03*
D18*
X252996700Y-122281250D03*
D16*
X252996700Y-123781250D03*
%TD*%
D19*
%TO.C,D56*%
X219868750Y-62864000D03*
X219868750Y-59564000D03*
%TD*%
D28*
%TO.C,R1*%
X338018750Y-73818750D03*
X339843750Y-73818750D03*
%TD*%
D33*
%TO.C,C10*%
X337981250Y-70643750D03*
X339881250Y-70643750D03*
%TD*%
D19*
%TO.C,D83*%
X353218750Y-120014000D03*
X353218750Y-116714000D03*
%TD*%
D16*
%TO.C,LED_8*%
X191084200Y-65131250D03*
X191084200Y-66631250D03*
D17*
X196265800Y-66631250D03*
D16*
X196265800Y-65131250D03*
%TD*%
D33*
%TO.C,C1*%
X145100000Y-136525000D03*
X147000000Y-136525000D03*
%TD*%
D16*
%TO.C,LED_1*%
X57734200Y-65131250D03*
X57734200Y-66631250D03*
D17*
X62915800Y-66631250D03*
D16*
X62915800Y-65131250D03*
%TD*%
D29*
%TO.C,R2*%
X48418750Y-55419000D03*
X48418750Y-53594000D03*
%TD*%
D19*
%TO.C,D42*%
X284162500Y-139064000D03*
X284162500Y-135764000D03*
%TD*%
D16*
%TO.C,LED_U1*%
X186740800Y-85681250D03*
X186740800Y-84181250D03*
D18*
X181559200Y-84181250D03*
D16*
X181559200Y-85681250D03*
%TD*%
D19*
%TO.C,D16*%
X100806250Y-100964000D03*
X100806250Y-97664000D03*
%TD*%
D34*
%TO.C,Q1*%
X135196250Y-132162500D03*
X135196250Y-131362500D03*
D35*
X136266250Y-131762500D03*
%TD*%
D16*
%TO.C,LED_O1*%
X224840800Y-85681250D03*
X224840800Y-84181250D03*
D18*
X219659200Y-84181250D03*
D16*
X219659200Y-85681250D03*
%TD*%
D19*
%TO.C,D69*%
X267493750Y-81914000D03*
X267493750Y-78614000D03*
%TD*%
%TO.C,D4*%
X67468750Y-62864000D03*
X67468750Y-59564000D03*
%TD*%
D16*
%TO.C,LED_F12*%
X272465800Y-47581250D03*
X272465800Y-46081250D03*
D18*
X267284200Y-46081250D03*
D16*
X267284200Y-47581250D03*
%TD*%
D19*
%TO.C,D87*%
X334168750Y-81914000D03*
X334168750Y-78614000D03*
%TD*%
D16*
%TO.C,LED_W1*%
X91490800Y-85681250D03*
X91490800Y-84181250D03*
D18*
X86309200Y-84181250D03*
D16*
X86309200Y-85681250D03*
%TD*%
%TO.C,LED_4*%
X114884200Y-65131250D03*
X114884200Y-66631250D03*
D17*
X120065800Y-66631250D03*
D16*
X120065800Y-65131250D03*
%TD*%
%TO.C,LED_X1*%
X105778300Y-123781250D03*
X105778300Y-122281250D03*
D18*
X100596700Y-122281250D03*
D16*
X100596700Y-123781250D03*
%TD*%
%TO.C,LED_LALT1*%
X88690450Y-141331250D03*
X88690450Y-142831250D03*
D17*
X93872050Y-142831250D03*
D16*
X93872050Y-141331250D03*
%TD*%
D19*
%TO.C,D50*%
X200818750Y-62864000D03*
X200818750Y-59564000D03*
%TD*%
%TO.C,D43*%
X181768750Y-43814000D03*
X181768750Y-40514000D03*
%TD*%
%TO.C,D54*%
X334168750Y-139064000D03*
X334168750Y-135764000D03*
%TD*%
%TO.C,D46*%
X196056250Y-100964000D03*
X196056250Y-97664000D03*
%TD*%
D16*
%TO.C,LED_F3*%
X101015800Y-47581250D03*
X101015800Y-46081250D03*
D18*
X95834200Y-46081250D03*
D16*
X95834200Y-47581250D03*
%TD*%
D19*
%TO.C,D68*%
X257968750Y-62864000D03*
X257968750Y-59564000D03*
%TD*%
%TO.C,D31*%
X143668750Y-43814000D03*
X143668750Y-40514000D03*
%TD*%
D36*
%TO.C,U3*%
X177606000Y-128437000D03*
X178106000Y-128437000D03*
X178606000Y-128437000D03*
X179106000Y-128437000D03*
X179606000Y-128437000D03*
X180106000Y-128437000D03*
X180606000Y-128437000D03*
X181106000Y-128437000D03*
X181606000Y-128437000D03*
X182106000Y-128437000D03*
X182606000Y-128437000D03*
X183106000Y-128437000D03*
X183606000Y-128437000D03*
X184106000Y-128437000D03*
X184606000Y-128437000D03*
X185106000Y-128437000D03*
D37*
X187031000Y-130362000D03*
X187031000Y-130862000D03*
X187031000Y-131362000D03*
X187031000Y-131862000D03*
X187031000Y-132362000D03*
X187031000Y-132862000D03*
X187031000Y-133362000D03*
X187031000Y-133862000D03*
X187031000Y-134362000D03*
X187031000Y-134862000D03*
X187031000Y-135362000D03*
X187031000Y-135862000D03*
X187031000Y-136362000D03*
X187031000Y-136862000D03*
X187031000Y-137362000D03*
X187031000Y-137862000D03*
D36*
X185106000Y-139787000D03*
X184606000Y-139787000D03*
X184106000Y-139787000D03*
X183606000Y-139787000D03*
X183106000Y-139787000D03*
X182606000Y-139787000D03*
X182106000Y-139787000D03*
X181606000Y-139787000D03*
X181106000Y-139787000D03*
X180606000Y-139787000D03*
X180106000Y-139787000D03*
X179606000Y-139787000D03*
X179106000Y-139787000D03*
X178606000Y-139787000D03*
X178106000Y-139787000D03*
X177606000Y-139787000D03*
D37*
X175681000Y-137862000D03*
X175681000Y-137362000D03*
X175681000Y-136862000D03*
X175681000Y-136362000D03*
X175681000Y-135862000D03*
X175681000Y-135362000D03*
X175681000Y-134862000D03*
X175681000Y-134362000D03*
X175681000Y-133862000D03*
X175681000Y-133362000D03*
X175681000Y-132862000D03*
X175681000Y-132362000D03*
X175681000Y-131862000D03*
X175681000Y-131362000D03*
X175681000Y-130862000D03*
X175681000Y-130362000D03*
%TD*%
D19*
%TO.C,D65*%
X262731250Y-120014000D03*
X262731250Y-116714000D03*
%TD*%
%TO.C,D81*%
X310356250Y-81914000D03*
X310356250Y-78614000D03*
%TD*%
%TO.C,D92*%
X353218750Y-62864000D03*
X353218750Y-59564000D03*
%TD*%
%TO.C,D19*%
X105568750Y-43814000D03*
X105568750Y-40514000D03*
%TD*%
D16*
%TO.C,LED_'1*%
X262521700Y-103231250D03*
X262521700Y-104731250D03*
D17*
X267703300Y-104731250D03*
D16*
X267703300Y-103231250D03*
%TD*%
D19*
%TO.C,D44*%
X181768750Y-62864000D03*
X181768750Y-59564000D03*
%TD*%
D16*
%TO.C,LED_RCTRL1*%
X274427950Y-141331250D03*
X274427950Y-142831250D03*
D17*
X279609550Y-142831250D03*
D16*
X279609550Y-141331250D03*
%TD*%
D19*
%TO.C,D49*%
X200818750Y-43814000D03*
X200818750Y-40514000D03*
%TD*%
D20*
%TO.C,R10*%
X138112500Y-129262500D03*
X138112500Y-131087500D03*
%TD*%
D16*
%TO.C,LED_D1*%
X110242950Y-103231250D03*
X110242950Y-104731250D03*
D17*
X115424550Y-104731250D03*
D16*
X115424550Y-103231250D03*
%TD*%
D19*
%TO.C,D53*%
X224631250Y-120014000D03*
X224631250Y-116714000D03*
%TD*%
%TO.C,D6*%
X55562500Y-100964000D03*
X55562500Y-97664000D03*
%TD*%
D16*
%TO.C,LED_RALT1*%
X226802950Y-141331250D03*
X226802950Y-142831250D03*
D17*
X231984550Y-142831250D03*
D16*
X231984550Y-141331250D03*
%TD*%
D19*
%TO.C,D2*%
X67468750Y-43814000D03*
X67468750Y-40514000D03*
%TD*%
D16*
%TO.C,LED_RWIN1*%
X250615450Y-141331250D03*
X250615450Y-142831250D03*
D17*
X255797050Y-142831250D03*
D16*
X255797050Y-141331250D03*
%TD*%
D38*
%TO.C,R9*%
X338653125Y-55165625D03*
X336828125Y-55165625D03*
%TD*%
D19*
%TO.C,D64*%
X253206250Y-100964000D03*
X253206250Y-97664000D03*
%TD*%
%TO.C,D36*%
X260350000Y-139064000D03*
X260350000Y-135764000D03*
%TD*%
D39*
%TO.C,D1*%
X39487750Y-34194250D03*
X36187750Y-34194250D03*
%TD*%
D16*
%TO.C,LED_F4*%
X120065800Y-47581250D03*
X120065800Y-46081250D03*
D18*
X114884200Y-46081250D03*
D16*
X114884200Y-47581250D03*
%TD*%
%TO.C,LED_2*%
X76784200Y-65131250D03*
X76784200Y-66631250D03*
D17*
X81965800Y-66631250D03*
D16*
X81965800Y-65131250D03*
%TD*%
%TO.C,LED_V1*%
X143878300Y-123781250D03*
X143878300Y-122281250D03*
D18*
X138696700Y-122281250D03*
D16*
X138696700Y-123781250D03*
%TD*%
%TO.C,LED_N1*%
X181978300Y-123781250D03*
X181978300Y-122281250D03*
D18*
X176796700Y-122281250D03*
D16*
X176796700Y-123781250D03*
%TD*%
D19*
%TO.C,D27*%
X134143750Y-81914000D03*
X134143750Y-78614000D03*
%TD*%
D16*
%TO.C,LED_BckSpace1*%
X295859200Y-65131250D03*
X295859200Y-66631250D03*
D17*
X301040800Y-66631250D03*
D16*
X301040800Y-65131250D03*
%TD*%
D19*
%TO.C,D59*%
X243681250Y-120014000D03*
X243681250Y-116714000D03*
%TD*%
D16*
%TO.C,LED_LWIN1*%
X64877950Y-141331250D03*
X64877950Y-142831250D03*
D17*
X70059550Y-142831250D03*
D16*
X70059550Y-141331250D03*
%TD*%
%TO.C,LED_A1*%
X72021700Y-103231250D03*
X72021700Y-104731250D03*
D17*
X77203300Y-104731250D03*
D16*
X77203300Y-103231250D03*
%TD*%
%TO.C,LED_PGDN1*%
X348665800Y-123781250D03*
X348665800Y-122281250D03*
D18*
X343484200Y-122281250D03*
D16*
X343484200Y-123781250D03*
%TD*%
D19*
%TO.C,D9*%
X76993750Y-81914000D03*
X76993750Y-78614000D03*
%TD*%
%TO.C,D37*%
X162718750Y-43814000D03*
X162718750Y-40514000D03*
%TD*%
%TO.C,D17*%
X110331250Y-120014000D03*
X110331250Y-116714000D03*
%TD*%
%TO.C,D70*%
X272256250Y-100964000D03*
X272256250Y-97664000D03*
%TD*%
%TO.C,D8*%
X50800000Y-139064000D03*
X50800000Y-135764000D03*
%TD*%
D33*
%TO.C,C11*%
X48580000Y-40005000D03*
X50480000Y-40005000D03*
%TD*%
D16*
%TO.C,LED_S1*%
X91071700Y-103231250D03*
X91071700Y-104731250D03*
D17*
X96253300Y-104731250D03*
D16*
X96253300Y-103231250D03*
%TD*%
D19*
%TO.C,D75*%
X286543750Y-81914000D03*
X286543750Y-78614000D03*
%TD*%
D16*
%TO.C,LED_Esc1*%
X43865800Y-47581250D03*
X43865800Y-46081250D03*
D18*
X38684200Y-46081250D03*
D16*
X38684200Y-47581250D03*
%TD*%
D33*
%TO.C,C8*%
X336790625Y-51990625D03*
X338690625Y-51990625D03*
%TD*%
D19*
%TO.C,D30*%
X236537500Y-139064000D03*
X236537500Y-135764000D03*
%TD*%
D40*
%TO.C,C12*%
X46355000Y-45146000D03*
X46355000Y-43246000D03*
%TD*%
D41*
%TO.C,D93*%
X353187000Y-81914000D03*
X353187000Y-78614000D03*
%TD*%
D19*
%TO.C,D88*%
X353218750Y-100964000D03*
X353218750Y-97664000D03*
%TD*%
M02*
