M48
; DRILL file {KiCad 9.0.4} date 2025-09-14T19:43:05+0100
; FORMAT={-:-/ absolute / inch / decimal}
; #@! TF.CreationDate,2025-09-14T19:43:05+01:00
; #@! TF.GenerationSoftware,Kicad,Pcbnew,9.0.4
; #@! TF.FileFunction,NonPlated,1,2,NPTH
FMAT,2
INCH
; #@! TA.AperFunction,NonPlated,NPTH,ComponentDrill
T1C0.0256
; #@! TA.AperFunction,NonPlated,NPTH,ComponentDrill
T2C0.0689
; #@! TA.AperFunction,NonPlated,NPTH,ComponentDrill
T3C0.1200
; #@! TA.AperFunction,NonPlated,NPTH,ComponentDrill
T4C0.1570
%
G90
G05
T1
X1.8712Y-1.4394
X2.0988Y-1.4394
T2
X1.425Y-1.6262
X1.425Y-2.3762
X1.5188Y-5.375
X1.6125Y-3.125
X1.7063Y-3.875
X1.825Y-1.6262
X1.825Y-2.3762
X1.8938Y-4.625
X1.9187Y-5.375
X2.0125Y-3.125
X2.1062Y-3.875
X2.175Y-1.6262
X2.175Y-2.3762
X2.2937Y-4.625
X2.4562Y-5.375
X2.55Y-3.125
X2.575Y-1.6262
X2.575Y-2.3762
X2.7375Y-3.875
X2.8562Y-5.375
X2.925Y-1.6262
X2.925Y-2.3762
X2.95Y-3.125
X3.1125Y-4.625
X3.1375Y-3.875
X3.3Y-3.125
X3.325Y-1.6262
X3.325Y-2.3762
X3.3937Y-5.375
X3.4875Y-3.875
X3.5125Y-4.625
X3.675Y-1.6262
X3.675Y-2.375
X3.7Y-3.125
X3.7937Y-5.375
X3.8625Y-4.625
X3.8875Y-3.875
X4.05Y-3.125
X4.075Y-1.6262
X4.075Y-2.375
X4.2375Y-3.875
X4.2625Y-4.625
X4.425Y-1.6262
X4.425Y-2.375
X4.45Y-3.125
X4.6125Y-4.625
X4.6375Y-3.875
X4.8Y-3.125
X4.825Y-1.6262
X4.825Y-2.375
X4.9875Y-3.875
X5.0125Y-4.625
X5.175Y-1.625
X5.175Y-2.375
X5.2Y-3.125
X5.3625Y-4.625
X5.3875Y-3.875
X5.55Y-3.125
X5.575Y-1.625
X5.575Y-2.375
X5.7375Y-3.875
X5.7625Y-4.625
X5.925Y-1.625
X5.925Y-2.375
X5.95Y-3.125
X6.1125Y-4.625
X6.1125Y-5.375
X6.1375Y-3.875
X6.3Y-3.125
X6.325Y-1.625
X6.325Y-2.375
X6.4875Y-3.875
X6.5125Y-4.625
X6.5125Y-5.375
X6.675Y-1.625
X6.675Y-2.375
X6.7Y-3.125
X6.8625Y-4.625
X6.8875Y-3.875
X7.05Y-3.125
X7.075Y-1.625
X7.075Y-2.375
X7.2375Y-3.875
X7.2625Y-4.625
X7.425Y-1.6262
X7.425Y-2.375
X7.45Y-3.125
X7.6125Y-4.625
X7.6375Y-3.875
X7.8Y-3.125
X7.825Y-1.6262
X7.825Y-2.375
X7.9875Y-3.875
X8.0125Y-4.625
X8.175Y-1.625
X8.175Y-2.375
X8.2Y-3.125
X8.3625Y-4.625
X8.3875Y-3.875
X8.55Y-3.125
X8.575Y-1.625
X8.575Y-2.375
X8.7375Y-3.875
X8.7625Y-4.625
X8.8312Y-5.375
X8.925Y-1.625
X8.925Y-2.375
X8.95Y-3.125
X9.1125Y-4.625
X9.1375Y-3.875
X9.2312Y-5.375
X9.3Y-3.125
X9.325Y-1.625
X9.325Y-2.375
X9.4875Y-3.875
X9.5125Y-4.625
X9.675Y-1.6262
X9.675Y-2.375
X9.7Y-3.125
X9.7687Y-5.375
X9.8625Y-4.625
X9.8875Y-3.875
X10.05Y-3.125
X10.075Y-1.6262
X10.075Y-2.375
X10.1687Y-5.375
X10.2375Y-3.875
X10.2625Y-4.625
X10.425Y-1.625
X10.425Y-2.375
X10.45Y-3.125
X10.6375Y-3.875
X10.7062Y-5.375
X10.8Y-3.125
X10.825Y-1.625
X10.825Y-2.375
X11.1062Y-5.375
X11.2Y-3.125
X11.2687Y-4.625
X11.4562Y-3.875
X11.55Y-2.375
X11.6687Y-4.625
X11.7375Y-3.125
X11.8562Y-3.875
X11.925Y-5.375
X11.95Y-2.375
X12.1375Y-3.125
X12.325Y-5.375
X12.675Y-2.375
X12.675Y-3.125
X12.675Y-3.875
X12.675Y-4.625
X12.675Y-5.375
X13.075Y-2.375
X13.075Y-3.125
X13.075Y-3.875
X13.075Y-4.625
X13.075Y-5.375
X13.425Y-2.375
X13.425Y-3.125
X13.425Y-3.875
X13.425Y-4.625
X13.425Y-5.375
X13.825Y-2.375
X13.825Y-3.125
X13.825Y-3.875
X13.825Y-4.625
X13.825Y-5.375
T3
X1.6238Y-4.35
X2.5637Y-4.35
X4.4375Y-5.1
X8.1875Y-5.1
X10.9987Y-4.35
X11.1862Y-3.6
X11.28Y-2.1
X11.9387Y-4.35
X12.1262Y-3.6
X12.22Y-2.1
T4
X1.6238Y-4.95
X1.625Y-1.6262
X1.625Y-2.3762
X1.7188Y-5.375
X1.8125Y-3.125
X1.9062Y-3.875
X2.0938Y-4.625
X2.375Y-1.6262
X2.375Y-2.3762
X2.5637Y-4.95
X2.6562Y-5.375
X2.75Y-3.125
X2.9375Y-3.875
X3.125Y-1.6262
X3.125Y-2.3762
X3.3125Y-4.625
X3.5Y-3.125
X3.5938Y-5.375
X3.6875Y-3.875
X3.875Y-1.6262
X3.875Y-2.375
X4.0625Y-4.625
X4.25Y-3.125
X4.4375Y-3.875
X4.4375Y-5.7
X4.625Y-1.6262
X4.625Y-2.375
X4.8125Y-4.625
X5.0Y-3.125
X5.1875Y-3.875
X5.375Y-1.625
X5.375Y-2.375
X5.5625Y-4.625
X5.75Y-3.125
X5.9375Y-3.875
X6.125Y-1.625
X6.125Y-2.375
X6.3125Y-4.625
X6.3125Y-5.375
X6.5Y-3.125
X6.6875Y-3.875
X6.875Y-1.625
X6.875Y-2.375
X7.0625Y-4.625
X7.25Y-3.125
X7.4375Y-3.875
X7.625Y-1.6262
X7.625Y-2.375
X7.8125Y-4.625
X8.0Y-3.125
X8.1875Y-3.875
X8.1875Y-5.7
X8.375Y-1.625
X8.375Y-2.375
X8.5625Y-4.625
X8.75Y-3.125
X8.9375Y-3.875
X9.0312Y-5.375
X9.125Y-1.625
X9.125Y-2.375
X9.3125Y-4.625
X9.5Y-3.125
X9.6875Y-3.875
X9.875Y-1.6262
X9.875Y-2.375
X9.9688Y-5.375
X10.0625Y-4.625
X10.25Y-3.125
X10.4375Y-3.875
X10.625Y-1.625
X10.625Y-2.375
X10.9062Y-5.375
X10.9987Y-4.95
X11.0Y-3.125
X11.1862Y-4.2
X11.28Y-2.7
X11.4688Y-4.625
X11.6562Y-3.875
X11.75Y-2.375
X11.9375Y-3.125
X11.9387Y-4.95
X12.125Y-5.375
X12.1262Y-4.2
X12.22Y-2.7
X12.875Y-2.375
X12.875Y-3.125
X12.875Y-3.875
X12.875Y-4.625
X12.875Y-5.375
X13.625Y-2.375
X13.625Y-3.125
X13.625Y-3.875
X13.625Y-4.625
X13.625Y-5.375
M30
