M48
; DRILL file {KiCad 9.0.4} date 2025-09-14T19:43:05+0100
; FORMAT={-:-/ absolute / inch / decimal}
; #@! TF.CreationDate,2025-09-14T19:43:05+01:00
; #@! TF.GenerationSoftware,Kicad,Pcbnew,9.0.4
; #@! TF.FileFunction,Plated,1,2,PTH
FMAT,2
INCH
; #@! TA.AperFunction,Plated,PTH,ViaDrill
T1C0.0157
; #@! TA.AperFunction,Plated,PTH,ComponentDrill
T2C0.0236
; #@! TA.AperFunction,Plated,PTH,ComponentDrill
T3C0.0394
; #@! TA.AperFunction,Plated,PTH,ComponentDrill
T4C0.0579
; #@! TA.AperFunction,Plated,PTH,ComponentDrill
T5C0.1732
%
G90
G05
T1
X1.3445Y-2.4928
X1.3594Y-1.3438
X1.3594Y-1.875
X1.3757Y-3.2438
X1.4062Y-1.8125
X1.4062Y-1.9688
X1.4219Y-4.1863
X1.4375Y-2.625
X1.4375Y-3.375
X1.4759Y-2.6875
X1.5Y-3.3125
X1.5Y-4.144
X1.5Y-4.7188
X1.7188Y-4.125
X1.7188Y-4.875
X1.7611Y-1.585
X1.8438Y-1.875
X1.855Y-2.025
X1.9Y-1.415
X1.9062Y-5.475
X1.9375Y-1.8467
X1.96Y-1.415
X2.0169Y-2.2487
X2.04Y-1.415
X2.085Y-2.06
X2.0938Y-3.975
X2.0938Y-4.2188
X2.125Y-1.7812
X2.1875Y-1.8125
X2.1875Y-1.9688
X2.1875Y-2.1562
X2.2188Y-1.3281
X2.2188Y-1.4062
X2.2188Y-4.725
X2.2812Y-4.2512
X2.4688Y-3.45
X2.4688Y-3.5071
X2.4688Y-3.5543
X2.5466Y-1.719
X2.5469Y-1.9195
X2.8125Y-1.3438
X2.8125Y-1.7656
X4.777Y-5.3707
X4.8104Y-5.4041
X4.8438Y-5.4375
X4.9688Y-4.9688
X4.9688Y-5.4264
X5.1875Y-4.3438
X5.375Y-4.815
X5.4375Y-5.3906
X5.5625Y-5.0397
X5.5781Y-5.3906
X5.7188Y-4.9665
X6.1489Y-5.1177
X6.3281Y-4.2516
X6.3281Y-4.2969
X6.3594Y-4.2011
X6.4112Y-3.5489
X6.415Y-3.475
X6.4252Y-3.6146
X6.5312Y-4.9633
X6.5312Y-5.1562
X6.5933Y-5.2642
X6.5938Y-4.9997
X6.5938Y-5.1562
X6.5938Y-5.217
X6.5948Y-5.3114
X6.625Y-4.3125
X6.7326Y-5.4276
X6.7656Y-5.5156
X6.7656Y-5.5625
X6.7672Y-4.9997
X6.8125Y-4.9997
X6.8438Y-5.5
X6.8906Y-5.0566
X7.065Y-5.6055
X7.1211Y-5.6055
X7.1433Y-3.695
X7.1589Y-3.6499
X7.1694Y-5.6055
X7.1875Y-3.6094
X7.1924Y-4.9278
X7.2188Y-5.6055
X7.2388Y-4.9576
X7.4219Y-4.9219
X7.4219Y-4.9726
X7.4219Y-5.0179
X7.4531Y-5.1406
X7.4531Y-5.4688
X7.6562Y-5.2219
X8.4062Y-5.2416
X10.4688Y-5.1875
X10.7812Y-1.9375
X11.0Y-2.518
X12.39Y-2.518
X12.39Y-3.4014
X12.39Y-4.015
X12.39Y-4.8567
X12.665Y-5.518
X13.2188Y-3.5165
X13.2656Y-2.25
X13.2656Y-3.4531
X13.3063Y-2.7188
X13.3109Y-2.9844
X13.3109Y-3.4531
X13.3372Y-2.25
X13.3372Y-2.518
X13.375Y-2.6719
X13.375Y-2.9844
X13.375Y-3.4206
X13.4062Y-2.0469
X13.498Y-2.7188
X13.8125Y-2.5625
X13.8125Y-3.3125
X13.8125Y-4.0625
X13.8125Y-4.8125
X13.8125Y-5.5625
X13.8281Y-1.9531
X13.9219Y-1.9844
T3
X13.3414Y-1.5266
X13.3414Y-1.7234
X13.9123Y-1.5266
X13.9123Y-1.625
X13.9123Y-1.7234
T4
X1.475Y-1.5262
X1.475Y-2.2762
X1.5266Y-1.4688
X1.5266Y-2.2188
X1.5687Y-5.275
X1.6203Y-5.2175
X1.6625Y-3.025
X1.7141Y-2.9675
X1.7234Y-1.4491
X1.7234Y-2.1991
X1.725Y-1.4262
X1.725Y-2.1762
X1.7562Y-3.775
X1.8078Y-3.7175
X1.8172Y-5.1978
X1.8187Y-5.175
X1.9109Y-2.9478
X1.9125Y-2.925
X1.9437Y-4.525
X1.9953Y-4.4675
X2.0047Y-3.6978
X2.0063Y-3.675
X2.1922Y-4.4478
X2.1938Y-4.425
X2.225Y-1.5262
X2.225Y-2.2762
X2.2766Y-1.4688
X2.2766Y-2.2188
X2.4734Y-1.4491
X2.4734Y-2.1991
X2.475Y-1.4262
X2.475Y-2.1762
X2.5063Y-5.275
X2.5578Y-5.2175
X2.6Y-3.025
X2.6516Y-2.9675
X2.7547Y-5.1978
X2.7563Y-5.175
X2.7875Y-3.775
X2.8391Y-3.7175
X2.8484Y-2.9478
X2.85Y-2.925
X2.975Y-1.5262
X2.975Y-2.2762
X3.0266Y-1.4688
X3.0266Y-2.2188
X3.0359Y-3.6978
X3.0375Y-3.675
X3.1625Y-4.525
X3.2141Y-4.4675
X3.2234Y-1.4491
X3.2234Y-2.1991
X3.225Y-1.4262
X3.225Y-2.1762
X3.35Y-3.025
X3.4016Y-2.9675
X3.4109Y-4.4478
X3.4125Y-4.425
X3.4438Y-5.275
X3.4953Y-5.2175
X3.5375Y-3.775
X3.5891Y-3.7175
X3.5984Y-2.9478
X3.6Y-2.925
X3.6922Y-5.1978
X3.6938Y-5.175
X3.725Y-1.5262
X3.725Y-2.275
X3.7766Y-1.4688
X3.7766Y-2.2175
X3.7859Y-3.6978
X3.7875Y-3.675
X3.9125Y-4.525
X3.9641Y-4.4675
X3.9734Y-1.4491
X3.9734Y-2.1978
X3.975Y-1.4262
X3.975Y-2.175
X4.1Y-3.025
X4.1516Y-2.9675
X4.1609Y-4.4478
X4.1625Y-4.425
X4.2875Y-3.775
X4.3391Y-3.7175
X4.3484Y-2.9478
X4.35Y-2.925
X4.475Y-1.5262
X4.475Y-2.275
X4.5266Y-1.4688
X4.5266Y-2.2175
X4.5359Y-3.6978
X4.5375Y-3.675
X4.6625Y-4.525
X4.7141Y-4.4675
X4.7234Y-1.4491
X4.7234Y-2.1978
X4.725Y-1.4262
X4.725Y-2.175
X4.85Y-3.025
X4.9016Y-2.9675
X4.9109Y-4.4478
X4.9125Y-4.425
X5.0375Y-3.775
X5.0891Y-3.7175
X5.0984Y-2.9478
X5.1Y-2.925
X5.225Y-1.525
X5.225Y-2.275
X5.2766Y-1.4675
X5.2766Y-2.2175
X5.2859Y-3.6978
X5.2875Y-3.675
X5.4125Y-4.525
X5.4641Y-4.4675
X5.4734Y-1.4478
X5.4734Y-2.1978
X5.475Y-1.425
X5.475Y-2.175
X5.6Y-3.025
X5.6516Y-2.9675
X5.6609Y-4.4478
X5.6625Y-4.425
X5.7875Y-3.775
X5.8391Y-3.7175
X5.8484Y-2.9478
X5.85Y-2.925
X5.975Y-1.525
X5.975Y-2.275
X6.0266Y-1.4675
X6.0266Y-2.2175
X6.0359Y-3.6978
X6.0375Y-3.675
X6.1625Y-4.525
X6.1625Y-5.275
X6.2141Y-4.4675
X6.2141Y-5.2175
X6.2234Y-1.4478
X6.2234Y-2.1978
X6.225Y-1.425
X6.225Y-2.175
X6.35Y-3.025
X6.4016Y-2.9675
X6.4109Y-4.4478
X6.4109Y-5.1978
X6.4125Y-4.425
X6.4125Y-5.175
X6.5375Y-3.775
X6.5891Y-3.7175
X6.5984Y-2.9478
X6.6Y-2.925
X6.725Y-1.525
X6.725Y-2.275
X6.7766Y-1.4675
X6.7766Y-2.2175
X6.7859Y-3.6978
X6.7875Y-3.675
X6.9125Y-4.525
X6.9641Y-4.4675
X6.9734Y-1.4478
X6.9734Y-2.1978
X6.975Y-1.425
X6.975Y-2.175
X7.1Y-3.025
X7.1516Y-2.9675
X7.1609Y-4.4478
X7.1625Y-4.425
X7.2875Y-3.775
X7.3391Y-3.7175
X7.3484Y-2.9478
X7.35Y-2.925
X7.475Y-1.5262
X7.475Y-2.275
X7.5266Y-1.4688
X7.5266Y-2.2175
X7.5359Y-3.6978
X7.5375Y-3.675
X7.6625Y-4.525
X7.7141Y-4.4675
X7.7234Y-1.4491
X7.7234Y-2.1978
X7.725Y-1.4262
X7.725Y-2.175
X7.85Y-3.025
X7.9016Y-2.9675
X7.9109Y-4.4478
X7.9125Y-4.425
X8.0375Y-3.775
X8.0891Y-3.7175
X8.0984Y-2.9478
X8.1Y-2.925
X8.225Y-1.525
X8.225Y-2.275
X8.2766Y-1.4675
X8.2766Y-2.2175
X8.2859Y-3.6978
X8.2875Y-3.675
X8.4125Y-4.525
X8.4641Y-4.4675
X8.4734Y-1.4478
X8.4734Y-2.1978
X8.475Y-1.425
X8.475Y-2.175
X8.6Y-3.025
X8.6516Y-2.9675
X8.6609Y-4.4478
X8.6625Y-4.425
X8.7875Y-3.775
X8.8391Y-3.7175
X8.8484Y-2.9478
X8.85Y-2.925
X8.8812Y-5.275
X8.9328Y-5.2175
X8.975Y-1.525
X8.975Y-2.275
X9.0266Y-1.4675
X9.0266Y-2.2175
X9.0359Y-3.6978
X9.0375Y-3.675
X9.1297Y-5.1978
X9.1312Y-5.175
X9.1625Y-4.525
X9.2141Y-4.4675
X9.2234Y-1.4478
X9.2234Y-2.1978
X9.225Y-1.425
X9.225Y-2.175
X9.35Y-3.025
X9.4016Y-2.9675
X9.4109Y-4.4478
X9.4125Y-4.425
X9.5375Y-3.775
X9.5891Y-3.7175
X9.5984Y-2.9478
X9.6Y-2.925
X9.725Y-1.5262
X9.725Y-2.275
X9.7766Y-1.4688
X9.7766Y-2.2175
X9.7859Y-3.6978
X9.7875Y-3.675
X9.8187Y-5.275
X9.8703Y-5.2175
X9.9125Y-4.525
X9.9641Y-4.4675
X9.9734Y-1.4491
X9.9734Y-2.1978
X9.975Y-1.4262
X9.975Y-2.175
X10.0672Y-5.1978
X10.0687Y-5.175
X10.1Y-3.025
X10.1516Y-2.9675
X10.1609Y-4.4478
X10.1625Y-4.425
X10.2875Y-3.775
X10.3391Y-3.7175
X10.3484Y-2.9478
X10.35Y-2.925
X10.475Y-1.525
X10.475Y-2.275
X10.5266Y-1.4675
X10.5266Y-2.2175
X10.5359Y-3.6978
X10.5375Y-3.675
X10.7234Y-1.4478
X10.7234Y-2.1978
X10.725Y-1.425
X10.725Y-2.175
X10.7562Y-5.275
X10.8078Y-5.2175
X10.85Y-3.025
X10.9016Y-2.9675
X11.0047Y-5.1978
X11.0062Y-5.175
X11.0984Y-2.9478
X11.1Y-2.925
X11.3187Y-4.525
X11.3703Y-4.4675
X11.5062Y-3.775
X11.5578Y-3.7175
X11.5672Y-4.4478
X11.5687Y-4.425
X11.6Y-2.275
X11.6516Y-2.2175
X11.7547Y-3.6978
X11.7562Y-3.675
X11.7875Y-3.025
X11.8391Y-2.9675
X11.8484Y-2.1978
X11.85Y-2.175
X11.975Y-5.275
X12.0266Y-5.2175
X12.0359Y-2.9478
X12.0375Y-2.925
X12.2234Y-5.1978
X12.225Y-5.175
X12.725Y-2.275
X12.725Y-3.025
X12.725Y-3.775
X12.725Y-4.525
X12.725Y-5.275
X12.7766Y-2.2175
X12.7766Y-2.9675
X12.7766Y-3.7175
X12.7766Y-4.4675
X12.7766Y-5.2175
X12.9734Y-2.1978
X12.9734Y-2.9478
X12.9734Y-3.6978
X12.9734Y-4.4478
X12.9734Y-5.1978
X12.975Y-2.175
X12.975Y-2.925
X12.975Y-3.675
X12.975Y-4.425
X12.975Y-5.175
X13.475Y-2.275
X13.475Y-3.025
X13.475Y-3.775
X13.475Y-4.525
X13.475Y-5.275
X13.5266Y-2.2175
X13.5266Y-2.9675
X13.5266Y-3.7175
X13.5266Y-4.4675
X13.5266Y-5.2175
X13.7234Y-2.1978
X13.7234Y-2.9478
X13.7234Y-3.6978
X13.7234Y-4.4478
X13.7234Y-5.1978
X13.725Y-2.175
X13.725Y-2.925
X13.725Y-3.675
X13.725Y-4.425
X13.725Y-5.175
T5
X13.617Y-1.4006
X13.617Y-1.8494
T2
G00X1.8149Y-1.2787
M15
G01X1.8149Y-1.3102
M16
G05
G00X1.8149Y-1.4382
M15
G01X1.8149Y-1.4815
M16
G05
G00X2.1551Y-1.2787
M15
G01X2.1551Y-1.3102
M16
G05
G00X2.1551Y-1.4382
M15
G01X2.1551Y-1.4815
M16
G05
M30
