%TF.GenerationSoftware,KiCad,Pcbnew,9.0.4*%
%TF.CreationDate,2025-09-14T19:43:05+01:00*%
%TF.ProjectId,keyboard,6b657962-6f61-4726-942e-6b696361645f,rev?*%
%TF.SameCoordinates,Original*%
%TF.FileFunction,Legend,Top*%
%TF.FilePolarity,Positive*%
%FSLAX46Y46*%
G04 Gerber Fmt 4.6, Leading zero omitted, Abs format (unit mm)*
G04 Created by KiCad (PCBNEW 9.0.4) date 2025-09-14 19:43:05*
%MOMM*%
%LPD*%
G01*
G04 APERTURE LIST*
%ADD10C,0.150000*%
%ADD11C,0.250000*%
%ADD12C,1.750000*%
%ADD13C,3.987800*%
%ADD14C,3.048000*%
%ADD15C,0.650000*%
%ADD16O,1.000000X1.800000*%
%ADD17O,1.000000X2.100000*%
G04 APERTURE END LIST*
D10*
X337152884Y-51540350D02*
X337152884Y-51207017D01*
X337676694Y-51064160D02*
X337676694Y-51540350D01*
X337676694Y-51540350D02*
X336676694Y-51540350D01*
X336676694Y-51540350D02*
X336676694Y-51064160D01*
X337676694Y-50635588D02*
X336676694Y-50635588D01*
X336676694Y-50635588D02*
X337676694Y-50064160D01*
X337676694Y-50064160D02*
X336676694Y-50064160D01*
X337581455Y-49016541D02*
X337629075Y-49064160D01*
X337629075Y-49064160D02*
X337676694Y-49207017D01*
X337676694Y-49207017D02*
X337676694Y-49302255D01*
X337676694Y-49302255D02*
X337629075Y-49445112D01*
X337629075Y-49445112D02*
X337533836Y-49540350D01*
X337533836Y-49540350D02*
X337438598Y-49587969D01*
X337438598Y-49587969D02*
X337248122Y-49635588D01*
X337248122Y-49635588D02*
X337105265Y-49635588D01*
X337105265Y-49635588D02*
X336914789Y-49587969D01*
X336914789Y-49587969D02*
X336819551Y-49540350D01*
X336819551Y-49540350D02*
X336724313Y-49445112D01*
X336724313Y-49445112D02*
X336676694Y-49302255D01*
X336676694Y-49302255D02*
X336676694Y-49207017D01*
X336676694Y-49207017D02*
X336724313Y-49064160D01*
X336724313Y-49064160D02*
X336771932Y-49016541D01*
X337676694Y-48064160D02*
X337676694Y-48635588D01*
X337676694Y-48349874D02*
X336676694Y-48349874D01*
X336676694Y-48349874D02*
X336819551Y-48445112D01*
X336819551Y-48445112D02*
X336914789Y-48540350D01*
X336914789Y-48540350D02*
X336962408Y-48635588D01*
X340700444Y-41729819D02*
X340700444Y-40729819D01*
X340700444Y-40729819D02*
X340929015Y-40729819D01*
X340929015Y-40729819D02*
X340986158Y-40777438D01*
X340986158Y-40777438D02*
X341014729Y-40825057D01*
X341014729Y-40825057D02*
X341043301Y-40920295D01*
X341043301Y-40920295D02*
X341043301Y-41063152D01*
X341043301Y-41063152D02*
X341014729Y-41158390D01*
X341014729Y-41158390D02*
X340986158Y-41206009D01*
X340986158Y-41206009D02*
X340929015Y-41253628D01*
X340929015Y-41253628D02*
X340700444Y-41253628D01*
X341300444Y-41206009D02*
X341500444Y-41206009D01*
X341586158Y-41729819D02*
X341300444Y-41729819D01*
X341300444Y-41729819D02*
X341300444Y-40729819D01*
X341300444Y-40729819D02*
X341586158Y-40729819D01*
X342186158Y-41634580D02*
X342157586Y-41682200D01*
X342157586Y-41682200D02*
X342071872Y-41729819D01*
X342071872Y-41729819D02*
X342014729Y-41729819D01*
X342014729Y-41729819D02*
X341929015Y-41682200D01*
X341929015Y-41682200D02*
X341871872Y-41586961D01*
X341871872Y-41586961D02*
X341843301Y-41491723D01*
X341843301Y-41491723D02*
X341814729Y-41301247D01*
X341814729Y-41301247D02*
X341814729Y-41158390D01*
X341814729Y-41158390D02*
X341843301Y-40967914D01*
X341843301Y-40967914D02*
X341871872Y-40872676D01*
X341871872Y-40872676D02*
X341929015Y-40777438D01*
X341929015Y-40777438D02*
X342014729Y-40729819D01*
X342014729Y-40729819D02*
X342071872Y-40729819D01*
X342071872Y-40729819D02*
X342157586Y-40777438D01*
X342157586Y-40777438D02*
X342186158Y-40825057D01*
X342757586Y-41729819D02*
X342414729Y-41729819D01*
X342586158Y-41729819D02*
X342586158Y-40729819D01*
X342586158Y-40729819D02*
X342529015Y-40872676D01*
X342529015Y-40872676D02*
X342471872Y-40967914D01*
X342471872Y-40967914D02*
X342414729Y-41015533D01*
X343329015Y-41729819D02*
X342986158Y-41729819D01*
X343157587Y-41729819D02*
X343157587Y-40729819D01*
X343157587Y-40729819D02*
X343100444Y-40872676D01*
X343100444Y-40872676D02*
X343043301Y-40967914D01*
X343043301Y-40967914D02*
X342986158Y-41015533D01*
X343929016Y-41729819D02*
X343729016Y-41253628D01*
X343586159Y-41729819D02*
X343586159Y-40729819D01*
X343586159Y-40729819D02*
X343814730Y-40729819D01*
X343814730Y-40729819D02*
X343871873Y-40777438D01*
X343871873Y-40777438D02*
X343900444Y-40825057D01*
X343900444Y-40825057D02*
X343929016Y-40920295D01*
X343929016Y-40920295D02*
X343929016Y-41063152D01*
X343929016Y-41063152D02*
X343900444Y-41158390D01*
X343900444Y-41158390D02*
X343871873Y-41206009D01*
X343871873Y-41206009D02*
X343814730Y-41253628D01*
X343814730Y-41253628D02*
X343586159Y-41253628D01*
X344186159Y-41348866D02*
X344643302Y-41348866D01*
X345186159Y-41063152D02*
X345186159Y-41729819D01*
X345043301Y-40682200D02*
X344900444Y-41396485D01*
X344900444Y-41396485D02*
X345271873Y-41396485D01*
X345614730Y-40729819D02*
X345671873Y-40729819D01*
X345671873Y-40729819D02*
X345729016Y-40777438D01*
X345729016Y-40777438D02*
X345757588Y-40825057D01*
X345757588Y-40825057D02*
X345786159Y-40920295D01*
X345786159Y-40920295D02*
X345814730Y-41110771D01*
X345814730Y-41110771D02*
X345814730Y-41348866D01*
X345814730Y-41348866D02*
X345786159Y-41539342D01*
X345786159Y-41539342D02*
X345757588Y-41634580D01*
X345757588Y-41634580D02*
X345729016Y-41682200D01*
X345729016Y-41682200D02*
X345671873Y-41729819D01*
X345671873Y-41729819D02*
X345614730Y-41729819D01*
X345614730Y-41729819D02*
X345557588Y-41682200D01*
X345557588Y-41682200D02*
X345529016Y-41634580D01*
X345529016Y-41634580D02*
X345500445Y-41539342D01*
X345500445Y-41539342D02*
X345471873Y-41348866D01*
X345471873Y-41348866D02*
X345471873Y-41110771D01*
X345471873Y-41110771D02*
X345500445Y-40920295D01*
X345500445Y-40920295D02*
X345529016Y-40825057D01*
X345529016Y-40825057D02*
X345557588Y-40777438D01*
X345557588Y-40777438D02*
X345614730Y-40729819D01*
X346386159Y-41729819D02*
X346043302Y-41729819D01*
X346214731Y-41729819D02*
X346214731Y-40729819D01*
X346214731Y-40729819D02*
X346157588Y-40872676D01*
X346157588Y-40872676D02*
X346100445Y-40967914D01*
X346100445Y-40967914D02*
X346043302Y-41015533D01*
X346929017Y-40729819D02*
X346643303Y-40729819D01*
X346643303Y-40729819D02*
X346614731Y-41206009D01*
X346614731Y-41206009D02*
X346643303Y-41158390D01*
X346643303Y-41158390D02*
X346700446Y-41110771D01*
X346700446Y-41110771D02*
X346843303Y-41110771D01*
X346843303Y-41110771D02*
X346900446Y-41158390D01*
X346900446Y-41158390D02*
X346929017Y-41206009D01*
X346929017Y-41206009D02*
X346957588Y-41301247D01*
X346957588Y-41301247D02*
X346957588Y-41539342D01*
X346957588Y-41539342D02*
X346929017Y-41634580D01*
X346929017Y-41634580D02*
X346900446Y-41682200D01*
X346900446Y-41682200D02*
X346843303Y-41729819D01*
X346843303Y-41729819D02*
X346700446Y-41729819D01*
X346700446Y-41729819D02*
X346643303Y-41682200D01*
X346643303Y-41682200D02*
X346614731Y-41634580D01*
X347414732Y-41206009D02*
X347214732Y-41206009D01*
X347214732Y-41729819D02*
X347214732Y-40729819D01*
X347214732Y-40729819D02*
X347500446Y-40729819D01*
X347729018Y-41348866D02*
X348186161Y-41348866D01*
X348443303Y-41682200D02*
X348529018Y-41729819D01*
X348529018Y-41729819D02*
X348671875Y-41729819D01*
X348671875Y-41729819D02*
X348729018Y-41682200D01*
X348729018Y-41682200D02*
X348757589Y-41634580D01*
X348757589Y-41634580D02*
X348786160Y-41539342D01*
X348786160Y-41539342D02*
X348786160Y-41444104D01*
X348786160Y-41444104D02*
X348757589Y-41348866D01*
X348757589Y-41348866D02*
X348729018Y-41301247D01*
X348729018Y-41301247D02*
X348671875Y-41253628D01*
X348671875Y-41253628D02*
X348557589Y-41206009D01*
X348557589Y-41206009D02*
X348500446Y-41158390D01*
X348500446Y-41158390D02*
X348471875Y-41110771D01*
X348471875Y-41110771D02*
X348443303Y-41015533D01*
X348443303Y-41015533D02*
X348443303Y-40920295D01*
X348443303Y-40920295D02*
X348471875Y-40825057D01*
X348471875Y-40825057D02*
X348500446Y-40777438D01*
X348500446Y-40777438D02*
X348557589Y-40729819D01*
X348557589Y-40729819D02*
X348700446Y-40729819D01*
X348700446Y-40729819D02*
X348786160Y-40777438D01*
X349157589Y-40729819D02*
X349214732Y-40729819D01*
X349214732Y-40729819D02*
X349271875Y-40777438D01*
X349271875Y-40777438D02*
X349300447Y-40825057D01*
X349300447Y-40825057D02*
X349329018Y-40920295D01*
X349329018Y-40920295D02*
X349357589Y-41110771D01*
X349357589Y-41110771D02*
X349357589Y-41348866D01*
X349357589Y-41348866D02*
X349329018Y-41539342D01*
X349329018Y-41539342D02*
X349300447Y-41634580D01*
X349300447Y-41634580D02*
X349271875Y-41682200D01*
X349271875Y-41682200D02*
X349214732Y-41729819D01*
X349214732Y-41729819D02*
X349157589Y-41729819D01*
X349157589Y-41729819D02*
X349100447Y-41682200D01*
X349100447Y-41682200D02*
X349071875Y-41634580D01*
X349071875Y-41634580D02*
X349043304Y-41539342D01*
X349043304Y-41539342D02*
X349014732Y-41348866D01*
X349014732Y-41348866D02*
X349014732Y-41110771D01*
X349014732Y-41110771D02*
X349043304Y-40920295D01*
X349043304Y-40920295D02*
X349071875Y-40825057D01*
X349071875Y-40825057D02*
X349100447Y-40777438D01*
X349100447Y-40777438D02*
X349157589Y-40729819D01*
X349729018Y-40729819D02*
X349786161Y-40729819D01*
X349786161Y-40729819D02*
X349843304Y-40777438D01*
X349843304Y-40777438D02*
X349871876Y-40825057D01*
X349871876Y-40825057D02*
X349900447Y-40920295D01*
X349900447Y-40920295D02*
X349929018Y-41110771D01*
X349929018Y-41110771D02*
X349929018Y-41348866D01*
X349929018Y-41348866D02*
X349900447Y-41539342D01*
X349900447Y-41539342D02*
X349871876Y-41634580D01*
X349871876Y-41634580D02*
X349843304Y-41682200D01*
X349843304Y-41682200D02*
X349786161Y-41729819D01*
X349786161Y-41729819D02*
X349729018Y-41729819D01*
X349729018Y-41729819D02*
X349671876Y-41682200D01*
X349671876Y-41682200D02*
X349643304Y-41634580D01*
X349643304Y-41634580D02*
X349614733Y-41539342D01*
X349614733Y-41539342D02*
X349586161Y-41348866D01*
X349586161Y-41348866D02*
X349586161Y-41110771D01*
X349586161Y-41110771D02*
X349614733Y-40920295D01*
X349614733Y-40920295D02*
X349643304Y-40825057D01*
X349643304Y-40825057D02*
X349671876Y-40777438D01*
X349671876Y-40777438D02*
X349729018Y-40729819D01*
X350157590Y-40825057D02*
X350186162Y-40777438D01*
X350186162Y-40777438D02*
X350243305Y-40729819D01*
X350243305Y-40729819D02*
X350386162Y-40729819D01*
X350386162Y-40729819D02*
X350443305Y-40777438D01*
X350443305Y-40777438D02*
X350471876Y-40825057D01*
X350471876Y-40825057D02*
X350500447Y-40920295D01*
X350500447Y-40920295D02*
X350500447Y-41015533D01*
X350500447Y-41015533D02*
X350471876Y-41158390D01*
X350471876Y-41158390D02*
X350129019Y-41729819D01*
X350129019Y-41729819D02*
X350500447Y-41729819D01*
X351014734Y-41063152D02*
X351014734Y-41729819D01*
X350871876Y-40682200D02*
X350729019Y-41396485D01*
X350729019Y-41396485D02*
X351100448Y-41396485D01*
%TO.C,ENC1*%
X338921875Y-37625000D02*
X338921875Y-34775000D01*
X338921875Y-42625000D02*
X338921875Y-39925000D01*
X338921875Y-47775000D02*
X338921875Y-44925000D01*
X342996875Y-34775000D02*
X338921875Y-34775000D01*
X342996875Y-47775000D02*
X338921875Y-47775000D01*
X352821875Y-34775000D02*
X348746875Y-34775000D01*
X352821875Y-37625000D02*
X352821875Y-34775000D01*
X352821875Y-40125000D02*
X352821875Y-39925000D01*
X352821875Y-42625000D02*
X352821875Y-42425000D01*
X352821875Y-47775000D02*
X348746875Y-47775000D01*
X352821875Y-47775000D02*
X352821875Y-44925000D01*
D11*
X354821875Y-43775000D02*
G75*
G02*
X354571875Y-43775000I-125000J0D01*
G01*
X354571875Y-43775000D02*
G75*
G02*
X354821875Y-43775000I125000J0D01*
G01*
%TD*%
%LPC*%
D12*
%TO.C,MX_F9*%
X207645000Y-41275000D03*
D13*
X212725000Y-41275000D03*
D12*
X217805000Y-41275000D03*
%TD*%
%TO.C,MX_I1*%
X198120000Y-79375000D03*
D13*
X203200000Y-79375000D03*
D12*
X208280000Y-79375000D03*
%TD*%
%TO.C,MX_]1*%
X274320000Y-79375000D03*
D13*
X279400000Y-79375000D03*
D12*
X284480000Y-79375000D03*
%TD*%
%TO.C,MX_Left1*%
X302895000Y-136525000D03*
D13*
X307975000Y-136525000D03*
D12*
X313055000Y-136525000D03*
%TD*%
%TO.C,MX_R1*%
X121920000Y-79375000D03*
D13*
X127000000Y-79375000D03*
D12*
X132080000Y-79375000D03*
%TD*%
%TO.C,MX_F4*%
X112395000Y-41306250D03*
D13*
X117475000Y-41306250D03*
D12*
X122555000Y-41306250D03*
%TD*%
%TO.C,MX_F12*%
X264795000Y-41275000D03*
D13*
X269875000Y-41275000D03*
D12*
X274955000Y-41275000D03*
%TD*%
%TO.C,MX_N1*%
X174307500Y-117475000D03*
D13*
X179387500Y-117475000D03*
D12*
X184467500Y-117475000D03*
%TD*%
%TO.C,MX_T1*%
X140970000Y-79375000D03*
D13*
X146050000Y-79375000D03*
D12*
X151130000Y-79375000D03*
%TD*%
%TO.C,MX_Del1*%
X321945000Y-79375000D03*
D13*
X327025000Y-79375000D03*
D12*
X332105000Y-79375000D03*
%TD*%
%TO.C,MX_LAlt1*%
X86201250Y-136525000D03*
D13*
X91281250Y-136525000D03*
D12*
X96361250Y-136525000D03*
%TD*%
%TO.C,MX_Ins1*%
X321945000Y-60325000D03*
D13*
X327025000Y-60325000D03*
D12*
X332105000Y-60325000D03*
%TD*%
%TO.C,MX_9*%
X207645000Y-60325000D03*
D13*
X212725000Y-60325000D03*
D12*
X217805000Y-60325000D03*
%TD*%
%TO.C,MX_Y1*%
X160020000Y-79375000D03*
D13*
X165100000Y-79375000D03*
D12*
X170180000Y-79375000D03*
%TD*%
%TO.C,MX_F13*%
X126682500Y-98425000D03*
D13*
X131762500Y-98425000D03*
D12*
X136842500Y-98425000D03*
%TD*%
%TO.C,MX_F6*%
X150495000Y-41275000D03*
D13*
X155575000Y-41275000D03*
D12*
X160655000Y-41275000D03*
%TD*%
D14*
%TO.C,MX_RShift1*%
X279368250Y-110490000D03*
D13*
X279368250Y-125730000D03*
D12*
X286226250Y-117475000D03*
D13*
X291306250Y-117475000D03*
D12*
X296386250Y-117475000D03*
D14*
X303244250Y-110490000D03*
D13*
X303244250Y-125730000D03*
%TD*%
D12*
%TO.C,MX_3*%
X93345000Y-60325000D03*
D13*
X98425000Y-60325000D03*
D12*
X103505000Y-60325000D03*
%TD*%
%TO.C,MX_Tilda1*%
X36195000Y-60356250D03*
D13*
X41275000Y-60356250D03*
D12*
X46355000Y-60356250D03*
%TD*%
%TO.C,MX_RCtrl1*%
X271938750Y-136525000D03*
D13*
X277018750Y-136525000D03*
D12*
X282098750Y-136525000D03*
%TD*%
%TO.C,MX_W1*%
X83820000Y-79375000D03*
D13*
X88900000Y-79375000D03*
D12*
X93980000Y-79375000D03*
%TD*%
%TO.C,MX_LCtrl1*%
X38576250Y-136525000D03*
D13*
X43656250Y-136525000D03*
D12*
X48736250Y-136525000D03*
%TD*%
%TO.C,MX_'1*%
X260032500Y-98425000D03*
D13*
X265112500Y-98425000D03*
D12*
X270192500Y-98425000D03*
%TD*%
%TO.C,MX_J1*%
X183832500Y-98425000D03*
D13*
X188912500Y-98425000D03*
D12*
X193992500Y-98425000D03*
%TD*%
D14*
%TO.C,MX_LShift1*%
X41243250Y-110490000D03*
D13*
X41243250Y-125730000D03*
D12*
X48101250Y-117475000D03*
D13*
X53181250Y-117475000D03*
D12*
X58261250Y-117475000D03*
D14*
X65119250Y-110490000D03*
D13*
X65119250Y-125730000D03*
%TD*%
D12*
%TO.C,MX_4*%
X112395000Y-60325000D03*
D13*
X117475000Y-60325000D03*
D12*
X122555000Y-60325000D03*
%TD*%
%TO.C,MX_[1*%
X255270000Y-79375000D03*
D13*
X260350000Y-79375000D03*
D12*
X265430000Y-79375000D03*
%TD*%
%TO.C,MX_.1*%
X231457500Y-117475000D03*
D13*
X236537500Y-117475000D03*
D12*
X241617500Y-117475000D03*
%TD*%
%TO.C,MX_Up1*%
X321945000Y-117475000D03*
D13*
X327025000Y-117475000D03*
D12*
X332105000Y-117475000D03*
%TD*%
%TO.C,MX_2*%
X74295000Y-60356250D03*
D13*
X79375000Y-60356250D03*
D12*
X84455000Y-60356250D03*
%TD*%
%TO.C,MX_Esc1*%
X36195000Y-41306250D03*
D13*
X41275000Y-41306250D03*
D12*
X46355000Y-41306250D03*
%TD*%
%TO.C,MX_X1*%
X98107500Y-117475000D03*
D13*
X103187500Y-117475000D03*
D12*
X108267500Y-117475000D03*
%TD*%
%TO.C,MX_Z1*%
X79057500Y-117475000D03*
D13*
X84137500Y-117475000D03*
D12*
X89217500Y-117475000D03*
%TD*%
%TO.C,MX_7*%
X169545000Y-60325000D03*
D13*
X174625000Y-60325000D03*
D12*
X179705000Y-60325000D03*
%TD*%
%TO.C,MX_End1*%
X340995000Y-79375000D03*
D13*
X346075000Y-79375000D03*
D12*
X351155000Y-79375000D03*
%TD*%
%TO.C,MX_B1*%
X155257500Y-117475000D03*
D13*
X160337500Y-117475000D03*
D12*
X165417500Y-117475000D03*
%TD*%
%TO.C,MX_D1*%
X107632500Y-98425000D03*
D13*
X112712500Y-98425000D03*
D12*
X117792500Y-98425000D03*
%TD*%
%TO.C,MX_F1*%
X55245000Y-41306250D03*
D13*
X60325000Y-41306250D03*
D12*
X65405000Y-41306250D03*
%TD*%
%TO.C,MX_V1*%
X136207500Y-117475000D03*
D13*
X141287500Y-117475000D03*
D12*
X146367500Y-117475000D03*
%TD*%
%TO.C,MX_5*%
X131445000Y-60325000D03*
D13*
X136525000Y-60325000D03*
D12*
X141605000Y-60325000D03*
%TD*%
%TO.C,MX_PtrSc1*%
X321945000Y-98425000D03*
D13*
X327025000Y-98425000D03*
D12*
X332105000Y-98425000D03*
%TD*%
%TO.C,MX_1*%
X55245000Y-60356250D03*
D13*
X60325000Y-60356250D03*
D12*
X65405000Y-60356250D03*
%TD*%
%TO.C,MX_PgDn1*%
X340995000Y-117475000D03*
D13*
X346075000Y-117475000D03*
D12*
X351155000Y-117475000D03*
%TD*%
%TO.C,MX_F8*%
X188595000Y-41306250D03*
D13*
X193675000Y-41306250D03*
D12*
X198755000Y-41306250D03*
%TD*%
D14*
%TO.C,MX_BckSpace1*%
X286512000Y-53340000D03*
D13*
X286512000Y-68580000D03*
D12*
X293370000Y-60325000D03*
D13*
X298450000Y-60325000D03*
D12*
X303530000Y-60325000D03*
D14*
X310388000Y-53340000D03*
D13*
X310388000Y-68580000D03*
%TD*%
D14*
%TO.C,MX_Space1*%
X112712500Y-129540000D03*
D13*
X112712500Y-144780000D03*
D12*
X155257500Y-136525000D03*
D13*
X160337500Y-136525000D03*
D12*
X165417500Y-136525000D03*
D14*
X207962500Y-129540000D03*
D13*
X207962500Y-144780000D03*
%TD*%
D12*
%TO.C,MX_H1*%
X164782500Y-98425000D03*
D13*
X169862500Y-98425000D03*
D12*
X174942500Y-98425000D03*
%TD*%
%TO.C,MX_Caps1*%
X43338750Y-98425000D03*
D13*
X48418750Y-98425000D03*
D12*
X53498750Y-98425000D03*
%TD*%
%TO.C,MX_6*%
X150495000Y-60325000D03*
D13*
X155575000Y-60325000D03*
D12*
X160655000Y-60325000D03*
%TD*%
%TO.C,MX_RAlt1*%
X224313750Y-136525000D03*
D13*
X229393750Y-136525000D03*
D12*
X234473750Y-136525000D03*
%TD*%
%TO.C,MX_LWin1*%
X62388750Y-136525000D03*
D13*
X67468750Y-136525000D03*
D12*
X72548750Y-136525000D03*
%TD*%
%TO.C,MX_C1*%
X117157500Y-117475000D03*
D13*
X122237500Y-117475000D03*
D12*
X127317500Y-117475000D03*
%TD*%
%TO.C,MX_F7*%
X169545000Y-41275000D03*
D13*
X174625000Y-41275000D03*
D12*
X179705000Y-41275000D03*
%TD*%
%TO.C,MX_F11*%
X245745000Y-41306250D03*
D13*
X250825000Y-41306250D03*
D12*
X255905000Y-41306250D03*
%TD*%
%TO.C,MX_M1*%
X193357500Y-117475000D03*
D13*
X198437500Y-117475000D03*
D12*
X203517500Y-117475000D03*
%TD*%
%TO.C,MX_Q1*%
X64770000Y-79375000D03*
D13*
X69850000Y-79375000D03*
D12*
X74930000Y-79375000D03*
%TD*%
%TO.C,MX_-1*%
X245745000Y-60325000D03*
D13*
X250825000Y-60325000D03*
D12*
X255905000Y-60325000D03*
%TD*%
%TO.C,MX_E1*%
X102870000Y-79375000D03*
D13*
X107950000Y-79375000D03*
D12*
X113030000Y-79375000D03*
%TD*%
%TO.C,MX_A1*%
X69532500Y-98425000D03*
D13*
X74612500Y-98425000D03*
D12*
X79692500Y-98425000D03*
%TD*%
%TO.C,MX_Tab1*%
X40957500Y-79375000D03*
D13*
X46037500Y-79375000D03*
D12*
X51117500Y-79375000D03*
%TD*%
%TO.C,MX_O1*%
X217170000Y-79375000D03*
D13*
X222250000Y-79375000D03*
D12*
X227330000Y-79375000D03*
%TD*%
%TO.C,MX_Right1*%
X340995000Y-136525000D03*
D13*
X346075000Y-136525000D03*
D12*
X351155000Y-136525000D03*
%TD*%
%TO.C,MX_U1*%
X179070000Y-79375000D03*
D13*
X184150000Y-79375000D03*
D12*
X189230000Y-79375000D03*
%TD*%
%TO.C,MX_\u005C1*%
X298132500Y-79375000D03*
D13*
X303212500Y-79375000D03*
D12*
X308292500Y-79375000D03*
%TD*%
%TO.C,MX_PgUp1*%
X340995000Y-98425000D03*
D13*
X346075000Y-98425000D03*
D12*
X351155000Y-98425000D03*
%TD*%
%TO.C,MX_F3*%
X93345000Y-41306250D03*
D13*
X98425000Y-41306250D03*
D12*
X103505000Y-41306250D03*
%TD*%
%TO.C,MX_;1*%
X240982500Y-98425000D03*
D13*
X246062500Y-98425000D03*
D12*
X251142500Y-98425000D03*
%TD*%
%TO.C,MX_P1*%
X236220000Y-79375000D03*
D13*
X241300000Y-79375000D03*
D12*
X246380000Y-79375000D03*
%TD*%
%TO.C,MX_Down1*%
X321945000Y-136525000D03*
D13*
X327025000Y-136525000D03*
D12*
X332105000Y-136525000D03*
%TD*%
%TO.C,MX_F5*%
X131445000Y-41275000D03*
D13*
X136525000Y-41275000D03*
D12*
X141605000Y-41275000D03*
%TD*%
D14*
%TO.C,MX_Enter1*%
X284130750Y-91440000D03*
D13*
X284130750Y-106680000D03*
D12*
X290988750Y-98425000D03*
D13*
X296068750Y-98425000D03*
D12*
X301148750Y-98425000D03*
D14*
X308006750Y-91440000D03*
D13*
X308006750Y-106680000D03*
%TD*%
D12*
%TO.C,MX_\u002C1*%
X212407500Y-117475000D03*
D13*
X217487500Y-117475000D03*
D12*
X222567500Y-117475000D03*
%TD*%
%TO.C,MX_G1*%
X145732500Y-98425000D03*
D13*
X150812500Y-98425000D03*
D12*
X155892500Y-98425000D03*
%TD*%
%TO.C,MX_F2*%
X74295000Y-41306250D03*
D13*
X79375000Y-41306250D03*
D12*
X84455000Y-41306250D03*
%TD*%
%TO.C,MX_=1*%
X264795000Y-60325000D03*
D13*
X269875000Y-60325000D03*
D12*
X274955000Y-60325000D03*
%TD*%
%TO.C,MX_0*%
X226695000Y-60325000D03*
D13*
X231775000Y-60325000D03*
D12*
X236855000Y-60325000D03*
%TD*%
%TO.C,MX_S1*%
X88582500Y-98425000D03*
D13*
X93662500Y-98425000D03*
D12*
X98742500Y-98425000D03*
%TD*%
%TO.C,MX_RWin1*%
X248126250Y-136525000D03*
D13*
X253206250Y-136525000D03*
D12*
X258286250Y-136525000D03*
%TD*%
%TO.C,MX_8*%
X188595000Y-60325000D03*
D13*
X193675000Y-60325000D03*
D12*
X198755000Y-60325000D03*
%TD*%
%TO.C,MX_K1*%
X202882500Y-98425000D03*
D13*
X207962500Y-98425000D03*
D12*
X213042500Y-98425000D03*
%TD*%
%TO.C,MX_L1*%
X221932500Y-98425000D03*
D13*
X227012500Y-98425000D03*
D12*
X232092500Y-98425000D03*
%TD*%
%TO.C,MX_F10*%
X226695000Y-41275000D03*
D13*
X231775000Y-41275000D03*
D12*
X236855000Y-41275000D03*
%TD*%
%TO.C,MX_Home1*%
X340995000Y-60325000D03*
D13*
X346075000Y-60325000D03*
D12*
X351155000Y-60325000D03*
%TD*%
%TO.C,MX_/1*%
X250507500Y-117475000D03*
D13*
X255587500Y-117475000D03*
D12*
X260667500Y-117475000D03*
%TD*%
D15*
%TO.C,J3*%
X47529000Y-36560000D03*
X53309000Y-36560000D03*
D16*
X46099000Y-32880000D03*
D17*
X46099000Y-37080000D03*
D16*
X54739000Y-32880000D03*
D17*
X54739000Y-37080000D03*
%TD*%
%LPD*%
M02*
